%TF.GenerationSoftware,KiCad,Pcbnew,7.0.10*%
%TF.CreationDate,2024-03-19T17:49:45+02:00*%
%TF.ProjectId,Sulari_170V,53756c61-7269-45f3-9137-30562e6b6963,rev?*%
%TF.SameCoordinates,PX5473df8PY77adf08*%
%TF.FileFunction,Legend,Bot*%
%TF.FilePolarity,Positive*%
%FSLAX46Y46*%
G04 Gerber Fmt 4.6, Leading zero omitted, Abs format (unit mm)*
G04 Created by KiCad (PCBNEW 7.0.10) date 2024-03-19 17:49:45*
%MOMM*%
%LPD*%
G01*
G04 APERTURE LIST*
%ADD10C,0.300000*%
%ADD11C,0.150000*%
%ADD12C,0.120000*%
G04 APERTURE END LIST*
D10*
X68053346Y45942172D02*
X67696203Y44442172D01*
X67696203Y44442172D02*
X67410489Y45513600D01*
X67410489Y45513600D02*
X67124774Y44442172D01*
X67124774Y44442172D02*
X66767632Y45942172D01*
X65553346Y44442172D02*
X65553346Y45227886D01*
X65553346Y45227886D02*
X65624774Y45370743D01*
X65624774Y45370743D02*
X65767631Y45442172D01*
X65767631Y45442172D02*
X66053346Y45442172D01*
X66053346Y45442172D02*
X66196203Y45370743D01*
X65553346Y44513600D02*
X65696203Y44442172D01*
X65696203Y44442172D02*
X66053346Y44442172D01*
X66053346Y44442172D02*
X66196203Y44513600D01*
X66196203Y44513600D02*
X66267631Y44656458D01*
X66267631Y44656458D02*
X66267631Y44799315D01*
X66267631Y44799315D02*
X66196203Y44942172D01*
X66196203Y44942172D02*
X66053346Y45013600D01*
X66053346Y45013600D02*
X65696203Y45013600D01*
X65696203Y45013600D02*
X65553346Y45085029D01*
X64981917Y45442172D02*
X64624774Y44442172D01*
X64267631Y45442172D02*
X64624774Y44442172D01*
X64624774Y44442172D02*
X64767631Y44085029D01*
X64767631Y44085029D02*
X64839060Y44013600D01*
X64839060Y44013600D02*
X64981917Y43942172D01*
X63839060Y45942172D02*
X63481917Y44442172D01*
X63481917Y44442172D02*
X63196203Y45513600D01*
X63196203Y45513600D02*
X62910488Y44442172D01*
X62910488Y44442172D02*
X62553346Y45942172D01*
X61339060Y44442172D02*
X61339060Y45227886D01*
X61339060Y45227886D02*
X61410488Y45370743D01*
X61410488Y45370743D02*
X61553345Y45442172D01*
X61553345Y45442172D02*
X61839060Y45442172D01*
X61839060Y45442172D02*
X61981917Y45370743D01*
X61339060Y44513600D02*
X61481917Y44442172D01*
X61481917Y44442172D02*
X61839060Y44442172D01*
X61839060Y44442172D02*
X61981917Y44513600D01*
X61981917Y44513600D02*
X62053345Y44656458D01*
X62053345Y44656458D02*
X62053345Y44799315D01*
X62053345Y44799315D02*
X61981917Y44942172D01*
X61981917Y44942172D02*
X61839060Y45013600D01*
X61839060Y45013600D02*
X61481917Y45013600D01*
X61481917Y45013600D02*
X61339060Y45085029D01*
X60767631Y45442172D02*
X60410488Y44442172D01*
X60053345Y45442172D02*
X60410488Y44442172D01*
X60410488Y44442172D02*
X60553345Y44085029D01*
X60553345Y44085029D02*
X60624774Y44013600D01*
X60624774Y44013600D02*
X60767631Y43942172D01*
X59624774Y45942172D02*
X59267631Y44442172D01*
X59267631Y44442172D02*
X58981917Y45513600D01*
X58981917Y45513600D02*
X58696202Y44442172D01*
X58696202Y44442172D02*
X58339060Y45942172D01*
X57124774Y44442172D02*
X57124774Y45227886D01*
X57124774Y45227886D02*
X57196202Y45370743D01*
X57196202Y45370743D02*
X57339059Y45442172D01*
X57339059Y45442172D02*
X57624774Y45442172D01*
X57624774Y45442172D02*
X57767631Y45370743D01*
X57124774Y44513600D02*
X57267631Y44442172D01*
X57267631Y44442172D02*
X57624774Y44442172D01*
X57624774Y44442172D02*
X57767631Y44513600D01*
X57767631Y44513600D02*
X57839059Y44656458D01*
X57839059Y44656458D02*
X57839059Y44799315D01*
X57839059Y44799315D02*
X57767631Y44942172D01*
X57767631Y44942172D02*
X57624774Y45013600D01*
X57624774Y45013600D02*
X57267631Y45013600D01*
X57267631Y45013600D02*
X57124774Y45085029D01*
X56553345Y45442172D02*
X56196202Y44442172D01*
X55839059Y45442172D02*
X56196202Y44442172D01*
X56196202Y44442172D02*
X56339059Y44085029D01*
X56339059Y44085029D02*
X56410488Y44013600D01*
X56410488Y44013600D02*
X56553345Y43942172D01*
D11*
X3333333Y22634181D02*
X3333333Y21919896D01*
X3333333Y21919896D02*
X3380952Y21777039D01*
X3380952Y21777039D02*
X3476190Y21681800D01*
X3476190Y21681800D02*
X3619047Y21634181D01*
X3619047Y21634181D02*
X3714285Y21634181D01*
X2428571Y22634181D02*
X2619047Y22634181D01*
X2619047Y22634181D02*
X2714285Y22586562D01*
X2714285Y22586562D02*
X2761904Y22538943D01*
X2761904Y22538943D02*
X2857142Y22396086D01*
X2857142Y22396086D02*
X2904761Y22205610D01*
X2904761Y22205610D02*
X2904761Y21824658D01*
X2904761Y21824658D02*
X2857142Y21729420D01*
X2857142Y21729420D02*
X2809523Y21681800D01*
X2809523Y21681800D02*
X2714285Y21634181D01*
X2714285Y21634181D02*
X2523809Y21634181D01*
X2523809Y21634181D02*
X2428571Y21681800D01*
X2428571Y21681800D02*
X2380952Y21729420D01*
X2380952Y21729420D02*
X2333333Y21824658D01*
X2333333Y21824658D02*
X2333333Y22062753D01*
X2333333Y22062753D02*
X2380952Y22157991D01*
X2380952Y22157991D02*
X2428571Y22205610D01*
X2428571Y22205610D02*
X2523809Y22253229D01*
X2523809Y22253229D02*
X2714285Y22253229D01*
X2714285Y22253229D02*
X2809523Y22205610D01*
X2809523Y22205610D02*
X2857142Y22157991D01*
X2857142Y22157991D02*
X2904761Y22062753D01*
X61346333Y19967181D02*
X61346333Y19252896D01*
X61346333Y19252896D02*
X61393952Y19110039D01*
X61393952Y19110039D02*
X61489190Y19014800D01*
X61489190Y19014800D02*
X61632047Y18967181D01*
X61632047Y18967181D02*
X61727285Y18967181D01*
X60727285Y19538610D02*
X60822523Y19586229D01*
X60822523Y19586229D02*
X60870142Y19633848D01*
X60870142Y19633848D02*
X60917761Y19729086D01*
X60917761Y19729086D02*
X60917761Y19776705D01*
X60917761Y19776705D02*
X60870142Y19871943D01*
X60870142Y19871943D02*
X60822523Y19919562D01*
X60822523Y19919562D02*
X60727285Y19967181D01*
X60727285Y19967181D02*
X60536809Y19967181D01*
X60536809Y19967181D02*
X60441571Y19919562D01*
X60441571Y19919562D02*
X60393952Y19871943D01*
X60393952Y19871943D02*
X60346333Y19776705D01*
X60346333Y19776705D02*
X60346333Y19729086D01*
X60346333Y19729086D02*
X60393952Y19633848D01*
X60393952Y19633848D02*
X60441571Y19586229D01*
X60441571Y19586229D02*
X60536809Y19538610D01*
X60536809Y19538610D02*
X60727285Y19538610D01*
X60727285Y19538610D02*
X60822523Y19490991D01*
X60822523Y19490991D02*
X60870142Y19443372D01*
X60870142Y19443372D02*
X60917761Y19348134D01*
X60917761Y19348134D02*
X60917761Y19157658D01*
X60917761Y19157658D02*
X60870142Y19062420D01*
X60870142Y19062420D02*
X60822523Y19014800D01*
X60822523Y19014800D02*
X60727285Y18967181D01*
X60727285Y18967181D02*
X60536809Y18967181D01*
X60536809Y18967181D02*
X60441571Y19014800D01*
X60441571Y19014800D02*
X60393952Y19062420D01*
X60393952Y19062420D02*
X60346333Y19157658D01*
X60346333Y19157658D02*
X60346333Y19348134D01*
X60346333Y19348134D02*
X60393952Y19443372D01*
X60393952Y19443372D02*
X60441571Y19490991D01*
X60441571Y19490991D02*
X60536809Y19538610D01*
X122333333Y18951181D02*
X122333333Y18236896D01*
X122333333Y18236896D02*
X122380952Y18094039D01*
X122380952Y18094039D02*
X122476190Y17998800D01*
X122476190Y17998800D02*
X122619047Y17951181D01*
X122619047Y17951181D02*
X122714285Y17951181D01*
X121952380Y18951181D02*
X121285714Y18951181D01*
X121285714Y18951181D02*
X121714285Y17951181D01*
D12*
%TO.C,J6*%
X1670000Y31385000D02*
X4330000Y31385000D01*
X1670000Y26245000D02*
X1670000Y31385000D01*
X1670000Y26245000D02*
X4330000Y26245000D01*
X1670000Y24975000D02*
X1670000Y23645000D01*
X1670000Y23645000D02*
X3000000Y23645000D01*
X4330000Y26245000D02*
X4330000Y31385000D01*
%TO.C,J8*%
X62330000Y21130000D02*
X59670000Y21130000D01*
X62330000Y23730000D02*
X62330000Y21130000D01*
X62330000Y23730000D02*
X59670000Y23730000D01*
X62330000Y25000000D02*
X62330000Y26330000D01*
X62330000Y26330000D02*
X61000000Y26330000D01*
X59670000Y23730000D02*
X59670000Y21130000D01*
%TO.C,J7*%
X120670000Y35205000D02*
X123330000Y35205000D01*
X120670000Y22445000D02*
X120670000Y35205000D01*
X120670000Y22445000D02*
X123330000Y22445000D01*
X120670000Y21175000D02*
X120670000Y19845000D01*
X120670000Y19845000D02*
X122000000Y19845000D01*
X123330000Y22445000D02*
X123330000Y35205000D01*
%TD*%
M02*
