%TF.GenerationSoftware,KiCad,Pcbnew,7.0.10*%
%TF.CreationDate,2024-03-19T17:49:45+02:00*%
%TF.ProjectId,Sulari_170V,53756c61-7269-45f3-9137-30562e6b6963,rev?*%
%TF.SameCoordinates,PX5473df8PY77adf08*%
%TF.FileFunction,Soldermask,Top*%
%TF.FilePolarity,Negative*%
%FSLAX46Y46*%
G04 Gerber Fmt 4.6, Leading zero omitted, Abs format (unit mm)*
G04 Created by KiCad (PCBNEW 7.0.10) date 2024-03-19 17:49:45*
%MOMM*%
%LPD*%
G01*
G04 APERTURE LIST*
G04 Aperture macros list*
%AMRoundRect*
0 Rectangle with rounded corners*
0 $1 Rounding radius*
0 $2 $3 $4 $5 $6 $7 $8 $9 X,Y pos of 4 corners*
0 Add a 4 corners polygon primitive as box body*
4,1,4,$2,$3,$4,$5,$6,$7,$8,$9,$2,$3,0*
0 Add four circle primitives for the rounded corners*
1,1,$1+$1,$2,$3*
1,1,$1+$1,$4,$5*
1,1,$1+$1,$6,$7*
1,1,$1+$1,$8,$9*
0 Add four rect primitives between the rounded corners*
20,1,$1+$1,$2,$3,$4,$5,0*
20,1,$1+$1,$4,$5,$6,$7,0*
20,1,$1+$1,$6,$7,$8,$9,0*
20,1,$1+$1,$8,$9,$2,$3,0*%
G04 Aperture macros list end*
%ADD10RoundRect,0.250000X-0.625000X0.400000X-0.625000X-0.400000X0.625000X-0.400000X0.625000X0.400000X0*%
%ADD11C,2.100000*%
%ADD12RoundRect,0.237500X0.237500X-0.300000X0.237500X0.300000X-0.237500X0.300000X-0.237500X-0.300000X0*%
%ADD13RoundRect,0.150000X0.150000X-0.825000X0.150000X0.825000X-0.150000X0.825000X-0.150000X-0.825000X0*%
%ADD14RoundRect,0.150000X-0.875000X-0.150000X0.875000X-0.150000X0.875000X0.150000X-0.875000X0.150000X0*%
%ADD15RoundRect,0.250000X-0.350000X-0.450000X0.350000X-0.450000X0.350000X0.450000X-0.350000X0.450000X0*%
%ADD16RoundRect,0.250000X-0.450000X0.350000X-0.450000X-0.350000X0.450000X-0.350000X0.450000X0.350000X0*%
%ADD17RoundRect,0.250000X0.450000X-0.350000X0.450000X0.350000X-0.450000X0.350000X-0.450000X-0.350000X0*%
%ADD18RoundRect,0.237500X0.300000X0.237500X-0.300000X0.237500X-0.300000X-0.237500X0.300000X-0.237500X0*%
%ADD19R,1.700000X1.700000*%
%ADD20O,1.700000X1.700000*%
G04 APERTURE END LIST*
D10*
%TO.C,R15*%
X79053000Y47180000D03*
X79053000Y44080000D03*
%TD*%
D11*
%TO.C,N3*%
X84102700Y36015360D03*
X73917300Y36015360D03*
X72865740Y33244220D03*
X73223880Y30305440D03*
X74905360Y27867040D03*
X77529180Y26490360D03*
X80490820Y26490360D03*
X83114640Y27867040D03*
X84796120Y30305440D03*
X85154260Y33244220D03*
X79010000Y38687440D03*
X76134720Y37978780D03*
X81885280Y37978780D03*
%TD*%
D12*
%TO.C,C18*%
X45091000Y17628000D03*
X45091000Y19353000D03*
%TD*%
D13*
%TO.C,U9*%
X110035000Y42728000D03*
X111305000Y42728000D03*
X112575000Y42728000D03*
X113845000Y42728000D03*
X115115000Y42728000D03*
X116385000Y42728000D03*
X117655000Y42728000D03*
X117655000Y47678000D03*
X116385000Y47678000D03*
X115115000Y47678000D03*
X113845000Y47678000D03*
X112575000Y47678000D03*
X111305000Y47678000D03*
X110035000Y47678000D03*
%TD*%
D12*
%TO.C,C19*%
X64188000Y17648000D03*
X64188000Y19373000D03*
%TD*%
%TO.C,C21*%
X101098000Y17628000D03*
X101098000Y19353000D03*
%TD*%
D14*
%TO.C,U3*%
X11071000Y18903000D03*
X11071000Y17633000D03*
X11071000Y16363000D03*
X11071000Y15093000D03*
X11071000Y13823000D03*
X11071000Y12553000D03*
X11071000Y11283000D03*
X11071000Y10013000D03*
X11071000Y8743000D03*
X11071000Y7473000D03*
X20371000Y7473000D03*
X20371000Y8743000D03*
X20371000Y10013000D03*
X20371000Y11283000D03*
X20371000Y12553000D03*
X20371000Y13823000D03*
X20371000Y15093000D03*
X20371000Y16363000D03*
X20371000Y17633000D03*
X20371000Y18903000D03*
%TD*%
D15*
%TO.C,R25*%
X103955000Y43171000D03*
X105955000Y43171000D03*
%TD*%
D12*
%TO.C,C20*%
X83628000Y17635000D03*
X83628000Y19360000D03*
%TD*%
D16*
%TO.C,R21*%
X55933000Y40996000D03*
X55933000Y38996000D03*
%TD*%
D14*
%TO.C,U7*%
X86248000Y18903000D03*
X86248000Y17633000D03*
X86248000Y16363000D03*
X86248000Y15093000D03*
X86248000Y13823000D03*
X86248000Y12553000D03*
X86248000Y11283000D03*
X86248000Y10013000D03*
X86248000Y8743000D03*
X86248000Y7473000D03*
X95548000Y7473000D03*
X95548000Y8743000D03*
X95548000Y10013000D03*
X95548000Y11283000D03*
X95548000Y12553000D03*
X95548000Y13823000D03*
X95548000Y15093000D03*
X95548000Y16363000D03*
X95548000Y17633000D03*
X95548000Y18903000D03*
%TD*%
D17*
%TO.C,R24*%
X92763000Y38996000D03*
X92763000Y40996000D03*
%TD*%
D18*
%TO.C,C22*%
X110008500Y50791000D03*
X108283500Y50791000D03*
%TD*%
D14*
%TO.C,U5*%
X47801000Y18903000D03*
X47801000Y17633000D03*
X47801000Y16363000D03*
X47801000Y15093000D03*
X47801000Y13823000D03*
X47801000Y12553000D03*
X47801000Y11283000D03*
X47801000Y10013000D03*
X47801000Y8743000D03*
X47801000Y7473000D03*
X57101000Y7473000D03*
X57101000Y8743000D03*
X57101000Y10013000D03*
X57101000Y11283000D03*
X57101000Y12553000D03*
X57101000Y13823000D03*
X57101000Y15093000D03*
X57101000Y16363000D03*
X57101000Y17633000D03*
X57101000Y18903000D03*
%TD*%
D17*
%TO.C,R20*%
X36248000Y38996000D03*
X36248000Y40996000D03*
%TD*%
D12*
%TO.C,C17*%
X27621000Y17635000D03*
X27621000Y19360000D03*
%TD*%
D16*
%TO.C,R23*%
X88318000Y40996000D03*
X88318000Y38996000D03*
%TD*%
D14*
%TO.C,U4*%
X30241000Y18903000D03*
X30241000Y17633000D03*
X30241000Y16363000D03*
X30241000Y15093000D03*
X30241000Y13823000D03*
X30241000Y12553000D03*
X30241000Y11283000D03*
X30241000Y10013000D03*
X30241000Y8743000D03*
X30241000Y7473000D03*
X39541000Y7473000D03*
X39541000Y8743000D03*
X39541000Y10013000D03*
X39541000Y11283000D03*
X39541000Y12553000D03*
X39541000Y13823000D03*
X39541000Y15093000D03*
X39541000Y16363000D03*
X39541000Y17633000D03*
X39541000Y18903000D03*
%TD*%
D10*
%TO.C,R13*%
X23033000Y47180000D03*
X23033000Y44080000D03*
%TD*%
D11*
%TO.C,N2*%
X51082700Y36015360D03*
X40897300Y36015360D03*
X39845740Y33244220D03*
X40203880Y30305440D03*
X41885360Y27867040D03*
X44509180Y26490360D03*
X47470820Y26490360D03*
X50094640Y27867040D03*
X51776120Y30305440D03*
X52134260Y33244220D03*
X45990000Y38687440D03*
X43114720Y37978780D03*
X48865280Y37978780D03*
%TD*%
D12*
%TO.C,C16*%
X8181000Y17648000D03*
X8181000Y19373000D03*
%TD*%
D14*
%TO.C,U6*%
X67078000Y18903000D03*
X67078000Y17633000D03*
X67078000Y16363000D03*
X67078000Y15093000D03*
X67078000Y13823000D03*
X67078000Y12553000D03*
X67078000Y11283000D03*
X67078000Y10013000D03*
X67078000Y8743000D03*
X67078000Y7473000D03*
X76378000Y7473000D03*
X76378000Y8743000D03*
X76378000Y10013000D03*
X76378000Y11283000D03*
X76378000Y12553000D03*
X76378000Y13823000D03*
X76378000Y15093000D03*
X76378000Y16363000D03*
X76378000Y17633000D03*
X76378000Y18903000D03*
%TD*%
D16*
%TO.C,R19*%
X32438000Y40996000D03*
X32438000Y38996000D03*
%TD*%
D17*
%TO.C,R22*%
X69268000Y38996000D03*
X69268000Y40996000D03*
%TD*%
D11*
%TO.C,N4*%
X107089700Y36015360D03*
X96904300Y36015360D03*
X95852740Y33244220D03*
X96210880Y30305440D03*
X97892360Y27867040D03*
X100516180Y26490360D03*
X103477820Y26490360D03*
X106101640Y27867040D03*
X107783120Y30305440D03*
X108141260Y33244220D03*
X101997000Y38687440D03*
X99121720Y37978780D03*
X104872280Y37978780D03*
%TD*%
D10*
%TO.C,R17*%
X121719000Y5960000D03*
X121719000Y2860000D03*
%TD*%
%TO.C,R14*%
X45993000Y47180000D03*
X45993000Y44080000D03*
%TD*%
D14*
%TO.C,U8*%
X103808000Y18903000D03*
X103808000Y17633000D03*
X103808000Y16363000D03*
X103808000Y15093000D03*
X103808000Y13823000D03*
X103808000Y12553000D03*
X103808000Y11283000D03*
X103808000Y10013000D03*
X103808000Y8743000D03*
X103808000Y7473000D03*
X113108000Y7473000D03*
X113108000Y8743000D03*
X113108000Y10013000D03*
X113108000Y11283000D03*
X113108000Y12553000D03*
X113108000Y13823000D03*
X113108000Y15093000D03*
X113108000Y16363000D03*
X113108000Y17633000D03*
X113108000Y18903000D03*
%TD*%
D11*
%TO.C,N1*%
X28095700Y36015360D03*
X17910300Y36015360D03*
X16858740Y33244220D03*
X17216880Y30305440D03*
X18898360Y27867040D03*
X21522180Y26490360D03*
X24483820Y26490360D03*
X27107640Y27867040D03*
X28789120Y30305440D03*
X29147260Y33244220D03*
X23003000Y38687440D03*
X20127720Y37978780D03*
X25878280Y37978780D03*
%TD*%
D10*
%TO.C,R16*%
X99367000Y47180000D03*
X99367000Y44080000D03*
%TD*%
D17*
%TO.C,R18*%
X13388000Y38996000D03*
X13388000Y40996000D03*
%TD*%
D19*
%TO.C,J6*%
X3000000Y24975000D03*
D20*
X3000000Y27515000D03*
X3000000Y30055000D03*
%TD*%
D19*
%TO.C,J8*%
X61000000Y25000000D03*
D20*
X61000000Y22460000D03*
%TD*%
D19*
%TO.C,J7*%
X122000000Y21175000D03*
D20*
X122000000Y23715000D03*
X122000000Y26255000D03*
X122000000Y28795000D03*
X122000000Y31335000D03*
X122000000Y33875000D03*
%TD*%
M02*
