M48
; DRILL file {KiCad 7.0.10} date Tue Mar 19 17:49:41 2024
; FORMAT={-:-/ absolute / metric / decimal}
; #@! TF.CreationDate,2024-03-19T17:49:41+02:00
; #@! TF.GenerationSoftware,Kicad,Pcbnew,7.0.10
; #@! TF.FileFunction,Plated,1,2,PTH
FMAT,2
METRIC
; #@! TA.AperFunction,Plated,PTH,ViaDrill
T1C0.400
; #@! TA.AperFunction,Plated,PTH,ComponentDrill
T2C1.000
; #@! TA.AperFunction,Plated,PTH,ComponentDrill
T3C1.440
%
G90
G05
T1
X4.244Y7.992
X4.244Y4.69
X6.403Y7.484
X6.403Y4.69
X6.696Y19.373
X8.181Y20.978
X8.689Y7.484
X8.689Y4.69
X10.711Y20.388
X13.161Y7.458
X14.871Y7.458
X14.912Y2.912
X16.563Y3.801
X16.581Y7.458
X18.291Y7.458
X20.361Y20.378
X22.659Y18.903
X22.659Y17.633
X22.659Y16.12
X25.834Y7.611
X25.834Y2.023
X26.043Y19.36
X27.611Y20.938
X27.612Y7.611
X27.612Y4.69
X27.993Y16.12
X30.231Y20.478
X32.151Y7.488
X33.962Y2.912
X33.982Y7.484
X35.814Y7.484
X35.867Y3.801
X37.645Y7.484
X39.531Y20.378
X41.963Y18.903
X41.963Y17.633
X41.963Y16.12
X43.741Y7.484
X43.741Y2.023
X43.801Y19.328
X45.081Y20.692
X45.392Y7.484
X45.392Y4.69
X45.519Y16.12
X47.081Y20.628
X49.583Y7.478
X51.488Y2.912
X51.502Y7.484
X53.393Y3.801
X53.422Y7.484
X55.341Y7.478
X57.091Y20.378
X59.489Y18.914
X59.489Y17.644
X59.489Y16.12
X62.41Y7.484
X62.41Y2.023
X62.537Y19.378
X64.188Y7.484
X64.188Y4.69
X64.191Y20.818
X64.569Y16.12
X66.321Y20.448
X69.141Y7.484
X70.792Y2.912
X70.834Y7.484
X72.528Y7.484
X72.57Y3.801
X74.221Y7.484
X76.371Y20.438
X78.793Y18.914
X78.793Y17.648
X78.793Y16.12
X81.587Y7.484
X81.587Y2.023
X82.091Y19.378
X83.365Y7.484
X83.365Y4.69
X83.631Y20.898
X83.873Y16.12
X86.211Y20.548
X88.191Y7.484
X89.969Y7.484
X89.969Y2.912
X91.747Y7.484
X91.747Y3.801
X93.525Y7.484
X95.561Y20.608
X97.843Y18.914
X97.843Y17.644
X97.843Y16.12
X99.711Y19.368
X99.875Y7.484
X99.875Y2.023
X101.101Y20.838
X101.399Y7.484
X101.399Y4.69
X101.653Y16.12
X103.131Y20.438
X105.717Y7.473
X106.352Y50.791
X107.495Y7.484
X107.495Y2.785
X108.257Y49.013
X108.283Y52.542
X109.273Y7.484
X109.273Y3.801
X111.051Y7.484
X113.111Y20.398
X115.101Y17.628
X115.111Y18.918
X115.115Y10.024
X116.385Y7.738
X116.385Y1.134
X117.655Y40.504
X118.671Y10.024
X118.925Y7.738
X118.925Y4.69
T2
X3.0Y30.055
X3.0Y27.515
X3.0Y24.975
X61.0Y25.0
X61.0Y22.46
X122.0Y33.875
X122.0Y31.335
X122.0Y28.795
X122.0Y26.255
X122.0Y23.715
X122.0Y21.175
T3
X16.859Y33.244
X17.217Y30.305
X17.91Y36.015
X18.898Y27.867
X20.128Y37.979
X21.522Y26.49
X23.003Y38.687
X24.484Y26.49
X25.878Y37.979
X27.108Y27.867
X28.096Y36.015
X28.789Y30.305
X29.147Y33.244
X39.846Y33.244
X40.204Y30.305
X40.897Y36.015
X41.885Y27.867
X43.115Y37.979
X44.509Y26.49
X45.99Y38.687
X47.471Y26.49
X48.865Y37.979
X50.095Y27.867
X51.083Y36.015
X51.776Y30.305
X52.134Y33.244
X72.866Y33.244
X73.224Y30.305
X73.917Y36.015
X74.905Y27.867
X76.135Y37.979
X77.529Y26.49
X79.01Y38.687
X80.491Y26.49
X81.885Y37.979
X83.115Y27.867
X84.103Y36.015
X84.796Y30.305
X85.154Y33.244
X95.853Y33.244
X96.211Y30.305
X96.904Y36.015
X97.892Y27.867
X99.122Y37.979
X100.516Y26.49
X101.997Y38.687
X103.478Y26.49
X104.872Y37.979
X106.102Y27.867
X107.09Y36.015
X107.783Y30.305
X108.141Y33.244
M30
