%TF.GenerationSoftware,KiCad,Pcbnew,7.0.10*%
%TF.CreationDate,2024-03-19T17:49:45+02:00*%
%TF.ProjectId,Sulari_170V,53756c61-7269-45f3-9137-30562e6b6963,rev?*%
%TF.SameCoordinates,PX5473df8PY77adf08*%
%TF.FileFunction,Soldermask,Bot*%
%TF.FilePolarity,Negative*%
%FSLAX46Y46*%
G04 Gerber Fmt 4.6, Leading zero omitted, Abs format (unit mm)*
G04 Created by KiCad (PCBNEW 7.0.10) date 2024-03-19 17:49:45*
%MOMM*%
%LPD*%
G01*
G04 APERTURE LIST*
%ADD10C,2.100000*%
%ADD11R,1.700000X1.700000*%
%ADD12O,1.700000X1.700000*%
G04 APERTURE END LIST*
D10*
%TO.C,N3*%
X84102700Y36015360D03*
X73917300Y36015360D03*
X72865740Y33244220D03*
X73223880Y30305440D03*
X74905360Y27867040D03*
X77529180Y26490360D03*
X80490820Y26490360D03*
X83114640Y27867040D03*
X84796120Y30305440D03*
X85154260Y33244220D03*
X79010000Y38687440D03*
X76134720Y37978780D03*
X81885280Y37978780D03*
%TD*%
%TO.C,N2*%
X51082700Y36015360D03*
X40897300Y36015360D03*
X39845740Y33244220D03*
X40203880Y30305440D03*
X41885360Y27867040D03*
X44509180Y26490360D03*
X47470820Y26490360D03*
X50094640Y27867040D03*
X51776120Y30305440D03*
X52134260Y33244220D03*
X45990000Y38687440D03*
X43114720Y37978780D03*
X48865280Y37978780D03*
%TD*%
%TO.C,N4*%
X107089700Y36015360D03*
X96904300Y36015360D03*
X95852740Y33244220D03*
X96210880Y30305440D03*
X97892360Y27867040D03*
X100516180Y26490360D03*
X103477820Y26490360D03*
X106101640Y27867040D03*
X107783120Y30305440D03*
X108141260Y33244220D03*
X101997000Y38687440D03*
X99121720Y37978780D03*
X104872280Y37978780D03*
%TD*%
%TO.C,N1*%
X28095700Y36015360D03*
X17910300Y36015360D03*
X16858740Y33244220D03*
X17216880Y30305440D03*
X18898360Y27867040D03*
X21522180Y26490360D03*
X24483820Y26490360D03*
X27107640Y27867040D03*
X28789120Y30305440D03*
X29147260Y33244220D03*
X23003000Y38687440D03*
X20127720Y37978780D03*
X25878280Y37978780D03*
%TD*%
D11*
%TO.C,J6*%
X3000000Y24975000D03*
D12*
X3000000Y27515000D03*
X3000000Y30055000D03*
%TD*%
D11*
%TO.C,J8*%
X61000000Y25000000D03*
D12*
X61000000Y22460000D03*
%TD*%
D11*
%TO.C,J7*%
X122000000Y21175000D03*
D12*
X122000000Y23715000D03*
X122000000Y26255000D03*
X122000000Y28795000D03*
X122000000Y31335000D03*
X122000000Y33875000D03*
%TD*%
M02*
