%TF.GenerationSoftware,KiCad,Pcbnew,7.0.10*%
%TF.CreationDate,2024-03-19T17:49:45+02:00*%
%TF.ProjectId,Sulari_170V,53756c61-7269-45f3-9137-30562e6b6963,rev?*%
%TF.SameCoordinates,PX5473df8PY77adf08*%
%TF.FileFunction,Copper,L2,Bot*%
%TF.FilePolarity,Positive*%
%FSLAX46Y46*%
G04 Gerber Fmt 4.6, Leading zero omitted, Abs format (unit mm)*
G04 Created by KiCad (PCBNEW 7.0.10) date 2024-03-19 17:49:45*
%MOMM*%
%LPD*%
G01*
G04 APERTURE LIST*
%TA.AperFunction,ComponentPad*%
%ADD10C,2.100000*%
%TD*%
%TA.AperFunction,ComponentPad*%
%ADD11R,1.700000X1.700000*%
%TD*%
%TA.AperFunction,ComponentPad*%
%ADD12O,1.700000X1.700000*%
%TD*%
%TA.AperFunction,ViaPad*%
%ADD13C,0.800000*%
%TD*%
%TA.AperFunction,Conductor*%
%ADD14C,0.400000*%
%TD*%
%TA.AperFunction,Conductor*%
%ADD15C,0.250000*%
%TD*%
%TA.AperFunction,Conductor*%
%ADD16C,0.300000*%
%TD*%
G04 APERTURE END LIST*
D10*
%TO.P,N3,0,0*%
%TO.N,Net-(U7-DRAIN2)*%
X84102700Y36015360D03*
%TO.P,N3,1,1*%
%TO.N,Net-(U6-DRAIN1)*%
X73917300Y36015360D03*
%TO.P,N3,2,2*%
%TO.N,Net-(U6-DRAIN2)*%
X72865740Y33244220D03*
%TO.P,N3,3,3*%
%TO.N,Net-(U6-DRAIN3)*%
X73223880Y30305440D03*
%TO.P,N3,4,4*%
%TO.N,Net-(U6-DRAIN4)*%
X74905360Y27867040D03*
%TO.P,N3,5,5*%
%TO.N,Net-(U6-DRAIN5)*%
X77529180Y26490360D03*
%TO.P,N3,6,6*%
%TO.N,Net-(U6-DRAIN6)*%
X80490820Y26490360D03*
%TO.P,N3,7,7*%
%TO.N,Net-(U6-DRAIN7)*%
X83114640Y27867040D03*
%TO.P,N3,8,8*%
%TO.N,Net-(U7-DRAIN0)*%
X84796120Y30305440D03*
%TO.P,N3,9,9*%
%TO.N,Net-(U7-DRAIN1)*%
X85154260Y33244220D03*
%TO.P,N3,A,A*%
%TO.N,Net-(N3-PadA)*%
X79010000Y38687440D03*
%TO.P,N3,LHDP,LHDP*%
%TO.N,Net-(N3-PadLHDP)*%
X76134720Y37978780D03*
%TO.P,N3,RHDP,RHDP*%
%TO.N,Net-(N3-PadRHDP)*%
X81885280Y37978780D03*
%TD*%
%TO.P,N2,0,0*%
%TO.N,Net-(U5-DRAIN6)*%
X51082700Y36015360D03*
%TO.P,N2,1,1*%
%TO.N,Net-(U4-DRAIN5)*%
X40897300Y36015360D03*
%TO.P,N2,2,2*%
%TO.N,Net-(U4-DRAIN6)*%
X39845740Y33244220D03*
%TO.P,N2,3,3*%
%TO.N,Net-(U4-DRAIN7)*%
X40203880Y30305440D03*
%TO.P,N2,4,4*%
%TO.N,Net-(U5-DRAIN0)*%
X41885360Y27867040D03*
%TO.P,N2,5,5*%
%TO.N,Net-(U5-DRAIN1)*%
X44509180Y26490360D03*
%TO.P,N2,6,6*%
%TO.N,Net-(U5-DRAIN2)*%
X47470820Y26490360D03*
%TO.P,N2,7,7*%
%TO.N,Net-(U5-DRAIN3)*%
X50094640Y27867040D03*
%TO.P,N2,8,8*%
%TO.N,Net-(U5-DRAIN4)*%
X51776120Y30305440D03*
%TO.P,N2,9,9*%
%TO.N,Net-(U5-DRAIN5)*%
X52134260Y33244220D03*
%TO.P,N2,A,A*%
%TO.N,Net-(N2-PadA)*%
X45990000Y38687440D03*
%TO.P,N2,LHDP,LHDP*%
%TO.N,Net-(N2-PadLHDP)*%
X43114720Y37978780D03*
%TO.P,N2,RHDP,RHDP*%
%TO.N,Net-(N2-PadRHDP)*%
X48865280Y37978780D03*
%TD*%
%TO.P,N4,0,0*%
%TO.N,Net-(U8-DRAIN6)*%
X107089700Y36015360D03*
%TO.P,N4,1,1*%
%TO.N,Net-(U7-DRAIN5)*%
X96904300Y36015360D03*
%TO.P,N4,2,2*%
%TO.N,Net-(U7-DRAIN6)*%
X95852740Y33244220D03*
%TO.P,N4,3,3*%
%TO.N,Net-(U7-DRAIN7)*%
X96210880Y30305440D03*
%TO.P,N4,4,4*%
%TO.N,Net-(U8-DRAIN0)*%
X97892360Y27867040D03*
%TO.P,N4,5,5*%
%TO.N,Net-(U8-DRAIN1)*%
X100516180Y26490360D03*
%TO.P,N4,6,6*%
%TO.N,Net-(U8-DRAIN2)*%
X103477820Y26490360D03*
%TO.P,N4,7,7*%
%TO.N,Net-(U8-DRAIN3)*%
X106101640Y27867040D03*
%TO.P,N4,8,8*%
%TO.N,Net-(U8-DRAIN4)*%
X107783120Y30305440D03*
%TO.P,N4,9,9*%
%TO.N,Net-(U8-DRAIN5)*%
X108141260Y33244220D03*
%TO.P,N4,A,A*%
%TO.N,Net-(N4-PadA)*%
X101997000Y38687440D03*
%TO.P,N4,LHDP,LHDP*%
%TO.N,Net-(N4-PadLHDP)*%
X99121720Y37978780D03*
%TO.P,N4,RHDP,RHDP*%
%TO.N,Net-(N4-PadRHDP)*%
X104872280Y37978780D03*
%TD*%
%TO.P,N1,0,0*%
%TO.N,Net-(U4-DRAIN2)*%
X28095700Y36015360D03*
%TO.P,N1,1,1*%
%TO.N,Net-(U3-DRAIN1)*%
X17910300Y36015360D03*
%TO.P,N1,2,2*%
%TO.N,Net-(U3-DRAIN2)*%
X16858740Y33244220D03*
%TO.P,N1,3,3*%
%TO.N,Net-(U3-DRAIN3)*%
X17216880Y30305440D03*
%TO.P,N1,4,4*%
%TO.N,Net-(U3-DRAIN4)*%
X18898360Y27867040D03*
%TO.P,N1,5,5*%
%TO.N,Net-(U3-DRAIN5)*%
X21522180Y26490360D03*
%TO.P,N1,6,6*%
%TO.N,Net-(U3-DRAIN6)*%
X24483820Y26490360D03*
%TO.P,N1,7,7*%
%TO.N,Net-(U3-DRAIN7)*%
X27107640Y27867040D03*
%TO.P,N1,8,8*%
%TO.N,Net-(U4-DRAIN0)*%
X28789120Y30305440D03*
%TO.P,N1,9,9*%
%TO.N,Net-(U4-DRAIN1)*%
X29147260Y33244220D03*
%TO.P,N1,A,A*%
%TO.N,Net-(N1-PadA)*%
X23003000Y38687440D03*
%TO.P,N1,LHDP,LHDP*%
%TO.N,Net-(N1-PadLHDP)*%
X20127720Y37978780D03*
%TO.P,N1,RHDP,RHDP*%
%TO.N,Net-(N1-PadRHDP)*%
X25878280Y37978780D03*
%TD*%
D11*
%TO.P,J6,1,Pin_1*%
%TO.N,GND*%
X3000000Y24975000D03*
D12*
%TO.P,J6,2,Pin_2*%
%TO.N,unconnected-(J6-Pin_2-Pad2)*%
X3000000Y27515000D03*
%TO.P,J6,3,Pin_3*%
%TO.N,/VDD_170V*%
X3000000Y30055000D03*
%TD*%
D11*
%TO.P,J8,1,Pin_1*%
%TO.N,GND*%
X61000000Y25000000D03*
D12*
%TO.P,J8,2,Pin_2*%
X61000000Y22460000D03*
%TD*%
D11*
%TO.P,J7,1,Pin_1*%
%TO.N,GND*%
X122000000Y21175000D03*
D12*
%TO.P,J7,2,Pin_2*%
%TO.N,ENABLE*%
X122000000Y23715000D03*
%TO.P,J7,3,Pin_3*%
%TO.N,SRCLK*%
X122000000Y26255000D03*
%TO.P,J7,4,Pin_4*%
%TO.N,SER_IN*%
X122000000Y28795000D03*
%TO.P,J7,5,Pin_5*%
%TO.N,RCLK*%
X122000000Y31335000D03*
%TO.P,J7,6,Pin_6*%
%TO.N,+5V*%
X122000000Y33875000D03*
%TD*%
D13*
%TO.N,GND*%
X41963000Y17633000D03*
X78793000Y18914000D03*
X59489000Y18914000D03*
X32151000Y7488000D03*
X69141000Y7484000D03*
X45081000Y20692000D03*
X95561000Y20608000D03*
X30231000Y20478000D03*
X76371000Y20438000D03*
X99711000Y19368000D03*
X18291000Y7458000D03*
X97843000Y17644000D03*
X106352000Y50791000D03*
X22659000Y18903000D03*
X86211000Y20548000D03*
X20361000Y20378000D03*
X27611000Y20938000D03*
X66321000Y20448000D03*
X43801000Y19328000D03*
X88191000Y7484000D03*
X93525000Y7484000D03*
X83631000Y20898000D03*
X115111000Y18918000D03*
X117655000Y40504000D03*
X26043000Y19360000D03*
X74221000Y7484000D03*
X108257000Y49013000D03*
X111051000Y7484000D03*
X105717000Y7473000D03*
X13161000Y7458000D03*
X37645000Y7484000D03*
X64191000Y20818000D03*
X103131000Y20438000D03*
X22659000Y17633000D03*
X78793000Y17648000D03*
X115101000Y17628000D03*
X101101000Y20838000D03*
X8181000Y20978000D03*
X39531000Y20378000D03*
X41963000Y18903000D03*
X47081000Y20628000D03*
X49583000Y7478000D03*
X57091000Y20378000D03*
X97843000Y18914000D03*
X59489000Y17644000D03*
X6696000Y19373000D03*
X82091000Y19378000D03*
X108283500Y52542500D03*
X62537000Y19378000D03*
X10711000Y20388000D03*
X113111000Y20398000D03*
X55341000Y7478000D03*
%TO.N,Net-(U7-SER_OUT)*%
X101653000Y16120000D03*
X97843000Y16120000D03*
%TO.N,Net-(U3-SER_OUT)*%
X27993000Y16120000D03*
X22659000Y16120000D03*
%TO.N,Net-(U4-SER_OUT)*%
X41963000Y16120000D03*
X45519000Y16120000D03*
%TO.N,Net-(U5-SER_OUT)*%
X64569000Y16120000D03*
X59489000Y16120000D03*
%TO.N,/~SRCLR*%
X6403000Y7484000D03*
X99875000Y2023000D03*
X43741000Y2023000D03*
X62410000Y7484000D03*
X43741000Y7484000D03*
X6403000Y4690000D03*
X99875000Y7484000D03*
X81587000Y7484000D03*
X62410000Y2023000D03*
X81587000Y2023000D03*
X25834000Y2023000D03*
X25834000Y7611000D03*
%TO.N,~SER_IN*%
X4244000Y7992000D03*
X116385000Y1134000D03*
X4244000Y4690000D03*
X116385000Y7738000D03*
%TO.N,~ENABLE*%
X8689000Y7484000D03*
X8689000Y4690000D03*
X27612000Y4690000D03*
X83365000Y7484000D03*
X45392000Y7484000D03*
X118925000Y7738000D03*
X64188000Y4690000D03*
X45392000Y4690000D03*
X64188000Y7484000D03*
X118925000Y4690000D03*
X27612000Y7611000D03*
X101399000Y7484000D03*
X101399000Y4690000D03*
X83365000Y4690000D03*
%TO.N,~RCLK*%
X91747000Y3801000D03*
X53393000Y3801000D03*
X109273000Y3801000D03*
X16563000Y3801000D03*
X35813666Y7484000D03*
X53421666Y7484000D03*
X72527666Y7484000D03*
X16581000Y7458000D03*
X72570000Y3801000D03*
X109273000Y7484000D03*
X35867000Y3801000D03*
X91747000Y7484000D03*
%TO.N,~SRCLK*%
X51502333Y7484000D03*
X33982333Y7484000D03*
X70792000Y2912000D03*
X89969000Y7484000D03*
X107495000Y7484000D03*
X33962000Y2912000D03*
X118671000Y10024000D03*
X51488000Y2912000D03*
X89969000Y2912000D03*
X107495000Y2785000D03*
X115115000Y10024000D03*
X14871000Y7458000D03*
X14912000Y2912000D03*
X70834333Y7484000D03*
%TO.N,Net-(U6-SER_OUT)*%
X78793000Y16120000D03*
X83873000Y16120000D03*
%TD*%
D14*
%TO.N,Net-(U7-SER_OUT)*%
X97843000Y16120000D02*
X101653000Y16120000D01*
%TO.N,Net-(U3-SER_OUT)*%
X22659000Y16120000D02*
X27993000Y16120000D01*
%TO.N,Net-(U4-SER_OUT)*%
X41963000Y16120000D02*
X45519000Y16120000D01*
%TO.N,Net-(U5-SER_OUT)*%
X59489000Y16120000D02*
X64569000Y16120000D01*
D15*
%TO.N,/~SRCLR*%
X81587000Y7484000D02*
X81587000Y2150000D01*
X6403000Y4690000D02*
X6403000Y7484000D01*
X25834000Y7611000D02*
X25834000Y2023000D01*
X43741000Y7484000D02*
X43741000Y2150000D01*
X81587000Y2150000D02*
X81714000Y2023000D01*
X62410000Y7484000D02*
X62410000Y2023000D01*
X99875000Y2658000D02*
X99875000Y2023000D01*
X99875000Y7484000D02*
X99875000Y2658000D01*
X43741000Y2150000D02*
X43868000Y2023000D01*
D16*
%TO.N,~SER_IN*%
X4244000Y4690000D02*
X4244000Y7992000D01*
X116385000Y7738000D02*
X116385000Y1134000D01*
D15*
%TO.N,~ENABLE*%
X64188000Y4817000D02*
X64315000Y4690000D01*
X101399000Y7484000D02*
X101399000Y4690000D01*
X45392000Y7484000D02*
X45392000Y4817000D01*
X64188000Y7484000D02*
X64188000Y4817000D01*
X27612000Y7611000D02*
X27612000Y4690000D01*
X45392000Y4817000D02*
X45519000Y4690000D01*
D16*
X118925000Y7738000D02*
X118925000Y4605500D01*
D15*
X83365000Y7484000D02*
X83365000Y4690000D01*
D16*
X8689000Y7484000D02*
X8689000Y4690000D01*
D15*
%TO.N,~RCLK*%
X16581000Y7458000D02*
X16581000Y3910000D01*
X72527666Y3843334D02*
X72570000Y3801000D01*
X16563000Y3928000D02*
X16563000Y3801000D01*
X35813666Y7484000D02*
X35813666Y3854334D01*
X35813666Y3854334D02*
X35867000Y3801000D01*
X53421666Y7484000D02*
X53421666Y3899334D01*
X72527666Y7484000D02*
X72527666Y3843334D01*
D16*
X109273000Y7484000D02*
X109273000Y3601000D01*
D15*
X16581000Y3910000D02*
X16563000Y3928000D01*
X91747000Y7484000D02*
X91747000Y3801000D01*
X16690000Y3801000D02*
X16690000Y3801000D01*
X16563000Y3801000D02*
X16690000Y3801000D01*
D16*
%TO.N,~SRCLK*%
X107495000Y7484000D02*
X107495000Y2785000D01*
D15*
X70834333Y2996667D02*
X70919000Y2912000D01*
X89969000Y7484000D02*
X89969000Y2912000D01*
X14871000Y7458000D02*
X14871000Y2953000D01*
X33982333Y3018667D02*
X34089000Y2912000D01*
X14871000Y2953000D02*
X14912000Y2912000D01*
D14*
X118671000Y10024000D02*
X115115000Y10024000D01*
D15*
X70834333Y7484000D02*
X70834333Y2996667D01*
X51502333Y3024667D02*
X51615000Y2912000D01*
X33982333Y7484000D02*
X33982333Y3018667D01*
X51502333Y7484000D02*
X51502333Y3024667D01*
D14*
%TO.N,Net-(U6-SER_OUT)*%
X78793000Y16120000D02*
X83873000Y16120000D01*
%TD*%
%TA.AperFunction,Conductor*%
%TO.N,Net-(U3-SER_OUT)*%
G36*
X23450267Y16322289D02*
G01*
X23457400Y16316877D01*
X23459000Y16310972D01*
X23459000Y15929029D01*
X23455573Y15920756D01*
X23450266Y15917711D01*
X22821920Y15753029D01*
X22813049Y15754247D01*
X22808155Y15759845D01*
X22659875Y16115501D01*
X22659855Y16124450D01*
X22808156Y16480158D01*
X22814502Y16486474D01*
X22821917Y16486972D01*
X23450267Y16322289D01*
G37*
%TD.AperFunction*%
%TD*%
%TA.AperFunction,Conductor*%
%TO.N,~RCLK*%
G36*
X53546533Y4591871D02*
G01*
X53549348Y4587331D01*
X53759072Y3964409D01*
X53758464Y3955475D01*
X53752486Y3949877D01*
X53397502Y3801877D01*
X53388548Y3801856D01*
X53388498Y3801877D01*
X53034331Y3949536D01*
X53028013Y3955883D01*
X53028034Y3964837D01*
X53257785Y4504048D01*
X53293635Y4588184D01*
X53300031Y4594452D01*
X53304399Y4595298D01*
X53538260Y4595298D01*
X53546533Y4591871D01*
G37*
%TD.AperFunction*%
%TD*%
%TA.AperFunction,Conductor*%
%TO.N,/~SRCLR*%
G36*
X81946109Y7335281D02*
G01*
X81952427Y7328934D01*
X81952551Y7320345D01*
X81714859Y6691563D01*
X81708728Y6685036D01*
X81703915Y6684000D01*
X81470085Y6684000D01*
X81461812Y6687427D01*
X81459141Y6691563D01*
X81221448Y7320345D01*
X81221728Y7329295D01*
X81227889Y7335281D01*
X81582500Y7483125D01*
X81591449Y7483145D01*
X81946109Y7335281D01*
G37*
%TD.AperFunction*%
%TD*%
%TA.AperFunction,Conductor*%
%TO.N,/~SRCLR*%
G36*
X6762109Y7335281D02*
G01*
X6768427Y7328934D01*
X6768551Y7320345D01*
X6530859Y6691563D01*
X6524728Y6685036D01*
X6519915Y6684000D01*
X6286085Y6684000D01*
X6277812Y6687427D01*
X6275141Y6691563D01*
X6037448Y7320345D01*
X6037728Y7329295D01*
X6043889Y7335281D01*
X6398500Y7483125D01*
X6407449Y7483145D01*
X6762109Y7335281D01*
G37*
%TD.AperFunction*%
%TD*%
%TA.AperFunction,Conductor*%
%TO.N,Net-(U4-SER_OUT)*%
G36*
X45364950Y16485754D02*
G01*
X45369844Y16480156D01*
X45518123Y16124502D01*
X45518144Y16115548D01*
X45518123Y16115498D01*
X45369844Y15759845D01*
X45363497Y15753527D01*
X45356079Y15753029D01*
X44727734Y15917711D01*
X44720600Y15923124D01*
X44719000Y15929029D01*
X44719000Y16310972D01*
X44722427Y16319245D01*
X44727731Y16322289D01*
X45356081Y16486972D01*
X45364950Y16485754D01*
G37*
%TD.AperFunction*%
%TD*%
%TA.AperFunction,Conductor*%
%TO.N,Net-(U5-SER_OUT)*%
G36*
X64414950Y16485754D02*
G01*
X64419844Y16480156D01*
X64568123Y16124502D01*
X64568144Y16115548D01*
X64568123Y16115498D01*
X64419844Y15759845D01*
X64413497Y15753527D01*
X64406079Y15753029D01*
X63777734Y15917711D01*
X63770600Y15923124D01*
X63769000Y15929029D01*
X63769000Y16310972D01*
X63772427Y16319245D01*
X63777731Y16322289D01*
X64406081Y16486972D01*
X64414950Y16485754D01*
G37*
%TD.AperFunction*%
%TD*%
%TA.AperFunction,Conductor*%
%TO.N,~ENABLE*%
G36*
X45751109Y7335281D02*
G01*
X45757427Y7328934D01*
X45757551Y7320345D01*
X45519859Y6691563D01*
X45513728Y6685036D01*
X45508915Y6684000D01*
X45275085Y6684000D01*
X45266812Y6687427D01*
X45264141Y6691563D01*
X45026448Y7320345D01*
X45026728Y7329295D01*
X45032889Y7335281D01*
X45387500Y7483125D01*
X45396449Y7483145D01*
X45751109Y7335281D01*
G37*
%TD.AperFunction*%
%TD*%
%TA.AperFunction,Conductor*%
%TO.N,~ENABLE*%
G36*
X101524188Y5486573D02*
G01*
X101526859Y5482437D01*
X101764551Y4853656D01*
X101764271Y4844706D01*
X101758109Y4838720D01*
X101403502Y4690877D01*
X101394548Y4690856D01*
X101394498Y4690877D01*
X101039890Y4838720D01*
X101033572Y4845067D01*
X101033448Y4853655D01*
X101271141Y5482438D01*
X101277272Y5488964D01*
X101282085Y5490000D01*
X101515915Y5490000D01*
X101524188Y5486573D01*
G37*
%TD.AperFunction*%
%TD*%
%TA.AperFunction,Conductor*%
%TO.N,~RCLK*%
G36*
X109422889Y4597573D02*
G01*
X109425695Y4593060D01*
X109639038Y3964426D01*
X109638452Y3955490D01*
X109632461Y3949867D01*
X109277502Y3801877D01*
X109268548Y3801856D01*
X109268498Y3801877D01*
X108913538Y3949867D01*
X108907220Y3956214D01*
X108906961Y3964425D01*
X109120305Y4593061D01*
X109126208Y4599793D01*
X109131384Y4601000D01*
X109414616Y4601000D01*
X109422889Y4597573D01*
G37*
%TD.AperFunction*%
%TD*%
%TA.AperFunction,Conductor*%
%TO.N,~ENABLE*%
G36*
X119074889Y5486573D02*
G01*
X119077695Y5482060D01*
X119291038Y4853426D01*
X119290452Y4844490D01*
X119284461Y4838867D01*
X118929502Y4690877D01*
X118920548Y4690856D01*
X118920498Y4690877D01*
X118565538Y4838867D01*
X118559220Y4845214D01*
X118558961Y4853425D01*
X118772305Y5482061D01*
X118778208Y5488793D01*
X118783384Y5490000D01*
X119066616Y5490000D01*
X119074889Y5486573D01*
G37*
%TD.AperFunction*%
%TD*%
%TA.AperFunction,Conductor*%
%TO.N,~ENABLE*%
G36*
X83490188Y5486573D02*
G01*
X83492859Y5482437D01*
X83730551Y4853656D01*
X83730271Y4844706D01*
X83724109Y4838720D01*
X83369502Y4690877D01*
X83360548Y4690856D01*
X83360498Y4690877D01*
X83005890Y4838720D01*
X82999572Y4845067D01*
X82999448Y4853655D01*
X83237141Y5482438D01*
X83243272Y5488964D01*
X83248085Y5490000D01*
X83481915Y5490000D01*
X83490188Y5486573D01*
G37*
%TD.AperFunction*%
%TD*%
%TA.AperFunction,Conductor*%
%TO.N,Net-(U5-SER_OUT)*%
G36*
X60280267Y16322289D02*
G01*
X60287400Y16316877D01*
X60289000Y16310972D01*
X60289000Y15929029D01*
X60285573Y15920756D01*
X60280266Y15917711D01*
X59651920Y15753029D01*
X59643049Y15754247D01*
X59638155Y15759845D01*
X59489875Y16115501D01*
X59489855Y16124450D01*
X59638156Y16480158D01*
X59644502Y16486474D01*
X59651917Y16486972D01*
X60280267Y16322289D01*
G37*
%TD.AperFunction*%
%TD*%
%TA.AperFunction,Conductor*%
%TO.N,~ENABLE*%
G36*
X27971109Y7462281D02*
G01*
X27977427Y7455934D01*
X27977551Y7447345D01*
X27739859Y6818563D01*
X27733728Y6812036D01*
X27728915Y6811000D01*
X27495085Y6811000D01*
X27486812Y6814427D01*
X27484141Y6818563D01*
X27246448Y7447345D01*
X27246728Y7456295D01*
X27252889Y7462281D01*
X27607500Y7610125D01*
X27616449Y7610145D01*
X27971109Y7462281D01*
G37*
%TD.AperFunction*%
%TD*%
%TA.AperFunction,Conductor*%
%TO.N,~SER_IN*%
G36*
X116534889Y1930573D02*
G01*
X116537695Y1926060D01*
X116751038Y1297426D01*
X116750452Y1288490D01*
X116744461Y1282867D01*
X116389502Y1134877D01*
X116380548Y1134856D01*
X116380498Y1134877D01*
X116025538Y1282867D01*
X116019220Y1289214D01*
X116018961Y1297425D01*
X116232305Y1926061D01*
X116238208Y1932793D01*
X116243384Y1934000D01*
X116526616Y1934000D01*
X116534889Y1930573D01*
G37*
%TD.AperFunction*%
%TD*%
%TA.AperFunction,Conductor*%
%TO.N,Net-(U6-SER_OUT)*%
G36*
X79584267Y16322289D02*
G01*
X79591400Y16316877D01*
X79593000Y16310972D01*
X79593000Y15929029D01*
X79589573Y15920756D01*
X79584266Y15917711D01*
X78955920Y15753029D01*
X78947049Y15754247D01*
X78942155Y15759845D01*
X78793875Y16115501D01*
X78793855Y16124450D01*
X78942156Y16480158D01*
X78948502Y16486474D01*
X78955917Y16486972D01*
X79584267Y16322289D01*
G37*
%TD.AperFunction*%
%TD*%
%TA.AperFunction,Conductor*%
%TO.N,~ENABLE*%
G36*
X83724109Y7335281D02*
G01*
X83730427Y7328934D01*
X83730551Y7320345D01*
X83492859Y6691563D01*
X83486728Y6685036D01*
X83481915Y6684000D01*
X83248085Y6684000D01*
X83239812Y6687427D01*
X83237141Y6691563D01*
X82999448Y7320345D01*
X82999728Y7329295D01*
X83005889Y7335281D01*
X83360500Y7483125D01*
X83369449Y7483145D01*
X83724109Y7335281D01*
G37*
%TD.AperFunction*%
%TD*%
%TA.AperFunction,Conductor*%
%TO.N,/~SRCLR*%
G36*
X100234109Y7335281D02*
G01*
X100240427Y7328934D01*
X100240551Y7320345D01*
X100002859Y6691563D01*
X99996728Y6685036D01*
X99991915Y6684000D01*
X99758085Y6684000D01*
X99749812Y6687427D01*
X99747141Y6691563D01*
X99509448Y7320345D01*
X99509728Y7329295D01*
X99515889Y7335281D01*
X99870500Y7483125D01*
X99879449Y7483145D01*
X100234109Y7335281D01*
G37*
%TD.AperFunction*%
%TD*%
%TA.AperFunction,Conductor*%
%TO.N,Net-(U4-SER_OUT)*%
G36*
X42754267Y16322289D02*
G01*
X42761400Y16316877D01*
X42763000Y16310972D01*
X42763000Y15929029D01*
X42759573Y15920756D01*
X42754266Y15917711D01*
X42125920Y15753029D01*
X42117049Y15754247D01*
X42112155Y15759845D01*
X41963875Y16115501D01*
X41963855Y16124450D01*
X42112156Y16480158D01*
X42118502Y16486474D01*
X42125917Y16486972D01*
X42754267Y16322289D01*
G37*
%TD.AperFunction*%
%TD*%
%TA.AperFunction,Conductor*%
%TO.N,~SRCLK*%
G36*
X90328109Y7335281D02*
G01*
X90334427Y7328934D01*
X90334551Y7320345D01*
X90096859Y6691563D01*
X90090728Y6685036D01*
X90085915Y6684000D01*
X89852085Y6684000D01*
X89843812Y6687427D01*
X89841141Y6691563D01*
X89603448Y7320345D01*
X89603728Y7329295D01*
X89609889Y7335281D01*
X89964500Y7483125D01*
X89973449Y7483145D01*
X90328109Y7335281D01*
G37*
%TD.AperFunction*%
%TD*%
%TA.AperFunction,Conductor*%
%TO.N,/~SRCLR*%
G36*
X25959188Y2819573D02*
G01*
X25961859Y2815437D01*
X26199551Y2186656D01*
X26199271Y2177706D01*
X26193109Y2171720D01*
X25838502Y2023877D01*
X25829548Y2023856D01*
X25829498Y2023877D01*
X25474890Y2171720D01*
X25468572Y2178067D01*
X25468448Y2186655D01*
X25706141Y2815438D01*
X25712272Y2821964D01*
X25717085Y2823000D01*
X25950915Y2823000D01*
X25959188Y2819573D01*
G37*
%TD.AperFunction*%
%TD*%
%TA.AperFunction,Conductor*%
%TO.N,~RCLK*%
G36*
X16940109Y7309281D02*
G01*
X16946427Y7302934D01*
X16946551Y7294345D01*
X16708859Y6665563D01*
X16702728Y6659036D01*
X16697915Y6658000D01*
X16464085Y6658000D01*
X16455812Y6661427D01*
X16453141Y6665563D01*
X16215448Y7294345D01*
X16215728Y7303295D01*
X16221889Y7309281D01*
X16576500Y7457125D01*
X16585449Y7457145D01*
X16940109Y7309281D01*
G37*
%TD.AperFunction*%
%TD*%
%TA.AperFunction,Conductor*%
%TO.N,/~SRCLR*%
G36*
X62769109Y7335281D02*
G01*
X62775427Y7328934D01*
X62775551Y7320345D01*
X62537859Y6691563D01*
X62531728Y6685036D01*
X62526915Y6684000D01*
X62293085Y6684000D01*
X62284812Y6687427D01*
X62282141Y6691563D01*
X62044448Y7320345D01*
X62044728Y7329295D01*
X62050889Y7335281D01*
X62405500Y7483125D01*
X62414449Y7483145D01*
X62769109Y7335281D01*
G37*
%TD.AperFunction*%
%TD*%
%TA.AperFunction,Conductor*%
%TO.N,~RCLK*%
G36*
X36172775Y7335281D02*
G01*
X36179093Y7328934D01*
X36179217Y7320345D01*
X35941525Y6691563D01*
X35935394Y6685036D01*
X35930581Y6684000D01*
X35696751Y6684000D01*
X35688478Y6687427D01*
X35685807Y6691563D01*
X35448114Y7320345D01*
X35448394Y7329295D01*
X35454555Y7335281D01*
X35809166Y7483125D01*
X35818115Y7483145D01*
X36172775Y7335281D01*
G37*
%TD.AperFunction*%
%TD*%
%TA.AperFunction,Conductor*%
%TO.N,Net-(U6-SER_OUT)*%
G36*
X83718950Y16485754D02*
G01*
X83723844Y16480156D01*
X83872123Y16124502D01*
X83872144Y16115548D01*
X83872123Y16115498D01*
X83723844Y15759845D01*
X83717497Y15753527D01*
X83710079Y15753029D01*
X83081734Y15917711D01*
X83074600Y15923124D01*
X83073000Y15929029D01*
X83073000Y16310972D01*
X83076427Y16319245D01*
X83081731Y16322289D01*
X83710081Y16486972D01*
X83718950Y16485754D01*
G37*
%TD.AperFunction*%
%TD*%
%TA.AperFunction,Conductor*%
%TO.N,/~SRCLR*%
G36*
X6528188Y5486573D02*
G01*
X6530859Y5482437D01*
X6768551Y4853656D01*
X6768271Y4844706D01*
X6762109Y4838720D01*
X6407502Y4690877D01*
X6398548Y4690856D01*
X6398498Y4690877D01*
X6043890Y4838720D01*
X6037572Y4845067D01*
X6037448Y4853655D01*
X6275141Y5482438D01*
X6281272Y5488964D01*
X6286085Y5490000D01*
X6519915Y5490000D01*
X6528188Y5486573D01*
G37*
%TD.AperFunction*%
%TD*%
%TA.AperFunction,Conductor*%
%TO.N,~RCLK*%
G36*
X91872188Y4597573D02*
G01*
X91874859Y4593437D01*
X92112551Y3964656D01*
X92112271Y3955706D01*
X92106109Y3949720D01*
X91751502Y3801877D01*
X91742548Y3801856D01*
X91742498Y3801877D01*
X91387890Y3949720D01*
X91381572Y3956067D01*
X91381448Y3964655D01*
X91619141Y4593438D01*
X91625272Y4599964D01*
X91630085Y4601000D01*
X91863915Y4601000D01*
X91872188Y4597573D01*
G37*
%TD.AperFunction*%
%TD*%
%TA.AperFunction,Conductor*%
%TO.N,~ENABLE*%
G36*
X101758109Y7335281D02*
G01*
X101764427Y7328934D01*
X101764551Y7320345D01*
X101526859Y6691563D01*
X101520728Y6685036D01*
X101515915Y6684000D01*
X101282085Y6684000D01*
X101273812Y6687427D01*
X101271141Y6691563D01*
X101033448Y7320345D01*
X101033728Y7329295D01*
X101039889Y7335281D01*
X101394500Y7483125D01*
X101403449Y7483145D01*
X101758109Y7335281D01*
G37*
%TD.AperFunction*%
%TD*%
%TA.AperFunction,Conductor*%
%TO.N,~SRCLK*%
G36*
X51627363Y3705722D02*
G01*
X51630107Y3701387D01*
X51853812Y3075535D01*
X51853370Y3066591D01*
X51847297Y3060798D01*
X51492502Y2912877D01*
X51483548Y2912856D01*
X51483498Y2912877D01*
X51438832Y2931499D01*
X51129108Y3060629D01*
X51122791Y3066975D01*
X51122755Y3075789D01*
X51374384Y3701814D01*
X51380649Y3708211D01*
X51385240Y3709149D01*
X51619090Y3709149D01*
X51627363Y3705722D01*
G37*
%TD.AperFunction*%
%TD*%
%TA.AperFunction,Conductor*%
%TO.N,~ENABLE*%
G36*
X27737188Y5486573D02*
G01*
X27739859Y5482437D01*
X27977551Y4853656D01*
X27977271Y4844706D01*
X27971109Y4838720D01*
X27616502Y4690877D01*
X27607548Y4690856D01*
X27607498Y4690877D01*
X27252890Y4838720D01*
X27246572Y4845067D01*
X27246448Y4853655D01*
X27484141Y5482438D01*
X27490272Y5488964D01*
X27495085Y5490000D01*
X27728915Y5490000D01*
X27737188Y5486573D01*
G37*
%TD.AperFunction*%
%TD*%
%TA.AperFunction,Conductor*%
%TO.N,~SRCLK*%
G36*
X34107296Y3704529D02*
G01*
X34110070Y3700109D01*
X34327921Y3075483D01*
X34327410Y3066543D01*
X34321376Y3060831D01*
X33966502Y2912877D01*
X33957548Y2912856D01*
X33957498Y2912877D01*
X33603202Y3060590D01*
X33596884Y3066937D01*
X33596885Y3075845D01*
X33854349Y3700713D01*
X33860669Y3707057D01*
X33865167Y3707956D01*
X34099023Y3707956D01*
X34107296Y3704529D01*
G37*
%TD.AperFunction*%
%TD*%
%TA.AperFunction,Conductor*%
%TO.N,/~SRCLR*%
G36*
X26193109Y7462281D02*
G01*
X26199427Y7455934D01*
X26199551Y7447345D01*
X25961859Y6818563D01*
X25955728Y6812036D01*
X25950915Y6811000D01*
X25717085Y6811000D01*
X25708812Y6814427D01*
X25706141Y6818563D01*
X25468448Y7447345D01*
X25468728Y7456295D01*
X25474889Y7462281D01*
X25829500Y7610125D01*
X25838449Y7610145D01*
X26193109Y7462281D01*
G37*
%TD.AperFunction*%
%TD*%
%TA.AperFunction,Conductor*%
%TO.N,Net-(U3-SER_OUT)*%
G36*
X27838950Y16485754D02*
G01*
X27843844Y16480156D01*
X27992123Y16124502D01*
X27992144Y16115548D01*
X27992123Y16115498D01*
X27843844Y15759845D01*
X27837497Y15753527D01*
X27830079Y15753029D01*
X27201734Y15917711D01*
X27194600Y15923124D01*
X27193000Y15929029D01*
X27193000Y16310972D01*
X27196427Y16319245D01*
X27201731Y16322289D01*
X27830081Y16486972D01*
X27838950Y16485754D01*
G37*
%TD.AperFunction*%
%TD*%
%TA.AperFunction,Conductor*%
%TO.N,~RCLK*%
G36*
X92106109Y7335281D02*
G01*
X92112427Y7328934D01*
X92112551Y7320345D01*
X91874859Y6691563D01*
X91868728Y6685036D01*
X91863915Y6684000D01*
X91630085Y6684000D01*
X91621812Y6687427D01*
X91619141Y6691563D01*
X91381448Y7320345D01*
X91381728Y7329295D01*
X91387889Y7335281D01*
X91742500Y7483125D01*
X91751449Y7483145D01*
X92106109Y7335281D01*
G37*
%TD.AperFunction*%
%TD*%
%TA.AperFunction,Conductor*%
%TO.N,~RCLK*%
G36*
X35939498Y4586964D02*
G01*
X35941821Y4583652D01*
X36231374Y3965134D01*
X36231778Y3956188D01*
X36225739Y3949577D01*
X36225280Y3949374D01*
X35871502Y3801877D01*
X35862548Y3801856D01*
X35862498Y3801877D01*
X35507187Y3950013D01*
X35500869Y3956360D01*
X35500484Y3964177D01*
X35686162Y4582058D01*
X35691825Y4588995D01*
X35697367Y4590391D01*
X35931225Y4590391D01*
X35939498Y4586964D01*
G37*
%TD.AperFunction*%
%TD*%
%TA.AperFunction,Conductor*%
%TO.N,~ENABLE*%
G36*
X8838889Y5486573D02*
G01*
X8841695Y5482060D01*
X9055038Y4853426D01*
X9054452Y4844490D01*
X9048461Y4838867D01*
X8693502Y4690877D01*
X8684548Y4690856D01*
X8684498Y4690877D01*
X8329538Y4838867D01*
X8323220Y4845214D01*
X8322961Y4853425D01*
X8536305Y5482061D01*
X8542208Y5488793D01*
X8547384Y5490000D01*
X8830616Y5490000D01*
X8838889Y5486573D01*
G37*
%TD.AperFunction*%
%TD*%
%TA.AperFunction,Conductor*%
%TO.N,/~SRCLR*%
G36*
X43866188Y2819573D02*
G01*
X43868859Y2815437D01*
X44106551Y2186656D01*
X44106271Y2177706D01*
X44100109Y2171720D01*
X43745502Y2023877D01*
X43736548Y2023856D01*
X43736498Y2023877D01*
X43381890Y2171720D01*
X43375572Y2178067D01*
X43375448Y2186655D01*
X43613141Y2815438D01*
X43619272Y2821964D01*
X43624085Y2823000D01*
X43857915Y2823000D01*
X43866188Y2819573D01*
G37*
%TD.AperFunction*%
%TD*%
%TA.AperFunction,Conductor*%
%TO.N,~ENABLE*%
G36*
X119244439Y7605820D02*
G01*
X119284461Y7589134D01*
X119290779Y7582787D01*
X119291038Y7574575D01*
X119077695Y6945940D01*
X119071792Y6939207D01*
X119066616Y6938000D01*
X118783384Y6938000D01*
X118775111Y6941427D01*
X118772305Y6945940D01*
X118558961Y7574575D01*
X118559547Y7583511D01*
X118565537Y7589134D01*
X118920500Y7737125D01*
X118929449Y7737145D01*
X119244439Y7605820D01*
G37*
%TD.AperFunction*%
%TD*%
%TA.AperFunction,Conductor*%
%TO.N,~SER_IN*%
G36*
X116704439Y7605820D02*
G01*
X116744461Y7589134D01*
X116750779Y7582787D01*
X116751038Y7574575D01*
X116537695Y6945940D01*
X116531792Y6939207D01*
X116526616Y6938000D01*
X116243384Y6938000D01*
X116235111Y6941427D01*
X116232305Y6945940D01*
X116018961Y7574575D01*
X116019547Y7583511D01*
X116025537Y7589134D01*
X116380500Y7737125D01*
X116389449Y7737145D01*
X116704439Y7605820D01*
G37*
%TD.AperFunction*%
%TD*%
%TA.AperFunction,Conductor*%
%TO.N,~SRCLK*%
G36*
X34341442Y7335281D02*
G01*
X34347760Y7328934D01*
X34347884Y7320345D01*
X34110192Y6691563D01*
X34104061Y6685036D01*
X34099248Y6684000D01*
X33865418Y6684000D01*
X33857145Y6687427D01*
X33854474Y6691563D01*
X33616781Y7320345D01*
X33617061Y7329295D01*
X33623222Y7335281D01*
X33977833Y7483125D01*
X33986782Y7483145D01*
X34341442Y7335281D01*
G37*
%TD.AperFunction*%
%TD*%
%TA.AperFunction,Conductor*%
%TO.N,~SRCLK*%
G36*
X71193442Y7335281D02*
G01*
X71199760Y7328934D01*
X71199884Y7320345D01*
X70962192Y6691563D01*
X70956061Y6685036D01*
X70951248Y6684000D01*
X70717418Y6684000D01*
X70709145Y6687427D01*
X70706474Y6691563D01*
X70468781Y7320345D01*
X70469061Y7329295D01*
X70475222Y7335281D01*
X70829833Y7483125D01*
X70838782Y7483145D01*
X71193442Y7335281D01*
G37*
%TD.AperFunction*%
%TD*%
%TA.AperFunction,Conductor*%
%TO.N,/~SRCLR*%
G36*
X62535188Y2819573D02*
G01*
X62537859Y2815437D01*
X62775551Y2186656D01*
X62775271Y2177706D01*
X62769109Y2171720D01*
X62414502Y2023877D01*
X62405548Y2023856D01*
X62405498Y2023877D01*
X62050890Y2171720D01*
X62044572Y2178067D01*
X62044448Y2186655D01*
X62282141Y2815438D01*
X62288272Y2821964D01*
X62293085Y2823000D01*
X62526915Y2823000D01*
X62535188Y2819573D01*
G37*
%TD.AperFunction*%
%TD*%
%TA.AperFunction,Conductor*%
%TO.N,Net-(U7-SER_OUT)*%
G36*
X101498950Y16485754D02*
G01*
X101503844Y16480156D01*
X101652123Y16124502D01*
X101652144Y16115548D01*
X101652123Y16115498D01*
X101503844Y15759845D01*
X101497497Y15753527D01*
X101490079Y15753029D01*
X100861734Y15917711D01*
X100854600Y15923124D01*
X100853000Y15929029D01*
X100853000Y16310972D01*
X100856427Y16319245D01*
X100861731Y16322289D01*
X101490081Y16486972D01*
X101498950Y16485754D01*
G37*
%TD.AperFunction*%
%TD*%
%TA.AperFunction,Conductor*%
%TO.N,Net-(U7-SER_OUT)*%
G36*
X98634267Y16322289D02*
G01*
X98641400Y16316877D01*
X98643000Y16310972D01*
X98643000Y15929029D01*
X98639573Y15920756D01*
X98634266Y15917711D01*
X98005920Y15753029D01*
X97997049Y15754247D01*
X97992155Y15759845D01*
X97843875Y16115501D01*
X97843855Y16124450D01*
X97992156Y16480158D01*
X97998502Y16486474D01*
X98005917Y16486972D01*
X98634267Y16322289D01*
G37*
%TD.AperFunction*%
%TD*%
%TA.AperFunction,Conductor*%
%TO.N,~SRCLK*%
G36*
X115906267Y10226289D02*
G01*
X115913400Y10220877D01*
X115915000Y10214972D01*
X115915000Y9833029D01*
X115911573Y9824756D01*
X115906266Y9821711D01*
X115277920Y9657029D01*
X115269049Y9658247D01*
X115264155Y9663845D01*
X115115875Y10019501D01*
X115115855Y10028450D01*
X115264156Y10384158D01*
X115270502Y10390474D01*
X115277917Y10390972D01*
X115906267Y10226289D01*
G37*
%TD.AperFunction*%
%TD*%
%TA.AperFunction,Conductor*%
%TO.N,~SRCLK*%
G36*
X118516950Y10389754D02*
G01*
X118521844Y10384156D01*
X118670123Y10028502D01*
X118670144Y10019548D01*
X118670123Y10019498D01*
X118521844Y9663845D01*
X118515497Y9657527D01*
X118508079Y9657029D01*
X117879734Y9821711D01*
X117872600Y9827124D01*
X117871000Y9833029D01*
X117871000Y10214972D01*
X117874427Y10223245D01*
X117879731Y10226289D01*
X118508081Y10390972D01*
X118516950Y10389754D01*
G37*
%TD.AperFunction*%
%TD*%
%TA.AperFunction,Conductor*%
%TO.N,~SRCLK*%
G36*
X15230109Y7309281D02*
G01*
X15236427Y7302934D01*
X15236551Y7294345D01*
X14998859Y6665563D01*
X14992728Y6659036D01*
X14987915Y6658000D01*
X14754085Y6658000D01*
X14745812Y6661427D01*
X14743141Y6665563D01*
X14505448Y7294345D01*
X14505728Y7303295D01*
X14511889Y7309281D01*
X14866500Y7457125D01*
X14875449Y7457145D01*
X15230109Y7309281D01*
G37*
%TD.AperFunction*%
%TD*%
%TA.AperFunction,Conductor*%
%TO.N,~RCLK*%
G36*
X53780775Y7335281D02*
G01*
X53787093Y7328934D01*
X53787217Y7320345D01*
X53549525Y6691563D01*
X53543394Y6685036D01*
X53538581Y6684000D01*
X53304751Y6684000D01*
X53296478Y6687427D01*
X53293807Y6691563D01*
X53056114Y7320345D01*
X53056394Y7329295D01*
X53062555Y7335281D01*
X53417166Y7483125D01*
X53426115Y7483145D01*
X53780775Y7335281D01*
G37*
%TD.AperFunction*%
%TD*%
%TA.AperFunction,Conductor*%
%TO.N,GND*%
G36*
X61250000Y22895502D02*
G01*
X61142315Y22944680D01*
X61035763Y22960000D01*
X60964237Y22960000D01*
X60857685Y22944680D01*
X60750000Y22895502D01*
X60750000Y24564499D01*
X60857685Y24515320D01*
X60964237Y24500000D01*
X61035763Y24500000D01*
X61142315Y24515320D01*
X61250000Y24564499D01*
X61250000Y22895502D01*
G37*
%TD.AperFunction*%
%TA.AperFunction,Conductor*%
G36*
X124456039Y54200315D02*
G01*
X124501794Y54147511D01*
X124513000Y54096000D01*
X124513000Y750000D01*
X124493315Y682961D01*
X124440511Y637206D01*
X124389000Y626000D01*
X117337454Y626000D01*
X117270415Y645685D01*
X117224660Y698489D01*
X117214716Y767647D01*
X117219523Y788318D01*
X117224891Y804840D01*
X117270674Y945744D01*
X117290460Y1134000D01*
X117270674Y1322256D01*
X117237283Y1425018D01*
X117233318Y1440601D01*
X117229723Y1459881D01*
X117229722Y1459884D01*
X117042078Y2012794D01*
X117035500Y2052644D01*
X117035500Y4690000D01*
X118019540Y4690000D01*
X118039326Y4501744D01*
X118039327Y4501741D01*
X118097818Y4321723D01*
X118097821Y4321716D01*
X118192467Y4157784D01*
X118275021Y4066099D01*
X118319129Y4017112D01*
X118472265Y3905852D01*
X118472270Y3905849D01*
X118645192Y3828858D01*
X118645197Y3828856D01*
X118830354Y3789500D01*
X118830355Y3789500D01*
X119019644Y3789500D01*
X119019646Y3789500D01*
X119204803Y3828856D01*
X119377730Y3905849D01*
X119530871Y4017112D01*
X119657533Y4157784D01*
X119752179Y4321716D01*
X119810674Y4501744D01*
X119830460Y4690000D01*
X119810674Y4878256D01*
X119777283Y4981018D01*
X119773318Y4996601D01*
X119769723Y5015881D01*
X119769722Y5015884D01*
X119582078Y5568794D01*
X119575500Y5608644D01*
X119575500Y6819358D01*
X119582078Y6859208D01*
X119586335Y6871751D01*
X119769723Y7412121D01*
X119780310Y7447520D01*
X119780400Y7448334D01*
X119785705Y7472900D01*
X119789312Y7484000D01*
X119810674Y7549744D01*
X119830460Y7738000D01*
X119810674Y7926256D01*
X119752179Y8106284D01*
X119657533Y8270216D01*
X119530871Y8410888D01*
X119530870Y8410889D01*
X119377734Y8522149D01*
X119377729Y8522152D01*
X119204807Y8599143D01*
X119204802Y8599145D01*
X119059001Y8630135D01*
X119019646Y8638500D01*
X118830354Y8638500D01*
X118797897Y8631602D01*
X118645197Y8599145D01*
X118645192Y8599143D01*
X118472270Y8522152D01*
X118472265Y8522149D01*
X118319129Y8410889D01*
X118192466Y8270215D01*
X118097821Y8106285D01*
X118097818Y8106278D01*
X118040096Y7928626D01*
X118039326Y7926256D01*
X118019540Y7738000D01*
X118039326Y7549744D01*
X118039327Y7549741D01*
X118072713Y7446989D01*
X118076680Y7431408D01*
X118080277Y7412119D01*
X118267922Y6859211D01*
X118274500Y6819361D01*
X118274500Y5608645D01*
X118267922Y5568795D01*
X118080279Y5015892D01*
X118069686Y4980473D01*
X118069686Y4980472D01*
X118069592Y4979626D01*
X118064293Y4955099D01*
X118039326Y4878258D01*
X118039326Y4878257D01*
X118039326Y4878256D01*
X118019540Y4690000D01*
X117035500Y4690000D01*
X117035500Y6819358D01*
X117042078Y6859208D01*
X117046335Y6871751D01*
X117229723Y7412121D01*
X117240310Y7447520D01*
X117240400Y7448334D01*
X117245705Y7472900D01*
X117249312Y7484000D01*
X117270674Y7549744D01*
X117290460Y7738000D01*
X117270674Y7926256D01*
X117212179Y8106284D01*
X117117533Y8270216D01*
X116990871Y8410888D01*
X116990870Y8410889D01*
X116837734Y8522149D01*
X116837729Y8522152D01*
X116664807Y8599143D01*
X116664802Y8599145D01*
X116519001Y8630135D01*
X116479646Y8638500D01*
X116290354Y8638500D01*
X116257897Y8631602D01*
X116105197Y8599145D01*
X116105192Y8599143D01*
X115932270Y8522152D01*
X115932265Y8522149D01*
X115779129Y8410889D01*
X115652466Y8270215D01*
X115557821Y8106285D01*
X115557818Y8106278D01*
X115500096Y7928626D01*
X115499326Y7926256D01*
X115479540Y7738000D01*
X115499326Y7549744D01*
X115499327Y7549741D01*
X115532713Y7446989D01*
X115536680Y7431408D01*
X115540277Y7412119D01*
X115727922Y6859211D01*
X115734500Y6819361D01*
X115734500Y2052645D01*
X115727922Y2012795D01*
X115540279Y1459892D01*
X115529686Y1424473D01*
X115529686Y1424472D01*
X115529592Y1423626D01*
X115524293Y1399099D01*
X115499326Y1322258D01*
X115499326Y1322257D01*
X115499326Y1322256D01*
X115479540Y1134000D01*
X115499326Y945744D01*
X115499327Y945741D01*
X115550477Y788318D01*
X115552472Y718477D01*
X115516392Y658644D01*
X115453691Y627816D01*
X115432546Y626000D01*
X685000Y626000D01*
X617961Y645685D01*
X572206Y698489D01*
X561000Y750000D01*
X561000Y4690000D01*
X3338540Y4690000D01*
X3358326Y4501744D01*
X3358327Y4501741D01*
X3416818Y4321723D01*
X3416821Y4321716D01*
X3511467Y4157784D01*
X3594021Y4066099D01*
X3638129Y4017112D01*
X3791265Y3905852D01*
X3791270Y3905849D01*
X3964192Y3828858D01*
X3964197Y3828856D01*
X4149354Y3789500D01*
X4149355Y3789500D01*
X4338644Y3789500D01*
X4338646Y3789500D01*
X4523803Y3828856D01*
X4696730Y3905849D01*
X4849871Y4017112D01*
X4976533Y4157784D01*
X5071179Y4321716D01*
X5129674Y4501744D01*
X5149460Y4690000D01*
X5497540Y4690000D01*
X5517326Y4501744D01*
X5517327Y4501741D01*
X5575818Y4321723D01*
X5575821Y4321716D01*
X5670467Y4157784D01*
X5753021Y4066099D01*
X5797129Y4017112D01*
X5950265Y3905852D01*
X5950270Y3905849D01*
X6123192Y3828858D01*
X6123197Y3828856D01*
X6308354Y3789500D01*
X6308355Y3789500D01*
X6497644Y3789500D01*
X6497646Y3789500D01*
X6682803Y3828856D01*
X6855730Y3905849D01*
X7008871Y4017112D01*
X7135533Y4157784D01*
X7230179Y4321716D01*
X7288674Y4501744D01*
X7308460Y4690000D01*
X7783540Y4690000D01*
X7803326Y4501744D01*
X7803327Y4501741D01*
X7861818Y4321723D01*
X7861821Y4321716D01*
X7956467Y4157784D01*
X8039021Y4066099D01*
X8083129Y4017112D01*
X8236265Y3905852D01*
X8236270Y3905849D01*
X8409192Y3828858D01*
X8409197Y3828856D01*
X8594354Y3789500D01*
X8594355Y3789500D01*
X8783644Y3789500D01*
X8783646Y3789500D01*
X8968803Y3828856D01*
X9141730Y3905849D01*
X9294871Y4017112D01*
X9421533Y4157784D01*
X9516179Y4321716D01*
X9574674Y4501744D01*
X9594460Y4690000D01*
X9574674Y4878256D01*
X9541283Y4981018D01*
X9537318Y4996601D01*
X9533723Y5015881D01*
X9533722Y5015884D01*
X9346078Y5568794D01*
X9339500Y5608644D01*
X9339500Y6565358D01*
X9346078Y6605208D01*
X9360525Y6647777D01*
X9533723Y7158121D01*
X9544310Y7193520D01*
X9544400Y7194334D01*
X9549705Y7218900D01*
X9555784Y7237609D01*
X9574674Y7295744D01*
X9591727Y7458000D01*
X13965540Y7458000D01*
X13985326Y7269744D01*
X13985328Y7269738D01*
X14024706Y7148542D01*
X14027823Y7137120D01*
X14032602Y7115611D01*
X14032607Y7115594D01*
X14237489Y6573610D01*
X14245500Y6529764D01*
X14245500Y3817409D01*
X14239646Y3779760D01*
X14064071Y3228786D01*
X14055257Y3197737D01*
X14054239Y3192416D01*
X14054052Y3192452D01*
X14049915Y3172859D01*
X14026326Y3100256D01*
X14006540Y2912000D01*
X14026326Y2723744D01*
X14026327Y2723741D01*
X14084818Y2543723D01*
X14084821Y2543716D01*
X14179467Y2379784D01*
X14244815Y2307208D01*
X14306129Y2239112D01*
X14459265Y2127852D01*
X14459270Y2127849D01*
X14632192Y2050858D01*
X14632197Y2050856D01*
X14817354Y2011500D01*
X14817355Y2011500D01*
X15006644Y2011500D01*
X15006646Y2011500D01*
X15060750Y2023000D01*
X24928540Y2023000D01*
X24948326Y1834744D01*
X24948327Y1834741D01*
X25006818Y1654723D01*
X25006821Y1654716D01*
X25101467Y1490784D01*
X25161174Y1424473D01*
X25228129Y1350112D01*
X25381265Y1238852D01*
X25381270Y1238849D01*
X25554192Y1161858D01*
X25554197Y1161856D01*
X25739354Y1122500D01*
X25739355Y1122500D01*
X25928644Y1122500D01*
X25928646Y1122500D01*
X26113803Y1161856D01*
X26286730Y1238849D01*
X26439871Y1350112D01*
X26566533Y1490784D01*
X26661179Y1654716D01*
X26719674Y1834744D01*
X26739460Y2023000D01*
X26719674Y2211256D01*
X26680285Y2332479D01*
X26677171Y2343895D01*
X26672394Y2365400D01*
X26467510Y2907393D01*
X26466668Y2912000D01*
X33056540Y2912000D01*
X33076326Y2723744D01*
X33076327Y2723741D01*
X33134818Y2543723D01*
X33134821Y2543716D01*
X33229467Y2379784D01*
X33294815Y2307208D01*
X33356129Y2239112D01*
X33509265Y2127852D01*
X33509270Y2127849D01*
X33682192Y2050858D01*
X33682197Y2050856D01*
X33867354Y2011500D01*
X33867355Y2011500D01*
X34056644Y2011500D01*
X34056646Y2011500D01*
X34110750Y2023000D01*
X42835540Y2023000D01*
X42855326Y1834744D01*
X42855327Y1834741D01*
X42913818Y1654723D01*
X42913821Y1654716D01*
X43008467Y1490784D01*
X43068174Y1424473D01*
X43135129Y1350112D01*
X43288265Y1238852D01*
X43288270Y1238849D01*
X43461192Y1161858D01*
X43461197Y1161856D01*
X43646354Y1122500D01*
X43646355Y1122500D01*
X43835644Y1122500D01*
X43835646Y1122500D01*
X44020803Y1161856D01*
X44193730Y1238849D01*
X44346871Y1350112D01*
X44473533Y1490784D01*
X44568179Y1654716D01*
X44626674Y1834744D01*
X44646460Y2023000D01*
X44626674Y2211256D01*
X44587285Y2332479D01*
X44584171Y2343895D01*
X44579394Y2365400D01*
X44374510Y2907393D01*
X44373668Y2912000D01*
X50582540Y2912000D01*
X50602326Y2723744D01*
X50602327Y2723741D01*
X50660818Y2543723D01*
X50660821Y2543716D01*
X50755467Y2379784D01*
X50820815Y2307208D01*
X50882129Y2239112D01*
X51035265Y2127852D01*
X51035270Y2127849D01*
X51208192Y2050858D01*
X51208197Y2050856D01*
X51393354Y2011500D01*
X51393355Y2011500D01*
X51582644Y2011500D01*
X51582646Y2011500D01*
X51636750Y2023000D01*
X61504540Y2023000D01*
X61524326Y1834744D01*
X61524327Y1834741D01*
X61582818Y1654723D01*
X61582821Y1654716D01*
X61677467Y1490784D01*
X61737174Y1424473D01*
X61804129Y1350112D01*
X61957265Y1238852D01*
X61957270Y1238849D01*
X62130192Y1161858D01*
X62130197Y1161856D01*
X62315354Y1122500D01*
X62315355Y1122500D01*
X62504644Y1122500D01*
X62504646Y1122500D01*
X62689803Y1161856D01*
X62862730Y1238849D01*
X63015871Y1350112D01*
X63142533Y1490784D01*
X63237179Y1654716D01*
X63295674Y1834744D01*
X63315460Y2023000D01*
X63295674Y2211256D01*
X63256285Y2332479D01*
X63253171Y2343895D01*
X63248394Y2365400D01*
X63043510Y2907393D01*
X63042668Y2912000D01*
X69886540Y2912000D01*
X69906326Y2723744D01*
X69906327Y2723741D01*
X69964818Y2543723D01*
X69964821Y2543716D01*
X70059467Y2379784D01*
X70124815Y2307208D01*
X70186129Y2239112D01*
X70339265Y2127852D01*
X70339270Y2127849D01*
X70512192Y2050858D01*
X70512197Y2050856D01*
X70697354Y2011500D01*
X70697355Y2011500D01*
X70886644Y2011500D01*
X70886646Y2011500D01*
X70940750Y2023000D01*
X80681540Y2023000D01*
X80701326Y1834744D01*
X80701327Y1834741D01*
X80759818Y1654723D01*
X80759821Y1654716D01*
X80854467Y1490784D01*
X80914174Y1424473D01*
X80981129Y1350112D01*
X81134265Y1238852D01*
X81134270Y1238849D01*
X81307192Y1161858D01*
X81307197Y1161856D01*
X81492354Y1122500D01*
X81492355Y1122500D01*
X81681644Y1122500D01*
X81681646Y1122500D01*
X81866803Y1161856D01*
X82039730Y1238849D01*
X82192871Y1350112D01*
X82319533Y1490784D01*
X82414179Y1654716D01*
X82472674Y1834744D01*
X82492460Y2023000D01*
X82472674Y2211256D01*
X82433285Y2332479D01*
X82430171Y2343895D01*
X82425394Y2365400D01*
X82220510Y2907393D01*
X82219668Y2912000D01*
X89063540Y2912000D01*
X89083326Y2723744D01*
X89083327Y2723741D01*
X89141818Y2543723D01*
X89141821Y2543716D01*
X89236467Y2379784D01*
X89301815Y2307208D01*
X89363129Y2239112D01*
X89516265Y2127852D01*
X89516270Y2127849D01*
X89689192Y2050858D01*
X89689197Y2050856D01*
X89874354Y2011500D01*
X89874355Y2011500D01*
X90063644Y2011500D01*
X90063646Y2011500D01*
X90117750Y2023000D01*
X98969540Y2023000D01*
X98989326Y1834744D01*
X98989327Y1834741D01*
X99047818Y1654723D01*
X99047821Y1654716D01*
X99142467Y1490784D01*
X99202174Y1424473D01*
X99269129Y1350112D01*
X99422265Y1238852D01*
X99422270Y1238849D01*
X99595192Y1161858D01*
X99595197Y1161856D01*
X99780354Y1122500D01*
X99780355Y1122500D01*
X99969644Y1122500D01*
X99969646Y1122500D01*
X100154803Y1161856D01*
X100327730Y1238849D01*
X100480871Y1350112D01*
X100607533Y1490784D01*
X100702179Y1654716D01*
X100760674Y1834744D01*
X100780460Y2023000D01*
X100760674Y2211256D01*
X100721285Y2332479D01*
X100718171Y2343895D01*
X100713394Y2365400D01*
X100554777Y2785000D01*
X106589540Y2785000D01*
X106609326Y2596744D01*
X106609327Y2596741D01*
X106667818Y2416723D01*
X106667821Y2416716D01*
X106762467Y2252784D01*
X106874957Y2127852D01*
X106889129Y2112112D01*
X107042265Y2000852D01*
X107042270Y2000849D01*
X107215192Y1923858D01*
X107215197Y1923856D01*
X107400354Y1884500D01*
X107400355Y1884500D01*
X107589644Y1884500D01*
X107589646Y1884500D01*
X107774803Y1923856D01*
X107947730Y2000849D01*
X108100871Y2112112D01*
X108227533Y2252784D01*
X108322179Y2416716D01*
X108380674Y2596744D01*
X108400460Y2785000D01*
X108380674Y2973256D01*
X108347283Y3076018D01*
X108343318Y3091601D01*
X108339723Y3110881D01*
X108339722Y3110884D01*
X108325856Y3151742D01*
X108322951Y3221551D01*
X108358250Y3281848D01*
X108420544Y3313490D01*
X108490056Y3306430D01*
X108534173Y3271862D01*
X108536119Y3273613D01*
X108540466Y3268785D01*
X108540467Y3268784D01*
X108645852Y3151742D01*
X108667129Y3128112D01*
X108820265Y3016852D01*
X108820270Y3016849D01*
X108993192Y2939858D01*
X108993197Y2939856D01*
X109178354Y2900500D01*
X109178355Y2900500D01*
X109367644Y2900500D01*
X109367646Y2900500D01*
X109552803Y2939856D01*
X109725730Y3016849D01*
X109878871Y3128112D01*
X110005533Y3268784D01*
X110100179Y3432716D01*
X110158674Y3612744D01*
X110178460Y3801000D01*
X110158674Y3989256D01*
X110125283Y4092018D01*
X110121318Y4107601D01*
X110117723Y4126881D01*
X110117722Y4126884D01*
X109930078Y4679794D01*
X109923500Y4719644D01*
X109923500Y6565358D01*
X109930078Y6605208D01*
X109944525Y6647777D01*
X110117723Y7158121D01*
X110128310Y7193520D01*
X110128400Y7194334D01*
X110133705Y7218900D01*
X110139784Y7237609D01*
X110158674Y7295744D01*
X110178460Y7484000D01*
X110158674Y7672256D01*
X110100179Y7852284D01*
X110005533Y8016216D01*
X109878871Y8156888D01*
X109846708Y8180256D01*
X109725734Y8268149D01*
X109725729Y8268152D01*
X109552807Y8345143D01*
X109552802Y8345145D01*
X109407001Y8376135D01*
X109367646Y8384500D01*
X109178354Y8384500D01*
X109145897Y8377602D01*
X108993197Y8345145D01*
X108993192Y8345143D01*
X108820270Y8268152D01*
X108820265Y8268149D01*
X108667129Y8156889D01*
X108540466Y8016215D01*
X108491387Y7931207D01*
X108440820Y7882992D01*
X108372213Y7869768D01*
X108307349Y7895736D01*
X108276613Y7931207D01*
X108248859Y7979278D01*
X108227533Y8016216D01*
X108100871Y8156888D01*
X108068708Y8180256D01*
X107947734Y8268149D01*
X107947729Y8268152D01*
X107774807Y8345143D01*
X107774802Y8345145D01*
X107629001Y8376135D01*
X107589646Y8384500D01*
X107400354Y8384500D01*
X107367897Y8377602D01*
X107215197Y8345145D01*
X107215192Y8345143D01*
X107042270Y8268152D01*
X107042265Y8268149D01*
X106889129Y8156889D01*
X106762466Y8016215D01*
X106667821Y7852285D01*
X106667818Y7852278D01*
X106618662Y7700989D01*
X106609326Y7672256D01*
X106589540Y7484000D01*
X106609326Y7295744D01*
X106609327Y7295741D01*
X106642713Y7192989D01*
X106646679Y7177412D01*
X106647214Y7174542D01*
X106650277Y7158119D01*
X106837922Y6605211D01*
X106844500Y6565361D01*
X106844500Y3703645D01*
X106837922Y3663795D01*
X106650279Y3110892D01*
X106639686Y3075473D01*
X106639686Y3075472D01*
X106639592Y3074626D01*
X106634293Y3050099D01*
X106609326Y2973258D01*
X106609326Y2973257D01*
X106609326Y2973256D01*
X106589540Y2785000D01*
X100554777Y2785000D01*
X100508510Y2907393D01*
X100500500Y2951236D01*
X100500500Y4019079D01*
X100520185Y4086118D01*
X100572989Y4131873D01*
X100642147Y4141817D01*
X100705703Y4112792D01*
X100716644Y4102057D01*
X100749021Y4066099D01*
X100793129Y4017112D01*
X100946265Y3905852D01*
X100946270Y3905849D01*
X101119192Y3828858D01*
X101119197Y3828856D01*
X101304354Y3789500D01*
X101304355Y3789500D01*
X101493644Y3789500D01*
X101493646Y3789500D01*
X101678803Y3828856D01*
X101851730Y3905849D01*
X102004871Y4017112D01*
X102131533Y4157784D01*
X102226179Y4321716D01*
X102284674Y4501744D01*
X102304460Y4690000D01*
X102284674Y4878256D01*
X102245285Y4999479D01*
X102242171Y5010895D01*
X102241064Y5015879D01*
X102237394Y5032400D01*
X102032510Y5574393D01*
X102024500Y5618236D01*
X102024500Y6555765D01*
X102032511Y6599611D01*
X102237390Y7141590D01*
X102237391Y7141594D01*
X102237394Y7141601D01*
X102251580Y7184946D01*
X102252016Y7188326D01*
X102257066Y7210779D01*
X102284672Y7295738D01*
X102284671Y7295738D01*
X102284674Y7295744D01*
X102304460Y7484000D01*
X102284674Y7672256D01*
X102226179Y7852284D01*
X102131533Y8016216D01*
X102004871Y8156888D01*
X101972708Y8180256D01*
X101851734Y8268149D01*
X101851729Y8268152D01*
X101678807Y8345143D01*
X101678802Y8345145D01*
X101533001Y8376135D01*
X101493646Y8384500D01*
X101304354Y8384500D01*
X101271897Y8377602D01*
X101119197Y8345145D01*
X101119192Y8345143D01*
X100946270Y8268152D01*
X100946265Y8268149D01*
X100793129Y8156889D01*
X100793128Y8156888D01*
X100729149Y8085832D01*
X100669663Y8049184D01*
X100599806Y8050515D01*
X100544851Y8085832D01*
X100480871Y8156888D01*
X100480870Y8156889D01*
X100327734Y8268149D01*
X100327729Y8268152D01*
X100154807Y8345143D01*
X100154802Y8345145D01*
X100009001Y8376135D01*
X99969646Y8384500D01*
X99780354Y8384500D01*
X99747897Y8377602D01*
X99595197Y8345145D01*
X99595192Y8345143D01*
X99422270Y8268152D01*
X99422265Y8268149D01*
X99269129Y8156889D01*
X99142466Y8016215D01*
X99047821Y7852285D01*
X99047818Y7852278D01*
X98998662Y7700989D01*
X98989326Y7672256D01*
X98969540Y7484000D01*
X98989326Y7295744D01*
X98989328Y7295738D01*
X99028706Y7174542D01*
X99031823Y7163120D01*
X99036602Y7141611D01*
X99036607Y7141594D01*
X99241489Y6599610D01*
X99249500Y6555764D01*
X99249500Y2951239D01*
X99241489Y2907393D01*
X99036606Y2365406D01*
X99022418Y2322055D01*
X99021980Y2318656D01*
X99016932Y2296222D01*
X98989328Y2211263D01*
X98989327Y2211258D01*
X98989326Y2211256D01*
X98969540Y2023000D01*
X90117750Y2023000D01*
X90248803Y2050856D01*
X90421730Y2127849D01*
X90574871Y2239112D01*
X90701533Y2379784D01*
X90796179Y2543716D01*
X90854674Y2723744D01*
X90874460Y2912000D01*
X90854674Y3100256D01*
X90854670Y3100267D01*
X90854621Y3100501D01*
X90854632Y3100648D01*
X90853994Y3106719D01*
X90855103Y3106836D01*
X90859931Y3170168D01*
X90902064Y3225906D01*
X90967641Y3250016D01*
X91035844Y3234845D01*
X91068059Y3209264D01*
X91141129Y3128112D01*
X91294265Y3016852D01*
X91294270Y3016849D01*
X91467192Y2939858D01*
X91467197Y2939856D01*
X91652354Y2900500D01*
X91652355Y2900500D01*
X91841644Y2900500D01*
X91841646Y2900500D01*
X92026803Y2939856D01*
X92199730Y3016849D01*
X92352871Y3128112D01*
X92479533Y3268784D01*
X92574179Y3432716D01*
X92632674Y3612744D01*
X92652460Y3801000D01*
X92632674Y3989256D01*
X92593285Y4110479D01*
X92590171Y4121895D01*
X92585394Y4143400D01*
X92380510Y4685393D01*
X92372500Y4729236D01*
X92372500Y6555765D01*
X92380511Y6599611D01*
X92585390Y7141590D01*
X92585391Y7141594D01*
X92585394Y7141601D01*
X92599580Y7184946D01*
X92600016Y7188326D01*
X92605066Y7210779D01*
X92632672Y7295738D01*
X92632671Y7295738D01*
X92632674Y7295744D01*
X92652460Y7484000D01*
X92632674Y7672256D01*
X92574179Y7852284D01*
X92479533Y8016216D01*
X92352871Y8156888D01*
X92320708Y8180256D01*
X92199734Y8268149D01*
X92199729Y8268152D01*
X92026807Y8345143D01*
X92026802Y8345145D01*
X91881001Y8376135D01*
X91841646Y8384500D01*
X91652354Y8384500D01*
X91619897Y8377602D01*
X91467197Y8345145D01*
X91467192Y8345143D01*
X91294270Y8268152D01*
X91294265Y8268149D01*
X91141129Y8156889D01*
X91014466Y8016215D01*
X90965387Y7931207D01*
X90914820Y7882992D01*
X90846213Y7869768D01*
X90781349Y7895736D01*
X90750613Y7931207D01*
X90722859Y7979278D01*
X90701533Y8016216D01*
X90574871Y8156888D01*
X90542708Y8180256D01*
X90421734Y8268149D01*
X90421729Y8268152D01*
X90248807Y8345143D01*
X90248802Y8345145D01*
X90103001Y8376135D01*
X90063646Y8384500D01*
X89874354Y8384500D01*
X89841897Y8377602D01*
X89689197Y8345145D01*
X89689192Y8345143D01*
X89516270Y8268152D01*
X89516265Y8268149D01*
X89363129Y8156889D01*
X89236466Y8016215D01*
X89141821Y7852285D01*
X89141818Y7852278D01*
X89092662Y7700989D01*
X89083326Y7672256D01*
X89063540Y7484000D01*
X89083326Y7295744D01*
X89083328Y7295738D01*
X89122706Y7174542D01*
X89125823Y7163120D01*
X89130602Y7141611D01*
X89130607Y7141594D01*
X89335489Y6599610D01*
X89343500Y6555764D01*
X89343500Y3840239D01*
X89335489Y3796393D01*
X89130606Y3254406D01*
X89116418Y3211055D01*
X89115980Y3207656D01*
X89110932Y3185222D01*
X89083328Y3100263D01*
X89083327Y3100258D01*
X89083326Y3100256D01*
X89063540Y2912000D01*
X82219668Y2912000D01*
X82212500Y2951236D01*
X82212500Y4674369D01*
X82214906Y4682564D01*
X82214523Y4683325D01*
X82212500Y4705632D01*
X82212500Y6555765D01*
X82220511Y6599611D01*
X82260508Y6705418D01*
X82360011Y6968640D01*
X82402128Y7024386D01*
X82467699Y7048514D01*
X82535906Y7033361D01*
X82585093Y6983738D01*
X82591988Y6968639D01*
X82731488Y6599612D01*
X82731489Y6599611D01*
X82739500Y6555764D01*
X82739500Y5618239D01*
X82731489Y5574393D01*
X82526606Y5032406D01*
X82512418Y4989055D01*
X82511980Y4985656D01*
X82506932Y4963222D01*
X82479328Y4878263D01*
X82479327Y4878258D01*
X82479326Y4878256D01*
X82460505Y4699176D01*
X82459821Y4692671D01*
X82459107Y4690938D01*
X82459820Y4687335D01*
X82479326Y4501744D01*
X82479327Y4501741D01*
X82537818Y4321723D01*
X82537821Y4321716D01*
X82632467Y4157784D01*
X82715021Y4066099D01*
X82759129Y4017112D01*
X82912265Y3905852D01*
X82912270Y3905849D01*
X83085192Y3828858D01*
X83085197Y3828856D01*
X83270354Y3789500D01*
X83270355Y3789500D01*
X83459644Y3789500D01*
X83459646Y3789500D01*
X83644803Y3828856D01*
X83817730Y3905849D01*
X83970871Y4017112D01*
X84097533Y4157784D01*
X84192179Y4321716D01*
X84250674Y4501744D01*
X84270460Y4690000D01*
X84250674Y4878256D01*
X84211285Y4999479D01*
X84208171Y5010895D01*
X84207064Y5015879D01*
X84203394Y5032400D01*
X83998510Y5574393D01*
X83990500Y5618236D01*
X83990500Y6555765D01*
X83998511Y6599611D01*
X84203390Y7141590D01*
X84203391Y7141594D01*
X84203394Y7141601D01*
X84217580Y7184946D01*
X84218016Y7188326D01*
X84223066Y7210779D01*
X84250672Y7295738D01*
X84250671Y7295738D01*
X84250674Y7295744D01*
X84270460Y7484000D01*
X84250674Y7672256D01*
X84192179Y7852284D01*
X84097533Y8016216D01*
X83970871Y8156888D01*
X83938708Y8180256D01*
X83817734Y8268149D01*
X83817729Y8268152D01*
X83644807Y8345143D01*
X83644802Y8345145D01*
X83499001Y8376135D01*
X83459646Y8384500D01*
X83270354Y8384500D01*
X83237897Y8377602D01*
X83085197Y8345145D01*
X83085192Y8345143D01*
X82912270Y8268152D01*
X82912265Y8268149D01*
X82759129Y8156889D01*
X82632466Y8016215D01*
X82583387Y7931207D01*
X82532820Y7882992D01*
X82464213Y7869768D01*
X82399349Y7895736D01*
X82368613Y7931207D01*
X82340859Y7979278D01*
X82319533Y8016216D01*
X82192871Y8156888D01*
X82160708Y8180256D01*
X82039734Y8268149D01*
X82039729Y8268152D01*
X81866807Y8345143D01*
X81866802Y8345145D01*
X81721001Y8376135D01*
X81681646Y8384500D01*
X81492354Y8384500D01*
X81459897Y8377602D01*
X81307197Y8345145D01*
X81307192Y8345143D01*
X81134270Y8268152D01*
X81134265Y8268149D01*
X80981129Y8156889D01*
X80854466Y8016215D01*
X80759821Y7852285D01*
X80759818Y7852278D01*
X80710662Y7700989D01*
X80701326Y7672256D01*
X80681540Y7484000D01*
X80701326Y7295744D01*
X80701328Y7295738D01*
X80740706Y7174542D01*
X80743823Y7163120D01*
X80748602Y7141611D01*
X80748607Y7141594D01*
X80953489Y6599610D01*
X80961500Y6555764D01*
X80961500Y2951239D01*
X80953489Y2907393D01*
X80748606Y2365406D01*
X80734418Y2322055D01*
X80733980Y2318656D01*
X80728932Y2296222D01*
X80701328Y2211263D01*
X80701327Y2211258D01*
X80701326Y2211256D01*
X80681540Y2023000D01*
X70940750Y2023000D01*
X71071803Y2050856D01*
X71244730Y2127849D01*
X71397871Y2239112D01*
X71524533Y2379784D01*
X71619179Y2543716D01*
X71677674Y2723744D01*
X71697460Y2912000D01*
X71677674Y3100256D01*
X71677670Y3100267D01*
X71677621Y3100501D01*
X71677632Y3100648D01*
X71676994Y3106719D01*
X71678103Y3106836D01*
X71682931Y3170168D01*
X71725064Y3225906D01*
X71790641Y3250016D01*
X71858844Y3234845D01*
X71891059Y3209264D01*
X71964129Y3128112D01*
X72117265Y3016852D01*
X72117270Y3016849D01*
X72290192Y2939858D01*
X72290197Y2939856D01*
X72475354Y2900500D01*
X72475355Y2900500D01*
X72664644Y2900500D01*
X72664646Y2900500D01*
X72849803Y2939856D01*
X73022730Y3016849D01*
X73175871Y3128112D01*
X73302533Y3268784D01*
X73397179Y3432716D01*
X73455674Y3612744D01*
X73475460Y3801000D01*
X73455674Y3989256D01*
X73397179Y4169284D01*
X73397174Y4169292D01*
X73395272Y4173565D01*
X73393962Y4176124D01*
X73227362Y4546916D01*
X73164058Y4687810D01*
X73153166Y4738630D01*
X73153166Y6555765D01*
X73161177Y6599611D01*
X73366056Y7141590D01*
X73366057Y7141594D01*
X73366060Y7141601D01*
X73380246Y7184946D01*
X73380682Y7188326D01*
X73385732Y7210779D01*
X73413338Y7295738D01*
X73413337Y7295738D01*
X73413340Y7295744D01*
X73433126Y7484000D01*
X73413340Y7672256D01*
X73354845Y7852284D01*
X73260199Y8016216D01*
X73133537Y8156888D01*
X73101374Y8180256D01*
X72980400Y8268149D01*
X72980395Y8268152D01*
X72807473Y8345143D01*
X72807468Y8345145D01*
X72661667Y8376135D01*
X72622312Y8384500D01*
X72433020Y8384500D01*
X72400563Y8377602D01*
X72247863Y8345145D01*
X72247858Y8345143D01*
X72074936Y8268152D01*
X72074931Y8268149D01*
X71921795Y8156889D01*
X71795132Y8016215D01*
X71788384Y8004528D01*
X71737815Y7956314D01*
X71669207Y7943094D01*
X71604343Y7969064D01*
X71573612Y8004532D01*
X71570459Y8009992D01*
X71566866Y8016216D01*
X71440204Y8156888D01*
X71408041Y8180256D01*
X71287067Y8268149D01*
X71287062Y8268152D01*
X71114140Y8345143D01*
X71114135Y8345145D01*
X70968334Y8376135D01*
X70928979Y8384500D01*
X70739687Y8384500D01*
X70707230Y8377602D01*
X70554530Y8345145D01*
X70554525Y8345143D01*
X70381603Y8268152D01*
X70381598Y8268149D01*
X70228462Y8156889D01*
X70101799Y8016215D01*
X70007154Y7852285D01*
X70007151Y7852278D01*
X69957995Y7700989D01*
X69948659Y7672256D01*
X69928873Y7484000D01*
X69948659Y7295744D01*
X69948661Y7295738D01*
X69988039Y7174542D01*
X69991156Y7163120D01*
X69995935Y7141611D01*
X69995940Y7141594D01*
X70200822Y6599610D01*
X70208833Y6555764D01*
X70208833Y3849628D01*
X70197940Y3798808D01*
X69968024Y3287100D01*
X69966716Y3284542D01*
X69963463Y3277234D01*
X69963227Y3276606D01*
X69963293Y3276580D01*
X69962625Y3274886D01*
X69962620Y3274874D01*
X69945377Y3227104D01*
X69942560Y3219301D01*
X69942559Y3219296D01*
X69942076Y3215994D01*
X69937313Y3195628D01*
X69906328Y3100263D01*
X69906327Y3100258D01*
X69906326Y3100256D01*
X69886540Y2912000D01*
X63042668Y2912000D01*
X63035500Y2951236D01*
X63035500Y4674369D01*
X63037906Y4682564D01*
X63037523Y4683325D01*
X63035500Y4705632D01*
X63035500Y6555765D01*
X63043511Y6599611D01*
X63083508Y6705418D01*
X63183011Y6968640D01*
X63225128Y7024386D01*
X63290699Y7048514D01*
X63358906Y7033361D01*
X63408093Y6983738D01*
X63414988Y6968639D01*
X63554488Y6599612D01*
X63554489Y6599611D01*
X63562500Y6555764D01*
X63562500Y5618239D01*
X63554489Y5574393D01*
X63349606Y5032406D01*
X63335418Y4989055D01*
X63334980Y4985656D01*
X63329932Y4963222D01*
X63302328Y4878263D01*
X63302327Y4878258D01*
X63302326Y4878256D01*
X63283505Y4699176D01*
X63282821Y4692671D01*
X63282107Y4690938D01*
X63282820Y4687335D01*
X63302326Y4501744D01*
X63302327Y4501741D01*
X63360818Y4321723D01*
X63360821Y4321716D01*
X63455467Y4157784D01*
X63538021Y4066099D01*
X63582129Y4017112D01*
X63735265Y3905852D01*
X63735270Y3905849D01*
X63908192Y3828858D01*
X63908197Y3828856D01*
X64093354Y3789500D01*
X64093355Y3789500D01*
X64282644Y3789500D01*
X64282646Y3789500D01*
X64467803Y3828856D01*
X64640730Y3905849D01*
X64793871Y4017112D01*
X64920533Y4157784D01*
X65015179Y4321716D01*
X65073674Y4501744D01*
X65093460Y4690000D01*
X65073674Y4878256D01*
X65034285Y4999479D01*
X65031171Y5010895D01*
X65030064Y5015879D01*
X65026394Y5032400D01*
X64821510Y5574393D01*
X64813500Y5618236D01*
X64813500Y6555765D01*
X64821511Y6599611D01*
X65026390Y7141590D01*
X65026391Y7141594D01*
X65026394Y7141601D01*
X65040580Y7184946D01*
X65041016Y7188326D01*
X65046066Y7210779D01*
X65073672Y7295738D01*
X65073671Y7295738D01*
X65073674Y7295744D01*
X65093460Y7484000D01*
X65073674Y7672256D01*
X65015179Y7852284D01*
X64920533Y8016216D01*
X64793871Y8156888D01*
X64761708Y8180256D01*
X64640734Y8268149D01*
X64640729Y8268152D01*
X64467807Y8345143D01*
X64467802Y8345145D01*
X64322001Y8376135D01*
X64282646Y8384500D01*
X64093354Y8384500D01*
X64060897Y8377602D01*
X63908197Y8345145D01*
X63908192Y8345143D01*
X63735270Y8268152D01*
X63735265Y8268149D01*
X63582129Y8156889D01*
X63455466Y8016215D01*
X63406387Y7931207D01*
X63355820Y7882992D01*
X63287213Y7869768D01*
X63222349Y7895736D01*
X63191613Y7931207D01*
X63163859Y7979278D01*
X63142533Y8016216D01*
X63015871Y8156888D01*
X62983708Y8180256D01*
X62862734Y8268149D01*
X62862729Y8268152D01*
X62689807Y8345143D01*
X62689802Y8345145D01*
X62544001Y8376135D01*
X62504646Y8384500D01*
X62315354Y8384500D01*
X62282897Y8377602D01*
X62130197Y8345145D01*
X62130192Y8345143D01*
X61957270Y8268152D01*
X61957265Y8268149D01*
X61804129Y8156889D01*
X61677466Y8016215D01*
X61582821Y7852285D01*
X61582818Y7852278D01*
X61533662Y7700989D01*
X61524326Y7672256D01*
X61504540Y7484000D01*
X61524326Y7295744D01*
X61524328Y7295738D01*
X61563706Y7174542D01*
X61566823Y7163120D01*
X61571602Y7141611D01*
X61571607Y7141594D01*
X61776489Y6599610D01*
X61784500Y6555764D01*
X61784500Y2951239D01*
X61776489Y2907393D01*
X61571606Y2365406D01*
X61557418Y2322055D01*
X61556980Y2318656D01*
X61551932Y2296222D01*
X61524328Y2211263D01*
X61524327Y2211258D01*
X61524326Y2211256D01*
X61504540Y2023000D01*
X51636750Y2023000D01*
X51767803Y2050856D01*
X51940730Y2127849D01*
X52093871Y2239112D01*
X52220533Y2379784D01*
X52315179Y2543716D01*
X52373674Y2723744D01*
X52393460Y2912000D01*
X52373674Y3100256D01*
X52337664Y3211079D01*
X52334080Y3224704D01*
X52330575Y3241952D01*
X52329818Y3245679D01*
X52198614Y3612744D01*
X52135068Y3790526D01*
X52127833Y3832262D01*
X52127833Y6555765D01*
X52135844Y6599611D01*
X52340724Y7141593D01*
X52340724Y7141594D01*
X52340727Y7141601D01*
X52344441Y7152952D01*
X52383995Y7210543D01*
X52448409Y7237609D01*
X52517231Y7225554D01*
X52568610Y7178205D01*
X52581573Y7145721D01*
X52582003Y7145849D01*
X52583273Y7141594D01*
X52788155Y6599610D01*
X52796166Y6555764D01*
X52796166Y4735555D01*
X52786242Y4686949D01*
X52562999Y4163014D01*
X52562993Y4162997D01*
X52543345Y4108390D01*
X52542667Y4103746D01*
X52537902Y4083363D01*
X52507328Y3989263D01*
X52507326Y3989257D01*
X52492651Y3849628D01*
X52487540Y3801000D01*
X52507326Y3612744D01*
X52507327Y3612741D01*
X52565818Y3432723D01*
X52565821Y3432716D01*
X52660467Y3268784D01*
X52787129Y3128112D01*
X52940265Y3016852D01*
X52940270Y3016849D01*
X53113192Y2939858D01*
X53113197Y2939856D01*
X53298354Y2900500D01*
X53298355Y2900500D01*
X53487644Y2900500D01*
X53487646Y2900500D01*
X53672803Y2939856D01*
X53845730Y3016849D01*
X53998871Y3128112D01*
X54125533Y3268784D01*
X54220179Y3432716D01*
X54278674Y3612744D01*
X54298460Y3801000D01*
X54278674Y3989256D01*
X54245655Y4090876D01*
X54241637Y4106744D01*
X54238149Y4125703D01*
X54238148Y4125704D01*
X54238148Y4125708D01*
X54053648Y4673709D01*
X54047166Y4713275D01*
X54047166Y6555765D01*
X54055177Y6599611D01*
X54260056Y7141590D01*
X54260057Y7141594D01*
X54260060Y7141601D01*
X54274246Y7184946D01*
X54274682Y7188326D01*
X54279732Y7210779D01*
X54307338Y7295738D01*
X54307337Y7295738D01*
X54307340Y7295744D01*
X54327126Y7484000D01*
X54307340Y7672256D01*
X54248845Y7852284D01*
X54154199Y8016216D01*
X54027537Y8156888D01*
X53995374Y8180256D01*
X53874400Y8268149D01*
X53874395Y8268152D01*
X53701473Y8345143D01*
X53701468Y8345145D01*
X53555667Y8376135D01*
X53516312Y8384500D01*
X53327020Y8384500D01*
X53294563Y8377602D01*
X53141863Y8345145D01*
X53141858Y8345143D01*
X52968936Y8268152D01*
X52968931Y8268149D01*
X52815795Y8156889D01*
X52689132Y8016215D01*
X52594487Y7852285D01*
X52594485Y7852281D01*
X52579930Y7807484D01*
X52540492Y7749809D01*
X52476133Y7722611D01*
X52407286Y7734526D01*
X52355811Y7781771D01*
X52344068Y7807486D01*
X52329515Y7852276D01*
X52329513Y7852281D01*
X52329512Y7852284D01*
X52234866Y8016216D01*
X52108204Y8156888D01*
X52076041Y8180256D01*
X51955067Y8268149D01*
X51955062Y8268152D01*
X51782140Y8345143D01*
X51782135Y8345145D01*
X51636334Y8376135D01*
X51596979Y8384500D01*
X51407687Y8384500D01*
X51375230Y8377602D01*
X51222530Y8345145D01*
X51222525Y8345143D01*
X51049603Y8268152D01*
X51049598Y8268149D01*
X50896462Y8156889D01*
X50769799Y8016215D01*
X50675154Y7852285D01*
X50675151Y7852278D01*
X50625995Y7700989D01*
X50616659Y7672256D01*
X50596873Y7484000D01*
X50616659Y7295744D01*
X50616661Y7295738D01*
X50656039Y7174542D01*
X50659156Y7163120D01*
X50663935Y7141611D01*
X50663940Y7141594D01*
X50868822Y6599610D01*
X50876833Y6555764D01*
X50876833Y3843369D01*
X50867887Y3797124D01*
X50653736Y3264342D01*
X50653721Y3264301D01*
X50637155Y3216230D01*
X50637153Y3216221D01*
X50636512Y3211627D01*
X50631635Y3190462D01*
X50602328Y3100263D01*
X50602327Y3100258D01*
X50602326Y3100256D01*
X50582540Y2912000D01*
X44373668Y2912000D01*
X44366500Y2951236D01*
X44366500Y4202445D01*
X44386185Y4269484D01*
X44438989Y4315239D01*
X44508147Y4325183D01*
X44571703Y4296158D01*
X44597884Y4264449D01*
X44656457Y4162997D01*
X44659467Y4157784D01*
X44786129Y4017112D01*
X44939265Y3905852D01*
X44939270Y3905849D01*
X45112192Y3828858D01*
X45112197Y3828856D01*
X45297354Y3789500D01*
X45297355Y3789500D01*
X45486644Y3789500D01*
X45486646Y3789500D01*
X45671803Y3828856D01*
X45844730Y3905849D01*
X45997871Y4017112D01*
X46124533Y4157784D01*
X46219179Y4321716D01*
X46277674Y4501744D01*
X46297460Y4690000D01*
X46277674Y4878256D01*
X46238285Y4999479D01*
X46235171Y5010895D01*
X46234064Y5015879D01*
X46230394Y5032400D01*
X46025510Y5574393D01*
X46017500Y5618236D01*
X46017500Y6555765D01*
X46025511Y6599611D01*
X46230390Y7141590D01*
X46230391Y7141594D01*
X46230394Y7141601D01*
X46244580Y7184946D01*
X46245016Y7188326D01*
X46250066Y7210779D01*
X46277672Y7295738D01*
X46277671Y7295738D01*
X46277674Y7295744D01*
X46297460Y7484000D01*
X46277674Y7672256D01*
X46219179Y7852284D01*
X46124533Y8016216D01*
X45997871Y8156888D01*
X45965708Y8180256D01*
X45844734Y8268149D01*
X45844729Y8268152D01*
X45671807Y8345143D01*
X45671802Y8345145D01*
X45526001Y8376135D01*
X45486646Y8384500D01*
X45297354Y8384500D01*
X45264897Y8377602D01*
X45112197Y8345145D01*
X45112192Y8345143D01*
X44939270Y8268152D01*
X44939265Y8268149D01*
X44786129Y8156889D01*
X44658650Y8015309D01*
X44599163Y7978660D01*
X44529306Y7979991D01*
X44474350Y8015309D01*
X44346870Y8156889D01*
X44193734Y8268149D01*
X44193729Y8268152D01*
X44020807Y8345143D01*
X44020802Y8345145D01*
X43875001Y8376135D01*
X43835646Y8384500D01*
X43646354Y8384500D01*
X43613897Y8377602D01*
X43461197Y8345145D01*
X43461192Y8345143D01*
X43288270Y8268152D01*
X43288265Y8268149D01*
X43135129Y8156889D01*
X43008466Y8016215D01*
X42913821Y7852285D01*
X42913818Y7852278D01*
X42864662Y7700989D01*
X42855326Y7672256D01*
X42835540Y7484000D01*
X42855326Y7295744D01*
X42855328Y7295738D01*
X42894706Y7174542D01*
X42897823Y7163120D01*
X42902602Y7141611D01*
X42902607Y7141594D01*
X43107489Y6599610D01*
X43115500Y6555764D01*
X43115500Y2951239D01*
X43107489Y2907393D01*
X42902606Y2365406D01*
X42888418Y2322055D01*
X42887980Y2318656D01*
X42882932Y2296222D01*
X42855328Y2211263D01*
X42855327Y2211258D01*
X42855326Y2211256D01*
X42835540Y2023000D01*
X34110750Y2023000D01*
X34241803Y2050856D01*
X34414730Y2127849D01*
X34567871Y2239112D01*
X34694533Y2379784D01*
X34789179Y2543716D01*
X34847674Y2723744D01*
X34867460Y2912000D01*
X34847674Y3100256D01*
X34812951Y3207120D01*
X34809182Y3221671D01*
X34805224Y3241952D01*
X34791855Y3280284D01*
X34614750Y3788083D01*
X34607833Y3828918D01*
X34607833Y6555765D01*
X34615844Y6599611D01*
X34782010Y7039180D01*
X34824128Y7094928D01*
X34889699Y7119056D01*
X34957906Y7103903D01*
X35007093Y7054280D01*
X35013987Y7039181D01*
X35089348Y6839825D01*
X35180155Y6599610D01*
X35188166Y6555764D01*
X35188166Y4699569D01*
X35182920Y4663883D01*
X35016368Y4109649D01*
X35009042Y4082566D01*
X35008102Y4077361D01*
X35007712Y4077432D01*
X35003743Y4058251D01*
X34981326Y3989258D01*
X34981326Y3989257D01*
X34966651Y3849628D01*
X34961540Y3801000D01*
X34981326Y3612744D01*
X34981327Y3612741D01*
X35039818Y3432723D01*
X35039821Y3432716D01*
X35134467Y3268784D01*
X35261129Y3128112D01*
X35414265Y3016852D01*
X35414270Y3016849D01*
X35587192Y2939858D01*
X35587197Y2939856D01*
X35772354Y2900500D01*
X35772355Y2900500D01*
X35961644Y2900500D01*
X35961646Y2900500D01*
X36146803Y2939856D01*
X36319730Y3016849D01*
X36472871Y3128112D01*
X36599533Y3268784D01*
X36694179Y3432716D01*
X36752674Y3612744D01*
X36772460Y3801000D01*
X36752674Y3989256D01*
X36694179Y4169284D01*
X36694177Y4169288D01*
X36693354Y4171138D01*
X36690726Y4176176D01*
X36678428Y4202445D01*
X36481186Y4623779D01*
X36450863Y4688553D01*
X36439166Y4741126D01*
X36439166Y6555765D01*
X36447177Y6599611D01*
X36652056Y7141590D01*
X36652057Y7141594D01*
X36652060Y7141601D01*
X36666246Y7184946D01*
X36666682Y7188326D01*
X36671732Y7210779D01*
X36699338Y7295738D01*
X36699337Y7295738D01*
X36699340Y7295744D01*
X36719126Y7484000D01*
X36699340Y7672256D01*
X36640845Y7852284D01*
X36546199Y8016216D01*
X36419537Y8156888D01*
X36387374Y8180256D01*
X36266400Y8268149D01*
X36266395Y8268152D01*
X36093473Y8345143D01*
X36093468Y8345145D01*
X35947667Y8376135D01*
X35908312Y8384500D01*
X35719020Y8384500D01*
X35686563Y8377602D01*
X35533863Y8345145D01*
X35533858Y8345143D01*
X35360936Y8268152D01*
X35360931Y8268149D01*
X35207795Y8156889D01*
X35081131Y8016215D01*
X35005386Y7885019D01*
X34954819Y7836803D01*
X34886212Y7823580D01*
X34821347Y7849548D01*
X34790612Y7885020D01*
X34714869Y8016212D01*
X34714867Y8016215D01*
X34588203Y8156889D01*
X34435067Y8268149D01*
X34435062Y8268152D01*
X34262140Y8345143D01*
X34262135Y8345145D01*
X34116334Y8376135D01*
X34076979Y8384500D01*
X33887687Y8384500D01*
X33855230Y8377602D01*
X33702530Y8345145D01*
X33702525Y8345143D01*
X33529603Y8268152D01*
X33529598Y8268149D01*
X33376462Y8156889D01*
X33249799Y8016215D01*
X33155154Y7852285D01*
X33155151Y7852278D01*
X33105995Y7700989D01*
X33096659Y7672256D01*
X33076873Y7484000D01*
X33096659Y7295744D01*
X33096661Y7295738D01*
X33136039Y7174542D01*
X33139156Y7163120D01*
X33143935Y7141611D01*
X33143940Y7141594D01*
X33348822Y6599610D01*
X33356833Y6555764D01*
X33356833Y3844695D01*
X33347482Y3797456D01*
X33129506Y3268426D01*
X33111877Y3218316D01*
X33111875Y3218310D01*
X33111158Y3213324D01*
X33106356Y3192682D01*
X33076326Y3100257D01*
X33076326Y3100256D01*
X33056540Y2912000D01*
X26466668Y2912000D01*
X26459500Y2951236D01*
X26459500Y4674369D01*
X26461906Y4682564D01*
X26461523Y4683325D01*
X26459500Y4705632D01*
X26459500Y6682765D01*
X26467511Y6726611D01*
X26510309Y6839828D01*
X26607011Y7095640D01*
X26649128Y7151386D01*
X26714699Y7175514D01*
X26782906Y7160361D01*
X26832093Y7110738D01*
X26838988Y7095639D01*
X26950497Y6800658D01*
X26978489Y6726611D01*
X26986500Y6682764D01*
X26986500Y5618239D01*
X26978489Y5574393D01*
X26773606Y5032406D01*
X26759418Y4989055D01*
X26758980Y4985656D01*
X26753932Y4963222D01*
X26726328Y4878263D01*
X26726327Y4878258D01*
X26726326Y4878256D01*
X26707505Y4699176D01*
X26706821Y4692671D01*
X26706107Y4690938D01*
X26706820Y4687335D01*
X26726326Y4501744D01*
X26726327Y4501741D01*
X26784818Y4321723D01*
X26784821Y4321716D01*
X26879467Y4157784D01*
X26962021Y4066099D01*
X27006129Y4017112D01*
X27159265Y3905852D01*
X27159270Y3905849D01*
X27332192Y3828858D01*
X27332197Y3828856D01*
X27517354Y3789500D01*
X27517355Y3789500D01*
X27706644Y3789500D01*
X27706646Y3789500D01*
X27891803Y3828856D01*
X28064730Y3905849D01*
X28217871Y4017112D01*
X28344533Y4157784D01*
X28439179Y4321716D01*
X28497674Y4501744D01*
X28517460Y4690000D01*
X28497674Y4878256D01*
X28458285Y4999479D01*
X28455171Y5010895D01*
X28454064Y5015879D01*
X28450394Y5032400D01*
X28245510Y5574393D01*
X28237500Y5618236D01*
X28237500Y6682765D01*
X28245511Y6726611D01*
X28450390Y7268590D01*
X28450391Y7268594D01*
X28450394Y7268601D01*
X28464580Y7311946D01*
X28465016Y7315326D01*
X28470066Y7337779D01*
X28497672Y7422738D01*
X28497671Y7422738D01*
X28497674Y7422744D01*
X28517460Y7611000D01*
X28497674Y7799256D01*
X28439179Y7979284D01*
X28344533Y8143216D01*
X28217871Y8283888D01*
X28217870Y8283889D01*
X28064734Y8395149D01*
X28064729Y8395152D01*
X27891807Y8472143D01*
X27891802Y8472145D01*
X27746001Y8503135D01*
X27706646Y8511500D01*
X27517354Y8511500D01*
X27484897Y8504602D01*
X27332197Y8472145D01*
X27332192Y8472143D01*
X27159270Y8395152D01*
X27159265Y8395149D01*
X27006129Y8283889D01*
X26879466Y8143215D01*
X26830387Y8058207D01*
X26779820Y8009992D01*
X26711213Y7996768D01*
X26646349Y8022736D01*
X26615613Y8058207D01*
X26587859Y8106278D01*
X26566533Y8143216D01*
X26439871Y8283888D01*
X26439870Y8283889D01*
X26286734Y8395149D01*
X26286729Y8395152D01*
X26113807Y8472143D01*
X26113802Y8472145D01*
X25968001Y8503135D01*
X25928646Y8511500D01*
X25739354Y8511500D01*
X25706897Y8504602D01*
X25554197Y8472145D01*
X25554192Y8472143D01*
X25381270Y8395152D01*
X25381265Y8395149D01*
X25228129Y8283889D01*
X25101466Y8143215D01*
X25006821Y7979285D01*
X25006818Y7979278D01*
X24957108Y7826285D01*
X24948326Y7799256D01*
X24931652Y7640611D01*
X24928540Y7611000D01*
X24948326Y7422744D01*
X24948328Y7422738D01*
X24987706Y7301542D01*
X24990823Y7290120D01*
X24995602Y7268611D01*
X24995607Y7268594D01*
X25200489Y6726610D01*
X25208500Y6682764D01*
X25208500Y2951239D01*
X25200489Y2907393D01*
X24995606Y2365406D01*
X24981418Y2322055D01*
X24980980Y2318656D01*
X24975932Y2296222D01*
X24948328Y2211263D01*
X24948327Y2211258D01*
X24948326Y2211256D01*
X24928540Y2023000D01*
X15060750Y2023000D01*
X15191803Y2050856D01*
X15364730Y2127849D01*
X15517871Y2239112D01*
X15644533Y2379784D01*
X15739179Y2543716D01*
X15797674Y2723744D01*
X15817460Y2912000D01*
X15810432Y2978865D01*
X15823001Y3047592D01*
X15870733Y3098616D01*
X15938474Y3115734D01*
X16004715Y3093512D01*
X16006571Y3092190D01*
X16067956Y3047592D01*
X16110270Y3016849D01*
X16283192Y2939858D01*
X16283197Y2939856D01*
X16468354Y2900500D01*
X16468355Y2900500D01*
X16657644Y2900500D01*
X16657646Y2900500D01*
X16842803Y2939856D01*
X17015730Y3016849D01*
X17168871Y3128112D01*
X17295533Y3268784D01*
X17390179Y3432716D01*
X17448674Y3612744D01*
X17468460Y3801000D01*
X17448674Y3989256D01*
X17413458Y4097638D01*
X17409763Y4111814D01*
X17405680Y4132406D01*
X17232646Y4623779D01*
X17213540Y4678035D01*
X17206500Y4719222D01*
X17206500Y6529765D01*
X17214511Y6573611D01*
X17419390Y7115590D01*
X17419391Y7115594D01*
X17419394Y7115601D01*
X17433580Y7158946D01*
X17434016Y7162326D01*
X17439066Y7184779D01*
X17439121Y7184946D01*
X17466674Y7269744D01*
X17486460Y7458000D01*
X17466674Y7646256D01*
X17408179Y7826284D01*
X17313533Y7990216D01*
X17186871Y8130888D01*
X17186870Y8130889D01*
X17033734Y8242149D01*
X17033729Y8242152D01*
X16860807Y8319143D01*
X16860802Y8319145D01*
X16715001Y8350135D01*
X16675646Y8358500D01*
X16486354Y8358500D01*
X16453897Y8351602D01*
X16301197Y8319145D01*
X16301192Y8319143D01*
X16128270Y8242152D01*
X16128265Y8242149D01*
X15975129Y8130889D01*
X15848466Y7990215D01*
X15833387Y7964097D01*
X15782820Y7915882D01*
X15714213Y7902658D01*
X15649349Y7928626D01*
X15618613Y7964097D01*
X15609848Y7979278D01*
X15603533Y7990216D01*
X15476871Y8130888D01*
X15476870Y8130889D01*
X15323734Y8242149D01*
X15323729Y8242152D01*
X15150807Y8319143D01*
X15150802Y8319145D01*
X15005001Y8350135D01*
X14965646Y8358500D01*
X14776354Y8358500D01*
X14743897Y8351602D01*
X14591197Y8319145D01*
X14591192Y8319143D01*
X14418270Y8242152D01*
X14418265Y8242149D01*
X14265129Y8130889D01*
X14138466Y7990215D01*
X14043821Y7826285D01*
X14043818Y7826278D01*
X13985327Y7646260D01*
X13985326Y7646256D01*
X13975182Y7549741D01*
X13965540Y7458000D01*
X9591727Y7458000D01*
X9594460Y7484000D01*
X9574674Y7672256D01*
X9516179Y7852284D01*
X9421533Y8016216D01*
X9294871Y8156888D01*
X9262708Y8180256D01*
X9141734Y8268149D01*
X9141729Y8268152D01*
X8968807Y8345143D01*
X8968802Y8345145D01*
X8823001Y8376135D01*
X8783646Y8384500D01*
X8594354Y8384500D01*
X8561897Y8377602D01*
X8409197Y8345145D01*
X8409192Y8345143D01*
X8236270Y8268152D01*
X8236265Y8268149D01*
X8083129Y8156889D01*
X7956466Y8016215D01*
X7861821Y7852285D01*
X7861818Y7852278D01*
X7812662Y7700989D01*
X7803326Y7672256D01*
X7783540Y7484000D01*
X7803326Y7295744D01*
X7803327Y7295741D01*
X7836713Y7192989D01*
X7840679Y7177412D01*
X7841214Y7174542D01*
X7844277Y7158119D01*
X8031922Y6605211D01*
X8038500Y6565361D01*
X8038500Y5608645D01*
X8031922Y5568795D01*
X7844279Y5015892D01*
X7833686Y4980473D01*
X7833686Y4980472D01*
X7833592Y4979626D01*
X7828293Y4955099D01*
X7803326Y4878258D01*
X7803326Y4878257D01*
X7803326Y4878256D01*
X7783540Y4690000D01*
X7308460Y4690000D01*
X7288674Y4878256D01*
X7249285Y4999479D01*
X7246171Y5010895D01*
X7245064Y5015879D01*
X7241394Y5032400D01*
X7036510Y5574393D01*
X7028500Y5618236D01*
X7028500Y6555765D01*
X7036511Y6599611D01*
X7241390Y7141590D01*
X7241391Y7141594D01*
X7241394Y7141601D01*
X7255580Y7184946D01*
X7256016Y7188326D01*
X7261066Y7210779D01*
X7288672Y7295738D01*
X7288671Y7295738D01*
X7288674Y7295744D01*
X7308460Y7484000D01*
X7288674Y7672256D01*
X7230179Y7852284D01*
X7135533Y8016216D01*
X7008871Y8156888D01*
X6976708Y8180256D01*
X6855734Y8268149D01*
X6855729Y8268152D01*
X6682807Y8345143D01*
X6682802Y8345145D01*
X6537001Y8376135D01*
X6497646Y8384500D01*
X6308354Y8384500D01*
X6275897Y8377602D01*
X6123197Y8345145D01*
X6123192Y8345143D01*
X5950270Y8268152D01*
X5950265Y8268149D01*
X5797129Y8156889D01*
X5670466Y8016215D01*
X5575821Y7852285D01*
X5575818Y7852278D01*
X5526662Y7700989D01*
X5517326Y7672256D01*
X5497540Y7484000D01*
X5517326Y7295744D01*
X5517328Y7295738D01*
X5556706Y7174542D01*
X5559823Y7163120D01*
X5564602Y7141611D01*
X5564607Y7141594D01*
X5769489Y6599610D01*
X5777500Y6555764D01*
X5777500Y5618239D01*
X5769489Y5574393D01*
X5564606Y5032406D01*
X5550418Y4989055D01*
X5549980Y4985656D01*
X5544932Y4963222D01*
X5517328Y4878263D01*
X5517327Y4878258D01*
X5517326Y4878256D01*
X5497540Y4690000D01*
X5149460Y4690000D01*
X5129674Y4878256D01*
X5096283Y4981018D01*
X5092318Y4996601D01*
X5088723Y5015881D01*
X5088722Y5015884D01*
X4901078Y5568794D01*
X4894500Y5608644D01*
X4894500Y7073358D01*
X4901078Y7113208D01*
X4910711Y7141593D01*
X5088723Y7666121D01*
X5099310Y7701520D01*
X5099400Y7702334D01*
X5104705Y7726900D01*
X5108312Y7738000D01*
X5129674Y7803744D01*
X5149460Y7992000D01*
X5129674Y8180256D01*
X5071179Y8360284D01*
X4976533Y8524216D01*
X4849871Y8664888D01*
X4849870Y8664889D01*
X4696734Y8776149D01*
X4696729Y8776152D01*
X4523807Y8853143D01*
X4523802Y8853145D01*
X4378001Y8884135D01*
X4338646Y8892500D01*
X4149354Y8892500D01*
X4116897Y8885602D01*
X3964197Y8853145D01*
X3964192Y8853143D01*
X3791270Y8776152D01*
X3791265Y8776149D01*
X3638129Y8664889D01*
X3511466Y8524215D01*
X3416821Y8360285D01*
X3416818Y8360278D01*
X3378436Y8242149D01*
X3358326Y8180256D01*
X3338540Y7992000D01*
X3358326Y7803744D01*
X3358327Y7803741D01*
X3391713Y7700989D01*
X3395680Y7685408D01*
X3399277Y7666119D01*
X3533800Y7269738D01*
X3586114Y7115590D01*
X3586922Y7113211D01*
X3593500Y7073361D01*
X3593500Y5608645D01*
X3586922Y5568795D01*
X3399279Y5015892D01*
X3388686Y4980473D01*
X3388686Y4980472D01*
X3388592Y4979626D01*
X3383293Y4955099D01*
X3358326Y4878258D01*
X3358326Y4878257D01*
X3358326Y4878256D01*
X3338540Y4690000D01*
X561000Y4690000D01*
X561000Y10024000D01*
X114209540Y10024000D01*
X114229326Y9835744D01*
X114229327Y9835741D01*
X114287818Y9655723D01*
X114287821Y9655716D01*
X114382467Y9491784D01*
X114509129Y9351112D01*
X114662265Y9239852D01*
X114662270Y9239849D01*
X114835192Y9162858D01*
X114835197Y9162856D01*
X115020354Y9123500D01*
X115020355Y9123500D01*
X115209645Y9123500D01*
X115209646Y9123500D01*
X115343771Y9152009D01*
X115394795Y9162854D01*
X115394796Y9162855D01*
X115394803Y9162856D01*
X115397766Y9164176D01*
X115416762Y9170846D01*
X115983764Y9319450D01*
X116015201Y9323500D01*
X117770799Y9323500D01*
X117802235Y9319450D01*
X118369237Y9170845D01*
X118388233Y9164176D01*
X118391197Y9162856D01*
X118576354Y9123500D01*
X118576355Y9123500D01*
X118765644Y9123500D01*
X118765646Y9123500D01*
X118950803Y9162856D01*
X119123730Y9239849D01*
X119276871Y9351112D01*
X119403533Y9491784D01*
X119498179Y9655716D01*
X119556674Y9835744D01*
X119576460Y10024000D01*
X119556674Y10212256D01*
X119498179Y10392284D01*
X119403533Y10556216D01*
X119276871Y10696888D01*
X119276870Y10696889D01*
X119123734Y10808149D01*
X119123729Y10808152D01*
X118950807Y10885143D01*
X118950802Y10885145D01*
X118805001Y10916135D01*
X118765646Y10924500D01*
X118576354Y10924500D01*
X118483775Y10904822D01*
X118391196Y10885144D01*
X118391186Y10885141D01*
X118388224Y10883822D01*
X118369236Y10877157D01*
X117802233Y10728551D01*
X117770796Y10724500D01*
X116015202Y10724500D01*
X115983765Y10728551D01*
X115416762Y10877157D01*
X115397775Y10883821D01*
X115394804Y10885144D01*
X115394800Y10885145D01*
X115278102Y10909950D01*
X115209646Y10924500D01*
X115020354Y10924500D01*
X114987897Y10917602D01*
X114835197Y10885145D01*
X114835192Y10885143D01*
X114662270Y10808152D01*
X114662265Y10808149D01*
X114509129Y10696889D01*
X114382466Y10556215D01*
X114287821Y10392285D01*
X114287818Y10392278D01*
X114229327Y10212260D01*
X114229326Y10212256D01*
X114209540Y10024000D01*
X561000Y10024000D01*
X561000Y16120000D01*
X21753540Y16120000D01*
X21773326Y15931744D01*
X21773327Y15931741D01*
X21831818Y15751723D01*
X21831821Y15751716D01*
X21926467Y15587784D01*
X22053129Y15447112D01*
X22206265Y15335852D01*
X22206270Y15335849D01*
X22379192Y15258858D01*
X22379197Y15258856D01*
X22564354Y15219500D01*
X22564355Y15219500D01*
X22753645Y15219500D01*
X22753646Y15219500D01*
X22887771Y15248009D01*
X22938795Y15258854D01*
X22938796Y15258855D01*
X22938803Y15258856D01*
X22941766Y15260176D01*
X22960762Y15266846D01*
X23527764Y15415450D01*
X23559201Y15419500D01*
X27092799Y15419500D01*
X27124235Y15415450D01*
X27691237Y15266845D01*
X27710233Y15260176D01*
X27713197Y15258856D01*
X27898354Y15219500D01*
X27898355Y15219500D01*
X28087644Y15219500D01*
X28087646Y15219500D01*
X28272803Y15258856D01*
X28445730Y15335849D01*
X28598871Y15447112D01*
X28725533Y15587784D01*
X28820179Y15751716D01*
X28878674Y15931744D01*
X28898460Y16120000D01*
X41057540Y16120000D01*
X41077326Y15931744D01*
X41077327Y15931741D01*
X41135818Y15751723D01*
X41135821Y15751716D01*
X41230467Y15587784D01*
X41357129Y15447112D01*
X41510265Y15335852D01*
X41510270Y15335849D01*
X41683192Y15258858D01*
X41683197Y15258856D01*
X41868354Y15219500D01*
X41868355Y15219500D01*
X42057645Y15219500D01*
X42057646Y15219500D01*
X42191771Y15248009D01*
X42242795Y15258854D01*
X42242796Y15258855D01*
X42242803Y15258856D01*
X42245766Y15260176D01*
X42264762Y15266846D01*
X42831764Y15415450D01*
X42863201Y15419500D01*
X44618799Y15419500D01*
X44650235Y15415450D01*
X45217237Y15266845D01*
X45236233Y15260176D01*
X45239197Y15258856D01*
X45424354Y15219500D01*
X45424355Y15219500D01*
X45613644Y15219500D01*
X45613646Y15219500D01*
X45798803Y15258856D01*
X45971730Y15335849D01*
X46124871Y15447112D01*
X46251533Y15587784D01*
X46346179Y15751716D01*
X46404674Y15931744D01*
X46424460Y16120000D01*
X58583540Y16120000D01*
X58603326Y15931744D01*
X58603327Y15931741D01*
X58661818Y15751723D01*
X58661821Y15751716D01*
X58756467Y15587784D01*
X58883129Y15447112D01*
X59036265Y15335852D01*
X59036270Y15335849D01*
X59209192Y15258858D01*
X59209197Y15258856D01*
X59394354Y15219500D01*
X59394355Y15219500D01*
X59583645Y15219500D01*
X59583646Y15219500D01*
X59717771Y15248009D01*
X59768795Y15258854D01*
X59768796Y15258855D01*
X59768803Y15258856D01*
X59771766Y15260176D01*
X59790762Y15266846D01*
X60357764Y15415450D01*
X60389201Y15419500D01*
X63668799Y15419500D01*
X63700235Y15415450D01*
X64267237Y15266845D01*
X64286233Y15260176D01*
X64289197Y15258856D01*
X64474354Y15219500D01*
X64474355Y15219500D01*
X64663644Y15219500D01*
X64663646Y15219500D01*
X64848803Y15258856D01*
X65021730Y15335849D01*
X65174871Y15447112D01*
X65301533Y15587784D01*
X65396179Y15751716D01*
X65454674Y15931744D01*
X65474460Y16120000D01*
X77887540Y16120000D01*
X77907326Y15931744D01*
X77907327Y15931741D01*
X77965818Y15751723D01*
X77965821Y15751716D01*
X78060467Y15587784D01*
X78187129Y15447112D01*
X78340265Y15335852D01*
X78340270Y15335849D01*
X78513192Y15258858D01*
X78513197Y15258856D01*
X78698354Y15219500D01*
X78698355Y15219500D01*
X78887645Y15219500D01*
X78887646Y15219500D01*
X79021771Y15248009D01*
X79072795Y15258854D01*
X79072796Y15258855D01*
X79072803Y15258856D01*
X79075766Y15260176D01*
X79094762Y15266846D01*
X79661764Y15415450D01*
X79693201Y15419500D01*
X82972799Y15419500D01*
X83004235Y15415450D01*
X83571237Y15266845D01*
X83590233Y15260176D01*
X83593197Y15258856D01*
X83778354Y15219500D01*
X83778355Y15219500D01*
X83967644Y15219500D01*
X83967646Y15219500D01*
X84152803Y15258856D01*
X84325730Y15335849D01*
X84478871Y15447112D01*
X84605533Y15587784D01*
X84700179Y15751716D01*
X84758674Y15931744D01*
X84778460Y16120000D01*
X96937540Y16120000D01*
X96957326Y15931744D01*
X96957327Y15931741D01*
X97015818Y15751723D01*
X97015821Y15751716D01*
X97110467Y15587784D01*
X97237129Y15447112D01*
X97390265Y15335852D01*
X97390270Y15335849D01*
X97563192Y15258858D01*
X97563197Y15258856D01*
X97748354Y15219500D01*
X97748355Y15219500D01*
X97937645Y15219500D01*
X97937646Y15219500D01*
X98071771Y15248009D01*
X98122795Y15258854D01*
X98122796Y15258855D01*
X98122803Y15258856D01*
X98125766Y15260176D01*
X98144762Y15266846D01*
X98711764Y15415450D01*
X98743201Y15419500D01*
X100752799Y15419500D01*
X100784235Y15415450D01*
X101351237Y15266845D01*
X101370233Y15260176D01*
X101373197Y15258856D01*
X101558354Y15219500D01*
X101558355Y15219500D01*
X101747644Y15219500D01*
X101747646Y15219500D01*
X101932803Y15258856D01*
X102105730Y15335849D01*
X102258871Y15447112D01*
X102385533Y15587784D01*
X102480179Y15751716D01*
X102538674Y15931744D01*
X102558460Y16120000D01*
X102538674Y16308256D01*
X102480179Y16488284D01*
X102385533Y16652216D01*
X102258871Y16792888D01*
X102258870Y16792889D01*
X102105734Y16904149D01*
X102105729Y16904152D01*
X101932807Y16981143D01*
X101932802Y16981145D01*
X101787001Y17012135D01*
X101747646Y17020500D01*
X101558354Y17020500D01*
X101465775Y17000822D01*
X101373196Y16981144D01*
X101373186Y16981141D01*
X101370224Y16979822D01*
X101351236Y16973157D01*
X100784233Y16824551D01*
X100752796Y16820500D01*
X98743202Y16820500D01*
X98711765Y16824551D01*
X98144762Y16973157D01*
X98125775Y16979821D01*
X98122804Y16981144D01*
X98122800Y16981145D01*
X98006102Y17005950D01*
X97937646Y17020500D01*
X97748354Y17020500D01*
X97715897Y17013602D01*
X97563197Y16981145D01*
X97563192Y16981143D01*
X97390270Y16904152D01*
X97390265Y16904149D01*
X97237129Y16792889D01*
X97110466Y16652215D01*
X97015821Y16488285D01*
X97015818Y16488278D01*
X96957327Y16308260D01*
X96957326Y16308256D01*
X96937540Y16120000D01*
X84778460Y16120000D01*
X84758674Y16308256D01*
X84700179Y16488284D01*
X84605533Y16652216D01*
X84478871Y16792888D01*
X84478870Y16792889D01*
X84325734Y16904149D01*
X84325729Y16904152D01*
X84152807Y16981143D01*
X84152802Y16981145D01*
X84007001Y17012135D01*
X83967646Y17020500D01*
X83778354Y17020500D01*
X83685775Y17000822D01*
X83593196Y16981144D01*
X83593186Y16981141D01*
X83590224Y16979822D01*
X83571236Y16973157D01*
X83004233Y16824551D01*
X82972796Y16820500D01*
X79693202Y16820500D01*
X79661765Y16824551D01*
X79094762Y16973157D01*
X79075775Y16979821D01*
X79072804Y16981144D01*
X79072800Y16981145D01*
X78956102Y17005950D01*
X78887646Y17020500D01*
X78698354Y17020500D01*
X78665897Y17013602D01*
X78513197Y16981145D01*
X78513192Y16981143D01*
X78340270Y16904152D01*
X78340265Y16904149D01*
X78187129Y16792889D01*
X78060466Y16652215D01*
X77965821Y16488285D01*
X77965818Y16488278D01*
X77907327Y16308260D01*
X77907326Y16308256D01*
X77887540Y16120000D01*
X65474460Y16120000D01*
X65454674Y16308256D01*
X65396179Y16488284D01*
X65301533Y16652216D01*
X65174871Y16792888D01*
X65174870Y16792889D01*
X65021734Y16904149D01*
X65021729Y16904152D01*
X64848807Y16981143D01*
X64848802Y16981145D01*
X64703001Y17012135D01*
X64663646Y17020500D01*
X64474354Y17020500D01*
X64381775Y17000822D01*
X64289196Y16981144D01*
X64289186Y16981141D01*
X64286224Y16979822D01*
X64267236Y16973157D01*
X63700233Y16824551D01*
X63668796Y16820500D01*
X60389202Y16820500D01*
X60357765Y16824551D01*
X59790762Y16973157D01*
X59771775Y16979821D01*
X59768804Y16981144D01*
X59768800Y16981145D01*
X59652102Y17005950D01*
X59583646Y17020500D01*
X59394354Y17020500D01*
X59361897Y17013602D01*
X59209197Y16981145D01*
X59209192Y16981143D01*
X59036270Y16904152D01*
X59036265Y16904149D01*
X58883129Y16792889D01*
X58756466Y16652215D01*
X58661821Y16488285D01*
X58661818Y16488278D01*
X58603327Y16308260D01*
X58603326Y16308256D01*
X58583540Y16120000D01*
X46424460Y16120000D01*
X46404674Y16308256D01*
X46346179Y16488284D01*
X46251533Y16652216D01*
X46124871Y16792888D01*
X46124870Y16792889D01*
X45971734Y16904149D01*
X45971729Y16904152D01*
X45798807Y16981143D01*
X45798802Y16981145D01*
X45653001Y17012135D01*
X45613646Y17020500D01*
X45424354Y17020500D01*
X45331775Y17000822D01*
X45239196Y16981144D01*
X45239186Y16981141D01*
X45236224Y16979822D01*
X45217236Y16973157D01*
X44650233Y16824551D01*
X44618796Y16820500D01*
X42863202Y16820500D01*
X42831765Y16824551D01*
X42264762Y16973157D01*
X42245775Y16979821D01*
X42242804Y16981144D01*
X42242800Y16981145D01*
X42126102Y17005950D01*
X42057646Y17020500D01*
X41868354Y17020500D01*
X41835897Y17013602D01*
X41683197Y16981145D01*
X41683192Y16981143D01*
X41510270Y16904152D01*
X41510265Y16904149D01*
X41357129Y16792889D01*
X41230466Y16652215D01*
X41135821Y16488285D01*
X41135818Y16488278D01*
X41077327Y16308260D01*
X41077326Y16308256D01*
X41057540Y16120000D01*
X28898460Y16120000D01*
X28878674Y16308256D01*
X28820179Y16488284D01*
X28725533Y16652216D01*
X28598871Y16792888D01*
X28598870Y16792889D01*
X28445734Y16904149D01*
X28445729Y16904152D01*
X28272807Y16981143D01*
X28272802Y16981145D01*
X28127001Y17012135D01*
X28087646Y17020500D01*
X27898354Y17020500D01*
X27805775Y17000822D01*
X27713196Y16981144D01*
X27713186Y16981141D01*
X27710224Y16979822D01*
X27691236Y16973157D01*
X27124233Y16824551D01*
X27092796Y16820500D01*
X23559202Y16820500D01*
X23527765Y16824551D01*
X22960762Y16973157D01*
X22941775Y16979821D01*
X22938804Y16981144D01*
X22938800Y16981145D01*
X22822102Y17005950D01*
X22753646Y17020500D01*
X22564354Y17020500D01*
X22531897Y17013602D01*
X22379197Y16981145D01*
X22379192Y16981143D01*
X22206270Y16904152D01*
X22206265Y16904149D01*
X22053129Y16792889D01*
X21926466Y16652215D01*
X21831821Y16488285D01*
X21831818Y16488278D01*
X21773327Y16308260D01*
X21773326Y16308256D01*
X21753540Y16120000D01*
X561000Y16120000D01*
X561000Y26410000D01*
X580685Y26477039D01*
X633489Y26522794D01*
X685000Y26534000D01*
X1932852Y26534000D01*
X1999891Y26514315D01*
X2045646Y26461511D01*
X2055590Y26392353D01*
X2026565Y26328797D01*
X1976185Y26293818D01*
X1907913Y26268355D01*
X1907906Y26268351D01*
X1792812Y26182191D01*
X1792809Y26182188D01*
X1706649Y26067094D01*
X1706645Y26067087D01*
X1656403Y25932380D01*
X1656401Y25932373D01*
X1650000Y25872845D01*
X1650000Y25225000D01*
X2566314Y25225000D01*
X2540507Y25184844D01*
X2500000Y25046889D01*
X2500000Y24903111D01*
X2540507Y24765156D01*
X2566314Y24725000D01*
X1650000Y24725000D01*
X1650000Y24077156D01*
X1656401Y24017628D01*
X1656403Y24017621D01*
X1706645Y23882914D01*
X1706649Y23882907D01*
X1792809Y23767813D01*
X1792812Y23767810D01*
X1907906Y23681650D01*
X1907913Y23681646D01*
X2042620Y23631404D01*
X2042627Y23631402D01*
X2102155Y23625001D01*
X2102172Y23625000D01*
X2750000Y23625000D01*
X2750000Y24539499D01*
X2857685Y24490320D01*
X2964237Y24475000D01*
X3035763Y24475000D01*
X3142315Y24490320D01*
X3250000Y24539499D01*
X3250000Y23625000D01*
X3897828Y23625000D01*
X3897844Y23625001D01*
X3957372Y23631402D01*
X3957379Y23631404D01*
X4092086Y23681646D01*
X4092093Y23681650D01*
X4207187Y23767810D01*
X4207190Y23767813D01*
X4293350Y23882907D01*
X4293354Y23882914D01*
X4343596Y24017621D01*
X4343598Y24017628D01*
X4349999Y24077156D01*
X4350000Y24077173D01*
X4350000Y24725000D01*
X3433686Y24725000D01*
X3459493Y24765156D01*
X3500000Y24903111D01*
X3500000Y25046889D01*
X3459493Y25184844D01*
X3433686Y25225000D01*
X4350000Y25225000D01*
X4350000Y25872828D01*
X4349999Y25872845D01*
X4343598Y25932373D01*
X4343596Y25932380D01*
X4293354Y26067087D01*
X4293350Y26067094D01*
X4207190Y26182188D01*
X4207187Y26182191D01*
X4092093Y26268351D01*
X4092086Y26268355D01*
X4023815Y26293818D01*
X3967881Y26335689D01*
X3943464Y26401153D01*
X3958316Y26469426D01*
X4007721Y26518832D01*
X4067148Y26534000D01*
X6533000Y26534000D01*
X6600039Y26514315D01*
X6645794Y26461511D01*
X6657000Y26410000D01*
X6657000Y21708000D01*
X6656999Y21708000D01*
X58980999Y21327000D01*
X58980999Y21327001D01*
X58981000Y21327000D01*
X58981000Y24102156D01*
X59650000Y24102156D01*
X59656401Y24042628D01*
X59656403Y24042621D01*
X59706645Y23907914D01*
X59706649Y23907907D01*
X59792809Y23792813D01*
X59792812Y23792810D01*
X59907906Y23706650D01*
X59907913Y23706646D01*
X60039986Y23657386D01*
X60095920Y23615515D01*
X60120337Y23550051D01*
X60105486Y23481778D01*
X60084335Y23453523D01*
X59961886Y23331074D01*
X59826400Y23137580D01*
X59826399Y23137578D01*
X59726570Y22923493D01*
X59726567Y22923487D01*
X59669364Y22710001D01*
X59669364Y22710000D01*
X60566314Y22710000D01*
X60540507Y22669844D01*
X60500000Y22531889D01*
X60500000Y22388111D01*
X60540507Y22250156D01*
X60566314Y22210000D01*
X59669364Y22210000D01*
X59726567Y21996514D01*
X59726570Y21996508D01*
X59826399Y21782422D01*
X59961894Y21588918D01*
X60128917Y21421895D01*
X60322421Y21286400D01*
X60536507Y21186571D01*
X60536516Y21186567D01*
X60750000Y21129366D01*
X60750000Y22024499D01*
X60857685Y21975320D01*
X60964237Y21960000D01*
X61035763Y21960000D01*
X61142315Y21975320D01*
X61250000Y22024499D01*
X61250000Y21129367D01*
X61463483Y21186567D01*
X61463492Y21186571D01*
X61677578Y21286400D01*
X61871082Y21421895D01*
X62038105Y21588918D01*
X62173600Y21782422D01*
X62273429Y21996508D01*
X62273432Y21996514D01*
X62330636Y22210000D01*
X61433686Y22210000D01*
X61459493Y22250156D01*
X61500000Y22388111D01*
X61500000Y22531889D01*
X61459493Y22669844D01*
X61433686Y22710000D01*
X62330636Y22710000D01*
X62330635Y22710001D01*
X62273432Y22923487D01*
X62273429Y22923493D01*
X62173600Y23137578D01*
X62173599Y23137580D01*
X62038113Y23331074D01*
X62038108Y23331080D01*
X61915665Y23453523D01*
X61882180Y23514846D01*
X61887164Y23584538D01*
X61929036Y23640471D01*
X61960013Y23657386D01*
X62092086Y23706646D01*
X62092093Y23706650D01*
X62207187Y23792810D01*
X62207190Y23792813D01*
X62293350Y23907907D01*
X62293354Y23907914D01*
X62343596Y24042621D01*
X62343598Y24042628D01*
X62349999Y24102156D01*
X62350000Y24102173D01*
X62350000Y24750000D01*
X61433686Y24750000D01*
X61459493Y24790156D01*
X61500000Y24928111D01*
X61500000Y25071889D01*
X61459493Y25209844D01*
X61433686Y25250000D01*
X62350000Y25250000D01*
X62350000Y25897828D01*
X62349999Y25897845D01*
X62343598Y25957373D01*
X62343596Y25957380D01*
X62293354Y26092087D01*
X62293350Y26092094D01*
X62207190Y26207188D01*
X62207187Y26207191D01*
X62092093Y26293351D01*
X62092086Y26293355D01*
X61957379Y26343597D01*
X61957372Y26343599D01*
X61897844Y26350000D01*
X61250000Y26350000D01*
X61250000Y25435502D01*
X61142315Y25484680D01*
X61035763Y25500000D01*
X60964237Y25500000D01*
X60857685Y25484680D01*
X60750000Y25435502D01*
X60750000Y26350000D01*
X60102155Y26350000D01*
X60042627Y26343599D01*
X60042620Y26343597D01*
X59907913Y26293355D01*
X59907906Y26293351D01*
X59792812Y26207191D01*
X59792809Y26207188D01*
X59706649Y26092094D01*
X59706645Y26092087D01*
X59656403Y25957380D01*
X59656401Y25957373D01*
X59650000Y25897845D01*
X59650000Y25250000D01*
X60566314Y25250000D01*
X60540507Y25209844D01*
X60500000Y25071889D01*
X60500000Y24928111D01*
X60540507Y24790156D01*
X60566314Y24750000D01*
X59650000Y24750000D01*
X59650000Y24102156D01*
X58981000Y24102156D01*
X58981000Y26918000D01*
X59000685Y26985039D01*
X59053489Y27030794D01*
X59105000Y27042000D01*
X63175000Y27042000D01*
X63242039Y27022315D01*
X63287794Y26969511D01*
X63299000Y26918000D01*
X63299000Y21327000D01*
X112575000Y21581000D01*
X112559075Y23715000D01*
X120644341Y23715000D01*
X120664936Y23479597D01*
X120664938Y23479587D01*
X120726094Y23251345D01*
X120726096Y23251341D01*
X120726097Y23251337D01*
X120779143Y23137580D01*
X120825965Y23037170D01*
X120825967Y23037166D01*
X120905567Y22923487D01*
X120961501Y22843604D01*
X120961506Y22843598D01*
X121083818Y22721286D01*
X121117303Y22659963D01*
X121112319Y22590271D01*
X121070447Y22534338D01*
X121039471Y22517423D01*
X120907912Y22468354D01*
X120907906Y22468351D01*
X120792812Y22382191D01*
X120792809Y22382188D01*
X120706649Y22267094D01*
X120706645Y22267087D01*
X120656403Y22132380D01*
X120656401Y22132373D01*
X120650000Y22072845D01*
X120650000Y21425000D01*
X121566314Y21425000D01*
X121540507Y21384844D01*
X121500000Y21246889D01*
X121500000Y21103111D01*
X121540507Y20965156D01*
X121566314Y20925000D01*
X120650000Y20925000D01*
X120650000Y20277156D01*
X120656401Y20217628D01*
X120656403Y20217621D01*
X120706645Y20082914D01*
X120706649Y20082907D01*
X120792809Y19967813D01*
X120792812Y19967810D01*
X120907906Y19881650D01*
X120907913Y19881646D01*
X121042620Y19831404D01*
X121042627Y19831402D01*
X121102155Y19825001D01*
X121102172Y19825000D01*
X121750000Y19825000D01*
X121750000Y20739499D01*
X121857685Y20690320D01*
X121964237Y20675000D01*
X122035763Y20675000D01*
X122142315Y20690320D01*
X122250000Y20739499D01*
X122250000Y19825000D01*
X122897828Y19825000D01*
X122897844Y19825001D01*
X122957372Y19831402D01*
X122957379Y19831404D01*
X123092086Y19881646D01*
X123092093Y19881650D01*
X123207187Y19967810D01*
X123207190Y19967813D01*
X123293350Y20082907D01*
X123293354Y20082914D01*
X123343596Y20217621D01*
X123343598Y20217628D01*
X123349999Y20277156D01*
X123350000Y20277173D01*
X123350000Y20925000D01*
X122433686Y20925000D01*
X122459493Y20965156D01*
X122500000Y21103111D01*
X122500000Y21246889D01*
X122459493Y21384844D01*
X122433686Y21425000D01*
X123350000Y21425000D01*
X123350000Y22072828D01*
X123349999Y22072845D01*
X123343598Y22132373D01*
X123343596Y22132380D01*
X123293354Y22267087D01*
X123293350Y22267094D01*
X123207190Y22382188D01*
X123207187Y22382191D01*
X123092093Y22468351D01*
X123092088Y22468354D01*
X122960528Y22517423D01*
X122904595Y22559295D01*
X122880178Y22624759D01*
X122895030Y22693032D01*
X122916175Y22721280D01*
X123038495Y22843599D01*
X123174035Y23037170D01*
X123273903Y23251337D01*
X123335063Y23479592D01*
X123355659Y23715000D01*
X123335063Y23950408D01*
X123273903Y24178663D01*
X123174035Y24392829D01*
X123116499Y24475000D01*
X123038494Y24586403D01*
X122871402Y24753494D01*
X122871396Y24753499D01*
X122685842Y24883425D01*
X122642217Y24938002D01*
X122635023Y25007500D01*
X122666546Y25069855D01*
X122685842Y25086575D01*
X122826184Y25184844D01*
X122871401Y25216505D01*
X123038495Y25383599D01*
X123174035Y25577170D01*
X123273903Y25791337D01*
X123335063Y26019592D01*
X123355659Y26255000D01*
X123335063Y26490408D01*
X123273903Y26718663D01*
X123174035Y26932829D01*
X123152134Y26964108D01*
X123038494Y27126403D01*
X122871402Y27293494D01*
X122871396Y27293499D01*
X122685842Y27423425D01*
X122642217Y27478002D01*
X122635023Y27547500D01*
X122666546Y27609855D01*
X122685842Y27626575D01*
X122708026Y27642109D01*
X122871401Y27756505D01*
X123038495Y27923599D01*
X123174035Y28117170D01*
X123273903Y28331337D01*
X123335063Y28559592D01*
X123355659Y28795000D01*
X123335063Y29030408D01*
X123288099Y29205681D01*
X123273905Y29258656D01*
X123273904Y29258657D01*
X123273903Y29258663D01*
X123174035Y29472829D01*
X123091056Y29591337D01*
X123038494Y29666403D01*
X122871402Y29833494D01*
X122871396Y29833499D01*
X122685842Y29963425D01*
X122642217Y30018002D01*
X122635023Y30087500D01*
X122666546Y30149855D01*
X122685842Y30166575D01*
X122708026Y30182109D01*
X122871401Y30296505D01*
X123038495Y30463599D01*
X123174035Y30657170D01*
X123273903Y30871337D01*
X123335063Y31099592D01*
X123355659Y31335000D01*
X123335063Y31570408D01*
X123273903Y31798663D01*
X123174035Y32012829D01*
X123038495Y32206401D01*
X123038494Y32206403D01*
X122871402Y32373494D01*
X122871396Y32373499D01*
X122685842Y32503425D01*
X122642217Y32558002D01*
X122635023Y32627500D01*
X122666546Y32689855D01*
X122685842Y32706575D01*
X122767293Y32763608D01*
X122871401Y32836505D01*
X123038495Y33003599D01*
X123174035Y33197170D01*
X123273903Y33411337D01*
X123335063Y33639592D01*
X123355659Y33875000D01*
X123335063Y34110408D01*
X123273903Y34338663D01*
X123174035Y34552829D01*
X123120292Y34629583D01*
X123038494Y34746403D01*
X122871402Y34913494D01*
X122871395Y34913499D01*
X122677834Y35049033D01*
X122677830Y35049035D01*
X122677828Y35049036D01*
X122463663Y35148903D01*
X122463659Y35148904D01*
X122463655Y35148906D01*
X122235413Y35210062D01*
X122235403Y35210064D01*
X122000001Y35230659D01*
X121999999Y35230659D01*
X121764596Y35210064D01*
X121764586Y35210062D01*
X121536344Y35148906D01*
X121536335Y35148902D01*
X121322171Y35049036D01*
X121322169Y35049035D01*
X121128597Y34913495D01*
X120961505Y34746403D01*
X120825965Y34552831D01*
X120825964Y34552829D01*
X120726098Y34338665D01*
X120726094Y34338656D01*
X120664938Y34110414D01*
X120664936Y34110404D01*
X120644341Y33875001D01*
X120644341Y33875000D01*
X120664936Y33639597D01*
X120664938Y33639587D01*
X120726094Y33411345D01*
X120726096Y33411341D01*
X120726097Y33411337D01*
X120804025Y33244220D01*
X120825965Y33197170D01*
X120825967Y33197166D01*
X120961501Y33003605D01*
X120961506Y33003598D01*
X121128597Y32836507D01*
X121128603Y32836502D01*
X121314158Y32706575D01*
X121357783Y32651998D01*
X121364977Y32582500D01*
X121333454Y32520145D01*
X121314158Y32503425D01*
X121128597Y32373495D01*
X120961505Y32206403D01*
X120825965Y32012831D01*
X120825964Y32012829D01*
X120726098Y31798665D01*
X120726094Y31798656D01*
X120664938Y31570414D01*
X120664936Y31570404D01*
X120644341Y31335001D01*
X120644341Y31335000D01*
X120664936Y31099597D01*
X120664938Y31099587D01*
X120726094Y30871345D01*
X120726096Y30871341D01*
X120726097Y30871337D01*
X120765866Y30786052D01*
X120825965Y30657170D01*
X120825967Y30657166D01*
X120961501Y30463605D01*
X120961506Y30463598D01*
X121128597Y30296507D01*
X121128603Y30296502D01*
X121314158Y30166575D01*
X121357783Y30111998D01*
X121364977Y30042500D01*
X121333454Y29980145D01*
X121314158Y29963425D01*
X121128597Y29833495D01*
X120961505Y29666403D01*
X120825965Y29472831D01*
X120825964Y29472829D01*
X120726098Y29258665D01*
X120726094Y29258656D01*
X120664938Y29030414D01*
X120664936Y29030404D01*
X120644341Y28795001D01*
X120644341Y28795000D01*
X120664936Y28559597D01*
X120664938Y28559587D01*
X120726094Y28331345D01*
X120726096Y28331341D01*
X120726097Y28331337D01*
X120790685Y28192829D01*
X120825965Y28117170D01*
X120825967Y28117166D01*
X120961501Y27923605D01*
X120961506Y27923598D01*
X121128597Y27756507D01*
X121128603Y27756502D01*
X121314158Y27626575D01*
X121357783Y27571998D01*
X121364977Y27502500D01*
X121333454Y27440145D01*
X121314158Y27423425D01*
X121128597Y27293495D01*
X120961505Y27126403D01*
X120825965Y26932831D01*
X120825964Y26932829D01*
X120726098Y26718665D01*
X120726094Y26718656D01*
X120664938Y26490414D01*
X120664936Y26490404D01*
X120644341Y26255001D01*
X120644341Y26255000D01*
X120664936Y26019597D01*
X120664938Y26019587D01*
X120726094Y25791345D01*
X120726096Y25791341D01*
X120726097Y25791337D01*
X120729392Y25784271D01*
X120825965Y25577170D01*
X120825967Y25577166D01*
X120880000Y25500000D01*
X120950054Y25399952D01*
X120961501Y25383605D01*
X120961506Y25383598D01*
X121128597Y25216507D01*
X121128603Y25216502D01*
X121314158Y25086575D01*
X121357783Y25031998D01*
X121364977Y24962500D01*
X121333454Y24900145D01*
X121314158Y24883425D01*
X121128597Y24753495D01*
X120961505Y24586403D01*
X120825965Y24392831D01*
X120825964Y24392829D01*
X120726098Y24178665D01*
X120726094Y24178656D01*
X120664938Y23950414D01*
X120664936Y23950404D01*
X120644341Y23715001D01*
X120644341Y23715000D01*
X112559075Y23715000D01*
X112448000Y38599000D01*
X105493589Y46564962D01*
X105464328Y46628410D01*
X105463000Y46646512D01*
X105463000Y54096000D01*
X105482685Y54163039D01*
X105535489Y54208794D01*
X105587000Y54220000D01*
X124389000Y54220000D01*
X124456039Y54200315D01*
G37*
%TD.AperFunction*%
%TD*%
%TA.AperFunction,Conductor*%
%TO.N,~ENABLE*%
G36*
X45517188Y5486573D02*
G01*
X45519859Y5482437D01*
X45757551Y4853656D01*
X45757271Y4844706D01*
X45751109Y4838720D01*
X45396502Y4690877D01*
X45387548Y4690856D01*
X45387498Y4690877D01*
X45032890Y4838720D01*
X45026572Y4845067D01*
X45026448Y4853655D01*
X45264141Y5482438D01*
X45270272Y5488964D01*
X45275085Y5490000D01*
X45508915Y5490000D01*
X45517188Y5486573D01*
G37*
%TD.AperFunction*%
%TD*%
%TA.AperFunction,Conductor*%
%TO.N,/~SRCLR*%
G36*
X100000188Y2819573D02*
G01*
X100002859Y2815437D01*
X100240551Y2186656D01*
X100240271Y2177706D01*
X100234109Y2171720D01*
X99879502Y2023877D01*
X99870548Y2023856D01*
X99870498Y2023877D01*
X99515890Y2171720D01*
X99509572Y2178067D01*
X99509448Y2186655D01*
X99747141Y2815438D01*
X99753272Y2821964D01*
X99758085Y2823000D01*
X99991915Y2823000D01*
X100000188Y2819573D01*
G37*
%TD.AperFunction*%
%TD*%
%TA.AperFunction,Conductor*%
%TO.N,~SRCLK*%
G36*
X107814439Y7351820D02*
G01*
X107854461Y7335134D01*
X107860779Y7328787D01*
X107861038Y7320575D01*
X107647695Y6691940D01*
X107641792Y6685207D01*
X107636616Y6684000D01*
X107353384Y6684000D01*
X107345111Y6687427D01*
X107342305Y6691940D01*
X107128961Y7320575D01*
X107129547Y7329511D01*
X107135537Y7335134D01*
X107490500Y7483125D01*
X107499449Y7483145D01*
X107814439Y7351820D01*
G37*
%TD.AperFunction*%
%TD*%
%TA.AperFunction,Conductor*%
%TO.N,~SRCLK*%
G36*
X70959039Y3700152D02*
G01*
X70961920Y3695412D01*
X71158318Y3075284D01*
X71157549Y3066362D01*
X71151666Y3060952D01*
X70796502Y2912877D01*
X70787548Y2912856D01*
X70787498Y2912877D01*
X70433545Y3060447D01*
X70427227Y3066794D01*
X70427248Y3075748D01*
X70427347Y3075979D01*
X70706231Y3696674D01*
X70712747Y3702816D01*
X70716903Y3703579D01*
X70950766Y3703579D01*
X70959039Y3700152D01*
G37*
%TD.AperFunction*%
%TD*%
%TA.AperFunction,Conductor*%
%TO.N,~RCLK*%
G36*
X109592439Y7351820D02*
G01*
X109632461Y7335134D01*
X109638779Y7328787D01*
X109639038Y7320575D01*
X109425695Y6691940D01*
X109419792Y6685207D01*
X109414616Y6684000D01*
X109131384Y6684000D01*
X109123111Y6687427D01*
X109120305Y6691940D01*
X108906961Y7320575D01*
X108907547Y7329511D01*
X108913537Y7335134D01*
X109268500Y7483125D01*
X109277449Y7483145D01*
X109592439Y7351820D01*
G37*
%TD.AperFunction*%
%TD*%
%TA.AperFunction,Conductor*%
%TO.N,~RCLK*%
G36*
X72653369Y4589152D02*
G01*
X72655768Y4585674D01*
X72934624Y3965041D01*
X72934889Y3956090D01*
X72928747Y3949574D01*
X72928454Y3949447D01*
X72574502Y3801877D01*
X72565548Y3801856D01*
X72565498Y3801877D01*
X72210333Y3949952D01*
X72204015Y3956299D01*
X72203681Y3964282D01*
X72400079Y4584413D01*
X72405844Y4591264D01*
X72411233Y4592579D01*
X72645096Y4592579D01*
X72653369Y4589152D01*
G37*
%TD.AperFunction*%
%TD*%
%TA.AperFunction,Conductor*%
%TO.N,~SRCLK*%
G36*
X51861442Y7335281D02*
G01*
X51867760Y7328934D01*
X51867884Y7320345D01*
X51630192Y6691563D01*
X51624061Y6685036D01*
X51619248Y6684000D01*
X51385418Y6684000D01*
X51377145Y6687427D01*
X51374474Y6691563D01*
X51136781Y7320345D01*
X51137061Y7329295D01*
X51143222Y7335281D01*
X51497833Y7483125D01*
X51506782Y7483145D01*
X51861442Y7335281D01*
G37*
%TD.AperFunction*%
%TD*%
%TA.AperFunction,Conductor*%
%TO.N,~ENABLE*%
G36*
X9008439Y7351820D02*
G01*
X9048461Y7335134D01*
X9054779Y7328787D01*
X9055038Y7320575D01*
X8841695Y6691940D01*
X8835792Y6685207D01*
X8830616Y6684000D01*
X8547384Y6684000D01*
X8539111Y6687427D01*
X8536305Y6691940D01*
X8322961Y7320575D01*
X8323547Y7329511D01*
X8329537Y7335134D01*
X8684500Y7483125D01*
X8693449Y7483145D01*
X9008439Y7351820D01*
G37*
%TD.AperFunction*%
%TD*%
%TA.AperFunction,Conductor*%
%TO.N,~ENABLE*%
G36*
X64547109Y7335281D02*
G01*
X64553427Y7328934D01*
X64553551Y7320345D01*
X64315859Y6691563D01*
X64309728Y6685036D01*
X64304915Y6684000D01*
X64071085Y6684000D01*
X64062812Y6687427D01*
X64060141Y6691563D01*
X63822448Y7320345D01*
X63822728Y7329295D01*
X63828889Y7335281D01*
X64183500Y7483125D01*
X64192449Y7483145D01*
X64547109Y7335281D01*
G37*
%TD.AperFunction*%
%TD*%
%TA.AperFunction,Conductor*%
%TO.N,~SRCLK*%
G36*
X90094188Y3708573D02*
G01*
X90096859Y3704437D01*
X90334551Y3075656D01*
X90334271Y3066706D01*
X90328109Y3060720D01*
X89973502Y2912877D01*
X89964548Y2912856D01*
X89964498Y2912877D01*
X89609890Y3060720D01*
X89603572Y3067067D01*
X89603448Y3075655D01*
X89841141Y3704438D01*
X89847272Y3710964D01*
X89852085Y3712000D01*
X90085915Y3712000D01*
X90094188Y3708573D01*
G37*
%TD.AperFunction*%
%TD*%
%TA.AperFunction,Conductor*%
%TO.N,~SER_IN*%
G36*
X4393889Y5486573D02*
G01*
X4396695Y5482060D01*
X4610038Y4853426D01*
X4609452Y4844490D01*
X4603461Y4838867D01*
X4248502Y4690877D01*
X4239548Y4690856D01*
X4239498Y4690877D01*
X3884538Y4838867D01*
X3878220Y4845214D01*
X3877961Y4853425D01*
X4091305Y5482061D01*
X4097208Y5488793D01*
X4102384Y5490000D01*
X4385616Y5490000D01*
X4393889Y5486573D01*
G37*
%TD.AperFunction*%
%TD*%
%TA.AperFunction,Conductor*%
%TO.N,/~SRCLR*%
G36*
X44100109Y7335281D02*
G01*
X44106427Y7328934D01*
X44106551Y7320345D01*
X43868859Y6691563D01*
X43862728Y6685036D01*
X43857915Y6684000D01*
X43624085Y6684000D01*
X43615812Y6687427D01*
X43613141Y6691563D01*
X43375448Y7320345D01*
X43375728Y7329295D01*
X43381889Y7335281D01*
X43736500Y7483125D01*
X43745449Y7483145D01*
X44100109Y7335281D01*
G37*
%TD.AperFunction*%
%TD*%
%TA.AperFunction,Conductor*%
%TO.N,/~SRCLR*%
G36*
X81712188Y2819573D02*
G01*
X81714859Y2815437D01*
X81952551Y2186656D01*
X81952271Y2177706D01*
X81946109Y2171720D01*
X81591502Y2023877D01*
X81582548Y2023856D01*
X81582498Y2023877D01*
X81227890Y2171720D01*
X81221572Y2178067D01*
X81221448Y2186655D01*
X81459141Y2815438D01*
X81465272Y2821964D01*
X81470085Y2823000D01*
X81703915Y2823000D01*
X81712188Y2819573D01*
G37*
%TD.AperFunction*%
%TD*%
%TA.AperFunction,Conductor*%
%TO.N,~RCLK*%
G36*
X72886775Y7335281D02*
G01*
X72893093Y7328934D01*
X72893217Y7320345D01*
X72655525Y6691563D01*
X72649394Y6685036D01*
X72644581Y6684000D01*
X72410751Y6684000D01*
X72402478Y6687427D01*
X72399807Y6691563D01*
X72162114Y7320345D01*
X72162394Y7329295D01*
X72168555Y7335281D01*
X72523166Y7483125D01*
X72532115Y7483145D01*
X72886775Y7335281D01*
G37*
%TD.AperFunction*%
%TD*%
%TA.AperFunction,Conductor*%
%TO.N,~SRCLK*%
G36*
X14996688Y3700418D02*
G01*
X14999095Y3696922D01*
X15135360Y3392101D01*
X15276654Y3076029D01*
X15276902Y3067078D01*
X15270748Y3060573D01*
X15270475Y3060455D01*
X14916502Y2912877D01*
X14907548Y2912856D01*
X14907498Y2912877D01*
X14552351Y3060945D01*
X14546033Y3067292D01*
X14545705Y3075295D01*
X14743404Y3695697D01*
X14749181Y3702539D01*
X14754552Y3703845D01*
X14988415Y3703845D01*
X14996688Y3700418D01*
G37*
%TD.AperFunction*%
%TD*%
%TA.AperFunction,Conductor*%
%TO.N,~SER_IN*%
G36*
X4563439Y7859820D02*
G01*
X4603461Y7843134D01*
X4609779Y7836787D01*
X4610038Y7828575D01*
X4396695Y7199940D01*
X4390792Y7193207D01*
X4385616Y7192000D01*
X4102384Y7192000D01*
X4094111Y7195427D01*
X4091305Y7199940D01*
X3877961Y7828575D01*
X3878547Y7837511D01*
X3884537Y7843134D01*
X4239500Y7991125D01*
X4248449Y7991145D01*
X4563439Y7859820D01*
G37*
%TD.AperFunction*%
%TD*%
%TA.AperFunction,Conductor*%
%TO.N,~RCLK*%
G36*
X16705989Y4593993D02*
G01*
X16708752Y4589606D01*
X16928879Y3964503D01*
X16928394Y3955561D01*
X16922345Y3949818D01*
X16567502Y3801877D01*
X16558548Y3801856D01*
X16558498Y3801877D01*
X16204166Y3949605D01*
X16197848Y3955952D01*
X16197835Y3964823D01*
X16453029Y4590142D01*
X16459328Y4596506D01*
X16463862Y4597420D01*
X16697716Y4597420D01*
X16705989Y4593993D01*
G37*
%TD.AperFunction*%
%TD*%
%TA.AperFunction,Conductor*%
%TO.N,~SRCLK*%
G36*
X107644889Y3581573D02*
G01*
X107647695Y3577060D01*
X107861038Y2948426D01*
X107860452Y2939490D01*
X107854461Y2933867D01*
X107499502Y2785877D01*
X107490548Y2785856D01*
X107490498Y2785877D01*
X107135538Y2933867D01*
X107129220Y2940214D01*
X107128961Y2948425D01*
X107342305Y3577061D01*
X107348208Y3583793D01*
X107353384Y3585000D01*
X107636616Y3585000D01*
X107644889Y3581573D01*
G37*
%TD.AperFunction*%
%TD*%
%TA.AperFunction,Conductor*%
%TO.N,~ENABLE*%
G36*
X64313188Y5486573D02*
G01*
X64315859Y5482437D01*
X64553551Y4853656D01*
X64553271Y4844706D01*
X64547109Y4838720D01*
X64192502Y4690877D01*
X64183548Y4690856D01*
X64183498Y4690877D01*
X63828890Y4838720D01*
X63822572Y4845067D01*
X63822448Y4853655D01*
X64060141Y5482438D01*
X64066272Y5488964D01*
X64071085Y5490000D01*
X64304915Y5490000D01*
X64313188Y5486573D01*
G37*
%TD.AperFunction*%
%TD*%
M02*
