%TF.GenerationSoftware,KiCad,Pcbnew,7.0.10*%
%TF.CreationDate,2024-03-19T17:42:07+02:00*%
%TF.ProjectId,Sulari,53756c61-7269-42e6-9b69-6361645f7063,rev?*%
%TF.SameCoordinates,PX5a995c0PY6dac2c0*%
%TF.FileFunction,Soldermask,Top*%
%TF.FilePolarity,Negative*%
%FSLAX46Y46*%
G04 Gerber Fmt 4.6, Leading zero omitted, Abs format (unit mm)*
G04 Created by KiCad (PCBNEW 7.0.10) date 2024-03-19 17:42:07*
%MOMM*%
%LPD*%
G01*
G04 APERTURE LIST*
G04 Aperture macros list*
%AMRoundRect*
0 Rectangle with rounded corners*
0 $1 Rounding radius*
0 $2 $3 $4 $5 $6 $7 $8 $9 X,Y pos of 4 corners*
0 Add a 4 corners polygon primitive as box body*
4,1,4,$2,$3,$4,$5,$6,$7,$8,$9,$2,$3,0*
0 Add four circle primitives for the rounded corners*
1,1,$1+$1,$2,$3*
1,1,$1+$1,$4,$5*
1,1,$1+$1,$6,$7*
1,1,$1+$1,$8,$9*
0 Add four rect primitives between the rounded corners*
20,1,$1+$1,$2,$3,$4,$5,0*
20,1,$1+$1,$4,$5,$6,$7,0*
20,1,$1+$1,$6,$7,$8,$9,0*
20,1,$1+$1,$8,$9,$2,$3,0*%
G04 Aperture macros list end*
%ADD10C,0.800000*%
%ADD11C,6.400000*%
%ADD12R,1.700000X1.700000*%
%ADD13O,1.700000X1.700000*%
%ADD14RoundRect,0.250000X0.350000X0.450000X-0.350000X0.450000X-0.350000X-0.450000X0.350000X-0.450000X0*%
%ADD15R,2.000000X1.200000*%
%ADD16O,2.000000X1.200000*%
%ADD17O,1.100000X1.700000*%
%ADD18R,1.600000X1.600000*%
%ADD19C,1.600000*%
%ADD20C,2.000000*%
%ADD21RoundRect,0.200000X0.200000X0.450000X-0.200000X0.450000X-0.200000X-0.450000X0.200000X-0.450000X0*%
%ADD22O,0.800000X1.300000*%
G04 APERTURE END LIST*
D10*
%TO.C,H4*%
X116600000Y49000000D03*
X117302944Y50697056D03*
X117302944Y47302944D03*
X119000000Y51400000D03*
D11*
X119000000Y49000000D03*
D10*
X119000000Y46600000D03*
X120697056Y50697056D03*
X120697056Y47302944D03*
X121400000Y49000000D03*
%TD*%
%TO.C,H2*%
X116600000Y6000000D03*
X117302944Y7697056D03*
X117302944Y4302944D03*
X119000000Y8400000D03*
D11*
X119000000Y6000000D03*
D10*
X119000000Y3600000D03*
X120697056Y7697056D03*
X120697056Y4302944D03*
X121400000Y6000000D03*
%TD*%
D12*
%TO.C,J5*%
X61000000Y25000000D03*
D13*
X61000000Y22460000D03*
%TD*%
D14*
%TO.C,R5*%
X59519000Y35403000D03*
X57519000Y35403000D03*
%TD*%
D12*
%TO.C,J2*%
X3000000Y30040000D03*
D13*
X3000000Y27500000D03*
X3000000Y24960000D03*
%TD*%
D10*
%TO.C,H1*%
X3600000Y49000000D03*
X4302944Y50697056D03*
X4302944Y47302944D03*
X6000000Y51400000D03*
D11*
X6000000Y49000000D03*
D10*
X6000000Y46600000D03*
X7697056Y50697056D03*
X7697056Y47302944D03*
X8400000Y49000000D03*
%TD*%
D12*
%TO.C,J3*%
X122000000Y21150000D03*
D13*
X122000000Y23690000D03*
X122000000Y26230000D03*
X122000000Y28770000D03*
X122000000Y31310000D03*
X122000000Y33850000D03*
%TD*%
D15*
%TO.C,U2*%
X89023000Y4256000D03*
D16*
X89023000Y6796000D03*
X89023000Y9336000D03*
X89023000Y11876000D03*
X89023000Y14416000D03*
X89023000Y16956000D03*
X89023000Y19496000D03*
X89023000Y22036000D03*
X89023000Y24576000D03*
X89023000Y27116000D03*
X89023000Y29656000D03*
X89023000Y32196000D03*
X89023000Y34736000D03*
X89023000Y37276000D03*
X89023000Y39816000D03*
X89023000Y42356000D03*
X111883000Y42356000D03*
X111883000Y39816000D03*
X111883000Y37276000D03*
X111883000Y34736000D03*
X111883000Y32196000D03*
X111883000Y29656000D03*
X111883000Y27116000D03*
X111883000Y24576000D03*
X111883000Y22036000D03*
X111883000Y19496000D03*
X111883000Y16956000D03*
X111883000Y14416000D03*
X111883000Y11876000D03*
X111883000Y9336000D03*
X111883000Y6796000D03*
X111883000Y4256000D03*
%TD*%
D10*
%TO.C,H3*%
X3600000Y6000000D03*
X4302944Y7697056D03*
X4302944Y4302944D03*
X6000000Y8400000D03*
D11*
X6000000Y6000000D03*
D10*
X6000000Y3600000D03*
X7697056Y7697056D03*
X7697056Y4302944D03*
X8400000Y6000000D03*
%TD*%
D17*
%TO.C,J1*%
X58180000Y52401600D03*
X58180000Y48601600D03*
X66820000Y52401600D03*
X66820000Y48601600D03*
%TD*%
D18*
%TO.C,C1*%
X53606000Y18004000D03*
D19*
X57106000Y18004000D03*
%TD*%
D20*
%TO.C,C15*%
X17101000Y23926905D03*
X17101000Y31426905D03*
%TD*%
%TO.C,C14*%
X23070000Y23926905D03*
X23070000Y31426905D03*
%TD*%
D21*
%TO.C,J4*%
X80728000Y15608000D03*
D22*
X79478000Y15608000D03*
X78228000Y15608000D03*
X76978000Y15608000D03*
X75728000Y15608000D03*
%TD*%
D18*
%TO.C,C2*%
X53606000Y8733000D03*
D19*
X57106000Y8733000D03*
%TD*%
M02*
