%TF.GenerationSoftware,KiCad,Pcbnew,7.0.10*%
%TF.CreationDate,2024-03-19T17:42:07+02:00*%
%TF.ProjectId,Sulari,53756c61-7269-42e6-9b69-6361645f7063,rev?*%
%TF.SameCoordinates,PX5a995c0PY6dac2c0*%
%TF.FileFunction,Legend,Bot*%
%TF.FilePolarity,Positive*%
%FSLAX46Y46*%
G04 Gerber Fmt 4.6, Leading zero omitted, Abs format (unit mm)*
G04 Created by KiCad (PCBNEW 7.0.10) date 2024-03-19 17:42:07*
%MOMM*%
%LPD*%
G01*
G04 APERTURE LIST*
%ADD10C,0.300000*%
%ADD11C,0.150000*%
%ADD12C,0.100000*%
%ADD13C,0.120000*%
%ADD14C,0.843521*%
G04 APERTURE END LIST*
D10*
X99070828Y31358347D02*
X100570828Y31001204D01*
X100570828Y31001204D02*
X99499400Y30715490D01*
X99499400Y30715490D02*
X100570828Y30429775D01*
X100570828Y30429775D02*
X99070828Y30072632D01*
X100570828Y28858346D02*
X99785114Y28858346D01*
X99785114Y28858346D02*
X99642257Y28929775D01*
X99642257Y28929775D02*
X99570828Y29072632D01*
X99570828Y29072632D02*
X99570828Y29358346D01*
X99570828Y29358346D02*
X99642257Y29501204D01*
X100499400Y28858346D02*
X100570828Y29001204D01*
X100570828Y29001204D02*
X100570828Y29358346D01*
X100570828Y29358346D02*
X100499400Y29501204D01*
X100499400Y29501204D02*
X100356542Y29572632D01*
X100356542Y29572632D02*
X100213685Y29572632D01*
X100213685Y29572632D02*
X100070828Y29501204D01*
X100070828Y29501204D02*
X99999400Y29358346D01*
X99999400Y29358346D02*
X99999400Y29001204D01*
X99999400Y29001204D02*
X99927971Y28858346D01*
X99570828Y28286918D02*
X100570828Y27929775D01*
X99570828Y27572632D02*
X100570828Y27929775D01*
X100570828Y27929775D02*
X100927971Y28072632D01*
X100927971Y28072632D02*
X100999400Y28144061D01*
X100999400Y28144061D02*
X101070828Y28286918D01*
X99070828Y27144061D02*
X100570828Y26786918D01*
X100570828Y26786918D02*
X99499400Y26501204D01*
X99499400Y26501204D02*
X100570828Y26215489D01*
X100570828Y26215489D02*
X99070828Y25858346D01*
X100570828Y24644060D02*
X99785114Y24644060D01*
X99785114Y24644060D02*
X99642257Y24715489D01*
X99642257Y24715489D02*
X99570828Y24858346D01*
X99570828Y24858346D02*
X99570828Y25144060D01*
X99570828Y25144060D02*
X99642257Y25286918D01*
X100499400Y24644060D02*
X100570828Y24786918D01*
X100570828Y24786918D02*
X100570828Y25144060D01*
X100570828Y25144060D02*
X100499400Y25286918D01*
X100499400Y25286918D02*
X100356542Y25358346D01*
X100356542Y25358346D02*
X100213685Y25358346D01*
X100213685Y25358346D02*
X100070828Y25286918D01*
X100070828Y25286918D02*
X99999400Y25144060D01*
X99999400Y25144060D02*
X99999400Y24786918D01*
X99999400Y24786918D02*
X99927971Y24644060D01*
X99570828Y24072632D02*
X100570828Y23715489D01*
X99570828Y23358346D02*
X100570828Y23715489D01*
X100570828Y23715489D02*
X100927971Y23858346D01*
X100927971Y23858346D02*
X100999400Y23929775D01*
X100999400Y23929775D02*
X101070828Y24072632D01*
X99070828Y22929775D02*
X100570828Y22572632D01*
X100570828Y22572632D02*
X99499400Y22286918D01*
X99499400Y22286918D02*
X100570828Y22001203D01*
X100570828Y22001203D02*
X99070828Y21644060D01*
X100570828Y20429774D02*
X99785114Y20429774D01*
X99785114Y20429774D02*
X99642257Y20501203D01*
X99642257Y20501203D02*
X99570828Y20644060D01*
X99570828Y20644060D02*
X99570828Y20929774D01*
X99570828Y20929774D02*
X99642257Y21072632D01*
X100499400Y20429774D02*
X100570828Y20572632D01*
X100570828Y20572632D02*
X100570828Y20929774D01*
X100570828Y20929774D02*
X100499400Y21072632D01*
X100499400Y21072632D02*
X100356542Y21144060D01*
X100356542Y21144060D02*
X100213685Y21144060D01*
X100213685Y21144060D02*
X100070828Y21072632D01*
X100070828Y21072632D02*
X99999400Y20929774D01*
X99999400Y20929774D02*
X99999400Y20572632D01*
X99999400Y20572632D02*
X99927971Y20429774D01*
X99570828Y19858346D02*
X100570828Y19501203D01*
X99570828Y19144060D02*
X100570828Y19501203D01*
X100570828Y19501203D02*
X100927971Y19644060D01*
X100927971Y19644060D02*
X100999400Y19715489D01*
X100999400Y19715489D02*
X101070828Y19858346D01*
D11*
X68583857Y33868420D02*
X68631476Y33820800D01*
X68631476Y33820800D02*
X68774333Y33773181D01*
X68774333Y33773181D02*
X68869571Y33773181D01*
X68869571Y33773181D02*
X69012428Y33820800D01*
X69012428Y33820800D02*
X69107666Y33916039D01*
X69107666Y33916039D02*
X69155285Y34011277D01*
X69155285Y34011277D02*
X69202904Y34201753D01*
X69202904Y34201753D02*
X69202904Y34344610D01*
X69202904Y34344610D02*
X69155285Y34535086D01*
X69155285Y34535086D02*
X69107666Y34630324D01*
X69107666Y34630324D02*
X69012428Y34725562D01*
X69012428Y34725562D02*
X68869571Y34773181D01*
X68869571Y34773181D02*
X68774333Y34773181D01*
X68774333Y34773181D02*
X68631476Y34725562D01*
X68631476Y34725562D02*
X68583857Y34677943D01*
X67631476Y33773181D02*
X68202904Y33773181D01*
X67917190Y33773181D02*
X67917190Y34773181D01*
X67917190Y34773181D02*
X68012428Y34630324D01*
X68012428Y34630324D02*
X68107666Y34535086D01*
X68107666Y34535086D02*
X68202904Y34487467D01*
X67250523Y34677943D02*
X67202904Y34725562D01*
X67202904Y34725562D02*
X67107666Y34773181D01*
X67107666Y34773181D02*
X66869571Y34773181D01*
X66869571Y34773181D02*
X66774333Y34725562D01*
X66774333Y34725562D02*
X66726714Y34677943D01*
X66726714Y34677943D02*
X66679095Y34582705D01*
X66679095Y34582705D02*
X66679095Y34487467D01*
X66679095Y34487467D02*
X66726714Y34344610D01*
X66726714Y34344610D02*
X67298142Y33773181D01*
X67298142Y33773181D02*
X66679095Y33773181D01*
X60233666Y29455181D02*
X60566999Y29931372D01*
X60805094Y29455181D02*
X60805094Y30455181D01*
X60805094Y30455181D02*
X60424142Y30455181D01*
X60424142Y30455181D02*
X60328904Y30407562D01*
X60328904Y30407562D02*
X60281285Y30359943D01*
X60281285Y30359943D02*
X60233666Y30264705D01*
X60233666Y30264705D02*
X60233666Y30121848D01*
X60233666Y30121848D02*
X60281285Y30026610D01*
X60281285Y30026610D02*
X60328904Y29978991D01*
X60328904Y29978991D02*
X60424142Y29931372D01*
X60424142Y29931372D02*
X60805094Y29931372D01*
X59376523Y30455181D02*
X59566999Y30455181D01*
X59566999Y30455181D02*
X59662237Y30407562D01*
X59662237Y30407562D02*
X59709856Y30359943D01*
X59709856Y30359943D02*
X59805094Y30217086D01*
X59805094Y30217086D02*
X59852713Y30026610D01*
X59852713Y30026610D02*
X59852713Y29645658D01*
X59852713Y29645658D02*
X59805094Y29550420D01*
X59805094Y29550420D02*
X59757475Y29502800D01*
X59757475Y29502800D02*
X59662237Y29455181D01*
X59662237Y29455181D02*
X59471761Y29455181D01*
X59471761Y29455181D02*
X59376523Y29502800D01*
X59376523Y29502800D02*
X59328904Y29550420D01*
X59328904Y29550420D02*
X59281285Y29645658D01*
X59281285Y29645658D02*
X59281285Y29883753D01*
X59281285Y29883753D02*
X59328904Y29978991D01*
X59328904Y29978991D02*
X59376523Y30026610D01*
X59376523Y30026610D02*
X59471761Y30074229D01*
X59471761Y30074229D02*
X59662237Y30074229D01*
X59662237Y30074229D02*
X59757475Y30026610D01*
X59757475Y30026610D02*
X59805094Y29978991D01*
X59805094Y29978991D02*
X59852713Y29883753D01*
X56510666Y25791220D02*
X56558285Y25743600D01*
X56558285Y25743600D02*
X56701142Y25695981D01*
X56701142Y25695981D02*
X56796380Y25695981D01*
X56796380Y25695981D02*
X56939237Y25743600D01*
X56939237Y25743600D02*
X57034475Y25838839D01*
X57034475Y25838839D02*
X57082094Y25934077D01*
X57082094Y25934077D02*
X57129713Y26124553D01*
X57129713Y26124553D02*
X57129713Y26267410D01*
X57129713Y26267410D02*
X57082094Y26457886D01*
X57082094Y26457886D02*
X57034475Y26553124D01*
X57034475Y26553124D02*
X56939237Y26648362D01*
X56939237Y26648362D02*
X56796380Y26695981D01*
X56796380Y26695981D02*
X56701142Y26695981D01*
X56701142Y26695981D02*
X56558285Y26648362D01*
X56558285Y26648362D02*
X56510666Y26600743D01*
X55939237Y26267410D02*
X56034475Y26315029D01*
X56034475Y26315029D02*
X56082094Y26362648D01*
X56082094Y26362648D02*
X56129713Y26457886D01*
X56129713Y26457886D02*
X56129713Y26505505D01*
X56129713Y26505505D02*
X56082094Y26600743D01*
X56082094Y26600743D02*
X56034475Y26648362D01*
X56034475Y26648362D02*
X55939237Y26695981D01*
X55939237Y26695981D02*
X55748761Y26695981D01*
X55748761Y26695981D02*
X55653523Y26648362D01*
X55653523Y26648362D02*
X55605904Y26600743D01*
X55605904Y26600743D02*
X55558285Y26505505D01*
X55558285Y26505505D02*
X55558285Y26457886D01*
X55558285Y26457886D02*
X55605904Y26362648D01*
X55605904Y26362648D02*
X55653523Y26315029D01*
X55653523Y26315029D02*
X55748761Y26267410D01*
X55748761Y26267410D02*
X55939237Y26267410D01*
X55939237Y26267410D02*
X56034475Y26219791D01*
X56034475Y26219791D02*
X56082094Y26172172D01*
X56082094Y26172172D02*
X56129713Y26076934D01*
X56129713Y26076934D02*
X56129713Y25886458D01*
X56129713Y25886458D02*
X56082094Y25791220D01*
X56082094Y25791220D02*
X56034475Y25743600D01*
X56034475Y25743600D02*
X55939237Y25695981D01*
X55939237Y25695981D02*
X55748761Y25695981D01*
X55748761Y25695981D02*
X55653523Y25743600D01*
X55653523Y25743600D02*
X55605904Y25791220D01*
X55605904Y25791220D02*
X55558285Y25886458D01*
X55558285Y25886458D02*
X55558285Y26076934D01*
X55558285Y26076934D02*
X55605904Y26172172D01*
X55605904Y26172172D02*
X55653523Y26219791D01*
X55653523Y26219791D02*
X55748761Y26267410D01*
X49463080Y1628667D02*
X49510700Y1676286D01*
X49510700Y1676286D02*
X49558319Y1819143D01*
X49558319Y1819143D02*
X49558319Y1914381D01*
X49558319Y1914381D02*
X49510700Y2057238D01*
X49510700Y2057238D02*
X49415461Y2152476D01*
X49415461Y2152476D02*
X49320223Y2200095D01*
X49320223Y2200095D02*
X49129747Y2247714D01*
X49129747Y2247714D02*
X48986890Y2247714D01*
X48986890Y2247714D02*
X48796414Y2200095D01*
X48796414Y2200095D02*
X48701176Y2152476D01*
X48701176Y2152476D02*
X48605938Y2057238D01*
X48605938Y2057238D02*
X48558319Y1914381D01*
X48558319Y1914381D02*
X48558319Y1819143D01*
X48558319Y1819143D02*
X48605938Y1676286D01*
X48605938Y1676286D02*
X48653557Y1628667D01*
X48558319Y1295333D02*
X48558319Y676286D01*
X48558319Y676286D02*
X48939271Y1009619D01*
X48939271Y1009619D02*
X48939271Y866762D01*
X48939271Y866762D02*
X48986890Y771524D01*
X48986890Y771524D02*
X49034509Y723905D01*
X49034509Y723905D02*
X49129747Y676286D01*
X49129747Y676286D02*
X49367842Y676286D01*
X49367842Y676286D02*
X49463080Y723905D01*
X49463080Y723905D02*
X49510700Y771524D01*
X49510700Y771524D02*
X49558319Y866762D01*
X49558319Y866762D02*
X49558319Y1152476D01*
X49558319Y1152476D02*
X49510700Y1247714D01*
X49510700Y1247714D02*
X49463080Y1295333D01*
X55467333Y51257781D02*
X55467333Y50543496D01*
X55467333Y50543496D02*
X55514952Y50400639D01*
X55514952Y50400639D02*
X55610190Y50305400D01*
X55610190Y50305400D02*
X55753047Y50257781D01*
X55753047Y50257781D02*
X55848285Y50257781D01*
X54467333Y50257781D02*
X55038761Y50257781D01*
X54753047Y50257781D02*
X54753047Y51257781D01*
X54753047Y51257781D02*
X54848285Y51114924D01*
X54848285Y51114924D02*
X54943523Y51019686D01*
X54943523Y51019686D02*
X55038761Y50972067D01*
X75187857Y41520420D02*
X75235476Y41472800D01*
X75235476Y41472800D02*
X75378333Y41425181D01*
X75378333Y41425181D02*
X75473571Y41425181D01*
X75473571Y41425181D02*
X75616428Y41472800D01*
X75616428Y41472800D02*
X75711666Y41568039D01*
X75711666Y41568039D02*
X75759285Y41663277D01*
X75759285Y41663277D02*
X75806904Y41853753D01*
X75806904Y41853753D02*
X75806904Y41996610D01*
X75806904Y41996610D02*
X75759285Y42187086D01*
X75759285Y42187086D02*
X75711666Y42282324D01*
X75711666Y42282324D02*
X75616428Y42377562D01*
X75616428Y42377562D02*
X75473571Y42425181D01*
X75473571Y42425181D02*
X75378333Y42425181D01*
X75378333Y42425181D02*
X75235476Y42377562D01*
X75235476Y42377562D02*
X75187857Y42329943D01*
X74235476Y41425181D02*
X74806904Y41425181D01*
X74521190Y41425181D02*
X74521190Y42425181D01*
X74521190Y42425181D02*
X74616428Y42282324D01*
X74616428Y42282324D02*
X74711666Y42187086D01*
X74711666Y42187086D02*
X74806904Y42139467D01*
X73283095Y41425181D02*
X73854523Y41425181D01*
X73568809Y41425181D02*
X73568809Y42425181D01*
X73568809Y42425181D02*
X73664047Y42282324D01*
X73664047Y42282324D02*
X73759285Y42187086D01*
X73759285Y42187086D02*
X73854523Y42139467D01*
X59875666Y35075181D02*
X60208999Y35551372D01*
X60447094Y35075181D02*
X60447094Y36075181D01*
X60447094Y36075181D02*
X60066142Y36075181D01*
X60066142Y36075181D02*
X59970904Y36027562D01*
X59970904Y36027562D02*
X59923285Y35979943D01*
X59923285Y35979943D02*
X59875666Y35884705D01*
X59875666Y35884705D02*
X59875666Y35741848D01*
X59875666Y35741848D02*
X59923285Y35646610D01*
X59923285Y35646610D02*
X59970904Y35598991D01*
X59970904Y35598991D02*
X60066142Y35551372D01*
X60066142Y35551372D02*
X60447094Y35551372D01*
X59542332Y36075181D02*
X58875666Y36075181D01*
X58875666Y36075181D02*
X59304237Y35075181D01*
X42392580Y1628667D02*
X42440200Y1676286D01*
X42440200Y1676286D02*
X42487819Y1819143D01*
X42487819Y1819143D02*
X42487819Y1914381D01*
X42487819Y1914381D02*
X42440200Y2057238D01*
X42440200Y2057238D02*
X42344961Y2152476D01*
X42344961Y2152476D02*
X42249723Y2200095D01*
X42249723Y2200095D02*
X42059247Y2247714D01*
X42059247Y2247714D02*
X41916390Y2247714D01*
X41916390Y2247714D02*
X41725914Y2200095D01*
X41725914Y2200095D02*
X41630676Y2152476D01*
X41630676Y2152476D02*
X41535438Y2057238D01*
X41535438Y2057238D02*
X41487819Y1914381D01*
X41487819Y1914381D02*
X41487819Y1819143D01*
X41487819Y1819143D02*
X41535438Y1676286D01*
X41535438Y1676286D02*
X41583057Y1628667D01*
X41487819Y771524D02*
X41487819Y962000D01*
X41487819Y962000D02*
X41535438Y1057238D01*
X41535438Y1057238D02*
X41583057Y1104857D01*
X41583057Y1104857D02*
X41725914Y1200095D01*
X41725914Y1200095D02*
X41916390Y1247714D01*
X41916390Y1247714D02*
X42297342Y1247714D01*
X42297342Y1247714D02*
X42392580Y1200095D01*
X42392580Y1200095D02*
X42440200Y1152476D01*
X42440200Y1152476D02*
X42487819Y1057238D01*
X42487819Y1057238D02*
X42487819Y866762D01*
X42487819Y866762D02*
X42440200Y771524D01*
X42440200Y771524D02*
X42392580Y723905D01*
X42392580Y723905D02*
X42297342Y676286D01*
X42297342Y676286D02*
X42059247Y676286D01*
X42059247Y676286D02*
X41964009Y723905D01*
X41964009Y723905D02*
X41916390Y771524D01*
X41916390Y771524D02*
X41868771Y866762D01*
X41868771Y866762D02*
X41868771Y1057238D01*
X41868771Y1057238D02*
X41916390Y1152476D01*
X41916390Y1152476D02*
X41964009Y1200095D01*
X41964009Y1200095D02*
X42059247Y1247714D01*
X13688666Y44568181D02*
X14021999Y45044372D01*
X14260094Y44568181D02*
X14260094Y45568181D01*
X14260094Y45568181D02*
X13879142Y45568181D01*
X13879142Y45568181D02*
X13783904Y45520562D01*
X13783904Y45520562D02*
X13736285Y45472943D01*
X13736285Y45472943D02*
X13688666Y45377705D01*
X13688666Y45377705D02*
X13688666Y45234848D01*
X13688666Y45234848D02*
X13736285Y45139610D01*
X13736285Y45139610D02*
X13783904Y45091991D01*
X13783904Y45091991D02*
X13879142Y45044372D01*
X13879142Y45044372D02*
X14260094Y45044372D01*
X13117237Y45139610D02*
X13212475Y45187229D01*
X13212475Y45187229D02*
X13260094Y45234848D01*
X13260094Y45234848D02*
X13307713Y45330086D01*
X13307713Y45330086D02*
X13307713Y45377705D01*
X13307713Y45377705D02*
X13260094Y45472943D01*
X13260094Y45472943D02*
X13212475Y45520562D01*
X13212475Y45520562D02*
X13117237Y45568181D01*
X13117237Y45568181D02*
X12926761Y45568181D01*
X12926761Y45568181D02*
X12831523Y45520562D01*
X12831523Y45520562D02*
X12783904Y45472943D01*
X12783904Y45472943D02*
X12736285Y45377705D01*
X12736285Y45377705D02*
X12736285Y45330086D01*
X12736285Y45330086D02*
X12783904Y45234848D01*
X12783904Y45234848D02*
X12831523Y45187229D01*
X12831523Y45187229D02*
X12926761Y45139610D01*
X12926761Y45139610D02*
X13117237Y45139610D01*
X13117237Y45139610D02*
X13212475Y45091991D01*
X13212475Y45091991D02*
X13260094Y45044372D01*
X13260094Y45044372D02*
X13307713Y44949134D01*
X13307713Y44949134D02*
X13307713Y44758658D01*
X13307713Y44758658D02*
X13260094Y44663420D01*
X13260094Y44663420D02*
X13212475Y44615800D01*
X13212475Y44615800D02*
X13117237Y44568181D01*
X13117237Y44568181D02*
X12926761Y44568181D01*
X12926761Y44568181D02*
X12831523Y44615800D01*
X12831523Y44615800D02*
X12783904Y44663420D01*
X12783904Y44663420D02*
X12736285Y44758658D01*
X12736285Y44758658D02*
X12736285Y44949134D01*
X12736285Y44949134D02*
X12783904Y45044372D01*
X12783904Y45044372D02*
X12831523Y45091991D01*
X12831523Y45091991D02*
X12926761Y45139610D01*
X44636080Y1628667D02*
X44683700Y1676286D01*
X44683700Y1676286D02*
X44731319Y1819143D01*
X44731319Y1819143D02*
X44731319Y1914381D01*
X44731319Y1914381D02*
X44683700Y2057238D01*
X44683700Y2057238D02*
X44588461Y2152476D01*
X44588461Y2152476D02*
X44493223Y2200095D01*
X44493223Y2200095D02*
X44302747Y2247714D01*
X44302747Y2247714D02*
X44159890Y2247714D01*
X44159890Y2247714D02*
X43969414Y2200095D01*
X43969414Y2200095D02*
X43874176Y2152476D01*
X43874176Y2152476D02*
X43778938Y2057238D01*
X43778938Y2057238D02*
X43731319Y1914381D01*
X43731319Y1914381D02*
X43731319Y1819143D01*
X43731319Y1819143D02*
X43778938Y1676286D01*
X43778938Y1676286D02*
X43826557Y1628667D01*
X43731319Y723905D02*
X43731319Y1200095D01*
X43731319Y1200095D02*
X44207509Y1247714D01*
X44207509Y1247714D02*
X44159890Y1200095D01*
X44159890Y1200095D02*
X44112271Y1104857D01*
X44112271Y1104857D02*
X44112271Y866762D01*
X44112271Y866762D02*
X44159890Y771524D01*
X44159890Y771524D02*
X44207509Y723905D01*
X44207509Y723905D02*
X44302747Y676286D01*
X44302747Y676286D02*
X44540842Y676286D01*
X44540842Y676286D02*
X44636080Y723905D01*
X44636080Y723905D02*
X44683700Y771524D01*
X44683700Y771524D02*
X44731319Y866762D01*
X44731319Y866762D02*
X44731319Y1104857D01*
X44731319Y1104857D02*
X44683700Y1200095D01*
X44683700Y1200095D02*
X44636080Y1247714D01*
X61463666Y17644420D02*
X61511285Y17596800D01*
X61511285Y17596800D02*
X61654142Y17549181D01*
X61654142Y17549181D02*
X61749380Y17549181D01*
X61749380Y17549181D02*
X61892237Y17596800D01*
X61892237Y17596800D02*
X61987475Y17692039D01*
X61987475Y17692039D02*
X62035094Y17787277D01*
X62035094Y17787277D02*
X62082713Y17977753D01*
X62082713Y17977753D02*
X62082713Y18120610D01*
X62082713Y18120610D02*
X62035094Y18311086D01*
X62035094Y18311086D02*
X61987475Y18406324D01*
X61987475Y18406324D02*
X61892237Y18501562D01*
X61892237Y18501562D02*
X61749380Y18549181D01*
X61749380Y18549181D02*
X61654142Y18549181D01*
X61654142Y18549181D02*
X61511285Y18501562D01*
X61511285Y18501562D02*
X61463666Y18453943D01*
X60511285Y17549181D02*
X61082713Y17549181D01*
X60796999Y17549181D02*
X60796999Y18549181D01*
X60796999Y18549181D02*
X60892237Y18406324D01*
X60892237Y18406324D02*
X60987475Y18311086D01*
X60987475Y18311086D02*
X61082713Y18263467D01*
X65789857Y31709420D02*
X65837476Y31661800D01*
X65837476Y31661800D02*
X65980333Y31614181D01*
X65980333Y31614181D02*
X66075571Y31614181D01*
X66075571Y31614181D02*
X66218428Y31661800D01*
X66218428Y31661800D02*
X66313666Y31757039D01*
X66313666Y31757039D02*
X66361285Y31852277D01*
X66361285Y31852277D02*
X66408904Y32042753D01*
X66408904Y32042753D02*
X66408904Y32185610D01*
X66408904Y32185610D02*
X66361285Y32376086D01*
X66361285Y32376086D02*
X66313666Y32471324D01*
X66313666Y32471324D02*
X66218428Y32566562D01*
X66218428Y32566562D02*
X66075571Y32614181D01*
X66075571Y32614181D02*
X65980333Y32614181D01*
X65980333Y32614181D02*
X65837476Y32566562D01*
X65837476Y32566562D02*
X65789857Y32518943D01*
X64837476Y31614181D02*
X65408904Y31614181D01*
X65123190Y31614181D02*
X65123190Y32614181D01*
X65123190Y32614181D02*
X65218428Y32471324D01*
X65218428Y32471324D02*
X65313666Y32376086D01*
X65313666Y32376086D02*
X65408904Y32328467D01*
X64504142Y32614181D02*
X63885095Y32614181D01*
X63885095Y32614181D02*
X64218428Y32233229D01*
X64218428Y32233229D02*
X64075571Y32233229D01*
X64075571Y32233229D02*
X63980333Y32185610D01*
X63980333Y32185610D02*
X63932714Y32137991D01*
X63932714Y32137991D02*
X63885095Y32042753D01*
X63885095Y32042753D02*
X63885095Y31804658D01*
X63885095Y31804658D02*
X63932714Y31709420D01*
X63932714Y31709420D02*
X63980333Y31661800D01*
X63980333Y31661800D02*
X64075571Y31614181D01*
X64075571Y31614181D02*
X64361285Y31614181D01*
X64361285Y31614181D02*
X64456523Y31661800D01*
X64456523Y31661800D02*
X64504142Y31709420D01*
X66122904Y39599181D02*
X66122904Y38789658D01*
X66122904Y38789658D02*
X66075285Y38694420D01*
X66075285Y38694420D02*
X66027666Y38646800D01*
X66027666Y38646800D02*
X65932428Y38599181D01*
X65932428Y38599181D02*
X65741952Y38599181D01*
X65741952Y38599181D02*
X65646714Y38646800D01*
X65646714Y38646800D02*
X65599095Y38694420D01*
X65599095Y38694420D02*
X65551476Y38789658D01*
X65551476Y38789658D02*
X65551476Y39599181D01*
X64551476Y38599181D02*
X65122904Y38599181D01*
X64837190Y38599181D02*
X64837190Y39599181D01*
X64837190Y39599181D02*
X64932428Y39456324D01*
X64932428Y39456324D02*
X65027666Y39361086D01*
X65027666Y39361086D02*
X65122904Y39313467D01*
X55169238Y35995943D02*
X55264476Y36043562D01*
X55264476Y36043562D02*
X55359714Y36138800D01*
X55359714Y36138800D02*
X55502571Y36281658D01*
X55502571Y36281658D02*
X55597809Y36329277D01*
X55597809Y36329277D02*
X55693047Y36329277D01*
X55645428Y36091181D02*
X55740666Y36138800D01*
X55740666Y36138800D02*
X55835904Y36234039D01*
X55835904Y36234039D02*
X55883523Y36424515D01*
X55883523Y36424515D02*
X55883523Y36757848D01*
X55883523Y36757848D02*
X55835904Y36948324D01*
X55835904Y36948324D02*
X55740666Y37043562D01*
X55740666Y37043562D02*
X55645428Y37091181D01*
X55645428Y37091181D02*
X55454952Y37091181D01*
X55454952Y37091181D02*
X55359714Y37043562D01*
X55359714Y37043562D02*
X55264476Y36948324D01*
X55264476Y36948324D02*
X55216857Y36757848D01*
X55216857Y36757848D02*
X55216857Y36424515D01*
X55216857Y36424515D02*
X55264476Y36234039D01*
X55264476Y36234039D02*
X55359714Y36138800D01*
X55359714Y36138800D02*
X55454952Y36091181D01*
X55454952Y36091181D02*
X55645428Y36091181D01*
X54264476Y36091181D02*
X54835904Y36091181D01*
X54550190Y36091181D02*
X54550190Y37091181D01*
X54550190Y37091181D02*
X54645428Y36948324D01*
X54645428Y36948324D02*
X54740666Y36853086D01*
X54740666Y36853086D02*
X54835904Y36805467D01*
X59446266Y39608820D02*
X59493885Y39561200D01*
X59493885Y39561200D02*
X59636742Y39513581D01*
X59636742Y39513581D02*
X59731980Y39513581D01*
X59731980Y39513581D02*
X59874837Y39561200D01*
X59874837Y39561200D02*
X59970075Y39656439D01*
X59970075Y39656439D02*
X60017694Y39751677D01*
X60017694Y39751677D02*
X60065313Y39942153D01*
X60065313Y39942153D02*
X60065313Y40085010D01*
X60065313Y40085010D02*
X60017694Y40275486D01*
X60017694Y40275486D02*
X59970075Y40370724D01*
X59970075Y40370724D02*
X59874837Y40465962D01*
X59874837Y40465962D02*
X59731980Y40513581D01*
X59731980Y40513581D02*
X59636742Y40513581D01*
X59636742Y40513581D02*
X59493885Y40465962D01*
X59493885Y40465962D02*
X59446266Y40418343D01*
X58970075Y39513581D02*
X58779599Y39513581D01*
X58779599Y39513581D02*
X58684361Y39561200D01*
X58684361Y39561200D02*
X58636742Y39608820D01*
X58636742Y39608820D02*
X58541504Y39751677D01*
X58541504Y39751677D02*
X58493885Y39942153D01*
X58493885Y39942153D02*
X58493885Y40323105D01*
X58493885Y40323105D02*
X58541504Y40418343D01*
X58541504Y40418343D02*
X58589123Y40465962D01*
X58589123Y40465962D02*
X58684361Y40513581D01*
X58684361Y40513581D02*
X58874837Y40513581D01*
X58874837Y40513581D02*
X58970075Y40465962D01*
X58970075Y40465962D02*
X59017694Y40418343D01*
X59017694Y40418343D02*
X59065313Y40323105D01*
X59065313Y40323105D02*
X59065313Y40085010D01*
X59065313Y40085010D02*
X59017694Y39989772D01*
X59017694Y39989772D02*
X58970075Y39942153D01*
X58970075Y39942153D02*
X58874837Y39894534D01*
X58874837Y39894534D02*
X58684361Y39894534D01*
X58684361Y39894534D02*
X58589123Y39942153D01*
X58589123Y39942153D02*
X58541504Y39989772D01*
X58541504Y39989772D02*
X58493885Y40085010D01*
X67686666Y42989181D02*
X68019999Y43465372D01*
X68258094Y42989181D02*
X68258094Y43989181D01*
X68258094Y43989181D02*
X67877142Y43989181D01*
X67877142Y43989181D02*
X67781904Y43941562D01*
X67781904Y43941562D02*
X67734285Y43893943D01*
X67734285Y43893943D02*
X67686666Y43798705D01*
X67686666Y43798705D02*
X67686666Y43655848D01*
X67686666Y43655848D02*
X67734285Y43560610D01*
X67734285Y43560610D02*
X67781904Y43512991D01*
X67781904Y43512991D02*
X67877142Y43465372D01*
X67877142Y43465372D02*
X68258094Y43465372D01*
X67305713Y43893943D02*
X67258094Y43941562D01*
X67258094Y43941562D02*
X67162856Y43989181D01*
X67162856Y43989181D02*
X66924761Y43989181D01*
X66924761Y43989181D02*
X66829523Y43941562D01*
X66829523Y43941562D02*
X66781904Y43893943D01*
X66781904Y43893943D02*
X66734285Y43798705D01*
X66734285Y43798705D02*
X66734285Y43703467D01*
X66734285Y43703467D02*
X66781904Y43560610D01*
X66781904Y43560610D02*
X67353332Y42989181D01*
X67353332Y42989181D02*
X66734285Y42989181D01*
X12830857Y21676420D02*
X12878476Y21628800D01*
X12878476Y21628800D02*
X13021333Y21581181D01*
X13021333Y21581181D02*
X13116571Y21581181D01*
X13116571Y21581181D02*
X13259428Y21628800D01*
X13259428Y21628800D02*
X13354666Y21724039D01*
X13354666Y21724039D02*
X13402285Y21819277D01*
X13402285Y21819277D02*
X13449904Y22009753D01*
X13449904Y22009753D02*
X13449904Y22152610D01*
X13449904Y22152610D02*
X13402285Y22343086D01*
X13402285Y22343086D02*
X13354666Y22438324D01*
X13354666Y22438324D02*
X13259428Y22533562D01*
X13259428Y22533562D02*
X13116571Y22581181D01*
X13116571Y22581181D02*
X13021333Y22581181D01*
X13021333Y22581181D02*
X12878476Y22533562D01*
X12878476Y22533562D02*
X12830857Y22485943D01*
X11878476Y21581181D02*
X12449904Y21581181D01*
X12164190Y21581181D02*
X12164190Y22581181D01*
X12164190Y22581181D02*
X12259428Y22438324D01*
X12259428Y22438324D02*
X12354666Y22343086D01*
X12354666Y22343086D02*
X12449904Y22295467D01*
X11021333Y22581181D02*
X11211809Y22581181D01*
X11211809Y22581181D02*
X11307047Y22533562D01*
X11307047Y22533562D02*
X11354666Y22485943D01*
X11354666Y22485943D02*
X11449904Y22343086D01*
X11449904Y22343086D02*
X11497523Y22152610D01*
X11497523Y22152610D02*
X11497523Y21771658D01*
X11497523Y21771658D02*
X11449904Y21676420D01*
X11449904Y21676420D02*
X11402285Y21628800D01*
X11402285Y21628800D02*
X11307047Y21581181D01*
X11307047Y21581181D02*
X11116571Y21581181D01*
X11116571Y21581181D02*
X11021333Y21628800D01*
X11021333Y21628800D02*
X10973714Y21676420D01*
X10973714Y21676420D02*
X10926095Y21771658D01*
X10926095Y21771658D02*
X10926095Y22009753D01*
X10926095Y22009753D02*
X10973714Y22104991D01*
X10973714Y22104991D02*
X11021333Y22152610D01*
X11021333Y22152610D02*
X11116571Y22200229D01*
X11116571Y22200229D02*
X11307047Y22200229D01*
X11307047Y22200229D02*
X11402285Y22152610D01*
X11402285Y22152610D02*
X11449904Y22104991D01*
X11449904Y22104991D02*
X11497523Y22009753D01*
X5718857Y37075181D02*
X6052190Y37551372D01*
X6290285Y37075181D02*
X6290285Y38075181D01*
X6290285Y38075181D02*
X5909333Y38075181D01*
X5909333Y38075181D02*
X5814095Y38027562D01*
X5814095Y38027562D02*
X5766476Y37979943D01*
X5766476Y37979943D02*
X5718857Y37884705D01*
X5718857Y37884705D02*
X5718857Y37741848D01*
X5718857Y37741848D02*
X5766476Y37646610D01*
X5766476Y37646610D02*
X5814095Y37598991D01*
X5814095Y37598991D02*
X5909333Y37551372D01*
X5909333Y37551372D02*
X6290285Y37551372D01*
X4766476Y37075181D02*
X5337904Y37075181D01*
X5052190Y37075181D02*
X5052190Y38075181D01*
X5052190Y38075181D02*
X5147428Y37932324D01*
X5147428Y37932324D02*
X5242666Y37837086D01*
X5242666Y37837086D02*
X5337904Y37789467D01*
X4385523Y37979943D02*
X4337904Y38027562D01*
X4337904Y38027562D02*
X4242666Y38075181D01*
X4242666Y38075181D02*
X4004571Y38075181D01*
X4004571Y38075181D02*
X3909333Y38027562D01*
X3909333Y38027562D02*
X3861714Y37979943D01*
X3861714Y37979943D02*
X3814095Y37884705D01*
X3814095Y37884705D02*
X3814095Y37789467D01*
X3814095Y37789467D02*
X3861714Y37646610D01*
X3861714Y37646610D02*
X4433142Y37075181D01*
X4433142Y37075181D02*
X3814095Y37075181D01*
X75187857Y39742420D02*
X75235476Y39694800D01*
X75235476Y39694800D02*
X75378333Y39647181D01*
X75378333Y39647181D02*
X75473571Y39647181D01*
X75473571Y39647181D02*
X75616428Y39694800D01*
X75616428Y39694800D02*
X75711666Y39790039D01*
X75711666Y39790039D02*
X75759285Y39885277D01*
X75759285Y39885277D02*
X75806904Y40075753D01*
X75806904Y40075753D02*
X75806904Y40218610D01*
X75806904Y40218610D02*
X75759285Y40409086D01*
X75759285Y40409086D02*
X75711666Y40504324D01*
X75711666Y40504324D02*
X75616428Y40599562D01*
X75616428Y40599562D02*
X75473571Y40647181D01*
X75473571Y40647181D02*
X75378333Y40647181D01*
X75378333Y40647181D02*
X75235476Y40599562D01*
X75235476Y40599562D02*
X75187857Y40551943D01*
X74235476Y39647181D02*
X74806904Y39647181D01*
X74521190Y39647181D02*
X74521190Y40647181D01*
X74521190Y40647181D02*
X74616428Y40504324D01*
X74616428Y40504324D02*
X74711666Y40409086D01*
X74711666Y40409086D02*
X74806904Y40361467D01*
X73616428Y40647181D02*
X73521190Y40647181D01*
X73521190Y40647181D02*
X73425952Y40599562D01*
X73425952Y40599562D02*
X73378333Y40551943D01*
X73378333Y40551943D02*
X73330714Y40456705D01*
X73330714Y40456705D02*
X73283095Y40266229D01*
X73283095Y40266229D02*
X73283095Y40028134D01*
X73283095Y40028134D02*
X73330714Y39837658D01*
X73330714Y39837658D02*
X73378333Y39742420D01*
X73378333Y39742420D02*
X73425952Y39694800D01*
X73425952Y39694800D02*
X73521190Y39647181D01*
X73521190Y39647181D02*
X73616428Y39647181D01*
X73616428Y39647181D02*
X73711666Y39694800D01*
X73711666Y39694800D02*
X73759285Y39742420D01*
X73759285Y39742420D02*
X73806904Y39837658D01*
X73806904Y39837658D02*
X73854523Y40028134D01*
X73854523Y40028134D02*
X73854523Y40266229D01*
X73854523Y40266229D02*
X73806904Y40456705D01*
X73806904Y40456705D02*
X73759285Y40551943D01*
X73759285Y40551943D02*
X73711666Y40599562D01*
X73711666Y40599562D02*
X73616428Y40647181D01*
X68488666Y32249181D02*
X68821999Y32725372D01*
X69060094Y32249181D02*
X69060094Y33249181D01*
X69060094Y33249181D02*
X68679142Y33249181D01*
X68679142Y33249181D02*
X68583904Y33201562D01*
X68583904Y33201562D02*
X68536285Y33153943D01*
X68536285Y33153943D02*
X68488666Y33058705D01*
X68488666Y33058705D02*
X68488666Y32915848D01*
X68488666Y32915848D02*
X68536285Y32820610D01*
X68536285Y32820610D02*
X68583904Y32772991D01*
X68583904Y32772991D02*
X68679142Y32725372D01*
X68679142Y32725372D02*
X69060094Y32725372D01*
X68155332Y33249181D02*
X67536285Y33249181D01*
X67536285Y33249181D02*
X67869618Y32868229D01*
X67869618Y32868229D02*
X67726761Y32868229D01*
X67726761Y32868229D02*
X67631523Y32820610D01*
X67631523Y32820610D02*
X67583904Y32772991D01*
X67583904Y32772991D02*
X67536285Y32677753D01*
X67536285Y32677753D02*
X67536285Y32439658D01*
X67536285Y32439658D02*
X67583904Y32344420D01*
X67583904Y32344420D02*
X67631523Y32296800D01*
X67631523Y32296800D02*
X67726761Y32249181D01*
X67726761Y32249181D02*
X68012475Y32249181D01*
X68012475Y32249181D02*
X68107713Y32296800D01*
X68107713Y32296800D02*
X68155332Y32344420D01*
X77092857Y49521181D02*
X77426190Y49997372D01*
X77664285Y49521181D02*
X77664285Y50521181D01*
X77664285Y50521181D02*
X77283333Y50521181D01*
X77283333Y50521181D02*
X77188095Y50473562D01*
X77188095Y50473562D02*
X77140476Y50425943D01*
X77140476Y50425943D02*
X77092857Y50330705D01*
X77092857Y50330705D02*
X77092857Y50187848D01*
X77092857Y50187848D02*
X77140476Y50092610D01*
X77140476Y50092610D02*
X77188095Y50044991D01*
X77188095Y50044991D02*
X77283333Y49997372D01*
X77283333Y49997372D02*
X77664285Y49997372D01*
X76140476Y49521181D02*
X76711904Y49521181D01*
X76426190Y49521181D02*
X76426190Y50521181D01*
X76426190Y50521181D02*
X76521428Y50378324D01*
X76521428Y50378324D02*
X76616666Y50283086D01*
X76616666Y50283086D02*
X76711904Y50235467D01*
X75521428Y50521181D02*
X75426190Y50521181D01*
X75426190Y50521181D02*
X75330952Y50473562D01*
X75330952Y50473562D02*
X75283333Y50425943D01*
X75283333Y50425943D02*
X75235714Y50330705D01*
X75235714Y50330705D02*
X75188095Y50140229D01*
X75188095Y50140229D02*
X75188095Y49902134D01*
X75188095Y49902134D02*
X75235714Y49711658D01*
X75235714Y49711658D02*
X75283333Y49616420D01*
X75283333Y49616420D02*
X75330952Y49568800D01*
X75330952Y49568800D02*
X75426190Y49521181D01*
X75426190Y49521181D02*
X75521428Y49521181D01*
X75521428Y49521181D02*
X75616666Y49568800D01*
X75616666Y49568800D02*
X75664285Y49616420D01*
X75664285Y49616420D02*
X75711904Y49711658D01*
X75711904Y49711658D02*
X75759523Y49902134D01*
X75759523Y49902134D02*
X75759523Y50140229D01*
X75759523Y50140229D02*
X75711904Y50330705D01*
X75711904Y50330705D02*
X75664285Y50425943D01*
X75664285Y50425943D02*
X75616666Y50473562D01*
X75616666Y50473562D02*
X75521428Y50521181D01*
X24824094Y11326181D02*
X24824094Y12326181D01*
X24824094Y12326181D02*
X24585999Y12326181D01*
X24585999Y12326181D02*
X24443142Y12278562D01*
X24443142Y12278562D02*
X24347904Y12183324D01*
X24347904Y12183324D02*
X24300285Y12088086D01*
X24300285Y12088086D02*
X24252666Y11897610D01*
X24252666Y11897610D02*
X24252666Y11754753D01*
X24252666Y11754753D02*
X24300285Y11564277D01*
X24300285Y11564277D02*
X24347904Y11469039D01*
X24347904Y11469039D02*
X24443142Y11373800D01*
X24443142Y11373800D02*
X24585999Y11326181D01*
X24585999Y11326181D02*
X24824094Y11326181D01*
X23871713Y12230943D02*
X23824094Y12278562D01*
X23824094Y12278562D02*
X23728856Y12326181D01*
X23728856Y12326181D02*
X23490761Y12326181D01*
X23490761Y12326181D02*
X23395523Y12278562D01*
X23395523Y12278562D02*
X23347904Y12230943D01*
X23347904Y12230943D02*
X23300285Y12135705D01*
X23300285Y12135705D02*
X23300285Y12040467D01*
X23300285Y12040467D02*
X23347904Y11897610D01*
X23347904Y11897610D02*
X23919332Y11326181D01*
X23919332Y11326181D02*
X23300285Y11326181D01*
X17743857Y37424420D02*
X17791476Y37376800D01*
X17791476Y37376800D02*
X17934333Y37329181D01*
X17934333Y37329181D02*
X18029571Y37329181D01*
X18029571Y37329181D02*
X18172428Y37376800D01*
X18172428Y37376800D02*
X18267666Y37472039D01*
X18267666Y37472039D02*
X18315285Y37567277D01*
X18315285Y37567277D02*
X18362904Y37757753D01*
X18362904Y37757753D02*
X18362904Y37900610D01*
X18362904Y37900610D02*
X18315285Y38091086D01*
X18315285Y38091086D02*
X18267666Y38186324D01*
X18267666Y38186324D02*
X18172428Y38281562D01*
X18172428Y38281562D02*
X18029571Y38329181D01*
X18029571Y38329181D02*
X17934333Y38329181D01*
X17934333Y38329181D02*
X17791476Y38281562D01*
X17791476Y38281562D02*
X17743857Y38233943D01*
X16791476Y37329181D02*
X17362904Y37329181D01*
X17077190Y37329181D02*
X17077190Y38329181D01*
X17077190Y38329181D02*
X17172428Y38186324D01*
X17172428Y38186324D02*
X17267666Y38091086D01*
X17267666Y38091086D02*
X17362904Y38043467D01*
X15886714Y38329181D02*
X16362904Y38329181D01*
X16362904Y38329181D02*
X16410523Y37852991D01*
X16410523Y37852991D02*
X16362904Y37900610D01*
X16362904Y37900610D02*
X16267666Y37948229D01*
X16267666Y37948229D02*
X16029571Y37948229D01*
X16029571Y37948229D02*
X15934333Y37900610D01*
X15934333Y37900610D02*
X15886714Y37852991D01*
X15886714Y37852991D02*
X15839095Y37757753D01*
X15839095Y37757753D02*
X15839095Y37519658D01*
X15839095Y37519658D02*
X15886714Y37424420D01*
X15886714Y37424420D02*
X15934333Y37376800D01*
X15934333Y37376800D02*
X16029571Y37329181D01*
X16029571Y37329181D02*
X16267666Y37329181D01*
X16267666Y37329181D02*
X16362904Y37376800D01*
X16362904Y37376800D02*
X16410523Y37424420D01*
X57082094Y27836181D02*
X57082094Y28836181D01*
X57082094Y28836181D02*
X56843999Y28836181D01*
X56843999Y28836181D02*
X56701142Y28788562D01*
X56701142Y28788562D02*
X56605904Y28693324D01*
X56605904Y28693324D02*
X56558285Y28598086D01*
X56558285Y28598086D02*
X56510666Y28407610D01*
X56510666Y28407610D02*
X56510666Y28264753D01*
X56510666Y28264753D02*
X56558285Y28074277D01*
X56558285Y28074277D02*
X56605904Y27979039D01*
X56605904Y27979039D02*
X56701142Y27883800D01*
X56701142Y27883800D02*
X56843999Y27836181D01*
X56843999Y27836181D02*
X57082094Y27836181D01*
X55558285Y27836181D02*
X56129713Y27836181D01*
X55843999Y27836181D02*
X55843999Y28836181D01*
X55843999Y28836181D02*
X55939237Y28693324D01*
X55939237Y28693324D02*
X56034475Y28598086D01*
X56034475Y28598086D02*
X56129713Y28550467D01*
X23752857Y37424420D02*
X23800476Y37376800D01*
X23800476Y37376800D02*
X23943333Y37329181D01*
X23943333Y37329181D02*
X24038571Y37329181D01*
X24038571Y37329181D02*
X24181428Y37376800D01*
X24181428Y37376800D02*
X24276666Y37472039D01*
X24276666Y37472039D02*
X24324285Y37567277D01*
X24324285Y37567277D02*
X24371904Y37757753D01*
X24371904Y37757753D02*
X24371904Y37900610D01*
X24371904Y37900610D02*
X24324285Y38091086D01*
X24324285Y38091086D02*
X24276666Y38186324D01*
X24276666Y38186324D02*
X24181428Y38281562D01*
X24181428Y38281562D02*
X24038571Y38329181D01*
X24038571Y38329181D02*
X23943333Y38329181D01*
X23943333Y38329181D02*
X23800476Y38281562D01*
X23800476Y38281562D02*
X23752857Y38233943D01*
X22800476Y37329181D02*
X23371904Y37329181D01*
X23086190Y37329181D02*
X23086190Y38329181D01*
X23086190Y38329181D02*
X23181428Y38186324D01*
X23181428Y38186324D02*
X23276666Y38091086D01*
X23276666Y38091086D02*
X23371904Y38043467D01*
X21943333Y37995848D02*
X21943333Y37329181D01*
X22181428Y38376800D02*
X22419523Y37662515D01*
X22419523Y37662515D02*
X21800476Y37662515D01*
X72109733Y14148381D02*
X72109733Y13434096D01*
X72109733Y13434096D02*
X72157352Y13291239D01*
X72157352Y13291239D02*
X72252590Y13196000D01*
X72252590Y13196000D02*
X72395447Y13148381D01*
X72395447Y13148381D02*
X72490685Y13148381D01*
X71204971Y13815048D02*
X71204971Y13148381D01*
X71443066Y14196000D02*
X71681161Y13481715D01*
X71681161Y13481715D02*
X71062114Y13481715D01*
X75219666Y37202181D02*
X75552999Y37678372D01*
X75791094Y37202181D02*
X75791094Y38202181D01*
X75791094Y38202181D02*
X75410142Y38202181D01*
X75410142Y38202181D02*
X75314904Y38154562D01*
X75314904Y38154562D02*
X75267285Y38106943D01*
X75267285Y38106943D02*
X75219666Y38011705D01*
X75219666Y38011705D02*
X75219666Y37868848D01*
X75219666Y37868848D02*
X75267285Y37773610D01*
X75267285Y37773610D02*
X75314904Y37725991D01*
X75314904Y37725991D02*
X75410142Y37678372D01*
X75410142Y37678372D02*
X75791094Y37678372D01*
X74743475Y37202181D02*
X74552999Y37202181D01*
X74552999Y37202181D02*
X74457761Y37249800D01*
X74457761Y37249800D02*
X74410142Y37297420D01*
X74410142Y37297420D02*
X74314904Y37440277D01*
X74314904Y37440277D02*
X74267285Y37630753D01*
X74267285Y37630753D02*
X74267285Y38011705D01*
X74267285Y38011705D02*
X74314904Y38106943D01*
X74314904Y38106943D02*
X74362523Y38154562D01*
X74362523Y38154562D02*
X74457761Y38202181D01*
X74457761Y38202181D02*
X74648237Y38202181D01*
X74648237Y38202181D02*
X74743475Y38154562D01*
X74743475Y38154562D02*
X74791094Y38106943D01*
X74791094Y38106943D02*
X74838713Y38011705D01*
X74838713Y38011705D02*
X74838713Y37773610D01*
X74838713Y37773610D02*
X74791094Y37678372D01*
X74791094Y37678372D02*
X74743475Y37630753D01*
X74743475Y37630753D02*
X74648237Y37583134D01*
X74648237Y37583134D02*
X74457761Y37583134D01*
X74457761Y37583134D02*
X74362523Y37630753D01*
X74362523Y37630753D02*
X74314904Y37678372D01*
X74314904Y37678372D02*
X74267285Y37773610D01*
X56510666Y23264181D02*
X56843999Y23740372D01*
X57082094Y23264181D02*
X57082094Y24264181D01*
X57082094Y24264181D02*
X56701142Y24264181D01*
X56701142Y24264181D02*
X56605904Y24216562D01*
X56605904Y24216562D02*
X56558285Y24168943D01*
X56558285Y24168943D02*
X56510666Y24073705D01*
X56510666Y24073705D02*
X56510666Y23930848D01*
X56510666Y23930848D02*
X56558285Y23835610D01*
X56558285Y23835610D02*
X56605904Y23787991D01*
X56605904Y23787991D02*
X56701142Y23740372D01*
X56701142Y23740372D02*
X57082094Y23740372D01*
X55558285Y23264181D02*
X56129713Y23264181D01*
X55843999Y23264181D02*
X55843999Y24264181D01*
X55843999Y24264181D02*
X55939237Y24121324D01*
X55939237Y24121324D02*
X56034475Y24026086D01*
X56034475Y24026086D02*
X56129713Y23978467D01*
X61463666Y8246420D02*
X61511285Y8198800D01*
X61511285Y8198800D02*
X61654142Y8151181D01*
X61654142Y8151181D02*
X61749380Y8151181D01*
X61749380Y8151181D02*
X61892237Y8198800D01*
X61892237Y8198800D02*
X61987475Y8294039D01*
X61987475Y8294039D02*
X62035094Y8389277D01*
X62035094Y8389277D02*
X62082713Y8579753D01*
X62082713Y8579753D02*
X62082713Y8722610D01*
X62082713Y8722610D02*
X62035094Y8913086D01*
X62035094Y8913086D02*
X61987475Y9008324D01*
X61987475Y9008324D02*
X61892237Y9103562D01*
X61892237Y9103562D02*
X61749380Y9151181D01*
X61749380Y9151181D02*
X61654142Y9151181D01*
X61654142Y9151181D02*
X61511285Y9103562D01*
X61511285Y9103562D02*
X61463666Y9055943D01*
X61082713Y9055943D02*
X61035094Y9103562D01*
X61035094Y9103562D02*
X60939856Y9151181D01*
X60939856Y9151181D02*
X60701761Y9151181D01*
X60701761Y9151181D02*
X60606523Y9103562D01*
X60606523Y9103562D02*
X60558904Y9055943D01*
X60558904Y9055943D02*
X60511285Y8960705D01*
X60511285Y8960705D02*
X60511285Y8865467D01*
X60511285Y8865467D02*
X60558904Y8722610D01*
X60558904Y8722610D02*
X61130332Y8151181D01*
X61130332Y8151181D02*
X60511285Y8151181D01*
X87506857Y49521181D02*
X87840190Y49997372D01*
X88078285Y49521181D02*
X88078285Y50521181D01*
X88078285Y50521181D02*
X87697333Y50521181D01*
X87697333Y50521181D02*
X87602095Y50473562D01*
X87602095Y50473562D02*
X87554476Y50425943D01*
X87554476Y50425943D02*
X87506857Y50330705D01*
X87506857Y50330705D02*
X87506857Y50187848D01*
X87506857Y50187848D02*
X87554476Y50092610D01*
X87554476Y50092610D02*
X87602095Y50044991D01*
X87602095Y50044991D02*
X87697333Y49997372D01*
X87697333Y49997372D02*
X88078285Y49997372D01*
X86554476Y49521181D02*
X87125904Y49521181D01*
X86840190Y49521181D02*
X86840190Y50521181D01*
X86840190Y50521181D02*
X86935428Y50378324D01*
X86935428Y50378324D02*
X87030666Y50283086D01*
X87030666Y50283086D02*
X87125904Y50235467D01*
X85602095Y49521181D02*
X86173523Y49521181D01*
X85887809Y49521181D02*
X85887809Y50521181D01*
X85887809Y50521181D02*
X85983047Y50378324D01*
X85983047Y50378324D02*
X86078285Y50283086D01*
X86078285Y50283086D02*
X86173523Y50235467D01*
X47049580Y1628667D02*
X47097200Y1676286D01*
X47097200Y1676286D02*
X47144819Y1819143D01*
X47144819Y1819143D02*
X47144819Y1914381D01*
X47144819Y1914381D02*
X47097200Y2057238D01*
X47097200Y2057238D02*
X47001961Y2152476D01*
X47001961Y2152476D02*
X46906723Y2200095D01*
X46906723Y2200095D02*
X46716247Y2247714D01*
X46716247Y2247714D02*
X46573390Y2247714D01*
X46573390Y2247714D02*
X46382914Y2200095D01*
X46382914Y2200095D02*
X46287676Y2152476D01*
X46287676Y2152476D02*
X46192438Y2057238D01*
X46192438Y2057238D02*
X46144819Y1914381D01*
X46144819Y1914381D02*
X46144819Y1819143D01*
X46144819Y1819143D02*
X46192438Y1676286D01*
X46192438Y1676286D02*
X46240057Y1628667D01*
X46478152Y771524D02*
X47144819Y771524D01*
X46097200Y1009619D02*
X46811485Y1247714D01*
X46811485Y1247714D02*
X46811485Y628667D01*
X40319080Y1628667D02*
X40366700Y1676286D01*
X40366700Y1676286D02*
X40414319Y1819143D01*
X40414319Y1819143D02*
X40414319Y1914381D01*
X40414319Y1914381D02*
X40366700Y2057238D01*
X40366700Y2057238D02*
X40271461Y2152476D01*
X40271461Y2152476D02*
X40176223Y2200095D01*
X40176223Y2200095D02*
X39985747Y2247714D01*
X39985747Y2247714D02*
X39842890Y2247714D01*
X39842890Y2247714D02*
X39652414Y2200095D01*
X39652414Y2200095D02*
X39557176Y2152476D01*
X39557176Y2152476D02*
X39461938Y2057238D01*
X39461938Y2057238D02*
X39414319Y1914381D01*
X39414319Y1914381D02*
X39414319Y1819143D01*
X39414319Y1819143D02*
X39461938Y1676286D01*
X39461938Y1676286D02*
X39509557Y1628667D01*
X39414319Y1295333D02*
X39414319Y628667D01*
X39414319Y628667D02*
X40414319Y1057238D01*
D12*
X39198904Y40644581D02*
X38627476Y40644581D01*
X38913190Y39644581D02*
X38913190Y40644581D01*
X37770333Y39644581D02*
X38341761Y39644581D01*
X38056047Y39644581D02*
X38056047Y40644581D01*
X38056047Y40644581D02*
X38151285Y40501724D01*
X38151285Y40501724D02*
X38246523Y40406486D01*
X38246523Y40406486D02*
X38341761Y40358867D01*
D13*
%TO.C,C12*%
X71138420Y35365000D02*
X71419580Y35365000D01*
X71138420Y34345000D02*
X71419580Y34345000D01*
%TO.C,R6*%
X60411436Y32455000D02*
X60865564Y32455000D01*
X60411436Y30985000D02*
X60865564Y30985000D01*
%TO.C,C8*%
X53015420Y26660800D02*
X53296580Y26660800D01*
X53015420Y25640800D02*
X53296580Y25640800D01*
%TO.C,C3*%
X50015000Y6601252D02*
X50015000Y5178748D01*
X48195000Y6601252D02*
X48195000Y5178748D01*
%TO.C,J1*%
X57830000Y51351600D02*
X57830000Y49651600D01*
X67170000Y51351600D02*
X67170000Y49651600D01*
%TO.C,C11*%
X70236420Y42390000D02*
X70517580Y42390000D01*
X70236420Y41370000D02*
X70517580Y41370000D01*
%TO.C,R7*%
X60899258Y33356500D02*
X60424742Y33356500D01*
X60899258Y34401500D02*
X60424742Y34401500D01*
%TO.C,C6*%
X42769500Y6751252D02*
X42769500Y6228748D01*
X41299500Y6751252D02*
X41299500Y6228748D01*
%TO.C,R8*%
X12794936Y43774000D02*
X14249064Y43774000D01*
X12794936Y41954000D02*
X14249064Y41954000D01*
%TO.C,C5*%
X45188000Y6601252D02*
X45188000Y5178748D01*
X43368000Y6601252D02*
X43368000Y5178748D01*
%TO.C,G1*%
G36*
X18208221Y12027310D02*
G01*
X18454351Y12009368D01*
X18916955Y11967421D01*
X19784936Y9820526D01*
X19882458Y9578770D01*
X20088044Y9065321D01*
X20269931Y8605890D01*
X20421504Y8217507D01*
X20536152Y7917200D01*
X20607261Y7721998D01*
X20628218Y7648931D01*
X20580623Y7656532D01*
X20411080Y7704337D01*
X20141615Y7788079D01*
X19795938Y7900344D01*
X19397763Y8033716D01*
X18192009Y8443201D01*
X18260993Y8204970D01*
X18305037Y8046411D01*
X18377869Y7776568D01*
X18468381Y7436661D01*
X18566323Y7064963D01*
X18573786Y7036513D01*
X18664642Y6694140D01*
X18741577Y6411205D01*
X18796674Y6216395D01*
X18822018Y6138396D01*
X18824274Y6136827D01*
X18902601Y6163739D01*
X19048029Y6249015D01*
X19254692Y6384426D01*
X19200893Y6048363D01*
X19192605Y5996109D01*
X19145276Y5685268D01*
X19103258Y5392922D01*
X19089803Y5307436D01*
X19050491Y5141971D01*
X19013276Y5078593D01*
X18954219Y5129854D01*
X18826336Y5267696D01*
X18657571Y5460123D01*
X18475077Y5675126D01*
X18306004Y5880697D01*
X18177502Y6044830D01*
X18116724Y6135515D01*
X18115699Y6142388D01*
X18181585Y6154925D01*
X18337191Y6123085D01*
X18360175Y6116625D01*
X18524755Y6079084D01*
X18604803Y6076404D01*
X18600439Y6096718D01*
X18548155Y6229521D01*
X18445065Y6468951D01*
X18299829Y6795415D01*
X18121108Y7189321D01*
X17917563Y7631077D01*
X17812558Y7858103D01*
X17620278Y8278053D01*
X17457046Y8640172D01*
X17331543Y8924893D01*
X17252453Y9112653D01*
X17228457Y9183885D01*
X17292474Y9172201D01*
X17478618Y9121945D01*
X17763666Y9039106D01*
X18124499Y8930414D01*
X18538000Y8802600D01*
X18727865Y8743577D01*
X19156791Y8614338D01*
X19461667Y8530508D01*
X19655579Y8489085D01*
X19751611Y8487064D01*
X19762850Y8521442D01*
X19727878Y8588314D01*
X19628821Y8777243D01*
X19478149Y9064396D01*
X19286093Y9430277D01*
X19062886Y9855392D01*
X18818757Y10320247D01*
X18618801Y10703012D01*
X18401394Y11124439D01*
X18218240Y11485348D01*
X18078390Y11767680D01*
X17990893Y11953375D01*
X17964801Y12024370D01*
X18030324Y12032050D01*
X18208221Y12027310D01*
G37*
G36*
X25754797Y4079062D02*
G01*
X25924179Y3760505D01*
X26030365Y3549778D01*
X26067062Y3457862D01*
X26064290Y3399448D01*
X25994103Y3209421D01*
X25805591Y3059199D01*
X25773979Y3051640D01*
X25603981Y3037275D01*
X25302782Y3024212D01*
X24883170Y3012453D01*
X24357932Y3002001D01*
X23739854Y2992859D01*
X23041723Y2985031D01*
X22276326Y2978519D01*
X21456450Y2973327D01*
X20594882Y2969457D01*
X19704409Y2966912D01*
X18797817Y2965695D01*
X17887893Y2965810D01*
X16987425Y2967259D01*
X16109198Y2970046D01*
X15266001Y2974173D01*
X14470619Y2979643D01*
X13735840Y2986459D01*
X13074451Y2994625D01*
X12499238Y3004143D01*
X12022988Y3015017D01*
X11658489Y3027248D01*
X11418526Y3040841D01*
X11315887Y3055799D01*
X11238838Y3100228D01*
X11085485Y3251679D01*
X11040414Y3457862D01*
X11058207Y3508458D01*
X11143789Y3683879D01*
X11294494Y3970489D01*
X11431902Y4224154D01*
X12617129Y4224154D01*
X12627173Y4221112D01*
X12752811Y4213070D01*
X13013327Y4205455D01*
X13397447Y4198366D01*
X13893895Y4191901D01*
X14491394Y4186161D01*
X15178671Y4181243D01*
X15944448Y4177245D01*
X16777451Y4174268D01*
X17666405Y4172409D01*
X18600032Y4171768D01*
X24582935Y4171768D01*
X24474542Y4340851D01*
X24468187Y4351237D01*
X24398003Y4472398D01*
X24261499Y4711752D01*
X24064522Y5058943D01*
X23812920Y5503615D01*
X23512538Y6035411D01*
X23169223Y6643975D01*
X22788823Y7318951D01*
X22377184Y8049981D01*
X21940152Y8826709D01*
X21483576Y9638780D01*
X21356325Y9865110D01*
X20907211Y10662598D01*
X20480509Y11418279D01*
X20081889Y12122226D01*
X19717020Y12764516D01*
X19391571Y13335223D01*
X19111211Y13824421D01*
X18881609Y14222185D01*
X18708434Y14518591D01*
X18597357Y14703713D01*
X18554044Y14767626D01*
X18521538Y14719998D01*
X18421326Y14552691D01*
X18260390Y14276430D01*
X18045462Y13903168D01*
X17783271Y13444857D01*
X17480549Y12913453D01*
X17144027Y12320907D01*
X16780435Y11679173D01*
X16396504Y11000206D01*
X15998966Y10295958D01*
X15594550Y9578383D01*
X15189989Y8859434D01*
X14792012Y8151065D01*
X14407351Y7465229D01*
X14042737Y6813880D01*
X13704899Y6208971D01*
X13400570Y5662456D01*
X13136481Y5186288D01*
X12919361Y4792420D01*
X12755942Y4492806D01*
X12652954Y4299400D01*
X12617129Y4224154D01*
X11431902Y4224154D01*
X11504030Y4357307D01*
X11766103Y4833355D01*
X12074423Y5387653D01*
X12422697Y6009220D01*
X12804632Y6687078D01*
X13213937Y7410247D01*
X13644320Y8167747D01*
X14089487Y8948598D01*
X14543148Y9741821D01*
X14999009Y10536436D01*
X15450780Y11321463D01*
X15892166Y12085923D01*
X16316877Y12818837D01*
X16718620Y13509223D01*
X17091104Y14146104D01*
X17428035Y14718499D01*
X17723121Y15215428D01*
X17970071Y15625912D01*
X18162593Y15938971D01*
X18294393Y16143626D01*
X18359181Y16228896D01*
X18374978Y16240747D01*
X18509015Y16327994D01*
X18607924Y16324043D01*
X18749002Y16228896D01*
X18786441Y16183117D01*
X18898316Y16014053D01*
X19072846Y15733191D01*
X19303737Y15351514D01*
X19584698Y14880002D01*
X19909436Y14329636D01*
X20271658Y13711398D01*
X20665072Y13036270D01*
X21083385Y12315232D01*
X21520304Y11559266D01*
X21969538Y10779354D01*
X22424794Y9986476D01*
X22879778Y9191615D01*
X23328199Y8405750D01*
X23763764Y7639865D01*
X24180181Y6904940D01*
X24571156Y6211956D01*
X24930398Y5571894D01*
X25251614Y4995738D01*
X25528511Y4494466D01*
X25704297Y4171768D01*
X25754797Y4079062D01*
G37*
%TO.C,C1*%
X50946302Y15689000D02*
X51746302Y15689000D01*
X51346302Y15289000D02*
X51346302Y16089000D01*
X55356000Y13924000D02*
X55356000Y22084000D01*
X55396000Y13924000D02*
X55396000Y22084000D01*
X55436000Y13924000D02*
X55436000Y22084000D01*
X55476000Y13925000D02*
X55476000Y22083000D01*
X55516000Y13927000D02*
X55516000Y22081000D01*
X55556000Y13928000D02*
X55556000Y22080000D01*
X55596000Y13930000D02*
X55596000Y22078000D01*
X55636000Y13933000D02*
X55636000Y22075000D01*
X55676000Y13936000D02*
X55676000Y22072000D01*
X55716000Y13939000D02*
X55716000Y22069000D01*
X55756000Y13943000D02*
X55756000Y22065000D01*
X55796000Y13947000D02*
X55796000Y22061000D01*
X55836000Y13952000D02*
X55836000Y22056000D01*
X55876000Y13956000D02*
X55876000Y22052000D01*
X55916000Y13962000D02*
X55916000Y22046000D01*
X55956000Y13967000D02*
X55956000Y22041000D01*
X55996000Y13974000D02*
X55996000Y22034000D01*
X56036000Y13980000D02*
X56036000Y22028000D01*
X56077000Y19044000D02*
X56077000Y22021000D01*
X56077000Y13987000D02*
X56077000Y16964000D01*
X56117000Y19044000D02*
X56117000Y22014000D01*
X56117000Y13994000D02*
X56117000Y16964000D01*
X56157000Y19044000D02*
X56157000Y22006000D01*
X56157000Y14002000D02*
X56157000Y16964000D01*
X56197000Y19044000D02*
X56197000Y21998000D01*
X56197000Y14010000D02*
X56197000Y16964000D01*
X56237000Y19044000D02*
X56237000Y21989000D01*
X56237000Y14019000D02*
X56237000Y16964000D01*
X56277000Y19044000D02*
X56277000Y21980000D01*
X56277000Y14028000D02*
X56277000Y16964000D01*
X56317000Y19044000D02*
X56317000Y21971000D01*
X56317000Y14037000D02*
X56317000Y16964000D01*
X56357000Y19044000D02*
X56357000Y21961000D01*
X56357000Y14047000D02*
X56357000Y16964000D01*
X56397000Y19044000D02*
X56397000Y21951000D01*
X56397000Y14057000D02*
X56397000Y16964000D01*
X56437000Y19044000D02*
X56437000Y21940000D01*
X56437000Y14068000D02*
X56437000Y16964000D01*
X56477000Y19044000D02*
X56477000Y21929000D01*
X56477000Y14079000D02*
X56477000Y16964000D01*
X56517000Y19044000D02*
X56517000Y21918000D01*
X56517000Y14090000D02*
X56517000Y16964000D01*
X56557000Y19044000D02*
X56557000Y21906000D01*
X56557000Y14102000D02*
X56557000Y16964000D01*
X56597000Y19044000D02*
X56597000Y21893000D01*
X56597000Y14115000D02*
X56597000Y16964000D01*
X56637000Y19044000D02*
X56637000Y21881000D01*
X56637000Y14127000D02*
X56637000Y16964000D01*
X56677000Y19044000D02*
X56677000Y21867000D01*
X56677000Y14141000D02*
X56677000Y16964000D01*
X56717000Y19044000D02*
X56717000Y21854000D01*
X56717000Y14154000D02*
X56717000Y16964000D01*
X56757000Y19044000D02*
X56757000Y21839000D01*
X56757000Y14169000D02*
X56757000Y16964000D01*
X56797000Y19044000D02*
X56797000Y21825000D01*
X56797000Y14183000D02*
X56797000Y16964000D01*
X56837000Y19044000D02*
X56837000Y21809000D01*
X56837000Y14199000D02*
X56837000Y16964000D01*
X56877000Y19044000D02*
X56877000Y21794000D01*
X56877000Y14214000D02*
X56877000Y16964000D01*
X56917000Y19044000D02*
X56917000Y21778000D01*
X56917000Y14230000D02*
X56917000Y16964000D01*
X56957000Y19044000D02*
X56957000Y21761000D01*
X56957000Y14247000D02*
X56957000Y16964000D01*
X56997000Y19044000D02*
X56997000Y21744000D01*
X56997000Y14264000D02*
X56997000Y16964000D01*
X57037000Y19044000D02*
X57037000Y21726000D01*
X57037000Y14282000D02*
X57037000Y16964000D01*
X57077000Y19044000D02*
X57077000Y21708000D01*
X57077000Y14300000D02*
X57077000Y16964000D01*
X57117000Y19044000D02*
X57117000Y21690000D01*
X57117000Y14318000D02*
X57117000Y16964000D01*
X57157000Y19044000D02*
X57157000Y21670000D01*
X57157000Y14338000D02*
X57157000Y16964000D01*
X57197000Y19044000D02*
X57197000Y21651000D01*
X57197000Y14357000D02*
X57197000Y16964000D01*
X57237000Y19044000D02*
X57237000Y21631000D01*
X57237000Y14377000D02*
X57237000Y16964000D01*
X57277000Y19044000D02*
X57277000Y21610000D01*
X57277000Y14398000D02*
X57277000Y16964000D01*
X57317000Y19044000D02*
X57317000Y21588000D01*
X57317000Y14420000D02*
X57317000Y16964000D01*
X57357000Y19044000D02*
X57357000Y21566000D01*
X57357000Y14442000D02*
X57357000Y16964000D01*
X57397000Y19044000D02*
X57397000Y21544000D01*
X57397000Y14464000D02*
X57397000Y16964000D01*
X57437000Y19044000D02*
X57437000Y21521000D01*
X57437000Y14487000D02*
X57437000Y16964000D01*
X57477000Y19044000D02*
X57477000Y21497000D01*
X57477000Y14511000D02*
X57477000Y16964000D01*
X57517000Y19044000D02*
X57517000Y21473000D01*
X57517000Y14535000D02*
X57517000Y16964000D01*
X57557000Y19044000D02*
X57557000Y21448000D01*
X57557000Y14560000D02*
X57557000Y16964000D01*
X57597000Y19044000D02*
X57597000Y21422000D01*
X57597000Y14586000D02*
X57597000Y16964000D01*
X57637000Y19044000D02*
X57637000Y21396000D01*
X57637000Y14612000D02*
X57637000Y16964000D01*
X57677000Y19044000D02*
X57677000Y21369000D01*
X57677000Y14639000D02*
X57677000Y16964000D01*
X57717000Y19044000D02*
X57717000Y21342000D01*
X57717000Y14666000D02*
X57717000Y16964000D01*
X57757000Y19044000D02*
X57757000Y21313000D01*
X57757000Y14695000D02*
X57757000Y16964000D01*
X57797000Y19044000D02*
X57797000Y21284000D01*
X57797000Y14724000D02*
X57797000Y16964000D01*
X57837000Y19044000D02*
X57837000Y21254000D01*
X57837000Y14754000D02*
X57837000Y16964000D01*
X57877000Y19044000D02*
X57877000Y21224000D01*
X57877000Y14784000D02*
X57877000Y16964000D01*
X57917000Y19044000D02*
X57917000Y21193000D01*
X57917000Y14815000D02*
X57917000Y16964000D01*
X57957000Y19044000D02*
X57957000Y21160000D01*
X57957000Y14848000D02*
X57957000Y16964000D01*
X57997000Y19044000D02*
X57997000Y21128000D01*
X57997000Y14880000D02*
X57997000Y16964000D01*
X58037000Y19044000D02*
X58037000Y21094000D01*
X58037000Y14914000D02*
X58037000Y16964000D01*
X58077000Y19044000D02*
X58077000Y21059000D01*
X58077000Y14949000D02*
X58077000Y16964000D01*
X58117000Y19044000D02*
X58117000Y21023000D01*
X58117000Y14985000D02*
X58117000Y16964000D01*
X58157000Y15021000D02*
X58157000Y20987000D01*
X58197000Y15059000D02*
X58197000Y20949000D01*
X58237000Y15097000D02*
X58237000Y20911000D01*
X58277000Y15137000D02*
X58277000Y20871000D01*
X58317000Y15178000D02*
X58317000Y20830000D01*
X58357000Y15220000D02*
X58357000Y20788000D01*
X58397000Y15263000D02*
X58397000Y20745000D01*
X58437000Y15307000D02*
X58437000Y20701000D01*
X58477000Y15353000D02*
X58477000Y20655000D01*
X58517000Y15400000D02*
X58517000Y20608000D01*
X58557000Y15448000D02*
X58557000Y20560000D01*
X58597000Y15499000D02*
X58597000Y20509000D01*
X58637000Y15550000D02*
X58637000Y20458000D01*
X58677000Y15604000D02*
X58677000Y20404000D01*
X58717000Y15659000D02*
X58717000Y20349000D01*
X58757000Y15717000D02*
X58757000Y20291000D01*
X58797000Y15776000D02*
X58797000Y20232000D01*
X58837000Y15838000D02*
X58837000Y20170000D01*
X58877000Y15902000D02*
X58877000Y20106000D01*
X58917000Y15970000D02*
X58917000Y20038000D01*
X58957000Y16040000D02*
X58957000Y19968000D01*
X58997000Y16114000D02*
X58997000Y19894000D01*
X59037000Y16191000D02*
X59037000Y19817000D01*
X59077000Y16273000D02*
X59077000Y19735000D01*
X59117000Y16359000D02*
X59117000Y19649000D01*
X59157000Y16452000D02*
X59157000Y19556000D01*
X59197000Y16551000D02*
X59197000Y19457000D01*
X59237000Y16658000D02*
X59237000Y19350000D01*
X59277000Y16775000D02*
X59277000Y19233000D01*
X59317000Y16906000D02*
X59317000Y19102000D01*
X59357000Y17056000D02*
X59357000Y18952000D01*
X59397000Y17236000D02*
X59397000Y18772000D01*
X59437000Y17471000D02*
X59437000Y18537000D01*
X59476000Y18004000D02*
G75*
G03*
X51236000Y18004000I-4120000J0D01*
G01*
X51236000Y18004000D02*
G75*
G03*
X59476000Y18004000I4120000J0D01*
G01*
%TO.C,C13*%
X63810420Y34135000D02*
X64091580Y34135000D01*
X63810420Y33115000D02*
X64091580Y33115000D01*
%TO.C,U1*%
X65361000Y35023000D02*
X66861000Y35023000D01*
X65361000Y35023000D02*
X63861000Y35023000D01*
X65361000Y38243000D02*
X68236000Y38243000D01*
X65361000Y38243000D02*
X63861000Y38243000D01*
%TO.C,Q1*%
X58162000Y35326800D02*
X52015200Y35326800D01*
X58212800Y30145200D02*
X52015200Y30145200D01*
%TO.C,C9*%
X59065252Y37487000D02*
X58542748Y37487000D01*
X59065252Y38957000D02*
X58542748Y38957000D01*
%TO.C,R2*%
X68042500Y41164258D02*
X68042500Y40689742D01*
X66997500Y41164258D02*
X66997500Y40689742D01*
%TO.C,C16*%
X11278000Y25388748D02*
X11278000Y26811252D01*
X13098000Y25388748D02*
X13098000Y26811252D01*
%TO.C,R12*%
X7214000Y36802936D02*
X7214000Y38257064D01*
X9034000Y36802936D02*
X9034000Y38257064D01*
%TO.C,C10*%
X70236420Y40612000D02*
X70517580Y40612000D01*
X70236420Y39592000D02*
X70517580Y39592000D01*
%TO.C,R3*%
X71041742Y33599500D02*
X71516258Y33599500D01*
X71041742Y32554500D02*
X71516258Y32554500D01*
%TO.C,R10*%
X80233000Y50203064D02*
X80233000Y49748936D01*
X78763000Y50203064D02*
X78763000Y49748936D01*
%TO.C,D2*%
X25736000Y20354905D02*
X25736000Y14844905D01*
X22436000Y20354905D02*
X25736000Y20354905D01*
X22436000Y20354905D02*
X22436000Y14844905D01*
%TO.C,C15*%
X14481000Y22406905D02*
X14481000Y32946905D01*
X19721000Y22406905D02*
X14481000Y22406905D01*
X19721000Y22406905D02*
X19721000Y32946905D01*
X19721000Y32946905D02*
X14481000Y32946905D01*
%TO.C,D1*%
X54652000Y27441000D02*
X51992000Y27441000D01*
X54652000Y29141000D02*
X54652000Y27441000D01*
X54652000Y29141000D02*
X51992000Y29141000D01*
%TO.C,C14*%
X20450000Y22406905D02*
X20450000Y32946905D01*
X25690000Y22406905D02*
X20450000Y22406905D01*
X25690000Y22406905D02*
X25690000Y32946905D01*
X25690000Y32946905D02*
X20450000Y32946905D01*
%TO.C,J4*%
X82338000Y11048000D02*
X78228000Y11048000D01*
X82338000Y16768000D02*
X82338000Y11048000D01*
X81268000Y16468000D02*
X81268000Y16768000D01*
X81268000Y16768000D02*
X82338000Y16768000D01*
X80978000Y16758000D02*
X80978000Y17058000D01*
X80978000Y17058000D02*
X81478000Y17058000D01*
X78228000Y16468000D02*
X81268000Y16468000D01*
X78228000Y16468000D02*
X75188000Y16468000D01*
X75188000Y16468000D02*
X75188000Y16768000D01*
X75188000Y16768000D02*
X74118000Y16768000D01*
X74118000Y11048000D02*
X78228000Y11048000D01*
X74118000Y16768000D02*
X74118000Y11048000D01*
%TO.C,R9*%
X71041742Y37655500D02*
X71516258Y37655500D01*
X71041742Y36610500D02*
X71516258Y36610500D01*
%TO.C,R1*%
X53045436Y24454000D02*
X53499564Y24454000D01*
X53045436Y22984000D02*
X53499564Y22984000D01*
%TO.C,C2*%
X50946302Y6418000D02*
X51746302Y6418000D01*
X51346302Y6018000D02*
X51346302Y6818000D01*
X55356000Y4653000D02*
X55356000Y12813000D01*
X55396000Y4653000D02*
X55396000Y12813000D01*
X55436000Y4653000D02*
X55436000Y12813000D01*
X55476000Y4654000D02*
X55476000Y12812000D01*
X55516000Y4656000D02*
X55516000Y12810000D01*
X55556000Y4657000D02*
X55556000Y12809000D01*
X55596000Y4659000D02*
X55596000Y12807000D01*
X55636000Y4662000D02*
X55636000Y12804000D01*
X55676000Y4665000D02*
X55676000Y12801000D01*
X55716000Y4668000D02*
X55716000Y12798000D01*
X55756000Y4672000D02*
X55756000Y12794000D01*
X55796000Y4676000D02*
X55796000Y12790000D01*
X55836000Y4681000D02*
X55836000Y12785000D01*
X55876000Y4685000D02*
X55876000Y12781000D01*
X55916000Y4691000D02*
X55916000Y12775000D01*
X55956000Y4696000D02*
X55956000Y12770000D01*
X55996000Y4703000D02*
X55996000Y12763000D01*
X56036000Y4709000D02*
X56036000Y12757000D01*
X56077000Y9773000D02*
X56077000Y12750000D01*
X56077000Y4716000D02*
X56077000Y7693000D01*
X56117000Y9773000D02*
X56117000Y12743000D01*
X56117000Y4723000D02*
X56117000Y7693000D01*
X56157000Y9773000D02*
X56157000Y12735000D01*
X56157000Y4731000D02*
X56157000Y7693000D01*
X56197000Y9773000D02*
X56197000Y12727000D01*
X56197000Y4739000D02*
X56197000Y7693000D01*
X56237000Y9773000D02*
X56237000Y12718000D01*
X56237000Y4748000D02*
X56237000Y7693000D01*
X56277000Y9773000D02*
X56277000Y12709000D01*
X56277000Y4757000D02*
X56277000Y7693000D01*
X56317000Y9773000D02*
X56317000Y12700000D01*
X56317000Y4766000D02*
X56317000Y7693000D01*
X56357000Y9773000D02*
X56357000Y12690000D01*
X56357000Y4776000D02*
X56357000Y7693000D01*
X56397000Y9773000D02*
X56397000Y12680000D01*
X56397000Y4786000D02*
X56397000Y7693000D01*
X56437000Y9773000D02*
X56437000Y12669000D01*
X56437000Y4797000D02*
X56437000Y7693000D01*
X56477000Y9773000D02*
X56477000Y12658000D01*
X56477000Y4808000D02*
X56477000Y7693000D01*
X56517000Y9773000D02*
X56517000Y12647000D01*
X56517000Y4819000D02*
X56517000Y7693000D01*
X56557000Y9773000D02*
X56557000Y12635000D01*
X56557000Y4831000D02*
X56557000Y7693000D01*
X56597000Y9773000D02*
X56597000Y12622000D01*
X56597000Y4844000D02*
X56597000Y7693000D01*
X56637000Y9773000D02*
X56637000Y12610000D01*
X56637000Y4856000D02*
X56637000Y7693000D01*
X56677000Y9773000D02*
X56677000Y12596000D01*
X56677000Y4870000D02*
X56677000Y7693000D01*
X56717000Y9773000D02*
X56717000Y12583000D01*
X56717000Y4883000D02*
X56717000Y7693000D01*
X56757000Y9773000D02*
X56757000Y12568000D01*
X56757000Y4898000D02*
X56757000Y7693000D01*
X56797000Y9773000D02*
X56797000Y12554000D01*
X56797000Y4912000D02*
X56797000Y7693000D01*
X56837000Y9773000D02*
X56837000Y12538000D01*
X56837000Y4928000D02*
X56837000Y7693000D01*
X56877000Y9773000D02*
X56877000Y12523000D01*
X56877000Y4943000D02*
X56877000Y7693000D01*
X56917000Y9773000D02*
X56917000Y12507000D01*
X56917000Y4959000D02*
X56917000Y7693000D01*
X56957000Y9773000D02*
X56957000Y12490000D01*
X56957000Y4976000D02*
X56957000Y7693000D01*
X56997000Y9773000D02*
X56997000Y12473000D01*
X56997000Y4993000D02*
X56997000Y7693000D01*
X57037000Y9773000D02*
X57037000Y12455000D01*
X57037000Y5011000D02*
X57037000Y7693000D01*
X57077000Y9773000D02*
X57077000Y12437000D01*
X57077000Y5029000D02*
X57077000Y7693000D01*
X57117000Y9773000D02*
X57117000Y12419000D01*
X57117000Y5047000D02*
X57117000Y7693000D01*
X57157000Y9773000D02*
X57157000Y12399000D01*
X57157000Y5067000D02*
X57157000Y7693000D01*
X57197000Y9773000D02*
X57197000Y12380000D01*
X57197000Y5086000D02*
X57197000Y7693000D01*
X57237000Y9773000D02*
X57237000Y12360000D01*
X57237000Y5106000D02*
X57237000Y7693000D01*
X57277000Y9773000D02*
X57277000Y12339000D01*
X57277000Y5127000D02*
X57277000Y7693000D01*
X57317000Y9773000D02*
X57317000Y12317000D01*
X57317000Y5149000D02*
X57317000Y7693000D01*
X57357000Y9773000D02*
X57357000Y12295000D01*
X57357000Y5171000D02*
X57357000Y7693000D01*
X57397000Y9773000D02*
X57397000Y12273000D01*
X57397000Y5193000D02*
X57397000Y7693000D01*
X57437000Y9773000D02*
X57437000Y12250000D01*
X57437000Y5216000D02*
X57437000Y7693000D01*
X57477000Y9773000D02*
X57477000Y12226000D01*
X57477000Y5240000D02*
X57477000Y7693000D01*
X57517000Y9773000D02*
X57517000Y12202000D01*
X57517000Y5264000D02*
X57517000Y7693000D01*
X57557000Y9773000D02*
X57557000Y12177000D01*
X57557000Y5289000D02*
X57557000Y7693000D01*
X57597000Y9773000D02*
X57597000Y12151000D01*
X57597000Y5315000D02*
X57597000Y7693000D01*
X57637000Y9773000D02*
X57637000Y12125000D01*
X57637000Y5341000D02*
X57637000Y7693000D01*
X57677000Y9773000D02*
X57677000Y12098000D01*
X57677000Y5368000D02*
X57677000Y7693000D01*
X57717000Y9773000D02*
X57717000Y12071000D01*
X57717000Y5395000D02*
X57717000Y7693000D01*
X57757000Y9773000D02*
X57757000Y12042000D01*
X57757000Y5424000D02*
X57757000Y7693000D01*
X57797000Y9773000D02*
X57797000Y12013000D01*
X57797000Y5453000D02*
X57797000Y7693000D01*
X57837000Y9773000D02*
X57837000Y11983000D01*
X57837000Y5483000D02*
X57837000Y7693000D01*
X57877000Y9773000D02*
X57877000Y11953000D01*
X57877000Y5513000D02*
X57877000Y7693000D01*
X57917000Y9773000D02*
X57917000Y11922000D01*
X57917000Y5544000D02*
X57917000Y7693000D01*
X57957000Y9773000D02*
X57957000Y11889000D01*
X57957000Y5577000D02*
X57957000Y7693000D01*
X57997000Y9773000D02*
X57997000Y11857000D01*
X57997000Y5609000D02*
X57997000Y7693000D01*
X58037000Y9773000D02*
X58037000Y11823000D01*
X58037000Y5643000D02*
X58037000Y7693000D01*
X58077000Y9773000D02*
X58077000Y11788000D01*
X58077000Y5678000D02*
X58077000Y7693000D01*
X58117000Y9773000D02*
X58117000Y11752000D01*
X58117000Y5714000D02*
X58117000Y7693000D01*
X58157000Y5750000D02*
X58157000Y11716000D01*
X58197000Y5788000D02*
X58197000Y11678000D01*
X58237000Y5826000D02*
X58237000Y11640000D01*
X58277000Y5866000D02*
X58277000Y11600000D01*
X58317000Y5907000D02*
X58317000Y11559000D01*
X58357000Y5949000D02*
X58357000Y11517000D01*
X58397000Y5992000D02*
X58397000Y11474000D01*
X58437000Y6036000D02*
X58437000Y11430000D01*
X58477000Y6082000D02*
X58477000Y11384000D01*
X58517000Y6129000D02*
X58517000Y11337000D01*
X58557000Y6177000D02*
X58557000Y11289000D01*
X58597000Y6228000D02*
X58597000Y11238000D01*
X58637000Y6279000D02*
X58637000Y11187000D01*
X58677000Y6333000D02*
X58677000Y11133000D01*
X58717000Y6388000D02*
X58717000Y11078000D01*
X58757000Y6446000D02*
X58757000Y11020000D01*
X58797000Y6505000D02*
X58797000Y10961000D01*
X58837000Y6567000D02*
X58837000Y10899000D01*
X58877000Y6631000D02*
X58877000Y10835000D01*
X58917000Y6699000D02*
X58917000Y10767000D01*
X58957000Y6769000D02*
X58957000Y10697000D01*
X58997000Y6843000D02*
X58997000Y10623000D01*
X59037000Y6920000D02*
X59037000Y10546000D01*
X59077000Y7002000D02*
X59077000Y10464000D01*
X59117000Y7088000D02*
X59117000Y10378000D01*
X59157000Y7181000D02*
X59157000Y10285000D01*
X59197000Y7280000D02*
X59197000Y10186000D01*
X59237000Y7387000D02*
X59237000Y10079000D01*
X59277000Y7504000D02*
X59277000Y9962000D01*
X59317000Y7635000D02*
X59317000Y9831000D01*
X59357000Y7785000D02*
X59357000Y9681000D01*
X59397000Y7965000D02*
X59397000Y9501000D01*
X59437000Y8200000D02*
X59437000Y9266000D01*
X59476000Y8733000D02*
G75*
G03*
X51236000Y8733000I-4120000J0D01*
G01*
X51236000Y8733000D02*
G75*
G03*
X59476000Y8733000I4120000J0D01*
G01*
%TO.C,R11*%
X83335000Y49748936D02*
X83335000Y50203064D01*
X84805000Y49748936D02*
X84805000Y50203064D01*
%TO.C,C4*%
X47601500Y6601252D02*
X47601500Y5178748D01*
X45781500Y6601252D02*
X45781500Y5178748D01*
%TO.C,C7*%
X40696000Y6751252D02*
X40696000Y6228748D01*
X39226000Y6751252D02*
X39226000Y6228748D01*
%TO.C,T1*%
X49562200Y35301400D02*
X49562200Y12644600D01*
X27311800Y35301400D02*
X27311800Y12644600D01*
D14*
X28546360Y37485800D02*
G75*
G03*
X27702840Y37485800I-421760J0D01*
G01*
X27702840Y37485800D02*
G75*
G03*
X28546360Y37485800I421760J0D01*
G01*
%TD*%
M02*
