%TF.GenerationSoftware,KiCad,Pcbnew,7.0.10*%
%TF.CreationDate,2024-03-19T17:42:07+02:00*%
%TF.ProjectId,Sulari,53756c61-7269-42e6-9b69-6361645f7063,rev?*%
%TF.SameCoordinates,PX5a995c0PY6dac2c0*%
%TF.FileFunction,Paste,Bot*%
%TF.FilePolarity,Positive*%
%FSLAX46Y46*%
G04 Gerber Fmt 4.6, Leading zero omitted, Abs format (unit mm)*
G04 Created by KiCad (PCBNEW 7.0.10) date 2024-03-19 17:42:07*
%MOMM*%
%LPD*%
G01*
G04 APERTURE LIST*
G04 Aperture macros list*
%AMRoundRect*
0 Rectangle with rounded corners*
0 $1 Rounding radius*
0 $2 $3 $4 $5 $6 $7 $8 $9 X,Y pos of 4 corners*
0 Add a 4 corners polygon primitive as box body*
4,1,4,$2,$3,$4,$5,$6,$7,$8,$9,$2,$3,0*
0 Add four circle primitives for the rounded corners*
1,1,$1+$1,$2,$3*
1,1,$1+$1,$4,$5*
1,1,$1+$1,$6,$7*
1,1,$1+$1,$8,$9*
0 Add four rect primitives between the rounded corners*
20,1,$1+$1,$2,$3,$4,$5,0*
20,1,$1+$1,$4,$5,$6,$7,0*
20,1,$1+$1,$6,$7,$8,$9,0*
20,1,$1+$1,$8,$9,$2,$3,0*%
G04 Aperture macros list end*
%ADD10RoundRect,0.225000X-0.225000X-0.250000X0.225000X-0.250000X0.225000X0.250000X-0.225000X0.250000X0*%
%ADD11RoundRect,0.250000X-0.262500X-0.450000X0.262500X-0.450000X0.262500X0.450000X-0.262500X0.450000X0*%
%ADD12RoundRect,0.250000X-0.650000X0.325000X-0.650000X-0.325000X0.650000X-0.325000X0.650000X0.325000X0*%
%ADD13RoundRect,0.175000X-0.175000X-0.425000X0.175000X-0.425000X0.175000X0.425000X-0.175000X0.425000X0*%
%ADD14RoundRect,0.190000X0.190000X0.410000X-0.190000X0.410000X-0.190000X-0.410000X0.190000X-0.410000X0*%
%ADD15RoundRect,0.200000X0.200000X0.400000X-0.200000X0.400000X-0.200000X-0.400000X0.200000X-0.400000X0*%
%ADD16RoundRect,0.175000X0.175000X0.425000X-0.175000X0.425000X-0.175000X-0.425000X0.175000X-0.425000X0*%
%ADD17RoundRect,0.190000X-0.190000X-0.410000X0.190000X-0.410000X0.190000X0.410000X-0.190000X0.410000X0*%
%ADD18RoundRect,0.200000X-0.200000X-0.400000X0.200000X-0.400000X0.200000X0.400000X-0.200000X0.400000X0*%
%ADD19O,1.100000X1.700000*%
%ADD20RoundRect,0.200000X0.200000X0.275000X-0.200000X0.275000X-0.200000X-0.275000X0.200000X-0.275000X0*%
%ADD21RoundRect,0.250000X-0.475000X0.250000X-0.475000X-0.250000X0.475000X-0.250000X0.475000X0.250000X0*%
%ADD22RoundRect,0.250000X-0.312500X-0.625000X0.312500X-0.625000X0.312500X0.625000X-0.312500X0.625000X0*%
%ADD23RoundRect,0.170000X0.170000X0.210000X-0.170000X0.210000X-0.170000X-0.210000X0.170000X-0.210000X0*%
%ADD24RoundRect,0.075000X0.650000X0.075000X-0.650000X0.075000X-0.650000X-0.075000X0.650000X-0.075000X0*%
%ADD25R,1.200000X0.650000*%
%ADD26R,0.500000X0.700000*%
%ADD27R,3.690000X3.854000*%
%ADD28RoundRect,0.250000X0.250000X0.475000X-0.250000X0.475000X-0.250000X-0.475000X0.250000X-0.475000X0*%
%ADD29RoundRect,0.200000X-0.275000X0.200000X-0.275000X-0.200000X0.275000X-0.200000X0.275000X0.200000X0*%
%ADD30RoundRect,0.250000X0.650000X-0.412500X0.650000X0.412500X-0.650000X0.412500X-0.650000X-0.412500X0*%
%ADD31RoundRect,0.250000X0.625000X-0.400000X0.625000X0.400000X-0.625000X0.400000X-0.625000X-0.400000X0*%
%ADD32RoundRect,0.200000X-0.200000X-0.275000X0.200000X-0.275000X0.200000X0.275000X-0.200000X0.275000X0*%
%ADD33RoundRect,0.250000X-0.450000X0.262500X-0.450000X-0.262500X0.450000X-0.262500X0.450000X0.262500X0*%
%ADD34RoundRect,0.250000X-0.650000X1.000000X-0.650000X-1.000000X0.650000X-1.000000X0.650000X1.000000X0*%
%ADD35RoundRect,0.125000X0.125000X0.125000X-0.125000X0.125000X-0.125000X-0.125000X0.125000X-0.125000X0*%
%ADD36RoundRect,0.250000X0.450000X-0.262500X0.450000X0.262500X-0.450000X0.262500X-0.450000X-0.262500X0*%
%ADD37RoundRect,0.380000X-0.380000X1.080000X-0.380000X-1.080000X0.380000X-1.080000X0.380000X1.080000X0*%
G04 APERTURE END LIST*
D10*
%TO.C,C12*%
X70504000Y34855000D03*
X72054000Y34855000D03*
%TD*%
D11*
%TO.C,R6*%
X59726000Y31720000D03*
X61551000Y31720000D03*
%TD*%
D10*
%TO.C,C8*%
X52381000Y26150800D03*
X53931000Y26150800D03*
%TD*%
D12*
%TO.C,C3*%
X49105000Y7365000D03*
X49105000Y4415000D03*
%TD*%
D13*
%TO.C,J1*%
X62000000Y48521600D03*
D14*
X64020000Y48521600D03*
D15*
X65250000Y48521600D03*
D16*
X63000000Y48521600D03*
D17*
X60980000Y48521600D03*
D18*
X59750000Y48521600D03*
D19*
X58180000Y52401600D03*
X58180000Y48601600D03*
X66820000Y52401600D03*
X66820000Y48601600D03*
%TD*%
D10*
%TO.C,C11*%
X69602000Y41880000D03*
X71152000Y41880000D03*
%TD*%
D20*
%TO.C,R7*%
X61487000Y33879000D03*
X59837000Y33879000D03*
%TD*%
D21*
%TO.C,C6*%
X42034500Y7440000D03*
X42034500Y5540000D03*
%TD*%
D22*
%TO.C,R8*%
X12059500Y42864000D03*
X14984500Y42864000D03*
%TD*%
D12*
%TO.C,C5*%
X44278000Y7365000D03*
X44278000Y4415000D03*
%TD*%
D10*
%TO.C,C13*%
X63176000Y33625000D03*
X64726000Y33625000D03*
%TD*%
D23*
%TO.C,U1*%
X65781000Y36163000D03*
X65781000Y37103000D03*
X64941000Y36163000D03*
X64941000Y37103000D03*
D24*
X67511000Y37633000D03*
X67511000Y37133000D03*
X67511000Y36633000D03*
X67511000Y36133000D03*
X67511000Y35633000D03*
X63211000Y35633000D03*
X63211000Y36133000D03*
X63211000Y36633000D03*
X63211000Y37133000D03*
X63211000Y37633000D03*
%TD*%
D25*
%TO.C,Q1*%
X57939000Y34641000D03*
X57939000Y33371000D03*
X57939000Y32101000D03*
X57939000Y30831000D03*
D26*
X51939000Y34736000D03*
X51939000Y33401000D03*
D27*
X54439000Y32736000D03*
D26*
X51939000Y32071000D03*
X51939000Y30736000D03*
%TD*%
D28*
%TO.C,C9*%
X59754000Y38222000D03*
X57854000Y38222000D03*
%TD*%
D29*
%TO.C,R2*%
X67520000Y41752000D03*
X67520000Y40102000D03*
%TD*%
D30*
%TO.C,C16*%
X12188000Y24537500D03*
X12188000Y27662500D03*
%TD*%
D31*
%TO.C,R12*%
X8124000Y35980000D03*
X8124000Y39080000D03*
%TD*%
D10*
%TO.C,C10*%
X69602000Y40102000D03*
X71152000Y40102000D03*
%TD*%
D32*
%TO.C,R3*%
X70454000Y33077000D03*
X72104000Y33077000D03*
%TD*%
D33*
%TO.C,R10*%
X79498000Y50888500D03*
X79498000Y49063500D03*
%TD*%
D34*
%TO.C,D2*%
X24086000Y18844905D03*
X24086000Y14844905D03*
%TD*%
D35*
%TO.C,D1*%
X54142000Y28291000D03*
X51942000Y28291000D03*
%TD*%
D32*
%TO.C,R9*%
X70454000Y37133000D03*
X72104000Y37133000D03*
%TD*%
D11*
%TO.C,R1*%
X52360000Y23719000D03*
X54185000Y23719000D03*
%TD*%
D36*
%TO.C,R11*%
X84070000Y49063500D03*
X84070000Y50888500D03*
%TD*%
D12*
%TO.C,C4*%
X46691500Y7365000D03*
X46691500Y4415000D03*
%TD*%
D21*
%TO.C,C7*%
X39961000Y7440000D03*
X39961000Y5540000D03*
%TD*%
D37*
%TO.C,T1*%
X30937000Y35303000D03*
X34687000Y35303000D03*
X38437000Y35303000D03*
X42187000Y35303000D03*
X45937000Y35303000D03*
X45937000Y12643000D03*
X42187000Y12643000D03*
X38437000Y12643000D03*
X34687000Y12643000D03*
X30937000Y12643000D03*
%TD*%
M02*
