%TF.GenerationSoftware,KiCad,Pcbnew,7.0.10*%
%TF.CreationDate,2024-03-19T17:42:07+02:00*%
%TF.ProjectId,Sulari,53756c61-7269-42e6-9b69-6361645f7063,rev?*%
%TF.SameCoordinates,PX5a995c0PY6dac2c0*%
%TF.FileFunction,Copper,L2,Bot*%
%TF.FilePolarity,Positive*%
%FSLAX46Y46*%
G04 Gerber Fmt 4.6, Leading zero omitted, Abs format (unit mm)*
G04 Created by KiCad (PCBNEW 7.0.10) date 2024-03-19 17:42:07*
%MOMM*%
%LPD*%
G01*
G04 APERTURE LIST*
G04 Aperture macros list*
%AMRoundRect*
0 Rectangle with rounded corners*
0 $1 Rounding radius*
0 $2 $3 $4 $5 $6 $7 $8 $9 X,Y pos of 4 corners*
0 Add a 4 corners polygon primitive as box body*
4,1,4,$2,$3,$4,$5,$6,$7,$8,$9,$2,$3,0*
0 Add four circle primitives for the rounded corners*
1,1,$1+$1,$2,$3*
1,1,$1+$1,$4,$5*
1,1,$1+$1,$6,$7*
1,1,$1+$1,$8,$9*
0 Add four rect primitives between the rounded corners*
20,1,$1+$1,$2,$3,$4,$5,0*
20,1,$1+$1,$4,$5,$6,$7,0*
20,1,$1+$1,$6,$7,$8,$9,0*
20,1,$1+$1,$8,$9,$2,$3,0*%
G04 Aperture macros list end*
%TA.AperFunction,ComponentPad*%
%ADD10C,0.800000*%
%TD*%
%TA.AperFunction,ComponentPad*%
%ADD11C,6.400000*%
%TD*%
%TA.AperFunction,ComponentPad*%
%ADD12R,1.700000X1.700000*%
%TD*%
%TA.AperFunction,ComponentPad*%
%ADD13O,1.700000X1.700000*%
%TD*%
%TA.AperFunction,ComponentPad*%
%ADD14R,2.000000X1.200000*%
%TD*%
%TA.AperFunction,ComponentPad*%
%ADD15O,2.000000X1.200000*%
%TD*%
%TA.AperFunction,SMDPad,CuDef*%
%ADD16RoundRect,0.225000X-0.225000X-0.250000X0.225000X-0.250000X0.225000X0.250000X-0.225000X0.250000X0*%
%TD*%
%TA.AperFunction,SMDPad,CuDef*%
%ADD17RoundRect,0.250000X-0.262500X-0.450000X0.262500X-0.450000X0.262500X0.450000X-0.262500X0.450000X0*%
%TD*%
%TA.AperFunction,SMDPad,CuDef*%
%ADD18RoundRect,0.250000X-0.650000X0.325000X-0.650000X-0.325000X0.650000X-0.325000X0.650000X0.325000X0*%
%TD*%
%TA.AperFunction,SMDPad,CuDef*%
%ADD19RoundRect,0.175000X-0.175000X-0.425000X0.175000X-0.425000X0.175000X0.425000X-0.175000X0.425000X0*%
%TD*%
%TA.AperFunction,SMDPad,CuDef*%
%ADD20RoundRect,0.190000X0.190000X0.410000X-0.190000X0.410000X-0.190000X-0.410000X0.190000X-0.410000X0*%
%TD*%
%TA.AperFunction,SMDPad,CuDef*%
%ADD21RoundRect,0.200000X0.200000X0.400000X-0.200000X0.400000X-0.200000X-0.400000X0.200000X-0.400000X0*%
%TD*%
%TA.AperFunction,SMDPad,CuDef*%
%ADD22RoundRect,0.175000X0.175000X0.425000X-0.175000X0.425000X-0.175000X-0.425000X0.175000X-0.425000X0*%
%TD*%
%TA.AperFunction,SMDPad,CuDef*%
%ADD23RoundRect,0.190000X-0.190000X-0.410000X0.190000X-0.410000X0.190000X0.410000X-0.190000X0.410000X0*%
%TD*%
%TA.AperFunction,SMDPad,CuDef*%
%ADD24RoundRect,0.200000X-0.200000X-0.400000X0.200000X-0.400000X0.200000X0.400000X-0.200000X0.400000X0*%
%TD*%
%TA.AperFunction,ComponentPad*%
%ADD25O,1.100000X1.700000*%
%TD*%
%TA.AperFunction,SMDPad,CuDef*%
%ADD26RoundRect,0.200000X0.200000X0.275000X-0.200000X0.275000X-0.200000X-0.275000X0.200000X-0.275000X0*%
%TD*%
%TA.AperFunction,SMDPad,CuDef*%
%ADD27RoundRect,0.250000X-0.475000X0.250000X-0.475000X-0.250000X0.475000X-0.250000X0.475000X0.250000X0*%
%TD*%
%TA.AperFunction,SMDPad,CuDef*%
%ADD28RoundRect,0.250000X-0.312500X-0.625000X0.312500X-0.625000X0.312500X0.625000X-0.312500X0.625000X0*%
%TD*%
%TA.AperFunction,ComponentPad*%
%ADD29R,1.600000X1.600000*%
%TD*%
%TA.AperFunction,ComponentPad*%
%ADD30C,1.600000*%
%TD*%
%TA.AperFunction,SMDPad,CuDef*%
%ADD31RoundRect,0.075000X0.650000X0.075000X-0.650000X0.075000X-0.650000X-0.075000X0.650000X-0.075000X0*%
%TD*%
%TA.AperFunction,SMDPad,CuDef*%
%ADD32R,1.680000X1.880000*%
%TD*%
%TA.AperFunction,SMDPad,CuDef*%
%ADD33R,1.200000X0.650000*%
%TD*%
%TA.AperFunction,SMDPad,CuDef*%
%ADD34R,0.500000X0.700000*%
%TD*%
%TA.AperFunction,SMDPad,CuDef*%
%ADD35R,4.500000X4.700000*%
%TD*%
%TA.AperFunction,SMDPad,CuDef*%
%ADD36RoundRect,0.250000X0.250000X0.475000X-0.250000X0.475000X-0.250000X-0.475000X0.250000X-0.475000X0*%
%TD*%
%TA.AperFunction,SMDPad,CuDef*%
%ADD37RoundRect,0.200000X-0.275000X0.200000X-0.275000X-0.200000X0.275000X-0.200000X0.275000X0.200000X0*%
%TD*%
%TA.AperFunction,SMDPad,CuDef*%
%ADD38RoundRect,0.250000X0.650000X-0.412500X0.650000X0.412500X-0.650000X0.412500X-0.650000X-0.412500X0*%
%TD*%
%TA.AperFunction,SMDPad,CuDef*%
%ADD39RoundRect,0.250000X0.625000X-0.400000X0.625000X0.400000X-0.625000X0.400000X-0.625000X-0.400000X0*%
%TD*%
%TA.AperFunction,SMDPad,CuDef*%
%ADD40RoundRect,0.200000X-0.200000X-0.275000X0.200000X-0.275000X0.200000X0.275000X-0.200000X0.275000X0*%
%TD*%
%TA.AperFunction,SMDPad,CuDef*%
%ADD41RoundRect,0.250000X-0.450000X0.262500X-0.450000X-0.262500X0.450000X-0.262500X0.450000X0.262500X0*%
%TD*%
%TA.AperFunction,SMDPad,CuDef*%
%ADD42RoundRect,0.250000X-0.650000X1.000000X-0.650000X-1.000000X0.650000X-1.000000X0.650000X1.000000X0*%
%TD*%
%TA.AperFunction,ComponentPad*%
%ADD43C,2.000000*%
%TD*%
%TA.AperFunction,SMDPad,CuDef*%
%ADD44RoundRect,0.125000X0.125000X0.125000X-0.125000X0.125000X-0.125000X-0.125000X0.125000X-0.125000X0*%
%TD*%
%TA.AperFunction,ComponentPad*%
%ADD45RoundRect,0.200000X0.200000X0.450000X-0.200000X0.450000X-0.200000X-0.450000X0.200000X-0.450000X0*%
%TD*%
%TA.AperFunction,ComponentPad*%
%ADD46O,0.800000X1.300000*%
%TD*%
%TA.AperFunction,SMDPad,CuDef*%
%ADD47RoundRect,0.250000X0.450000X-0.262500X0.450000X0.262500X-0.450000X0.262500X-0.450000X-0.262500X0*%
%TD*%
%TA.AperFunction,SMDPad,CuDef*%
%ADD48RoundRect,0.380000X-0.380000X1.080000X-0.380000X-1.080000X0.380000X-1.080000X0.380000X1.080000X0*%
%TD*%
%TA.AperFunction,ViaPad*%
%ADD49C,0.800000*%
%TD*%
%TA.AperFunction,ViaPad*%
%ADD50C,0.600000*%
%TD*%
%TA.AperFunction,Conductor*%
%ADD51C,0.700000*%
%TD*%
%TA.AperFunction,Conductor*%
%ADD52C,0.800000*%
%TD*%
%TA.AperFunction,Conductor*%
%ADD53C,0.300000*%
%TD*%
%TA.AperFunction,Conductor*%
%ADD54C,2.000000*%
%TD*%
%TA.AperFunction,Conductor*%
%ADD55C,0.250000*%
%TD*%
%TA.AperFunction,Conductor*%
%ADD56C,1.000000*%
%TD*%
%TA.AperFunction,Conductor*%
%ADD57C,0.750000*%
%TD*%
%TA.AperFunction,Conductor*%
%ADD58C,1.500000*%
%TD*%
%TA.AperFunction,Conductor*%
%ADD59C,0.500000*%
%TD*%
%TA.AperFunction,Conductor*%
%ADD60C,1.800000*%
%TD*%
%TA.AperFunction,Conductor*%
%ADD61C,0.400000*%
%TD*%
G04 APERTURE END LIST*
D10*
%TO.P,H4,1*%
%TO.N,N/C*%
X116600000Y49000000D03*
X117302944Y50697056D03*
X117302944Y47302944D03*
X119000000Y51400000D03*
D11*
X119000000Y49000000D03*
D10*
X119000000Y46600000D03*
X120697056Y50697056D03*
X120697056Y47302944D03*
X121400000Y49000000D03*
%TD*%
%TO.P,H2,1*%
%TO.N,N/C*%
X116600000Y6000000D03*
X117302944Y7697056D03*
X117302944Y4302944D03*
X119000000Y8400000D03*
D11*
X119000000Y6000000D03*
D10*
X119000000Y3600000D03*
X120697056Y7697056D03*
X120697056Y4302944D03*
X121400000Y6000000D03*
%TD*%
D12*
%TO.P,J5,1,Pin_1*%
%TO.N,GND*%
X61000000Y25000000D03*
D13*
%TO.P,J5,2,Pin_2*%
X61000000Y22460000D03*
%TD*%
D12*
%TO.P,J2,1,Pin_1*%
%TO.N,+170V*%
X3000000Y30040000D03*
D13*
%TO.P,J2,2,Pin_2*%
%TO.N,unconnected-(J2-Pin_2-Pad2)*%
X3000000Y27500000D03*
%TO.P,J2,3,Pin_3*%
%TO.N,GND*%
X3000000Y24960000D03*
%TD*%
D10*
%TO.P,H1,1*%
%TO.N,N/C*%
X3600000Y49000000D03*
X4302944Y50697056D03*
X4302944Y47302944D03*
X6000000Y51400000D03*
D11*
X6000000Y49000000D03*
D10*
X6000000Y46600000D03*
X7697056Y50697056D03*
X7697056Y47302944D03*
X8400000Y49000000D03*
%TD*%
D12*
%TO.P,J3,1,Pin_1*%
%TO.N,GND*%
X122000000Y21150000D03*
D13*
%TO.P,J3,2,Pin_2*%
%TO.N,/ENABLE*%
X122000000Y23690000D03*
%TO.P,J3,3,Pin_3*%
%TO.N,/SRCLK*%
X122000000Y26230000D03*
%TO.P,J3,4,Pin_4*%
%TO.N,/SER_DATA*%
X122000000Y28770000D03*
%TO.P,J3,5,Pin_5*%
%TO.N,/RCLK*%
X122000000Y31310000D03*
%TO.P,J3,6,Pin_6*%
%TO.N,+5V*%
X122000000Y33850000D03*
%TD*%
D14*
%TO.P,U2,1,3V3*%
%TO.N,unconnected-(U2-3V3-Pad1)*%
X89023000Y4256000D03*
D15*
%TO.P,U2,2,EN/RESET*%
%TO.N,unconnected-(U2-EN{slash}RESET-Pad2)*%
X89023000Y6796000D03*
%TO.P,U2,3,GPIO4/MTMS*%
%TO.N,unconnected-(U2-GPIO4{slash}MTMS-Pad3)*%
X89023000Y9336000D03*
%TO.P,U2,4,GPIO5/MTDI*%
%TO.N,unconnected-(U2-GPIO5{slash}MTDI-Pad4)*%
X89023000Y11876000D03*
%TO.P,U2,5,GPIO6*%
%TO.N,RX*%
X89023000Y14416000D03*
%TO.P,U2,6,GPIO7*%
%TO.N,TX*%
X89023000Y16956000D03*
%TO.P,U2,7,GPIO0*%
%TO.N,OUT*%
X89023000Y19496000D03*
%TO.P,U2,8,GPIO1*%
%TO.N,unconnected-(U2-GPIO1-Pad8)*%
X89023000Y22036000D03*
%TO.P,U2,9,GPIO8/BOOT*%
%TO.N,unconnected-(U2-GPIO8{slash}BOOT-Pad9)*%
X89023000Y24576000D03*
%TO.P,U2,10,GPIO10*%
%TO.N,unconnected-(U2-GPIO10-Pad10)*%
X89023000Y27116000D03*
%TO.P,U2,11,GPIO11*%
%TO.N,PSU_EN*%
X89023000Y29656000D03*
%TO.P,U2,12,GPIO2*%
%TO.N,CC2*%
X89023000Y32196000D03*
%TO.P,U2,13,GPIO3*%
%TO.N,CC1*%
X89023000Y34736000D03*
%TO.P,U2,14,5V*%
%TO.N,+5V*%
X89023000Y37276000D03*
%TO.P,U2,15,GND*%
%TO.N,GND*%
X89023000Y39816000D03*
%TO.P,U2,16,NC*%
%TO.N,unconnected-(U2-NC-Pad16)*%
X89023000Y42356000D03*
%TO.P,U2,17,NC*%
%TO.N,unconnected-(U2-NC-Pad17)*%
X111883000Y42356000D03*
%TO.P,U2,18,GND*%
%TO.N,GND*%
X111883000Y39816000D03*
%TO.P,U2,19,GPIO12/USB_D-*%
%TO.N,unconnected-(U2-GPIO12{slash}USB_D--Pad19)*%
X111883000Y37276000D03*
%TO.P,U2,20,GPIO13/USB_D+*%
%TO.N,unconnected-(U2-GPIO13{slash}USB_D+-Pad20)*%
X111883000Y34736000D03*
%TO.P,U2,21,GND*%
%TO.N,GND*%
X111883000Y32196000D03*
%TO.P,U2,22,GPIO9/BOOT*%
%TO.N,unconnected-(U2-GPIO9{slash}BOOT-Pad22)*%
X111883000Y29656000D03*
%TO.P,U2,23,GPIO18*%
%TO.N,/RCLK*%
X111883000Y27116000D03*
%TO.P,U2,24,GPIO19*%
%TO.N,/SER_DATA*%
X111883000Y24576000D03*
%TO.P,U2,25,GPIO20*%
%TO.N,/SRCLK*%
X111883000Y22036000D03*
%TO.P,U2,26,GPIO21*%
%TO.N,/ENABLE*%
X111883000Y19496000D03*
%TO.P,U2,27,GPIO22*%
%TO.N,unconnected-(U2-GPIO22-Pad27)*%
X111883000Y16956000D03*
%TO.P,U2,28,GPIO23*%
%TO.N,unconnected-(U2-GPIO23-Pad28)*%
X111883000Y14416000D03*
%TO.P,U2,29,GPIO15/JTAG*%
%TO.N,unconnected-(U2-GPIO15{slash}JTAG-Pad29)*%
X111883000Y11876000D03*
%TO.P,U2,30,GPIO17/U0RXD*%
%TO.N,unconnected-(U2-GPIO17{slash}U0RXD-Pad30)*%
X111883000Y9336000D03*
%TO.P,U2,31,GPIO16/U0TXD*%
%TO.N,unconnected-(U2-GPIO16{slash}U0TXD-Pad31)*%
X111883000Y6796000D03*
%TO.P,U2,32,GND*%
%TO.N,GND*%
X111883000Y4256000D03*
%TD*%
D10*
%TO.P,H3,1*%
%TO.N,N/C*%
X3600000Y6000000D03*
X4302944Y7697056D03*
X4302944Y4302944D03*
X6000000Y8400000D03*
D11*
X6000000Y6000000D03*
D10*
X6000000Y3600000D03*
X7697056Y7697056D03*
X7697056Y4302944D03*
X8400000Y6000000D03*
%TD*%
D16*
%TO.P,C12,1*%
%TO.N,Net-(U1-SS)*%
X70504000Y34855000D03*
%TO.P,C12,2*%
%TO.N,GND*%
X72054000Y34855000D03*
%TD*%
D17*
%TO.P,R6,1*%
%TO.N,Net-(Q1-S)*%
X59726000Y31720000D03*
%TO.P,R6,2*%
%TO.N,GND*%
X61551000Y31720000D03*
%TD*%
D16*
%TO.P,C8,1*%
%TO.N,+5V*%
X52381000Y26150800D03*
%TO.P,C8,2*%
%TO.N,Net-(D1-K)*%
X53931000Y26150800D03*
%TD*%
D18*
%TO.P,C3,1*%
%TO.N,+5V*%
X49105000Y7365000D03*
%TO.P,C3,2*%
%TO.N,GND*%
X49105000Y4415000D03*
%TD*%
D19*
%TO.P,J1,A5,CC1*%
%TO.N,CC1*%
X62000000Y48521600D03*
D20*
%TO.P,J1,A9,VBUS*%
%TO.N,+5V*%
X64020000Y48521600D03*
D21*
%TO.P,J1,A12,GND*%
%TO.N,GND*%
X65250000Y48521600D03*
D22*
%TO.P,J1,B5,CC2*%
%TO.N,CC2*%
X63000000Y48521600D03*
D23*
%TO.P,J1,B9,VBUS*%
%TO.N,+5V*%
X60980000Y48521600D03*
D24*
%TO.P,J1,B12,GND*%
%TO.N,GND*%
X59750000Y48521600D03*
D25*
%TO.P,J1,S1,SHIELD*%
%TO.N,unconnected-(J1-SHIELD-PadS1)*%
X58180000Y52401600D03*
X58180000Y48601600D03*
X66820000Y52401600D03*
X66820000Y48601600D03*
%TD*%
D16*
%TO.P,C11,1*%
%TO.N,Net-(C11-Pad1)*%
X69602000Y41880000D03*
%TO.P,C11,2*%
%TO.N,GND*%
X71152000Y41880000D03*
%TD*%
D26*
%TO.P,R7,1*%
%TO.N,Net-(U1-SENSE)*%
X61487000Y33879000D03*
%TO.P,R7,2*%
%TO.N,Net-(Q1-S)*%
X59837000Y33879000D03*
%TD*%
D27*
%TO.P,C6,1*%
%TO.N,+5V*%
X42034500Y7440000D03*
%TO.P,C6,2*%
%TO.N,GND*%
X42034500Y5540000D03*
%TD*%
D28*
%TO.P,R8,1*%
%TO.N,Net-(R12-Pad2)*%
X12059500Y42864000D03*
%TO.P,R8,2*%
%TO.N,FB*%
X14984500Y42864000D03*
%TD*%
D18*
%TO.P,C5,1*%
%TO.N,+5V*%
X44278000Y7365000D03*
%TO.P,C5,2*%
%TO.N,GND*%
X44278000Y4415000D03*
%TD*%
D29*
%TO.P,C1,1*%
%TO.N,+5V*%
X53606000Y18004000D03*
D30*
%TO.P,C1,2*%
%TO.N,GND*%
X57106000Y18004000D03*
%TD*%
D16*
%TO.P,C13,1*%
%TO.N,Net-(U1-SENSE)*%
X63176000Y33625000D03*
%TO.P,C13,2*%
%TO.N,GND*%
X64726000Y33625000D03*
%TD*%
D31*
%TO.P,U1,1,VC*%
%TO.N,Net-(U1-VC)*%
X67511000Y37633000D03*
%TO.P,U1,2,FBX*%
%TO.N,FB*%
X67511000Y37133000D03*
%TO.P,U1,3,SS*%
%TO.N,Net-(U1-SS)*%
X67511000Y36633000D03*
%TO.P,U1,4,RT*%
%TO.N,Net-(U1-RT)*%
X67511000Y36133000D03*
%TO.P,U1,5,SYNC*%
%TO.N,GND*%
X67511000Y35633000D03*
%TO.P,U1,6,SENSE*%
%TO.N,Net-(U1-SENSE)*%
X63211000Y35633000D03*
%TO.P,U1,7,GATE*%
%TO.N,Net-(U1-GATE)*%
X63211000Y36133000D03*
%TO.P,U1,8,INTVCC*%
%TO.N,+5V*%
X63211000Y36633000D03*
%TO.P,U1,9,~{SHDN}/UVLO*%
%TO.N,PSU_EN*%
X63211000Y37133000D03*
%TO.P,U1,10,VIN*%
%TO.N,+5V*%
X63211000Y37633000D03*
D32*
%TO.P,U1,11,GND*%
%TO.N,GND*%
X65361000Y36633000D03*
%TD*%
D33*
%TO.P,Q1,1,S*%
%TO.N,Net-(Q1-S)*%
X57939000Y34641000D03*
X57939000Y33371000D03*
X57939000Y32101000D03*
%TO.P,Q1,4,G*%
%TO.N,Net-(Q1-G)*%
X57939000Y30831000D03*
D34*
%TO.P,Q1,5,D*%
%TO.N,Net-(D1-A)*%
X51939000Y34736000D03*
X51939000Y33401000D03*
D35*
X54439000Y32736000D03*
D34*
X51939000Y32071000D03*
X51939000Y30736000D03*
%TD*%
D36*
%TO.P,C9,1*%
%TO.N,+5V*%
X59754000Y38222000D03*
%TO.P,C9,2*%
%TO.N,GND*%
X57854000Y38222000D03*
%TD*%
D37*
%TO.P,R2,1*%
%TO.N,Net-(C11-Pad1)*%
X67520000Y41752000D03*
%TO.P,R2,2*%
%TO.N,Net-(U1-VC)*%
X67520000Y40102000D03*
%TD*%
D38*
%TO.P,C16,1*%
%TO.N,+170V*%
X12188000Y24537500D03*
%TO.P,C16,2*%
%TO.N,GND*%
X12188000Y27662500D03*
%TD*%
D39*
%TO.P,R12,1*%
%TO.N,+170V*%
X8124000Y35980000D03*
%TO.P,R12,2*%
%TO.N,Net-(R12-Pad2)*%
X8124000Y39080000D03*
%TD*%
D16*
%TO.P,C10,1*%
%TO.N,Net-(U1-VC)*%
X69602000Y40102000D03*
%TO.P,C10,2*%
%TO.N,GND*%
X71152000Y40102000D03*
%TD*%
D40*
%TO.P,R3,1*%
%TO.N,Net-(U1-RT)*%
X70454000Y33077000D03*
%TO.P,R3,2*%
%TO.N,GND*%
X72104000Y33077000D03*
%TD*%
D41*
%TO.P,R10,1*%
%TO.N,CC2*%
X79498000Y50888500D03*
%TO.P,R10,2*%
%TO.N,GND*%
X79498000Y49063500D03*
%TD*%
D42*
%TO.P,D2,1,K*%
%TO.N,+170V*%
X24086000Y18844905D03*
%TO.P,D2,2,A*%
%TO.N,Net-(D2-A)*%
X24086000Y14844905D03*
%TD*%
D43*
%TO.P,C15,1*%
%TO.N,+170V*%
X17101000Y23926905D03*
%TO.P,C15,2*%
%TO.N,GND*%
X17101000Y31426905D03*
%TD*%
D44*
%TO.P,D1,1,K*%
%TO.N,Net-(D1-K)*%
X54142000Y28291000D03*
%TO.P,D1,2,A*%
%TO.N,Net-(D1-A)*%
X51942000Y28291000D03*
%TD*%
D43*
%TO.P,C14,1*%
%TO.N,+170V*%
X23070000Y23926905D03*
%TO.P,C14,2*%
%TO.N,GND*%
X23070000Y31426905D03*
%TD*%
D45*
%TO.P,J4,1,OUT*%
%TO.N,OUT*%
X80728000Y15608000D03*
D46*
%TO.P,J4,2,TX*%
%TO.N,TX*%
X79478000Y15608000D03*
%TO.P,J4,3,RX*%
%TO.N,RX*%
X78228000Y15608000D03*
%TO.P,J4,4,GND*%
%TO.N,GND*%
X76978000Y15608000D03*
%TO.P,J4,5,VCC*%
%TO.N,+5V*%
X75728000Y15608000D03*
%TD*%
D40*
%TO.P,R9,1*%
%TO.N,FB*%
X70454000Y37133000D03*
%TO.P,R9,2*%
%TO.N,GND*%
X72104000Y37133000D03*
%TD*%
D17*
%TO.P,R1,1*%
%TO.N,+5V*%
X52360000Y23719000D03*
%TO.P,R1,2*%
%TO.N,Net-(D1-K)*%
X54185000Y23719000D03*
%TD*%
D29*
%TO.P,C2,1*%
%TO.N,+5V*%
X53606000Y8733000D03*
D30*
%TO.P,C2,2*%
%TO.N,GND*%
X57106000Y8733000D03*
%TD*%
D47*
%TO.P,R11,1*%
%TO.N,CC1*%
X84070000Y49063500D03*
%TO.P,R11,2*%
%TO.N,GND*%
X84070000Y50888500D03*
%TD*%
D18*
%TO.P,C4,1*%
%TO.N,+5V*%
X46691500Y7365000D03*
%TO.P,C4,2*%
%TO.N,GND*%
X46691500Y4415000D03*
%TD*%
D27*
%TO.P,C7,1*%
%TO.N,+5V*%
X39961000Y7440000D03*
%TO.P,C7,2*%
%TO.N,GND*%
X39961000Y5540000D03*
%TD*%
D48*
%TO.P,T1,1*%
%TO.N,GND*%
X30937000Y35303000D03*
%TO.P,T1,2*%
%TO.N,unconnected-(T1-Pad2)*%
X34687000Y35303000D03*
%TO.P,T1,3*%
%TO.N,unconnected-(T1-Pad3)*%
X38437000Y35303000D03*
%TO.P,T1,4*%
%TO.N,Net-(D1-A)*%
X42187000Y35303000D03*
%TO.P,T1,5*%
X45937000Y35303000D03*
%TO.P,T1,6*%
%TO.N,+5V*%
X45937000Y12643000D03*
%TO.P,T1,7*%
X42187000Y12643000D03*
%TO.P,T1,8*%
%TO.N,unconnected-(T1-Pad8)*%
X38437000Y12643000D03*
%TO.P,T1,9*%
%TO.N,unconnected-(T1-Pad9)*%
X34687000Y12643000D03*
%TO.P,T1,10*%
%TO.N,Net-(D2-A)*%
X30937000Y12643000D03*
%TD*%
D49*
%TO.N,GND*%
X76958000Y13654000D03*
D50*
X64893000Y36641000D03*
X65782000Y35752000D03*
D49*
X72132000Y38419000D03*
X29968000Y32196000D03*
X79498000Y47690000D03*
X17268000Y34736000D03*
X73529000Y33085000D03*
X12188000Y29656000D03*
X21078000Y36006000D03*
X44954000Y2986000D03*
X22348000Y34736000D03*
X21078000Y33593000D03*
X72640000Y40197000D03*
X28698000Y36006000D03*
X28698000Y30926000D03*
X72640000Y41848000D03*
X26158000Y33593000D03*
X23618000Y33593000D03*
D50*
X65782000Y36641000D03*
D49*
X73529000Y34482000D03*
X18538000Y36006000D03*
X61591000Y30037000D03*
X65985200Y33618400D03*
X18538000Y33593000D03*
X15998000Y33593000D03*
X28698000Y33593000D03*
X65274000Y47182000D03*
X57781000Y39816000D03*
X84070000Y52312800D03*
D50*
X64893000Y35752000D03*
D49*
X56511000Y38292000D03*
X49526000Y2986000D03*
D50*
X64893000Y37530000D03*
D49*
X42668000Y4002000D03*
X24888000Y34736000D03*
X43430000Y2986000D03*
X26158000Y36006000D03*
X19808000Y34736000D03*
D50*
X66036000Y40324000D03*
D49*
X73529000Y37403000D03*
D50*
X64766000Y40324000D03*
D49*
X39620000Y4002000D03*
X46478000Y2986000D03*
X59686000Y47182000D03*
D50*
X64766000Y41848000D03*
D49*
X40382000Y2986000D03*
X41144000Y4002000D03*
D50*
X65401000Y41086000D03*
D49*
X27428000Y32196000D03*
D50*
X66036000Y41848000D03*
X65782000Y37530000D03*
D49*
X48002000Y2986000D03*
X27428000Y34736000D03*
X41906000Y2986000D03*
X23618000Y36006000D03*
X63115000Y31688000D03*
X15998000Y36006000D03*
X26539000Y30926000D03*
%TO.N,Net-(Q1-G)*%
X57995000Y28799000D03*
%TO.N,Net-(U1-GATE)*%
X61170000Y35403000D03*
%TO.N,FB*%
X61104000Y39972000D03*
X69604000Y38722000D03*
%TO.N,CC1*%
X85848000Y38927000D03*
X85848000Y35625000D03*
%TO.N,CC2*%
X83562000Y35625000D03*
X83562000Y38927000D03*
%TO.N,PSU_EN*%
X70354000Y36006000D03*
X61104000Y37472000D03*
X82419000Y29656000D03*
X77974000Y29656000D03*
%TD*%
D51*
%TO.N,+5V*%
X63204000Y43787000D02*
X62988000Y43571000D01*
D52*
X60980000Y48547000D02*
X60980000Y46777000D01*
D53*
X62053528Y36638000D02*
X61556472Y36638000D01*
D54*
X64816800Y13654000D02*
X53488400Y13654000D01*
D53*
X61551472Y36633000D02*
X60393000Y36633000D01*
X62058528Y36633000D02*
X62053528Y36638000D01*
D54*
X80133000Y42229000D02*
X80133000Y37276000D01*
X67102800Y13654000D02*
X64816800Y13654000D01*
D53*
X63211000Y36633000D02*
X62058528Y36633000D01*
X59754000Y38222000D02*
X62701918Y38222000D01*
D55*
X75728000Y22279200D02*
X77110400Y23661600D01*
D56*
X89023000Y37276000D02*
X80133000Y37276000D01*
D53*
X60393000Y36633000D02*
X59754000Y37272000D01*
D54*
X80133000Y26735000D02*
X80158400Y26709600D01*
X80133000Y37276000D02*
X80133000Y34609000D01*
D56*
X122000000Y37446000D02*
X122000000Y33875000D01*
D54*
X77053000Y45309000D02*
X80133000Y42229000D01*
D56*
X101596000Y37276000D02*
X108835000Y44515000D01*
D53*
X59754000Y37272000D02*
X59754000Y38222000D01*
D54*
X80158400Y26709600D02*
X77110400Y23661600D01*
D56*
X89023000Y37276000D02*
X101596000Y37276000D01*
D54*
X63204000Y43787000D02*
X64726000Y45309000D01*
D53*
X61556472Y36638000D02*
X61551472Y36633000D01*
D54*
X80133000Y34609000D02*
X80133000Y26735000D01*
D52*
X64020000Y48547000D02*
X64020000Y46690000D01*
D57*
X75728000Y15608000D02*
X75728000Y22279200D01*
D55*
X64020000Y46690000D02*
X64004000Y46674000D01*
D54*
X64726000Y45309000D02*
X77053000Y45309000D01*
D53*
X63211000Y37712918D02*
X63211000Y37633000D01*
D58*
X62988000Y43571000D02*
X62988000Y38456000D01*
D54*
X77110400Y23661600D02*
X67102800Y13654000D01*
D55*
X60980000Y46777000D02*
X61083000Y46674000D01*
D56*
X114931000Y44515000D02*
X122000000Y37446000D01*
X108835000Y44515000D02*
X114931000Y44515000D01*
D59*
%TO.N,GND*%
X71152000Y40102000D02*
X72545000Y40102000D01*
D55*
X72545000Y40102000D02*
X72640000Y40197000D01*
X122000000Y21175000D02*
X122000000Y21104000D01*
D59*
X64726000Y33625000D02*
X65978600Y33625000D01*
X72104000Y37133000D02*
X72104000Y38391000D01*
X57854000Y38222000D02*
X57854000Y39743000D01*
X79498000Y49063500D02*
X79498000Y47690000D01*
D55*
X56581000Y38222000D02*
X56511000Y38292000D01*
D59*
X84070000Y50888500D02*
X84070000Y52312800D01*
X57854000Y38222000D02*
X56581000Y38222000D01*
X71152000Y41880000D02*
X72608000Y41880000D01*
X72497000Y37133000D02*
X72767000Y37403000D01*
D55*
X63083000Y31720000D02*
X63115000Y31688000D01*
X65901000Y35633000D02*
X65782000Y35752000D01*
D59*
X72394000Y34855000D02*
X72767000Y34482000D01*
D55*
X59750000Y47246000D02*
X59686000Y47182000D01*
D59*
X59750000Y48547000D02*
X59750000Y47246000D01*
D55*
X65978600Y33625000D02*
X65985200Y33618400D01*
X72104000Y38391000D02*
X72132000Y38419000D01*
X73521000Y33077000D02*
X73529000Y33085000D01*
D57*
X76978000Y15608000D02*
X76978000Y13674000D01*
D59*
X12188000Y27662500D02*
X12188000Y29656000D01*
D55*
X72054000Y34855000D02*
X72394000Y34855000D01*
D59*
X72767000Y34482000D02*
X73529000Y34482000D01*
D55*
X57854000Y39743000D02*
X57781000Y39816000D01*
X121845000Y21020000D02*
X122000000Y21175000D01*
D59*
X61551000Y31720000D02*
X63083000Y31720000D01*
X72767000Y37403000D02*
X73529000Y37403000D01*
D55*
X65250000Y47206000D02*
X65274000Y47182000D01*
D53*
X67511000Y35633000D02*
X65901000Y35633000D01*
D55*
X76978000Y13674000D02*
X76958000Y13654000D01*
D59*
X61551000Y31720000D02*
X61551000Y30077000D01*
X65250000Y48547000D02*
X65250000Y47206000D01*
D55*
X72608000Y41880000D02*
X72640000Y41848000D01*
X73719000Y34292000D02*
X73529000Y34482000D01*
X61551000Y30077000D02*
X61591000Y30037000D01*
D59*
X72104000Y33077000D02*
X73521000Y33077000D01*
D55*
X72104000Y37133000D02*
X72497000Y37133000D01*
D57*
%TO.N,Net-(D1-K)*%
X54142000Y27232000D02*
X53931000Y27021000D01*
X53931000Y27021000D02*
X53931000Y26005000D01*
X54185000Y24989000D02*
X54185000Y23719000D01*
X53931000Y26005000D02*
X53931000Y25243000D01*
X53931000Y25243000D02*
X54185000Y24989000D01*
X54142000Y28291000D02*
X54142000Y27232000D01*
D55*
%TO.N,Net-(U1-VC)*%
X67511000Y40093000D02*
X67520000Y40102000D01*
X67520000Y40102000D02*
X69602000Y40102000D01*
D53*
X67511000Y37633000D02*
X67511000Y40093000D01*
D55*
%TO.N,Net-(C11-Pad1)*%
X68536000Y41880000D02*
X69602000Y41880000D01*
X67520000Y41752000D02*
X68408000Y41752000D01*
X68408000Y41752000D02*
X68536000Y41880000D01*
%TO.N,Net-(U1-SS)*%
X69591000Y34855000D02*
X69337000Y35109000D01*
X70403000Y34855000D02*
X69591000Y34855000D01*
X69337000Y35871000D02*
X68575000Y36633000D01*
X68575000Y36633000D02*
X67511000Y36633000D01*
X69337000Y35109000D02*
X69337000Y35871000D01*
D59*
%TO.N,Net-(U1-SENSE)*%
X63176000Y33625000D02*
X63176000Y35498000D01*
X62313000Y33625000D02*
X63176000Y33625000D01*
X62059000Y33879000D02*
X62313000Y33625000D01*
D55*
X63176000Y35598000D02*
X63211000Y35633000D01*
D59*
X61487000Y33879000D02*
X62059000Y33879000D01*
D55*
X63228000Y35616000D02*
X63211000Y35633000D01*
D59*
X63176000Y35498000D02*
X63211000Y35533000D01*
D60*
%TO.N,Net-(D2-A)*%
X30937000Y12643000D02*
X30944000Y12636000D01*
X30937000Y12643000D02*
X30901000Y12607000D01*
X30937000Y12643000D02*
X30783000Y12797000D01*
X30783000Y12797000D02*
X27896000Y12797000D01*
X27896000Y12797000D02*
X25848095Y14844905D01*
X25848095Y14844905D02*
X24086000Y14844905D01*
D59*
%TO.N,Net-(Q1-G)*%
X57939000Y30831000D02*
X57939000Y28855000D01*
X57939000Y28855000D02*
X57995000Y28799000D01*
D55*
%TO.N,Net-(U1-RT)*%
X69083000Y33077000D02*
X70353000Y33077000D01*
X68575000Y35871000D02*
X68575000Y33585000D01*
X68313000Y36133000D02*
X68575000Y35871000D01*
X67511000Y36133000D02*
X68313000Y36133000D01*
X68575000Y33585000D02*
X69083000Y33077000D01*
D53*
%TO.N,Net-(U1-GATE)*%
X63211000Y36133000D02*
X61900000Y36133000D01*
X61900000Y36133000D02*
X61805000Y36038000D01*
D59*
X61170000Y35403000D02*
X61805000Y36038000D01*
D61*
%TO.N,FB*%
X14984500Y42864000D02*
X58212000Y42864000D01*
D53*
X70454000Y37872000D02*
X69604000Y38722000D01*
X70454000Y37133000D02*
X70454000Y37872000D01*
D61*
X58212000Y42864000D02*
X61104000Y39972000D01*
D53*
X70454000Y37133000D02*
X67511000Y37133000D01*
D55*
%TO.N,CC1*%
X82190400Y49874400D02*
X83001300Y49063500D01*
X81326800Y52566800D02*
X82190400Y51703200D01*
X63242000Y50738000D02*
X74418000Y50738000D01*
D59*
X84070000Y49063500D02*
X84982500Y49063500D01*
D55*
X83001300Y49063500D02*
X84070000Y49063500D01*
X83919500Y49214000D02*
X84070000Y49063500D01*
D59*
X84982500Y49063500D02*
X85848000Y48198000D01*
D55*
X82190400Y51703200D02*
X82190400Y49874400D01*
D59*
X85848000Y38927000D02*
X85848000Y39054000D01*
X85848000Y48198000D02*
X85848000Y38927000D01*
D55*
X74418000Y50738000D02*
X76246800Y52566800D01*
X62000000Y49496000D02*
X63242000Y50738000D01*
X62000000Y48521600D02*
X62000000Y49496000D01*
D59*
X86737000Y34736000D02*
X89023000Y34736000D01*
D55*
X76246800Y52566800D02*
X81326800Y52566800D01*
D59*
X85848000Y35625000D02*
X86737000Y34736000D01*
%TO.N,CC2*%
X83562000Y38927000D02*
X83562000Y39054000D01*
X80768000Y50992000D02*
X81276000Y50484000D01*
D55*
X79394500Y50992000D02*
X79498000Y50888500D01*
X63038800Y48560400D02*
X63038800Y49315600D01*
D59*
X83562000Y33720000D02*
X85086000Y32196000D01*
D55*
X63000000Y48521600D02*
X63038800Y48560400D01*
D59*
X83562000Y35625000D02*
X83562000Y33720000D01*
X79601500Y50992000D02*
X80768000Y50992000D01*
D55*
X63038800Y49315600D02*
X63953200Y50230000D01*
D59*
X85086000Y32196000D02*
X89023000Y32196000D01*
D55*
X76704000Y50230000D02*
X77466000Y50992000D01*
D59*
X81276000Y50484000D02*
X81276000Y47690000D01*
X81276000Y47690000D02*
X83562000Y45404000D01*
D55*
X63953200Y50230000D02*
X76704000Y50230000D01*
X79498000Y50888500D02*
X79601500Y50992000D01*
X77466000Y50992000D02*
X79601500Y50992000D01*
D59*
X83562000Y45404000D02*
X83562000Y38927000D01*
D55*
%TO.N,RX*%
X84324000Y12384000D02*
X86356000Y14416000D01*
X80006000Y12384000D02*
X84324000Y12384000D01*
X86356000Y14416000D02*
X89023000Y14416000D01*
X78228000Y14162000D02*
X80006000Y12384000D01*
X78228000Y15608000D02*
X78228000Y14162000D01*
%TO.N,/SRCLK*%
X121845000Y26100000D02*
X122000000Y26255000D01*
D59*
X111883000Y22036000D02*
X115820000Y22036000D01*
X115820000Y22036000D02*
X120014000Y26230000D01*
X120014000Y26230000D02*
X122000000Y26230000D01*
%TO.N,/RCLK*%
X116966000Y31310000D02*
X122000000Y31310000D01*
X112772000Y27116000D02*
X116966000Y31310000D01*
X111883000Y27116000D02*
X112772000Y27116000D01*
D55*
%TO.N,/SER_DATA*%
X122000000Y28795000D02*
X121845000Y28640000D01*
D59*
X114042000Y24576000D02*
X118236000Y28770000D01*
X111883000Y24576000D02*
X114042000Y24576000D01*
X118236000Y28770000D02*
X122000000Y28770000D01*
%TO.N,/ENABLE*%
X121284000Y23690000D02*
X122000000Y23690000D01*
X117090000Y19496000D02*
X121284000Y23690000D01*
X111883000Y19496000D02*
X117090000Y19496000D01*
D55*
%TO.N,PSU_EN*%
X61443000Y37133000D02*
X63211000Y37133000D01*
D61*
X76323000Y34736000D02*
X76323000Y31307000D01*
X76323000Y31307000D02*
X77974000Y29656000D01*
X89023000Y29656000D02*
X82292000Y29656000D01*
D55*
X61104000Y37472000D02*
X61443000Y37133000D01*
D61*
X70354000Y36006000D02*
X75053000Y36006000D01*
X75053000Y36006000D02*
X76323000Y34736000D01*
D55*
X82419000Y29656000D02*
X82927000Y29656000D01*
%TO.N,unconnected-(U2-GPIO22-Pad27)*%
X112137000Y16956000D02*
X112010000Y16829000D01*
%TO.N,TX*%
X79478000Y15608000D02*
X79478000Y14690000D01*
X79478000Y14690000D02*
X80260000Y13908000D01*
X84578000Y16956000D02*
X89023000Y16956000D01*
X83308000Y14162000D02*
X83308000Y15686000D01*
X83054000Y13908000D02*
X83308000Y14162000D01*
X80260000Y13908000D02*
X83054000Y13908000D01*
X83308000Y15686000D02*
X84578000Y16956000D01*
%TO.N,OUT*%
X80728000Y15608000D02*
X80728000Y16916000D01*
X80728000Y16916000D02*
X83308000Y19496000D01*
X83308000Y19496000D02*
X89023000Y19496000D01*
D61*
%TO.N,Net-(R12-Pad2)*%
X12059500Y42864000D02*
X10410000Y42864000D01*
X10410000Y42864000D02*
X8124000Y40578000D01*
X8124000Y40578000D02*
X8124000Y39080000D01*
%TD*%
%TA.AperFunction,Conductor*%
%TO.N,Net-(C11-Pad1)*%
G36*
X69285228Y42321504D02*
G01*
X69598080Y41886835D01*
X69600132Y41878118D01*
X69598080Y41873165D01*
X69285228Y41438497D01*
X69277614Y41433784D01*
X69269991Y41435137D01*
X68707959Y41751645D01*
X68702432Y41758691D01*
X68702000Y41761840D01*
X68702000Y41998161D01*
X68705427Y42006434D01*
X68707959Y42008356D01*
X69269993Y42324865D01*
X69278881Y42325937D01*
X69285228Y42321504D01*
G37*
%TD.AperFunction*%
%TD*%
%TA.AperFunction,Conductor*%
%TO.N,+5V*%
G36*
X64328039Y47035315D02*
G01*
X64373794Y46982511D01*
X64385000Y46931000D01*
X64385000Y46203544D01*
X64365315Y46136505D01*
X64364174Y46134761D01*
X62458590Y43276386D01*
X62405025Y43231525D01*
X62335709Y43222745D01*
X62272650Y43252834D01*
X62250804Y43278594D01*
X60594386Y45881537D01*
X60575000Y45948110D01*
X60575000Y46931000D01*
X60594685Y46998039D01*
X60647489Y47043794D01*
X60699000Y47055000D01*
X64261000Y47055000D01*
X64328039Y47035315D01*
G37*
%TD.AperFunction*%
%TD*%
%TA.AperFunction,Conductor*%
%TO.N,GND*%
G36*
X72635299Y42243837D02*
G01*
X72639906Y42236158D01*
X72640033Y42234466D01*
X72640994Y41850356D01*
X72640093Y41845825D01*
X72490750Y41487620D01*
X72484403Y41481302D01*
X72477257Y41480736D01*
X71855371Y41627870D01*
X71848109Y41633110D01*
X71846365Y41639256D01*
X71846365Y42119911D01*
X71849792Y42128184D01*
X71856343Y42131484D01*
X72626613Y42246010D01*
X72635299Y42243837D01*
G37*
%TD.AperFunction*%
%TD*%
%TA.AperFunction,Conductor*%
%TO.N,Net-(U1-VC)*%
G36*
X69285228Y40543504D02*
G01*
X69598080Y40108835D01*
X69600132Y40100118D01*
X69598080Y40095165D01*
X69285228Y39660497D01*
X69277614Y39655784D01*
X69269991Y39657137D01*
X68707959Y39973645D01*
X68702432Y39980691D01*
X68702000Y39983840D01*
X68702000Y40220161D01*
X68705427Y40228434D01*
X68707959Y40230356D01*
X69269993Y40546865D01*
X69278881Y40547937D01*
X69285228Y40543504D01*
G37*
%TD.AperFunction*%
%TD*%
%TA.AperFunction,Conductor*%
%TO.N,FB*%
G36*
X60687526Y40674552D02*
G01*
X61176827Y40388470D01*
X61248284Y40346691D01*
X61253697Y40339557D01*
X61253199Y40332139D01*
X61106563Y39975805D01*
X61100245Y39969458D01*
X61100195Y39969437D01*
X60743861Y39822801D01*
X60734907Y39822822D01*
X60729309Y39827716D01*
X60642725Y39975805D01*
X60401448Y40388473D01*
X60400231Y40397341D01*
X60403274Y40402646D01*
X60673353Y40672725D01*
X60681625Y40676151D01*
X60687526Y40674552D01*
G37*
%TD.AperFunction*%
%TD*%
%TA.AperFunction,Conductor*%
%TO.N,/ENABLE*%
G36*
X112518891Y20048358D02*
G01*
X112727948Y19982795D01*
X113474802Y19748571D01*
X113481670Y19742826D01*
X113483000Y19737408D01*
X113483000Y19254593D01*
X113479573Y19246320D01*
X113474801Y19243429D01*
X112518891Y18943643D01*
X112509972Y18944437D01*
X112507665Y18946019D01*
X111891997Y19487212D01*
X111888046Y19495248D01*
X111890934Y19503725D01*
X111891997Y19504788D01*
X112507666Y20045983D01*
X112516142Y20048870D01*
X112518891Y20048358D01*
G37*
%TD.AperFunction*%
%TD*%
%TA.AperFunction,Conductor*%
%TO.N,PSU_EN*%
G36*
X62564459Y37282203D02*
G01*
X63162520Y37144401D01*
X63169811Y37139205D01*
X63171293Y37130374D01*
X63166096Y37123082D01*
X63162519Y37121600D01*
X62564468Y36983799D01*
X62561841Y36983500D01*
X62557144Y36983500D01*
X62555852Y36983572D01*
X62346408Y37006844D01*
X62338564Y37011163D01*
X62336000Y37018472D01*
X62336000Y37247529D01*
X62339427Y37255802D01*
X62346406Y37259157D01*
X62555870Y37282431D01*
X62557126Y37282501D01*
X62561848Y37282501D01*
X62564459Y37282203D01*
G37*
%TD.AperFunction*%
%TD*%
%TA.AperFunction,Conductor*%
%TO.N,Net-(Q1-G)*%
G36*
X57947260Y30823715D02*
G01*
X57947286Y30823689D01*
X58259430Y30510584D01*
X58262844Y30502306D01*
X58262544Y30499693D01*
X58191093Y30190069D01*
X58185894Y30182778D01*
X58179693Y30181000D01*
X57698307Y30181000D01*
X57690034Y30184427D01*
X57686907Y30190069D01*
X57615455Y30499693D01*
X57616933Y30508525D01*
X57618565Y30510580D01*
X57930714Y30823690D01*
X57938982Y30827129D01*
X57947260Y30823715D01*
G37*
%TD.AperFunction*%
%TD*%
%TA.AperFunction,Conductor*%
%TO.N,GND*%
G36*
X59757341Y48513063D02*
G01*
X59759111Y48511293D01*
X60131092Y48049635D01*
X60133614Y48041043D01*
X60133311Y48039377D01*
X60002261Y47530383D01*
X59996880Y47523225D01*
X59990931Y47521600D01*
X59509069Y47521600D01*
X59500796Y47525027D01*
X59497739Y47530383D01*
X59366688Y48039377D01*
X59367943Y48048243D01*
X59368901Y48049628D01*
X59740889Y48511294D01*
X59748749Y48515585D01*
X59757341Y48513063D01*
G37*
%TD.AperFunction*%
%TD*%
%TA.AperFunction,Conductor*%
%TO.N,GND*%
G36*
X58168130Y39816033D02*
G01*
X58176394Y39812585D01*
X58179800Y39804304D01*
X58179744Y39803192D01*
X58105035Y39041080D01*
X58100818Y39033180D01*
X58093391Y39030521D01*
X57612668Y39030521D01*
X57604395Y39033948D01*
X57601475Y39038813D01*
X57600785Y39041080D01*
X57414532Y39652798D01*
X57415401Y39661709D01*
X57421221Y39667002D01*
X57778829Y39816096D01*
X57783350Y39816995D01*
X58168130Y39816033D01*
G37*
%TD.AperFunction*%
%TD*%
%TA.AperFunction,Conductor*%
%TO.N,CC1*%
G36*
X83978845Y49283677D02*
G01*
X83978906Y49283535D01*
X84069109Y49068017D01*
X84069142Y49059062D01*
X84069109Y49058983D01*
X83978906Y48843467D01*
X83972550Y48837158D01*
X83963596Y48837191D01*
X83963454Y48837252D01*
X83878198Y48874263D01*
X83808793Y48904379D01*
X83808776Y48904385D01*
X83746998Y48924234D01*
X83673775Y48935157D01*
X83673760Y48935159D01*
X83581323Y48938136D01*
X83573165Y48941828D01*
X83570000Y48949830D01*
X83570000Y49177171D01*
X83573427Y49185444D01*
X83581322Y49188865D01*
X83673767Y49191843D01*
X83747000Y49202768D01*
X83808782Y49222619D01*
X83832640Y49232972D01*
X83878198Y49252738D01*
X83904711Y49264249D01*
X83963456Y49289751D01*
X83972407Y49289901D01*
X83978845Y49283677D01*
G37*
%TD.AperFunction*%
%TD*%
%TA.AperFunction,Conductor*%
%TO.N,GND*%
G36*
X72302829Y35075131D02*
G01*
X72303203Y35074325D01*
X72393109Y34859517D01*
X72393142Y34850563D01*
X72393109Y34850483D01*
X72303203Y34635676D01*
X72296847Y34629367D01*
X72287893Y34629400D01*
X72287087Y34629774D01*
X72239188Y34654248D01*
X72237790Y34655090D01*
X72197517Y34683354D01*
X72162100Y34707373D01*
X72162094Y34707377D01*
X72118731Y34723873D01*
X72118734Y34723873D01*
X72064597Y34728997D01*
X72056684Y34733188D01*
X72054000Y34740645D01*
X72054000Y34969356D01*
X72057427Y34977629D01*
X72064595Y34981004D01*
X72111826Y34985476D01*
X72118733Y34986129D01*
X72162094Y35002625D01*
X72162093Y35002625D01*
X72162097Y35002626D01*
X72197528Y35026655D01*
X72237808Y35054925D01*
X72239176Y35055749D01*
X72287088Y35080228D01*
X72296013Y35080939D01*
X72302829Y35075131D01*
G37*
%TD.AperFunction*%
%TD*%
%TA.AperFunction,Conductor*%
%TO.N,CC2*%
G36*
X83810563Y39723573D02*
G01*
X83813790Y39717456D01*
X83959408Y38940821D01*
X83957564Y38932058D01*
X83950064Y38927165D01*
X83947937Y38926965D01*
X83562029Y38926001D01*
X83561971Y38926001D01*
X83176062Y38926965D01*
X83167797Y38930413D01*
X83164391Y38938694D01*
X83164591Y38940821D01*
X83310210Y39717456D01*
X83315103Y39724956D01*
X83321710Y39727000D01*
X83802290Y39727000D01*
X83810563Y39723573D01*
G37*
%TD.AperFunction*%
%TD*%
%TA.AperFunction,Conductor*%
%TO.N,/ENABLE*%
G36*
X121407242Y24282747D02*
G01*
X121407759Y24282262D01*
X121997265Y23694140D01*
X122000702Y23685871D01*
X122000702Y23685847D01*
X122000009Y22851327D01*
X121996575Y22843057D01*
X121988679Y22839643D01*
X120753029Y22800576D01*
X120744651Y22803740D01*
X120744386Y22803997D01*
X120402191Y23146192D01*
X120398764Y23154465D01*
X120401695Y23162209D01*
X121390729Y24281726D01*
X121398773Y24285657D01*
X121407242Y24282747D01*
G37*
%TD.AperFunction*%
%TD*%
%TA.AperFunction,Conductor*%
%TO.N,GND*%
G36*
X73523845Y33480488D02*
G01*
X73528812Y33473037D01*
X73529035Y33470795D01*
X73530000Y33085000D01*
X73530000Y33084942D01*
X73529034Y32698930D01*
X73525586Y32690665D01*
X73517305Y32687259D01*
X73515285Y32687440D01*
X72740242Y32825284D01*
X72732697Y32830106D01*
X72730591Y32836803D01*
X72730591Y33317389D01*
X72734018Y33325662D01*
X72740020Y33328866D01*
X73515066Y33482243D01*
X73523845Y33480488D01*
G37*
%TD.AperFunction*%
%TD*%
%TA.AperFunction,Conductor*%
%TO.N,GND*%
G36*
X72210239Y37358917D02*
G01*
X72210751Y37358688D01*
X72271028Y37329951D01*
X72271822Y37329533D01*
X72321867Y37300578D01*
X72366153Y37277908D01*
X72419471Y37263223D01*
X72486087Y37258736D01*
X72494110Y37254760D01*
X72497000Y37247062D01*
X72497000Y37018939D01*
X72493573Y37010666D01*
X72486086Y37007265D01*
X72419468Y37002778D01*
X72419467Y37002778D01*
X72366154Y36988094D01*
X72321864Y36965422D01*
X72271837Y36936478D01*
X72271013Y36936044D01*
X72210757Y36907316D01*
X72201815Y36906849D01*
X72195161Y36912842D01*
X72194929Y36913360D01*
X72163649Y36988094D01*
X72104889Y37128485D01*
X72104857Y37137437D01*
X72194929Y37352642D01*
X72201285Y37358950D01*
X72210239Y37358917D01*
G37*
%TD.AperFunction*%
%TD*%
%TA.AperFunction,Conductor*%
%TO.N,Net-(U1-SS)*%
G36*
X68166148Y36782428D02*
G01*
X68375593Y36759157D01*
X68383436Y36754838D01*
X68386000Y36747529D01*
X68386000Y36518472D01*
X68382573Y36510199D01*
X68375592Y36506844D01*
X68166147Y36483572D01*
X68164855Y36483500D01*
X68160159Y36483500D01*
X68157532Y36483799D01*
X68007052Y36518472D01*
X67559479Y36621600D01*
X67552188Y36626796D01*
X67550706Y36635627D01*
X67555903Y36642919D01*
X67559480Y36644401D01*
X68157532Y36782201D01*
X68160159Y36782500D01*
X68164856Y36782500D01*
X68166148Y36782428D01*
G37*
%TD.AperFunction*%
%TD*%
%TA.AperFunction,Conductor*%
%TO.N,+5V*%
G36*
X88624661Y37872700D02*
G01*
X88626830Y37870269D01*
X89019655Y37282501D01*
X89021403Y37273719D01*
X89019655Y37269499D01*
X88626830Y36681732D01*
X88619384Y36676758D01*
X88616131Y36676573D01*
X87433728Y36775106D01*
X87425768Y36779208D01*
X87423000Y36786766D01*
X87423000Y37765234D01*
X87426427Y37773507D01*
X87433728Y37776894D01*
X88616132Y37875428D01*
X88624661Y37872700D01*
G37*
%TD.AperFunction*%
%TD*%
%TA.AperFunction,Conductor*%
%TO.N,PSU_EN*%
G36*
X82709870Y29933216D02*
G01*
X82922016Y29784494D01*
X82926823Y29776939D01*
X82927000Y29774914D01*
X82927000Y29537087D01*
X82923573Y29528814D01*
X82922016Y29527507D01*
X82709872Y29378786D01*
X82701131Y29376843D01*
X82694898Y29380078D01*
X82426316Y29647713D01*
X82422876Y29655979D01*
X82426288Y29664259D01*
X82426317Y29664288D01*
X82537334Y29774914D01*
X82694899Y29931925D01*
X82703177Y29935335D01*
X82709870Y29933216D01*
G37*
%TD.AperFunction*%
%TD*%
%TA.AperFunction,Conductor*%
%TO.N,FB*%
G36*
X15554927Y43421391D02*
G01*
X15829532Y43244424D01*
X16104138Y43067456D01*
X16109236Y43060094D01*
X16109500Y43057621D01*
X16109500Y42670380D01*
X16106073Y42662107D01*
X16104138Y42660545D01*
X15554927Y42306610D01*
X15546116Y42305009D01*
X15540323Y42308165D01*
X14991793Y42855722D01*
X14988360Y42863990D01*
X14991779Y42872265D01*
X15540324Y43419837D01*
X15548599Y43423256D01*
X15554927Y43421391D01*
G37*
%TD.AperFunction*%
%TD*%
%TA.AperFunction,Conductor*%
%TO.N,+5V*%
G36*
X90612272Y37776894D02*
G01*
X90620232Y37772792D01*
X90623000Y37765234D01*
X90623000Y36786766D01*
X90619573Y36778493D01*
X90612272Y36775106D01*
X89429868Y36676573D01*
X89421338Y36679301D01*
X89419169Y36681732D01*
X89356764Y36775106D01*
X89026343Y37269501D01*
X89024596Y37278281D01*
X89026342Y37282498D01*
X89419170Y37870270D01*
X89426615Y37875243D01*
X89429865Y37875428D01*
X90612272Y37776894D01*
G37*
%TD.AperFunction*%
%TD*%
%TA.AperFunction,Conductor*%
%TO.N,GND*%
G36*
X72485497Y40562442D02*
G01*
X72491142Y40556441D01*
X72640093Y40199176D01*
X72640994Y40194645D01*
X72640031Y39809522D01*
X72636583Y39801257D01*
X72628302Y39797851D01*
X72627509Y39797880D01*
X71869775Y39851235D01*
X71861763Y39855234D01*
X71858897Y39862906D01*
X71858897Y40343634D01*
X71862324Y40351907D01*
X71866811Y40354704D01*
X72476561Y40563011D01*
X72485497Y40562442D01*
G37*
%TD.AperFunction*%
%TD*%
%TA.AperFunction,Conductor*%
%TO.N,GND*%
G36*
X73374904Y37768725D02*
G01*
X73379875Y37763082D01*
X73527833Y37408201D01*
X73527854Y37399247D01*
X73527839Y37399211D01*
X73380209Y37043759D01*
X73373871Y37037433D01*
X73365427Y37037244D01*
X72919358Y37198468D01*
X72915062Y37201198D01*
X72577647Y37538613D01*
X72574220Y37546886D01*
X72577647Y37555159D01*
X72582865Y37558181D01*
X73366023Y37769875D01*
X73374904Y37768725D01*
G37*
%TD.AperFunction*%
%TD*%
%TA.AperFunction,Conductor*%
%TO.N,GND*%
G36*
X71483122Y40549146D02*
G01*
X72044132Y40354727D01*
X72050826Y40348781D01*
X72052000Y40343673D01*
X72052000Y39860328D01*
X72048573Y39852055D01*
X72044131Y39849273D01*
X71483122Y39654855D01*
X71474183Y39655384D01*
X71469795Y39659075D01*
X71155919Y40095165D01*
X71153867Y40103882D01*
X71155919Y40108835D01*
X71469795Y40544927D01*
X71477409Y40549639D01*
X71483122Y40549146D01*
G37*
%TD.AperFunction*%
%TD*%
%TA.AperFunction,Conductor*%
%TO.N,Net-(U1-RT)*%
G36*
X68230624Y36239228D02*
G01*
X68434546Y36175535D01*
X68441421Y36169797D01*
X68442226Y36160879D01*
X68439331Y36156094D01*
X68279245Y35996008D01*
X68271983Y35992625D01*
X68167273Y35983544D01*
X68166262Y35983500D01*
X68160177Y35983500D01*
X68157537Y35983802D01*
X67570427Y36119780D01*
X67563140Y36124985D01*
X67561669Y36133818D01*
X67566874Y36141105D01*
X67571350Y36142751D01*
X68225422Y36239634D01*
X68230624Y36239228D01*
G37*
%TD.AperFunction*%
%TD*%
%TA.AperFunction,Conductor*%
%TO.N,/SRCLK*%
G36*
X121673010Y27010955D02*
G01*
X121679108Y27004733D01*
X121999134Y26234489D01*
X121999143Y26225534D01*
X121999134Y26225511D01*
X121679108Y25455268D01*
X121672769Y25448943D01*
X121664058Y25448854D01*
X120307455Y25977098D01*
X120300989Y25983294D01*
X120300000Y25988001D01*
X120300000Y26472000D01*
X120303427Y26480273D01*
X120307455Y26482903D01*
X121664058Y27011147D01*
X121673010Y27010955D01*
G37*
%TD.AperFunction*%
%TD*%
%TA.AperFunction,Conductor*%
%TO.N,GND*%
G36*
X73374372Y34847347D02*
G01*
X73380209Y34841242D01*
X73527839Y34485790D01*
X73527848Y34476835D01*
X73527833Y34476800D01*
X73379875Y34121919D01*
X73373528Y34115601D01*
X73366023Y34115126D01*
X72582867Y34326820D01*
X72575775Y34332287D01*
X72574625Y34341168D01*
X72577645Y34346386D01*
X72915064Y34683805D01*
X72919355Y34686532D01*
X73365427Y34847757D01*
X73374372Y34847347D01*
G37*
%TD.AperFunction*%
%TD*%
%TA.AperFunction,Conductor*%
%TO.N,GND*%
G36*
X62058698Y32228685D02*
G01*
X62569533Y31973234D01*
X62575400Y31966468D01*
X62576000Y31962769D01*
X62576000Y31477232D01*
X62572573Y31468959D01*
X62569533Y31466767D01*
X62058700Y31211317D01*
X62049768Y31210682D01*
X62045101Y31213603D01*
X61794423Y31470000D01*
X61557995Y31711822D01*
X61554663Y31720132D01*
X61557995Y31728179D01*
X62045102Y32226399D01*
X62053335Y32229918D01*
X62058698Y32228685D01*
G37*
%TD.AperFunction*%
%TD*%
%TA.AperFunction,Conductor*%
%TO.N,+5V*%
G36*
X76198511Y24039329D02*
G01*
X77106615Y23664163D01*
X77112953Y23657836D01*
X77112962Y23657816D01*
X77488126Y22749718D01*
X77488117Y22740764D01*
X77481779Y22734437D01*
X77480635Y22734033D01*
X77066809Y22611441D01*
X77064602Y22611012D01*
X76730610Y22579017D01*
X76730442Y22579002D01*
X76670641Y22574143D01*
X76441322Y22555507D01*
X76441319Y22555507D01*
X76441318Y22555506D01*
X76441315Y22555506D01*
X76151993Y22454736D01*
X75824551Y22197232D01*
X75815930Y22194812D01*
X75809046Y22198156D01*
X75646955Y22360247D01*
X75643528Y22368520D01*
X75646029Y22375749D01*
X75903534Y22703195D01*
X76004305Y22992523D01*
X76027806Y23281719D01*
X76059810Y23615811D01*
X76060236Y23618004D01*
X76182832Y24031838D01*
X76188468Y24038795D01*
X76197373Y24039731D01*
X76198511Y24039329D01*
G37*
%TD.AperFunction*%
%TD*%
%TA.AperFunction,Conductor*%
%TO.N,Net-(D1-K)*%
G36*
X53719255Y27310244D02*
G01*
X54233284Y26796215D01*
X54235802Y26792465D01*
X54360408Y26495170D01*
X54360445Y26486215D01*
X54356795Y26481407D01*
X53937482Y26155678D01*
X53928846Y26153309D01*
X53923112Y26155690D01*
X53504109Y26482242D01*
X53499690Y26490030D01*
X53499941Y26494269D01*
X53699622Y27304770D01*
X53704928Y27311983D01*
X53713781Y27313331D01*
X53719255Y27310244D01*
G37*
%TD.AperFunction*%
%TD*%
%TA.AperFunction,Conductor*%
%TO.N,FB*%
G36*
X70107849Y37525935D02*
G01*
X70448155Y37140747D01*
X70451065Y37132278D01*
X70448155Y37125253D01*
X70107849Y36740066D01*
X70099803Y36736135D01*
X70093376Y36737598D01*
X69659995Y36979652D01*
X69654443Y36986678D01*
X69654000Y36989867D01*
X69654000Y37276134D01*
X69657427Y37284407D01*
X69659991Y37286347D01*
X70093376Y37528404D01*
X70102270Y37529445D01*
X70107849Y37525935D01*
G37*
%TD.AperFunction*%
%TD*%
%TA.AperFunction,Conductor*%
%TO.N,/SER_DATA*%
G36*
X121673010Y29550955D02*
G01*
X121679108Y29544733D01*
X121999134Y28774489D01*
X121999143Y28765534D01*
X121999134Y28765511D01*
X121679108Y27995268D01*
X121672769Y27988943D01*
X121664058Y27988854D01*
X120307455Y28517098D01*
X120300989Y28523294D01*
X120300000Y28528001D01*
X120300000Y29012000D01*
X120303427Y29020273D01*
X120307455Y29022903D01*
X121664058Y29551147D01*
X121673010Y29550955D01*
G37*
%TD.AperFunction*%
%TD*%
%TA.AperFunction,Conductor*%
%TO.N,PSU_EN*%
G36*
X71145267Y36208289D02*
G01*
X71152400Y36202877D01*
X71154000Y36196972D01*
X71154000Y35815029D01*
X71150573Y35806756D01*
X71145266Y35803711D01*
X70516920Y35639029D01*
X70508049Y35640247D01*
X70503155Y35645845D01*
X70354875Y36001501D01*
X70354855Y36010450D01*
X70503156Y36366158D01*
X70509502Y36372474D01*
X70516917Y36372972D01*
X71145267Y36208289D01*
G37*
%TD.AperFunction*%
%TD*%
%TA.AperFunction,Conductor*%
%TO.N,CC2*%
G36*
X88396027Y32747564D02*
G01*
X88398334Y32745982D01*
X89014002Y32204788D01*
X89017953Y32196752D01*
X89015065Y32188275D01*
X89014002Y32187212D01*
X88398334Y31646019D01*
X88389857Y31643131D01*
X88387108Y31643643D01*
X87431199Y31943429D01*
X87424330Y31949175D01*
X87423000Y31954593D01*
X87423000Y32437408D01*
X87426427Y32445681D01*
X87431196Y32448571D01*
X88387108Y32748358D01*
X88396027Y32747564D01*
G37*
%TD.AperFunction*%
%TD*%
%TA.AperFunction,Conductor*%
%TO.N,/SRCLK*%
G36*
X112518891Y22588358D02*
G01*
X112727948Y22522795D01*
X113474802Y22288571D01*
X113481670Y22282826D01*
X113483000Y22277408D01*
X113483000Y21794593D01*
X113479573Y21786320D01*
X113474801Y21783429D01*
X112518891Y21483643D01*
X112509972Y21484437D01*
X112507665Y21486019D01*
X111891997Y22027212D01*
X111888046Y22035248D01*
X111890934Y22043725D01*
X111891997Y22044788D01*
X112507666Y22585983D01*
X112516142Y22588870D01*
X112518891Y22588358D01*
G37*
%TD.AperFunction*%
%TD*%
%TA.AperFunction,Conductor*%
%TO.N,+5V*%
G36*
X51377632Y26594915D02*
G01*
X51423387Y26542111D01*
X51433951Y26477996D01*
X51431000Y26449120D01*
X51431000Y26400800D01*
X52507000Y26400800D01*
X52574039Y26381115D01*
X52619794Y26328311D01*
X52631000Y26276800D01*
X52631000Y25175801D01*
X52654308Y25175801D01*
X52657470Y25175962D01*
X52657551Y25174358D01*
X52720084Y25162737D01*
X52770971Y25114860D01*
X52788000Y25052145D01*
X52788000Y25043000D01*
X52768315Y24975961D01*
X52715511Y24930206D01*
X52664000Y24919000D01*
X52610000Y24919000D01*
X52610000Y22519001D01*
X52664000Y22519001D01*
X52731039Y22499316D01*
X52776794Y22446512D01*
X52788000Y22395001D01*
X52788000Y20417000D01*
X54442000Y20417000D01*
X54509039Y20397315D01*
X54554794Y20344511D01*
X54566000Y20293000D01*
X54566000Y6952000D01*
X54546315Y6884961D01*
X54493511Y6839206D01*
X54442000Y6828000D01*
X39323000Y6828000D01*
X39255961Y6847685D01*
X39210206Y6900489D01*
X39199000Y6952000D01*
X39199000Y8990000D01*
X39218685Y9057039D01*
X39271489Y9102794D01*
X39323000Y9114000D01*
X41358000Y9114000D01*
X41358000Y15975000D01*
X41377685Y16042039D01*
X41430489Y16087794D01*
X41482000Y16099000D01*
X48978000Y16099000D01*
X48978000Y23469000D01*
X51347501Y23469000D01*
X51347501Y23219014D01*
X51357994Y23116303D01*
X51413141Y22949881D01*
X51413143Y22949876D01*
X51505184Y22800655D01*
X51629154Y22676685D01*
X51778375Y22584644D01*
X51778380Y22584642D01*
X51944802Y22529495D01*
X51944809Y22529494D01*
X52047519Y22519001D01*
X52109999Y22519002D01*
X52110000Y22519002D01*
X52110000Y23469000D01*
X51347501Y23469000D01*
X48978000Y23469000D01*
X48978000Y23969000D01*
X51347500Y23969000D01*
X52110000Y23969000D01*
X52110000Y24919000D01*
X52109999Y24919001D01*
X52047528Y24919000D01*
X52047511Y24918999D01*
X51944802Y24908506D01*
X51778380Y24853359D01*
X51778375Y24853357D01*
X51629154Y24761316D01*
X51505184Y24637346D01*
X51413143Y24488125D01*
X51413141Y24488120D01*
X51357994Y24321698D01*
X51357993Y24321691D01*
X51347500Y24218987D01*
X51347500Y23969000D01*
X48978000Y23969000D01*
X48978000Y25900800D01*
X51431001Y25900800D01*
X51431001Y25852478D01*
X51441144Y25753193D01*
X51494452Y25592319D01*
X51494457Y25592308D01*
X51583424Y25448072D01*
X51583427Y25448068D01*
X51703267Y25328228D01*
X51703271Y25328225D01*
X51847507Y25239258D01*
X51847518Y25239253D01*
X52008393Y25185945D01*
X52107683Y25175801D01*
X52131000Y25175802D01*
X52131000Y25900800D01*
X51431001Y25900800D01*
X48978000Y25900800D01*
X48978000Y26490600D01*
X48997685Y26557639D01*
X49050489Y26603394D01*
X49102000Y26614600D01*
X51310593Y26614600D01*
X51377632Y26594915D01*
G37*
%TD.AperFunction*%
%TD*%
%TA.AperFunction,Conductor*%
%TO.N,PSU_EN*%
G36*
X77557526Y30358552D02*
G01*
X78046827Y30072470D01*
X78118284Y30030691D01*
X78123697Y30023557D01*
X78123199Y30016139D01*
X77976563Y29659805D01*
X77970245Y29653458D01*
X77970195Y29653437D01*
X77613861Y29506801D01*
X77604907Y29506822D01*
X77599309Y29511716D01*
X77512725Y29659805D01*
X77271448Y30072473D01*
X77270231Y30081341D01*
X77273274Y30086646D01*
X77543353Y30356725D01*
X77551625Y30360151D01*
X77557526Y30358552D01*
G37*
%TD.AperFunction*%
%TD*%
%TA.AperFunction,Conductor*%
%TO.N,GND*%
G36*
X72353204Y38004573D02*
G01*
X72356261Y37999217D01*
X72487025Y37491338D01*
X72485770Y37482472D01*
X72483599Y37479794D01*
X72111904Y37139242D01*
X72103489Y37136180D01*
X72096096Y37139242D01*
X71996660Y37230347D01*
X71724399Y37479796D01*
X71720615Y37487910D01*
X71720973Y37491332D01*
X71851739Y37999217D01*
X71857120Y38006375D01*
X71863069Y38008000D01*
X72344931Y38008000D01*
X72353204Y38004573D01*
G37*
%TD.AperFunction*%
%TD*%
%TA.AperFunction,Conductor*%
%TO.N,+5V*%
G36*
X122498752Y35546573D02*
G01*
X122501935Y35540677D01*
X122783332Y34184752D01*
X122781658Y34175956D01*
X122776365Y34171570D01*
X122004489Y33850866D01*
X121995534Y33850857D01*
X121995511Y33850866D01*
X121223634Y34171570D01*
X121217309Y34177909D01*
X121216667Y34184751D01*
X121498065Y35540678D01*
X121503102Y35548082D01*
X121509521Y35550000D01*
X122490479Y35550000D01*
X122498752Y35546573D01*
G37*
%TD.AperFunction*%
%TD*%
%TA.AperFunction,Conductor*%
%TO.N,GND*%
G36*
X79506178Y49056505D02*
G01*
X80004397Y48569399D01*
X80007917Y48561165D01*
X80006683Y48555800D01*
X79751234Y48044967D01*
X79744468Y48039100D01*
X79740769Y48038500D01*
X79255231Y48038500D01*
X79246958Y48041927D01*
X79244766Y48044967D01*
X78989316Y48555800D01*
X78988681Y48564732D01*
X78991600Y48569397D01*
X79489821Y49056505D01*
X79498132Y49059837D01*
X79506178Y49056505D01*
G37*
%TD.AperFunction*%
%TD*%
%TA.AperFunction,Conductor*%
%TO.N,+5V*%
G36*
X76198511Y24039329D02*
G01*
X77106615Y23664163D01*
X77112953Y23657836D01*
X77112962Y23657816D01*
X77488126Y22749718D01*
X77488117Y22740764D01*
X77481779Y22734437D01*
X77480635Y22734033D01*
X77066809Y22611441D01*
X77064602Y22611012D01*
X76730610Y22579017D01*
X76730442Y22579002D01*
X76670641Y22574143D01*
X76441322Y22555507D01*
X76441319Y22555507D01*
X76441318Y22555506D01*
X76441315Y22555506D01*
X76151993Y22454736D01*
X75824551Y22197232D01*
X75815930Y22194812D01*
X75809046Y22198156D01*
X75646955Y22360247D01*
X75643528Y22368520D01*
X75646029Y22375749D01*
X75903534Y22703195D01*
X76004305Y22992523D01*
X76027806Y23281719D01*
X76059810Y23615811D01*
X76060236Y23618004D01*
X76182832Y24031838D01*
X76188468Y24038795D01*
X76197373Y24039731D01*
X76198511Y24039329D01*
G37*
%TD.AperFunction*%
%TD*%
%TA.AperFunction,Conductor*%
%TO.N,CC1*%
G36*
X62125791Y49468173D02*
G01*
X62128139Y49464808D01*
X62333894Y49019596D01*
X62334254Y49010649D01*
X62332935Y49008089D01*
X62009662Y48534748D01*
X62002166Y48529849D01*
X61993401Y48531685D01*
X61990338Y48534748D01*
X61667064Y49008089D01*
X61665228Y49016854D01*
X61666102Y49019590D01*
X61871861Y49464809D01*
X61878443Y49470881D01*
X61882482Y49471600D01*
X62117518Y49471600D01*
X62125791Y49468173D01*
G37*
%TD.AperFunction*%
%TD*%
%TA.AperFunction,Conductor*%
%TO.N,GND*%
G36*
X65257341Y48513063D02*
G01*
X65259111Y48511293D01*
X65631092Y48049635D01*
X65633614Y48041043D01*
X65633311Y48039377D01*
X65502261Y47530383D01*
X65496880Y47523225D01*
X65490931Y47521600D01*
X65009069Y47521600D01*
X65000796Y47525027D01*
X64997739Y47530383D01*
X64866688Y48039377D01*
X64867943Y48048243D01*
X64868901Y48049628D01*
X65240889Y48511294D01*
X65248749Y48515585D01*
X65257341Y48513063D01*
G37*
%TD.AperFunction*%
%TD*%
%TA.AperFunction,Conductor*%
%TO.N,GND*%
G36*
X61558840Y31712224D02*
G01*
X61559685Y31711379D01*
X62039747Y31179561D01*
X62042747Y31171123D01*
X62042052Y31167708D01*
X61803807Y30515187D01*
X61797751Y30508591D01*
X61792817Y30507500D01*
X61309183Y30507500D01*
X61300910Y30510927D01*
X61298193Y30515187D01*
X61059947Y31167708D01*
X61060328Y31176655D01*
X61062249Y31179558D01*
X61542315Y31711380D01*
X61550402Y31715224D01*
X61558840Y31712224D01*
G37*
%TD.AperFunction*%
%TD*%
%TA.AperFunction,Conductor*%
%TO.N,GND*%
G36*
X12439763Y28984073D02*
G01*
X12441432Y28981967D01*
X12845605Y28330405D01*
X12847054Y28321569D01*
X12843927Y28315956D01*
X12196264Y27669746D01*
X12187987Y27666328D01*
X12179736Y27669746D01*
X11907824Y27941048D01*
X11532071Y28315958D01*
X11528636Y28324225D01*
X11530393Y28330403D01*
X11934568Y28981967D01*
X11941841Y28987191D01*
X11944510Y28987500D01*
X12431490Y28987500D01*
X12439763Y28984073D01*
G37*
%TD.AperFunction*%
%TD*%
%TA.AperFunction,Conductor*%
%TO.N,TX*%
G36*
X88399008Y17505390D02*
G01*
X89014002Y16964788D01*
X89017953Y16956752D01*
X89015065Y16948275D01*
X89014002Y16947212D01*
X88399008Y16406611D01*
X88390531Y16403723D01*
X88386549Y16404699D01*
X87429966Y16827919D01*
X87423787Y16834401D01*
X87423000Y16838619D01*
X87423000Y17073382D01*
X87426427Y17081655D01*
X87429966Y17084082D01*
X88386550Y17507303D01*
X88395501Y17507515D01*
X88399008Y17505390D01*
G37*
%TD.AperFunction*%
%TD*%
%TA.AperFunction,Conductor*%
%TO.N,GND*%
G36*
X63110299Y32083837D02*
G01*
X63114906Y32076158D01*
X63115033Y32074466D01*
X63115994Y31690356D01*
X63115093Y31685825D01*
X62965750Y31327620D01*
X62959403Y31321302D01*
X62952257Y31320736D01*
X62330371Y31467870D01*
X62323109Y31473110D01*
X62321365Y31479256D01*
X62321365Y31959911D01*
X62324792Y31968184D01*
X62331343Y31971484D01*
X63101613Y32086010D01*
X63110299Y32083837D01*
G37*
%TD.AperFunction*%
%TD*%
%TA.AperFunction,Conductor*%
%TO.N,Net-(Q1-G)*%
G36*
X58188366Y29584434D02*
G01*
X58191370Y29579276D01*
X58271483Y29289134D01*
X58361806Y28962017D01*
X58360705Y28953130D01*
X58355030Y28948104D01*
X57997175Y28798907D01*
X57992644Y28798006D01*
X57608144Y28798968D01*
X57599879Y28802416D01*
X57596473Y28810697D01*
X57596555Y28812052D01*
X57687771Y29577545D01*
X57692153Y29585355D01*
X57699389Y29587861D01*
X58180093Y29587861D01*
X58188366Y29584434D01*
G37*
%TD.AperFunction*%
%TD*%
%TA.AperFunction,Conductor*%
%TO.N,Net-(U1-SENSE)*%
G36*
X63425655Y34546573D02*
G01*
X63428556Y34541770D01*
X63606472Y33968833D01*
X63605652Y33959916D01*
X63602487Y33956132D01*
X63183189Y33629599D01*
X63174556Y33627219D01*
X63168811Y33629599D01*
X62749512Y33956132D01*
X62745090Y33963919D01*
X62745527Y33968833D01*
X62923444Y34541770D01*
X62929171Y34548654D01*
X62934618Y34550000D01*
X63417382Y34550000D01*
X63425655Y34546573D01*
G37*
%TD.AperFunction*%
%TD*%
%TA.AperFunction,Conductor*%
%TO.N,Net-(D1-K)*%
G36*
X54558494Y24928073D02*
G01*
X54561735Y24921876D01*
X54696328Y24175498D01*
X54694424Y24166748D01*
X54692543Y24164639D01*
X54192729Y23724802D01*
X54184255Y23721909D01*
X54177271Y23724802D01*
X53677456Y24164639D01*
X53673509Y24172677D01*
X53673670Y24175492D01*
X53808265Y24921876D01*
X53813105Y24929410D01*
X53819779Y24931500D01*
X54550221Y24931500D01*
X54558494Y24928073D01*
G37*
%TD.AperFunction*%
%TD*%
%TA.AperFunction,Conductor*%
%TO.N,GND*%
G36*
X42992039Y6014315D02*
G01*
X43037794Y5961511D01*
X43049000Y5910000D01*
X43049000Y4891000D01*
X50164000Y4891000D01*
X50231039Y4871315D01*
X50276794Y4818511D01*
X50288000Y4767000D01*
X50288000Y2221000D01*
X50268315Y2153961D01*
X50215511Y2108206D01*
X50164000Y2097000D01*
X38982000Y2097000D01*
X38914961Y2116685D01*
X38869206Y2169489D01*
X38858000Y2221000D01*
X38858000Y5910000D01*
X38877685Y5977039D01*
X38930489Y6022794D01*
X38982000Y6034000D01*
X42925000Y6034000D01*
X42992039Y6014315D01*
G37*
%TD.AperFunction*%
%TD*%
%TA.AperFunction,Conductor*%
%TO.N,GND*%
G36*
X79746563Y48486573D02*
G01*
X79749790Y48480456D01*
X79895408Y47703821D01*
X79893564Y47695058D01*
X79886064Y47690165D01*
X79883937Y47689965D01*
X79498029Y47689001D01*
X79497971Y47689001D01*
X79112062Y47689965D01*
X79103797Y47693413D01*
X79100391Y47701694D01*
X79100591Y47703821D01*
X79246210Y48480456D01*
X79251103Y48487956D01*
X79257710Y48490000D01*
X79738290Y48490000D01*
X79746563Y48486573D01*
G37*
%TD.AperFunction*%
%TD*%
%TA.AperFunction,Conductor*%
%TO.N,/RCLK*%
G36*
X113115243Y27806412D02*
G01*
X113115842Y27805853D01*
X113457145Y27464550D01*
X113460572Y27456277D01*
X113457145Y27448004D01*
X113456939Y27447803D01*
X112790170Y26813023D01*
X112781816Y26809801D01*
X112778334Y26810421D01*
X111888855Y27113061D01*
X111882127Y27118970D01*
X111881100Y27122120D01*
X111779564Y27703225D01*
X111781515Y27711963D01*
X111789075Y27716762D01*
X111790260Y27716907D01*
X113106750Y27809251D01*
X113115243Y27806412D01*
G37*
%TD.AperFunction*%
%TD*%
%TA.AperFunction,Conductor*%
%TO.N,CC1*%
G36*
X86137421Y35897883D02*
G01*
X86138783Y35896238D01*
X86584978Y35244105D01*
X86586822Y35235342D01*
X86583595Y35229225D01*
X86243775Y34889405D01*
X86235502Y34885978D01*
X86228895Y34888022D01*
X85576762Y35334217D01*
X85571869Y35341717D01*
X85573713Y35350480D01*
X85575075Y35352125D01*
X85847251Y35625665D01*
X85847293Y35625707D01*
X86120875Y35897925D01*
X86129156Y35901331D01*
X86137421Y35897883D01*
G37*
%TD.AperFunction*%
%TD*%
%TA.AperFunction,Conductor*%
%TO.N,GND*%
G36*
X58103995Y39443573D02*
G01*
X58106755Y39439194D01*
X58332743Y38798979D01*
X58332265Y38790037D01*
X58330663Y38787553D01*
X57862953Y38231642D01*
X57855004Y38227517D01*
X57846468Y38230221D01*
X57845047Y38231642D01*
X57377336Y38787553D01*
X57374632Y38796089D01*
X57375254Y38798975D01*
X57601245Y39439194D01*
X57607230Y39445855D01*
X57612278Y39447000D01*
X58095722Y39447000D01*
X58103995Y39443573D01*
G37*
%TD.AperFunction*%
%TD*%
%TA.AperFunction,Conductor*%
%TO.N,CC2*%
G36*
X80049485Y51380750D02*
G01*
X80701205Y51243951D01*
X80708596Y51238899D01*
X80710500Y51232502D01*
X80710500Y50749168D01*
X80707073Y50740895D01*
X80704114Y50738745D01*
X80094482Y50427927D01*
X80085555Y50427222D01*
X80081944Y50429147D01*
X79687699Y50738745D01*
X79507925Y50879921D01*
X79503535Y50887726D01*
X79505949Y50896349D01*
X79507311Y50897808D01*
X80039254Y51377984D01*
X80047691Y51380983D01*
X80049485Y51380750D01*
G37*
%TD.AperFunction*%
%TD*%
%TA.AperFunction,Conductor*%
%TO.N,CC2*%
G36*
X79510345Y51212177D02*
G01*
X79510406Y51212035D01*
X79600609Y50996517D01*
X79600642Y50987562D01*
X79600609Y50987483D01*
X79510406Y50771967D01*
X79504050Y50765658D01*
X79495096Y50765691D01*
X79494954Y50765752D01*
X79409698Y50802763D01*
X79340293Y50832879D01*
X79340276Y50832885D01*
X79278498Y50852734D01*
X79205275Y50863657D01*
X79205260Y50863659D01*
X79112823Y50866636D01*
X79104665Y50870328D01*
X79101500Y50878330D01*
X79101500Y51105671D01*
X79104927Y51113944D01*
X79112822Y51117365D01*
X79205267Y51120343D01*
X79278500Y51131268D01*
X79340282Y51151119D01*
X79364140Y51161472D01*
X79409698Y51181238D01*
X79436211Y51192749D01*
X79494956Y51218251D01*
X79503907Y51218401D01*
X79510345Y51212177D01*
G37*
%TD.AperFunction*%
%TD*%
%TA.AperFunction,Conductor*%
%TO.N,CC2*%
G36*
X78954521Y51379154D02*
G01*
X78957728Y51377096D01*
X79488092Y50898347D01*
X79491937Y50890260D01*
X79488937Y50881822D01*
X79486960Y50880076D01*
X78877995Y50453962D01*
X78869252Y50452026D01*
X78864493Y50454023D01*
X78290406Y50863501D01*
X78285660Y50871095D01*
X78285500Y50873026D01*
X78285500Y51109060D01*
X78288927Y51117333D01*
X78292878Y51119932D01*
X78945569Y51379284D01*
X78954521Y51379154D01*
G37*
%TD.AperFunction*%
%TD*%
%TA.AperFunction,Conductor*%
%TO.N,TX*%
G36*
X79485202Y15599987D02*
G01*
X79486083Y15599121D01*
X79842764Y15210149D01*
X79845830Y15201736D01*
X79845145Y15198266D01*
X79660611Y14687503D01*
X79657880Y14683206D01*
X79494090Y14519416D01*
X79485817Y14515989D01*
X79477544Y14519416D01*
X79475505Y14522161D01*
X79117684Y15189686D01*
X79116796Y15198597D01*
X79119221Y15202953D01*
X79468688Y15598957D01*
X79476731Y15602891D01*
X79485202Y15599987D01*
G37*
%TD.AperFunction*%
%TD*%
%TA.AperFunction,Conductor*%
%TO.N,CC1*%
G36*
X84730256Y49457798D02*
G01*
X85087573Y49218351D01*
X85359581Y49036071D01*
X85364546Y49028619D01*
X85362787Y49019839D01*
X85361341Y49018079D01*
X85020105Y48676843D01*
X85014776Y48673792D01*
X84621780Y48571619D01*
X84612911Y48572854D01*
X84610988Y48574266D01*
X84080933Y49053679D01*
X84077096Y49061770D01*
X84080104Y49070204D01*
X84082705Y49072355D01*
X84717670Y49458080D01*
X84726518Y49459445D01*
X84730256Y49457798D01*
G37*
%TD.AperFunction*%
%TD*%
%TA.AperFunction,Conductor*%
%TO.N,GND*%
G36*
X57288732Y38474499D02*
G01*
X57295675Y38468843D01*
X57297076Y38463291D01*
X57297076Y37982570D01*
X57293649Y37974297D01*
X57286561Y37970930D01*
X56523852Y37893309D01*
X56515274Y37895881D01*
X56511027Y37903764D01*
X56510967Y37904906D01*
X56510005Y38289650D01*
X56510904Y38294171D01*
X56660017Y38651825D01*
X56666363Y38658141D01*
X56674168Y38658529D01*
X57288732Y38474499D01*
G37*
%TD.AperFunction*%
%TD*%
%TA.AperFunction,Conductor*%
%TO.N,Net-(U1-SENSE)*%
G36*
X61884322Y34198868D02*
G01*
X62384049Y33902242D01*
X62389413Y33895073D01*
X62388137Y33886210D01*
X62386349Y33883909D01*
X62045015Y33542575D01*
X62041410Y33540119D01*
X61772939Y33423315D01*
X61763985Y33423157D01*
X61758248Y33428009D01*
X61491489Y33871077D01*
X61490157Y33879932D01*
X61494053Y33886127D01*
X61870893Y34197824D01*
X61879451Y34200455D01*
X61884322Y34198868D01*
G37*
%TD.AperFunction*%
%TD*%
%TA.AperFunction,Conductor*%
%TO.N,Net-(Q1-S)*%
G36*
X58573039Y35002315D02*
G01*
X58618794Y34949511D01*
X58630000Y34898000D01*
X58630000Y34387000D01*
X60030000Y34387000D01*
X60097039Y34367315D01*
X60142794Y34314511D01*
X60154000Y34263000D01*
X60154000Y31209000D01*
X60134315Y31141961D01*
X60081511Y31096206D01*
X60030000Y31085000D01*
X59262000Y31085000D01*
X59194961Y31104685D01*
X59149206Y31157489D01*
X59138000Y31209000D01*
X59138000Y31720000D01*
X57484000Y31720000D01*
X57416961Y31739685D01*
X57371206Y31792489D01*
X57360000Y31844000D01*
X57360000Y34898000D01*
X57379685Y34965039D01*
X57432489Y35010794D01*
X57484000Y35022000D01*
X58506000Y35022000D01*
X58573039Y35002315D01*
G37*
%TD.AperFunction*%
%TD*%
%TA.AperFunction,Conductor*%
%TO.N,Net-(U1-GATE)*%
G36*
X61565775Y36138596D02*
G01*
X61905595Y35798776D01*
X61909022Y35790503D01*
X61906978Y35783896D01*
X61460783Y35131763D01*
X61453283Y35126870D01*
X61444520Y35128714D01*
X61442875Y35130076D01*
X61169293Y35402293D01*
X61169251Y35402335D01*
X60897075Y35675876D01*
X60893669Y35684157D01*
X60897117Y35692422D01*
X60898756Y35693780D01*
X61550895Y36139980D01*
X61559658Y36141823D01*
X61565775Y36138596D01*
G37*
%TD.AperFunction*%
%TD*%
%TA.AperFunction,Conductor*%
%TO.N,GND*%
G36*
X65498900Y47973799D02*
G01*
X65502045Y47968079D01*
X65641411Y47344650D01*
X65639872Y47335828D01*
X65634495Y47331298D01*
X65276175Y47181907D01*
X65271644Y47181006D01*
X64887665Y47181966D01*
X64879400Y47185414D01*
X64875994Y47193695D01*
X64876137Y47195491D01*
X64998436Y47967358D01*
X65003115Y47974992D01*
X65009992Y47977226D01*
X65490627Y47977226D01*
X65498900Y47973799D01*
G37*
%TD.AperFunction*%
%TD*%
%TA.AperFunction,Conductor*%
%TO.N,OUT*%
G36*
X88399008Y20045390D02*
G01*
X89014002Y19504788D01*
X89017953Y19496752D01*
X89015065Y19488275D01*
X89014002Y19487212D01*
X88399008Y18946611D01*
X88390531Y18943723D01*
X88386549Y18944699D01*
X87429966Y19367919D01*
X87423787Y19374401D01*
X87423000Y19378619D01*
X87423000Y19613382D01*
X87426427Y19621655D01*
X87429966Y19624082D01*
X88386550Y20047303D01*
X88395501Y20047515D01*
X88399008Y20045390D01*
G37*
%TD.AperFunction*%
%TD*%
%TA.AperFunction,Conductor*%
%TO.N,PSU_EN*%
G36*
X61393901Y37745360D02*
G01*
X61394936Y37744170D01*
X61761206Y37261135D01*
X61763583Y37254066D01*
X61763583Y37020890D01*
X61760156Y37012617D01*
X61751883Y37009190D01*
X61750753Y37009245D01*
X61114543Y37070977D01*
X61106640Y37075187D01*
X61103973Y37082592D01*
X61103012Y37467126D01*
X61106418Y37475406D01*
X61377356Y37745391D01*
X61385634Y37748801D01*
X61393901Y37745360D01*
G37*
%TD.AperFunction*%
%TD*%
%TA.AperFunction,Conductor*%
%TO.N,GND*%
G36*
X61800136Y30825617D02*
G01*
X61803214Y30820178D01*
X61958114Y30199835D01*
X61956794Y30190979D01*
X61951265Y30186202D01*
X61593175Y30036907D01*
X61588644Y30036006D01*
X61204403Y30036967D01*
X61196138Y30040415D01*
X61192732Y30048696D01*
X61192842Y30050265D01*
X61299599Y30818953D01*
X61304132Y30826677D01*
X61311188Y30829044D01*
X61791863Y30829044D01*
X61800136Y30825617D01*
G37*
%TD.AperFunction*%
%TD*%
%TA.AperFunction,Conductor*%
%TO.N,GND*%
G36*
X84455939Y52312836D02*
G01*
X84464202Y52309388D01*
X84467608Y52301107D01*
X84467408Y52298980D01*
X84321790Y51522344D01*
X84316897Y51514844D01*
X84310290Y51512800D01*
X83829710Y51512800D01*
X83821437Y51516227D01*
X83818210Y51522344D01*
X83672591Y52298980D01*
X83674435Y52307743D01*
X83681935Y52312636D01*
X83684052Y52312836D01*
X84070000Y52313800D01*
X84455939Y52312836D01*
G37*
%TD.AperFunction*%
%TD*%
%TA.AperFunction,Conductor*%
%TO.N,GND*%
G36*
X72463741Y33474538D02*
G01*
X72896018Y33329675D01*
X72902773Y33323797D01*
X72904000Y33318581D01*
X72904000Y32835420D01*
X72900573Y32827147D01*
X72896018Y32824326D01*
X72463745Y32679464D01*
X72454811Y32680085D01*
X72451259Y32682811D01*
X72326233Y32824326D01*
X72109843Y33069254D01*
X72106934Y33077722D01*
X72109844Y33084747D01*
X72451260Y33471191D01*
X72459305Y33475121D01*
X72463741Y33474538D01*
G37*
%TD.AperFunction*%
%TD*%
%TA.AperFunction,Conductor*%
%TO.N,FB*%
G36*
X69972396Y38870892D02*
G01*
X69978387Y38865269D01*
X70272041Y38269901D01*
X70272627Y38260965D01*
X70269821Y38256452D01*
X70069548Y38056179D01*
X70061275Y38052752D01*
X70056099Y38053959D01*
X69460731Y38347613D01*
X69454828Y38354346D01*
X69455087Y38362558D01*
X69601437Y38718198D01*
X69607753Y38724543D01*
X69963442Y38870913D01*
X69972396Y38870892D01*
G37*
%TD.AperFunction*%
%TD*%
%TA.AperFunction,Conductor*%
%TO.N,+5V*%
G36*
X76177651Y22890208D02*
G01*
X76339007Y22728852D01*
X76342434Y22720579D01*
X76339569Y22712908D01*
X76242599Y22601225D01*
X76187847Y22502352D01*
X76187847Y22502351D01*
X76157914Y22404865D01*
X76128422Y22289695D01*
X76128129Y22288726D01*
X76078537Y22147335D01*
X76072565Y22140662D01*
X76063624Y22140166D01*
X76063055Y22140384D01*
X75731804Y22276638D01*
X75725458Y22282953D01*
X75589186Y22614249D01*
X75589208Y22623201D01*
X75595555Y22629517D01*
X75596116Y22629732D01*
X75737537Y22679337D01*
X75738488Y22679624D01*
X75853674Y22709119D01*
X75951146Y22739048D01*
X75984107Y22757301D01*
X76050023Y22793802D01*
X76050025Y22793804D01*
X76050029Y22793806D01*
X76161708Y22890771D01*
X76170201Y22893606D01*
X76177651Y22890208D01*
G37*
%TD.AperFunction*%
%TD*%
%TA.AperFunction,Conductor*%
%TO.N,Net-(U1-SS)*%
G36*
X70187228Y35296504D02*
G01*
X70500080Y34861835D01*
X70502132Y34853118D01*
X70500080Y34848165D01*
X70187228Y34413497D01*
X70179614Y34408784D01*
X70171991Y34410137D01*
X69609959Y34726645D01*
X69604432Y34733691D01*
X69604000Y34736840D01*
X69604000Y34973161D01*
X69607427Y34981434D01*
X69609959Y34983356D01*
X70171993Y35299865D01*
X70180881Y35300937D01*
X70187228Y35296504D01*
G37*
%TD.AperFunction*%
%TD*%
%TA.AperFunction,Conductor*%
%TO.N,+170V*%
G36*
X9083039Y36240315D02*
G01*
X9128794Y36187511D01*
X9140000Y36136000D01*
X9140000Y25087541D01*
X9140000Y24830000D01*
X7108000Y24830000D01*
X7108000Y29148000D01*
X2152000Y29148000D01*
X2084961Y29167685D01*
X2039206Y29220489D01*
X2028000Y29272000D01*
X2028000Y30802000D01*
X2047685Y30869039D01*
X2100489Y30914794D01*
X2152000Y30926000D01*
X7108000Y30926000D01*
X7108000Y36136000D01*
X7127685Y36203039D01*
X7180489Y36248794D01*
X7232000Y36260000D01*
X9016000Y36260000D01*
X9083039Y36240315D01*
G37*
%TD.AperFunction*%
%TD*%
%TA.AperFunction,Conductor*%
%TO.N,RX*%
G36*
X78235896Y15600298D02*
G01*
X78236628Y15599566D01*
X78592699Y15210233D01*
X78595753Y15201816D01*
X78595009Y15198201D01*
X78355859Y14565563D01*
X78349728Y14559036D01*
X78344915Y14558000D01*
X78111085Y14558000D01*
X78102812Y14561427D01*
X78100141Y14565563D01*
X77860990Y15198203D01*
X77861270Y15207151D01*
X77863295Y15210228D01*
X78219366Y15599561D01*
X78227478Y15603352D01*
X78235896Y15600298D01*
G37*
%TD.AperFunction*%
%TD*%
%TA.AperFunction,Conductor*%
%TO.N,CC1*%
G36*
X86096563Y39723573D02*
G01*
X86099790Y39717456D01*
X86245408Y38940821D01*
X86243564Y38932058D01*
X86236064Y38927165D01*
X86233937Y38926965D01*
X85848029Y38926001D01*
X85847971Y38926001D01*
X85462062Y38926965D01*
X85453797Y38930413D01*
X85450391Y38938694D01*
X85450591Y38940821D01*
X85596210Y39717456D01*
X85601103Y39724956D01*
X85607710Y39727000D01*
X86088290Y39727000D01*
X86096563Y39723573D01*
G37*
%TD.AperFunction*%
%TD*%
%TA.AperFunction,Conductor*%
%TO.N,GND*%
G36*
X66487039Y42463315D02*
G01*
X66532794Y42410511D01*
X66544000Y42359000D01*
X66544000Y38251309D01*
X66524315Y38184270D01*
X66495488Y38152935D01*
X66450549Y38118451D01*
X66371038Y38014830D01*
X66358300Y37998230D01*
X66300313Y37858237D01*
X66300313Y37858236D01*
X66285500Y37745728D01*
X66285500Y37520273D01*
X66301374Y37399708D01*
X66298399Y37399317D01*
X66298399Y37366684D01*
X66301374Y37366292D01*
X66285500Y37245728D01*
X66285500Y37020273D01*
X66301374Y36899708D01*
X66298399Y36899317D01*
X66298399Y36866684D01*
X66301374Y36866292D01*
X66285500Y36745728D01*
X66285500Y36520273D01*
X66301374Y36399708D01*
X66298399Y36399317D01*
X66298399Y36366684D01*
X66301374Y36366292D01*
X66285500Y36245728D01*
X66285500Y36020273D01*
X66300313Y35907765D01*
X66300313Y35907764D01*
X66358300Y35767770D01*
X66358302Y35767767D01*
X66450546Y35647552D01*
X66450547Y35647551D01*
X66450549Y35647549D01*
X66495487Y35613066D01*
X66536689Y35556643D01*
X66544000Y35514693D01*
X66544000Y32701000D01*
X66524315Y32633961D01*
X66471511Y32588206D01*
X66420000Y32577000D01*
X64382000Y32577000D01*
X64314961Y32596685D01*
X64269206Y32649489D01*
X64258000Y32701000D01*
X64258000Y35087927D01*
X64277685Y35154966D01*
X64283616Y35163404D01*
X64363698Y35267767D01*
X64421687Y35407764D01*
X64436500Y35520280D01*
X64436500Y35745720D01*
X64421687Y35858236D01*
X64421686Y35858237D01*
X64420626Y35866295D01*
X64423689Y35866699D01*
X64423689Y35899302D01*
X64420626Y35899705D01*
X64421687Y35907765D01*
X64436500Y36020280D01*
X64436500Y36245720D01*
X64421687Y36358236D01*
X64421686Y36358237D01*
X64420626Y36366295D01*
X64423689Y36366699D01*
X64423689Y36399302D01*
X64420626Y36399705D01*
X64421687Y36407764D01*
X64436500Y36520280D01*
X64436500Y36745720D01*
X64421687Y36858236D01*
X64421686Y36858237D01*
X64420626Y36866295D01*
X64423689Y36866699D01*
X64423689Y36899302D01*
X64420626Y36899705D01*
X64424665Y36930387D01*
X64436500Y37020280D01*
X64436500Y37245720D01*
X64421687Y37358236D01*
X64421686Y37358237D01*
X64420626Y37366295D01*
X64423689Y37366699D01*
X64423689Y37399302D01*
X64420626Y37399705D01*
X64422267Y37412171D01*
X64436500Y37520280D01*
X64436500Y37745720D01*
X64421687Y37858236D01*
X64363698Y37998233D01*
X64346133Y38021123D01*
X64283624Y38102588D01*
X64258430Y38167757D01*
X64258000Y38178074D01*
X64258000Y42359000D01*
X64277685Y42426039D01*
X64330489Y42471794D01*
X64382000Y42483000D01*
X66420000Y42483000D01*
X66487039Y42463315D01*
G37*
%TD.AperFunction*%
%TD*%
%TA.AperFunction,Conductor*%
%TO.N,GND*%
G36*
X31689039Y36748315D02*
G01*
X31734794Y36695511D01*
X31746000Y36644000D01*
X31746000Y30288000D01*
X31726315Y30220961D01*
X31673511Y30175206D01*
X31622000Y30164000D01*
X15233000Y30164000D01*
X15165961Y30183685D01*
X15120206Y30236489D01*
X15109000Y30288000D01*
X15109000Y36644000D01*
X15128685Y36711039D01*
X15181489Y36756794D01*
X15233000Y36768000D01*
X31622000Y36768000D01*
X31689039Y36748315D01*
G37*
%TD.AperFunction*%
%TD*%
%TA.AperFunction,Conductor*%
%TO.N,GND*%
G36*
X72405838Y37353159D02*
G01*
X72406070Y37352641D01*
X72496109Y37137517D01*
X72496142Y37128563D01*
X72496109Y37128483D01*
X72406070Y36913360D01*
X72399714Y36907051D01*
X72390760Y36907084D01*
X72390242Y36907316D01*
X72329985Y36936044D01*
X72329167Y36936475D01*
X72279132Y36965423D01*
X72234846Y36988093D01*
X72234845Y36988094D01*
X72234844Y36988094D01*
X72181530Y37002778D01*
X72114914Y37007265D01*
X72106890Y37011241D01*
X72104000Y37018939D01*
X72104000Y37247062D01*
X72107427Y37255335D01*
X72114912Y37258736D01*
X72181528Y37263223D01*
X72234846Y37277908D01*
X72279132Y37300578D01*
X72329186Y37329539D01*
X72329960Y37329946D01*
X72390243Y37358686D01*
X72399185Y37359152D01*
X72405838Y37353159D01*
G37*
%TD.AperFunction*%
%TD*%
%TA.AperFunction,Conductor*%
%TO.N,Net-(U1-VC)*%
G36*
X67879419Y40482865D02*
G01*
X68388502Y40230225D01*
X68394388Y40223479D01*
X68395000Y40219746D01*
X68395000Y39984255D01*
X68391573Y39975982D01*
X68388501Y39973775D01*
X67879420Y39721137D01*
X67870486Y39720529D01*
X67865592Y39723713D01*
X67634459Y39975982D01*
X67526240Y40094098D01*
X67523179Y40102511D01*
X67526240Y40109903D01*
X67865593Y40480289D01*
X67873708Y40484073D01*
X67879419Y40482865D01*
G37*
%TD.AperFunction*%
%TD*%
%TA.AperFunction,Conductor*%
%TO.N,OUT*%
G36*
X80854018Y16654573D02*
G01*
X80856225Y16651501D01*
X81109619Y16140898D01*
X81110227Y16131964D01*
X81108592Y16128802D01*
X80737453Y15619961D01*
X80729809Y15615297D01*
X80721105Y15617403D01*
X80718547Y15619961D01*
X80347407Y16128802D01*
X80345301Y16137506D01*
X80346378Y16140894D01*
X80599775Y16651501D01*
X80606522Y16657388D01*
X80610255Y16658000D01*
X80845745Y16658000D01*
X80854018Y16654573D01*
G37*
%TD.AperFunction*%
%TD*%
%TA.AperFunction,Conductor*%
%TO.N,+5V*%
G36*
X59760937Y38212575D02*
G01*
X59764006Y38209999D01*
X60230507Y37656623D01*
X60233220Y37648089D01*
X60232478Y37644871D01*
X60055411Y37185923D01*
X60052768Y37181861D01*
X59851436Y36980529D01*
X59843163Y36977102D01*
X59834890Y36980529D01*
X59834184Y36981301D01*
X59366399Y37541269D01*
X59363725Y37549815D01*
X59365259Y37554643D01*
X59744945Y38208335D01*
X59752062Y38213767D01*
X59760937Y38212575D01*
G37*
%TD.AperFunction*%
%TD*%
%TA.AperFunction,Conductor*%
%TO.N,/SER_DATA*%
G36*
X112518891Y25128358D02*
G01*
X112727948Y25062795D01*
X113474802Y24828571D01*
X113481670Y24822826D01*
X113483000Y24817408D01*
X113483000Y24334593D01*
X113479573Y24326320D01*
X113474801Y24323429D01*
X112518891Y24023643D01*
X112509972Y24024437D01*
X112507665Y24026019D01*
X111891997Y24567212D01*
X111888046Y24575248D01*
X111890934Y24583725D01*
X111891997Y24584788D01*
X112507666Y25125983D01*
X112516142Y25128870D01*
X112518891Y25128358D01*
G37*
%TD.AperFunction*%
%TD*%
%TA.AperFunction,Conductor*%
%TO.N,/RCLK*%
G36*
X121673010Y32090955D02*
G01*
X121679108Y32084733D01*
X121999134Y31314489D01*
X121999143Y31305534D01*
X121999134Y31305511D01*
X121679108Y30535268D01*
X121672769Y30528943D01*
X121664058Y30528854D01*
X120307455Y31057098D01*
X120300989Y31063294D01*
X120300000Y31068001D01*
X120300000Y31552000D01*
X120303427Y31560273D01*
X120307455Y31562903D01*
X121664058Y32091147D01*
X121673010Y32090955D01*
G37*
%TD.AperFunction*%
%TD*%
%TA.AperFunction,Conductor*%
%TO.N,Net-(U1-VC)*%
G36*
X67527686Y40096090D02*
G01*
X67908995Y39753271D01*
X67912857Y39745191D01*
X67911324Y39738752D01*
X67664371Y39307882D01*
X67657284Y39302408D01*
X67654220Y39302000D01*
X67367954Y39302000D01*
X67359681Y39305427D01*
X67357677Y39308108D01*
X67310199Y39395373D01*
X67120526Y39743998D01*
X67119583Y39752901D01*
X67123130Y39758420D01*
X67512194Y40096224D01*
X67520688Y40099059D01*
X67527686Y40096090D01*
G37*
%TD.AperFunction*%
%TD*%
%TA.AperFunction,Conductor*%
%TO.N,Net-(R12-Pad2)*%
G36*
X8326117Y40376573D02*
G01*
X8327487Y40374925D01*
X8768473Y39733072D01*
X8770334Y39724313D01*
X8767078Y39718149D01*
X8132248Y39087198D01*
X8123964Y39083796D01*
X8115752Y39087198D01*
X7480921Y39718149D01*
X7477469Y39726411D01*
X7479525Y39733071D01*
X7920513Y40374926D01*
X7928022Y40379804D01*
X7930156Y40380000D01*
X8317844Y40380000D01*
X8326117Y40376573D01*
G37*
%TD.AperFunction*%
%TD*%
%TA.AperFunction,Conductor*%
%TO.N,PSU_EN*%
G36*
X83210267Y29858289D02*
G01*
X83217400Y29852877D01*
X83219000Y29846972D01*
X83219000Y29465029D01*
X83215573Y29456756D01*
X83210266Y29453711D01*
X82581920Y29289029D01*
X82573049Y29290247D01*
X82568155Y29295845D01*
X82419875Y29651501D01*
X82419855Y29660450D01*
X82568156Y30016158D01*
X82574502Y30022474D01*
X82581917Y30022972D01*
X83210267Y29858289D01*
G37*
%TD.AperFunction*%
%TD*%
%TA.AperFunction,Conductor*%
%TO.N,GND*%
G36*
X57364910Y38716015D02*
G01*
X57614191Y38464738D01*
X57846825Y38230240D01*
X57850219Y38221953D01*
X57846825Y38213760D01*
X57364912Y37727987D01*
X57356653Y37724527D01*
X57351415Y37725742D01*
X56860509Y37968778D01*
X56854615Y37975519D01*
X56854000Y37979263D01*
X56854000Y38464738D01*
X56857427Y38473011D01*
X56860506Y38475222D01*
X57351416Y38718260D01*
X57360350Y38718859D01*
X57364910Y38716015D01*
G37*
%TD.AperFunction*%
%TD*%
%TA.AperFunction,Conductor*%
%TO.N,PSU_EN*%
G36*
X88395813Y30207566D02*
G01*
X88398604Y30205745D01*
X89014002Y29664788D01*
X89017953Y29656752D01*
X89015065Y29648275D01*
X89014002Y29647212D01*
X88398604Y29106256D01*
X88390127Y29103368D01*
X88386866Y29104054D01*
X88380835Y29106256D01*
X88222671Y29164009D01*
X87430687Y29453194D01*
X87424091Y29459250D01*
X87423000Y29464184D01*
X87423000Y29847817D01*
X87426427Y29856090D01*
X87430687Y29858807D01*
X88386868Y30207947D01*
X88395813Y30207566D01*
G37*
%TD.AperFunction*%
%TD*%
%TA.AperFunction,Conductor*%
%TO.N,GND*%
G36*
X84321042Y51910073D02*
G01*
X84323234Y51907033D01*
X84578683Y51396202D01*
X84579318Y51387270D01*
X84576397Y51382603D01*
X84078179Y50895497D01*
X84069868Y50892164D01*
X84061821Y50895497D01*
X83563602Y51382603D01*
X83560082Y51390837D01*
X83561315Y51396199D01*
X83816766Y51907034D01*
X83823532Y51912900D01*
X83827231Y51913500D01*
X84312769Y51913500D01*
X84321042Y51910073D01*
G37*
%TD.AperFunction*%
%TD*%
%TA.AperFunction,Conductor*%
%TO.N,+5V*%
G36*
X60257089Y38716412D02*
G01*
X60748965Y38375490D01*
X60753812Y38367961D01*
X60754000Y38365874D01*
X60754000Y38078127D01*
X60750573Y38069854D01*
X60748965Y38068511D01*
X60257089Y37727589D01*
X60248337Y37725693D01*
X60242118Y37728965D01*
X59895730Y38078127D01*
X59761173Y38213761D01*
X59757780Y38222047D01*
X59761173Y38230240D01*
X60242118Y38715037D01*
X60250377Y38718496D01*
X60257089Y38716412D01*
G37*
%TD.AperFunction*%
%TD*%
%TA.AperFunction,Conductor*%
%TO.N,Net-(U1-RT)*%
G36*
X70108119Y33469629D02*
G01*
X70448155Y33084747D01*
X70451065Y33076278D01*
X70448155Y33069253D01*
X70108119Y32684372D01*
X70100073Y32680441D01*
X70093226Y32682150D01*
X69659575Y32948575D01*
X69654320Y32955826D01*
X69654000Y32958544D01*
X69654000Y33195457D01*
X69657427Y33203730D01*
X69659570Y33205423D01*
X70093226Y33471852D01*
X70102069Y33473262D01*
X70108119Y33469629D01*
G37*
%TD.AperFunction*%
%TD*%
%TA.AperFunction,Conductor*%
%TO.N,GND*%
G36*
X72790965Y37649243D02*
G01*
X72795026Y37641263D01*
X72795062Y37640350D01*
X72795062Y37157825D01*
X72791661Y37149578D01*
X72510848Y36866975D01*
X72502586Y36863522D01*
X72495966Y36865550D01*
X72109722Y37128425D01*
X72104811Y37135912D01*
X72104944Y37140895D01*
X72107083Y37149578D01*
X72217953Y37599795D01*
X72223259Y37607007D01*
X72228398Y37608660D01*
X72782451Y37652014D01*
X72790965Y37649243D01*
G37*
%TD.AperFunction*%
%TD*%
%TA.AperFunction,Conductor*%
%TO.N,GND*%
G36*
X59997781Y47965843D02*
G01*
X60001139Y47958841D01*
X60084586Y47194939D01*
X60082078Y47186342D01*
X60074226Y47182037D01*
X60072984Y47181968D01*
X59688355Y47181006D01*
X59683824Y47181907D01*
X59326088Y47331054D01*
X59319770Y47337401D01*
X59319351Y47345104D01*
X59497555Y47960824D01*
X59503147Y47967817D01*
X59508794Y47969270D01*
X59989508Y47969270D01*
X59997781Y47965843D01*
G37*
%TD.AperFunction*%
%TD*%
%TA.AperFunction,Conductor*%
%TO.N,GND*%
G36*
X72502981Y35135767D02*
G01*
X72842289Y34735273D01*
X72845062Y34727711D01*
X72845062Y34245943D01*
X72841635Y34237670D01*
X72833362Y34234243D01*
X72831331Y34234421D01*
X72016124Y34378116D01*
X72008571Y34382927D01*
X72006513Y34390802D01*
X72052441Y34849422D01*
X72056675Y34857311D01*
X72057692Y34858055D01*
X72487673Y35138009D01*
X72496474Y35139650D01*
X72502981Y35135767D01*
G37*
%TD.AperFunction*%
%TD*%
%TA.AperFunction,Conductor*%
%TO.N,Net-(U1-SENSE)*%
G36*
X62871272Y34073495D02*
G01*
X63171953Y33631285D01*
X63173771Y33622516D01*
X63171562Y33617586D01*
X62844613Y33191302D01*
X62836859Y33186822D01*
X62831004Y33187551D01*
X62126580Y33467815D01*
X62120160Y33474057D01*
X62120034Y33483011D01*
X62122630Y33486957D01*
X62462704Y33827031D01*
X62464693Y33828626D01*
X62855324Y34076793D01*
X62864144Y34078335D01*
X62871272Y34073495D01*
G37*
%TD.AperFunction*%
%TD*%
%TA.AperFunction,Conductor*%
%TO.N,FB*%
G36*
X70470109Y38063897D02*
G01*
X70471717Y38061888D01*
X70807125Y37532299D01*
X70808657Y37523476D01*
X70805894Y37518164D01*
X70462597Y37140964D01*
X70454494Y37137152D01*
X70446069Y37140186D01*
X70446052Y37140202D01*
X70075659Y37478657D01*
X70071863Y37486767D01*
X70073017Y37492383D01*
X70250908Y37860325D01*
X70253163Y37863497D01*
X70453564Y38063898D01*
X70461836Y38067324D01*
X70470109Y38063897D01*
G37*
%TD.AperFunction*%
%TD*%
%TA.AperFunction,Conductor*%
%TO.N,CC1*%
G36*
X83530589Y49551308D02*
G01*
X84059813Y49072646D01*
X84063650Y49064555D01*
X84060642Y49056121D01*
X84058668Y49054379D01*
X83450008Y48628966D01*
X83441263Y48627035D01*
X83436493Y48629043D01*
X82822445Y49068762D01*
X82817714Y49076365D01*
X82819744Y49085087D01*
X82820978Y49086542D01*
X82986885Y49252449D01*
X82989388Y49254352D01*
X83516983Y49552815D01*
X83525868Y49553905D01*
X83530589Y49551308D01*
G37*
%TD.AperFunction*%
%TD*%
%TA.AperFunction,Conductor*%
%TO.N,GND*%
G36*
X72134171Y38419095D02*
G01*
X72492438Y38269727D01*
X72498756Y38263380D01*
X72499338Y38256305D01*
X72356088Y37633647D01*
X72350894Y37626353D01*
X72344686Y37624570D01*
X71864040Y37624570D01*
X71855767Y37627997D01*
X71852476Y37634494D01*
X71734064Y38405558D01*
X71736195Y38414256D01*
X71743852Y38418898D01*
X71745598Y38419034D01*
X72129648Y38419995D01*
X72134171Y38419095D01*
G37*
%TD.AperFunction*%
%TD*%
%TA.AperFunction,Conductor*%
%TO.N,CC1*%
G36*
X88396027Y35287564D02*
G01*
X88398334Y35285982D01*
X89014002Y34744788D01*
X89017953Y34736752D01*
X89015065Y34728275D01*
X89014002Y34727212D01*
X88398334Y34186019D01*
X88389857Y34183131D01*
X88387108Y34183643D01*
X87431199Y34483429D01*
X87424330Y34489175D01*
X87423000Y34494593D01*
X87423000Y34977408D01*
X87426427Y34985681D01*
X87431196Y34988571D01*
X88387108Y35288358D01*
X88396027Y35287564D01*
G37*
%TD.AperFunction*%
%TD*%
%TA.AperFunction,Conductor*%
%TO.N,RX*%
G36*
X88399008Y14965390D02*
G01*
X89014002Y14424788D01*
X89017953Y14416752D01*
X89015065Y14408275D01*
X89014002Y14407212D01*
X88399008Y13866611D01*
X88390531Y13863723D01*
X88386549Y13864699D01*
X87429966Y14287919D01*
X87423787Y14294401D01*
X87423000Y14298619D01*
X87423000Y14533382D01*
X87426427Y14541655D01*
X87429966Y14544082D01*
X88386550Y14967303D01*
X88395501Y14967515D01*
X88399008Y14965390D01*
G37*
%TD.AperFunction*%
%TD*%
%TA.AperFunction,Conductor*%
%TO.N,Net-(R12-Pad2)*%
G36*
X11503676Y43419836D02*
G01*
X12052205Y42872280D01*
X12055639Y42864010D01*
X12052219Y42855734D01*
X12052205Y42855720D01*
X11503676Y42308165D01*
X11495400Y42304745D01*
X11489072Y42306610D01*
X10939862Y42660545D01*
X10934764Y42667907D01*
X10934500Y42670380D01*
X10934500Y43057621D01*
X10937927Y43065894D01*
X10939858Y43067454D01*
X11489072Y43421392D01*
X11497883Y43422992D01*
X11503676Y43419836D01*
G37*
%TD.AperFunction*%
%TD*%
%TA.AperFunction,Conductor*%
%TO.N,GND*%
G36*
X71483122Y42327146D02*
G01*
X72044132Y42132727D01*
X72050826Y42126781D01*
X72052000Y42121673D01*
X72052000Y41638328D01*
X72048573Y41630055D01*
X72044131Y41627273D01*
X71483122Y41432855D01*
X71474183Y41433384D01*
X71469795Y41437075D01*
X71155919Y41873165D01*
X71153867Y41881882D01*
X71155919Y41886835D01*
X71469795Y42322927D01*
X71477409Y42327639D01*
X71483122Y42327146D01*
G37*
%TD.AperFunction*%
%TD*%
%TA.AperFunction,Conductor*%
%TO.N,Net-(D1-A)*%
G36*
X54890039Y38304315D02*
G01*
X54935794Y38251511D01*
X54947000Y38200000D01*
X54947000Y30447000D01*
X54927315Y30379961D01*
X54874511Y30334206D01*
X54823000Y30323000D01*
X52407000Y30323000D01*
X52407000Y29133217D01*
X52387315Y29066178D01*
X52334511Y29020423D01*
X52265353Y29010479D01*
X52248405Y29014141D01*
X52192000Y29030528D01*
X52192000Y28165000D01*
X52172315Y28097961D01*
X52119511Y28052206D01*
X52068000Y28041000D01*
X51202475Y28041000D01*
X51194347Y28030176D01*
X51194258Y27998726D01*
X51156316Y27940056D01*
X51092678Y27911212D01*
X51075381Y27910000D01*
X49102000Y27910000D01*
X49034961Y27929685D01*
X48989206Y27982489D01*
X48978000Y28034000D01*
X48978000Y28541000D01*
X51202474Y28541000D01*
X51692000Y28541000D01*
X51692000Y29030528D01*
X51566812Y28994157D01*
X51566811Y28994156D01*
X51430891Y28913774D01*
X51430883Y28913768D01*
X51319232Y28802117D01*
X51319226Y28802109D01*
X51238845Y28666192D01*
X51238843Y28666186D01*
X51202474Y28541001D01*
X51202474Y28541000D01*
X48978000Y28541000D01*
X48978000Y31720000D01*
X41482000Y31720000D01*
X41414961Y31739685D01*
X41369206Y31792489D01*
X41358000Y31844000D01*
X41358000Y38200000D01*
X41377685Y38267039D01*
X41430489Y38312794D01*
X41482000Y38324000D01*
X54823000Y38324000D01*
X54890039Y38304315D01*
G37*
%TD.AperFunction*%
%TD*%
%TA.AperFunction,Conductor*%
%TO.N,+5V*%
G36*
X63663629Y38678715D02*
G01*
X63709384Y38625911D01*
X63718400Y38597602D01*
X63750310Y38430073D01*
X63752500Y38406871D01*
X63752500Y38178069D01*
X63752937Y38157042D01*
X63753368Y38146705D01*
X63754683Y38125700D01*
X63754684Y38125693D01*
X63786937Y37985478D01*
X63812130Y37920313D01*
X63812131Y37920311D01*
X63841320Y37868335D01*
X63855606Y37842897D01*
X63869298Y37805383D01*
X63874361Y37778803D01*
X63867568Y37709264D01*
X63824258Y37654437D01*
X63758182Y37631728D01*
X63752551Y37631600D01*
X62647963Y37631600D01*
X62580924Y37651285D01*
X62544789Y37686817D01*
X62297626Y38057561D01*
X62276818Y38124260D01*
X62276800Y38126344D01*
X62276800Y38574400D01*
X62296485Y38641439D01*
X62349289Y38687194D01*
X62400800Y38698400D01*
X63596590Y38698400D01*
X63663629Y38678715D01*
G37*
%TD.AperFunction*%
%TD*%
%TA.AperFunction,Conductor*%
%TO.N,Net-(C11-Pad1)*%
G36*
X67879419Y42132865D02*
G01*
X68388502Y41880225D01*
X68394388Y41873479D01*
X68395000Y41869746D01*
X68395000Y41634255D01*
X68391573Y41625982D01*
X68388501Y41623775D01*
X67879420Y41371137D01*
X67870486Y41370529D01*
X67865592Y41373713D01*
X67634459Y41625982D01*
X67526240Y41744098D01*
X67523179Y41752511D01*
X67526240Y41759903D01*
X67865593Y42130289D01*
X67873708Y42134073D01*
X67879419Y42132865D01*
G37*
%TD.AperFunction*%
%TD*%
%TA.AperFunction,Conductor*%
%TO.N,+5V*%
G36*
X80526415Y38195220D02*
G01*
X80526522Y38195175D01*
X80747587Y38099206D01*
X80900206Y38032951D01*
X81177856Y37912478D01*
X81177868Y37912473D01*
X81424997Y37833072D01*
X81425000Y37833072D01*
X81425002Y37833071D01*
X81506662Y37820890D01*
X81717930Y37789373D01*
X82121677Y37776365D01*
X82129835Y37772673D01*
X82133000Y37764671D01*
X82133000Y36787330D01*
X82129573Y36779057D01*
X82121677Y36775636D01*
X81717936Y36762630D01*
X81717921Y36762628D01*
X81424999Y36718930D01*
X81424997Y36718930D01*
X81177873Y36639530D01*
X81177856Y36639524D01*
X80900206Y36519050D01*
X80526587Y36356854D01*
X80517634Y36356703D01*
X80511196Y36362927D01*
X80511123Y36363099D01*
X80446357Y36519050D01*
X80133862Y37271515D01*
X80133854Y37280465D01*
X80511124Y38188904D01*
X80517461Y38195229D01*
X80526415Y38195220D01*
G37*
%TD.AperFunction*%
%TD*%
%TA.AperFunction,Conductor*%
%TO.N,CC2*%
G36*
X63069003Y49505873D02*
G01*
X63070153Y49504864D01*
X63235436Y49339581D01*
X63238350Y49334733D01*
X63335029Y49018958D01*
X63334175Y49010044D01*
X63333495Y49008922D01*
X63011050Y48538063D01*
X63003549Y48533174D01*
X62994786Y48535021D01*
X62990733Y48539862D01*
X62779064Y49008922D01*
X62742620Y49089681D01*
X62742341Y49098629D01*
X62743999Y49101608D01*
X63052598Y49503715D01*
X63060354Y49508191D01*
X63069003Y49505873D01*
G37*
%TD.AperFunction*%
%TD*%
%TA.AperFunction,Conductor*%
%TO.N,Net-(D1-K)*%
G36*
X53937480Y26145924D02*
G01*
X53937497Y26145911D01*
X54356367Y25820527D01*
X54360798Y25812745D01*
X54359703Y25806155D01*
X54209185Y25497761D01*
X54206944Y25494620D01*
X53693247Y24980923D01*
X53684974Y24977496D01*
X53676701Y24980923D01*
X53673528Y24986771D01*
X53499643Y25807540D01*
X53501281Y25816344D01*
X53503897Y25819193D01*
X53505609Y25820527D01*
X53923113Y26145912D01*
X53931744Y26148294D01*
X53937480Y26145924D01*
G37*
%TD.AperFunction*%
%TD*%
%TA.AperFunction,Conductor*%
%TO.N,+5V*%
G36*
X80526415Y38195220D02*
G01*
X80526522Y38195175D01*
X80747587Y38099206D01*
X80900206Y38032951D01*
X81177856Y37912478D01*
X81177868Y37912473D01*
X81424997Y37833072D01*
X81425000Y37833072D01*
X81425002Y37833071D01*
X81506662Y37820890D01*
X81717930Y37789373D01*
X82121677Y37776365D01*
X82129835Y37772673D01*
X82133000Y37764671D01*
X82133000Y36787330D01*
X82129573Y36779057D01*
X82121677Y36775636D01*
X81717936Y36762630D01*
X81717921Y36762628D01*
X81424999Y36718930D01*
X81424997Y36718930D01*
X81177873Y36639530D01*
X81177856Y36639524D01*
X80900206Y36519050D01*
X80526587Y36356854D01*
X80517634Y36356703D01*
X80511196Y36362927D01*
X80511123Y36363099D01*
X80446357Y36519050D01*
X80133862Y37271515D01*
X80133854Y37280465D01*
X80511124Y38188904D01*
X80517461Y38195229D01*
X80526415Y38195220D01*
G37*
%TD.AperFunction*%
%TD*%
%TA.AperFunction,Conductor*%
%TO.N,CC2*%
G36*
X83947939Y35625036D02*
G01*
X83956202Y35621588D01*
X83959608Y35613307D01*
X83959408Y35611180D01*
X83813790Y34834544D01*
X83808897Y34827044D01*
X83802290Y34825000D01*
X83321710Y34825000D01*
X83313437Y34828427D01*
X83310210Y34834544D01*
X83164591Y35611180D01*
X83166435Y35619943D01*
X83173935Y35624836D01*
X83176052Y35625036D01*
X83562000Y35626000D01*
X83947939Y35625036D01*
G37*
%TD.AperFunction*%
%TD*%
%TA.AperFunction,Conductor*%
%TO.N,+170V*%
G36*
X25425858Y25096216D02*
G01*
X25471704Y25043492D01*
X25483000Y24991784D01*
X25483000Y17747000D01*
X25463315Y17679961D01*
X25410511Y17634206D01*
X25359000Y17623000D01*
X22562000Y17623000D01*
X22435000Y17623000D01*
X7232000Y17623000D01*
X7164961Y17642685D01*
X7119206Y17695489D01*
X7108000Y17747000D01*
X7108000Y24287500D01*
X10788001Y24287500D01*
X10788001Y24075014D01*
X10798494Y23972303D01*
X10853641Y23805881D01*
X10853643Y23805876D01*
X10945684Y23656655D01*
X11069654Y23532685D01*
X11218875Y23440644D01*
X11218880Y23440642D01*
X11385302Y23385495D01*
X11385309Y23385494D01*
X11488019Y23375001D01*
X11937999Y23375001D01*
X11938000Y23375002D01*
X11938000Y24287500D01*
X12438000Y24287500D01*
X12438000Y23375001D01*
X12887972Y23375001D01*
X12887986Y23375002D01*
X12990697Y23385495D01*
X13157119Y23440642D01*
X13157124Y23440644D01*
X13306345Y23532685D01*
X13430315Y23656655D01*
X13522356Y23805876D01*
X13522358Y23805881D01*
X13577505Y23972303D01*
X13577506Y23972310D01*
X13587999Y24075014D01*
X13588000Y24075027D01*
X13588000Y24287500D01*
X12438000Y24287500D01*
X11938000Y24287500D01*
X10788001Y24287500D01*
X7108000Y24287500D01*
X7108000Y24830000D01*
X9140000Y24830000D01*
X9140000Y25087540D01*
X10663789Y25090193D01*
X10730858Y25070626D01*
X10776704Y25017902D01*
X10788000Y24966194D01*
X10788000Y24787500D01*
X13587999Y24787500D01*
X13587999Y24971502D01*
X13607684Y25038541D01*
X13660488Y25084296D01*
X13711775Y25095501D01*
X25358785Y25115784D01*
X25425858Y25096216D01*
G37*
%TD.AperFunction*%
%TD*%
%TA.AperFunction,Conductor*%
%TO.N,GND*%
G36*
X12573939Y29656036D02*
G01*
X12582202Y29652588D01*
X12585608Y29644307D01*
X12585408Y29642180D01*
X12439790Y28865544D01*
X12434897Y28858044D01*
X12428290Y28856000D01*
X11947710Y28856000D01*
X11939437Y28859427D01*
X11936210Y28865544D01*
X11790591Y29642180D01*
X11792435Y29650943D01*
X11799935Y29655836D01*
X11802052Y29656036D01*
X12188000Y29657000D01*
X12573939Y29656036D01*
G37*
%TD.AperFunction*%
%TD*%
M02*
