%TF.GenerationSoftware,KiCad,Pcbnew,7.0.10*%
%TF.CreationDate,2024-03-19T17:42:07+02:00*%
%TF.ProjectId,Sulari,53756c61-7269-42e6-9b69-6361645f7063,rev?*%
%TF.SameCoordinates,PX5a995c0PY6dac2c0*%
%TF.FileFunction,Copper,L1,Top*%
%TF.FilePolarity,Positive*%
%FSLAX46Y46*%
G04 Gerber Fmt 4.6, Leading zero omitted, Abs format (unit mm)*
G04 Created by KiCad (PCBNEW 7.0.10) date 2024-03-19 17:42:07*
%MOMM*%
%LPD*%
G01*
G04 APERTURE LIST*
G04 Aperture macros list*
%AMRoundRect*
0 Rectangle with rounded corners*
0 $1 Rounding radius*
0 $2 $3 $4 $5 $6 $7 $8 $9 X,Y pos of 4 corners*
0 Add a 4 corners polygon primitive as box body*
4,1,4,$2,$3,$4,$5,$6,$7,$8,$9,$2,$3,0*
0 Add four circle primitives for the rounded corners*
1,1,$1+$1,$2,$3*
1,1,$1+$1,$4,$5*
1,1,$1+$1,$6,$7*
1,1,$1+$1,$8,$9*
0 Add four rect primitives between the rounded corners*
20,1,$1+$1,$2,$3,$4,$5,0*
20,1,$1+$1,$4,$5,$6,$7,0*
20,1,$1+$1,$6,$7,$8,$9,0*
20,1,$1+$1,$8,$9,$2,$3,0*%
G04 Aperture macros list end*
%TA.AperFunction,ComponentPad*%
%ADD10C,0.800000*%
%TD*%
%TA.AperFunction,ComponentPad*%
%ADD11C,6.400000*%
%TD*%
%TA.AperFunction,ComponentPad*%
%ADD12R,1.700000X1.700000*%
%TD*%
%TA.AperFunction,ComponentPad*%
%ADD13O,1.700000X1.700000*%
%TD*%
%TA.AperFunction,SMDPad,CuDef*%
%ADD14RoundRect,0.250000X0.350000X0.450000X-0.350000X0.450000X-0.350000X-0.450000X0.350000X-0.450000X0*%
%TD*%
%TA.AperFunction,ComponentPad*%
%ADD15R,2.000000X1.200000*%
%TD*%
%TA.AperFunction,ComponentPad*%
%ADD16O,2.000000X1.200000*%
%TD*%
%TA.AperFunction,ComponentPad*%
%ADD17O,1.100000X1.700000*%
%TD*%
%TA.AperFunction,ComponentPad*%
%ADD18R,1.600000X1.600000*%
%TD*%
%TA.AperFunction,ComponentPad*%
%ADD19C,1.600000*%
%TD*%
%TA.AperFunction,ComponentPad*%
%ADD20C,2.000000*%
%TD*%
%TA.AperFunction,ComponentPad*%
%ADD21RoundRect,0.200000X0.200000X0.450000X-0.200000X0.450000X-0.200000X-0.450000X0.200000X-0.450000X0*%
%TD*%
%TA.AperFunction,ComponentPad*%
%ADD22O,0.800000X1.300000*%
%TD*%
%TA.AperFunction,ViaPad*%
%ADD23C,0.800000*%
%TD*%
%TA.AperFunction,ViaPad*%
%ADD24C,0.600000*%
%TD*%
%TA.AperFunction,Conductor*%
%ADD25C,0.500000*%
%TD*%
%TA.AperFunction,Conductor*%
%ADD26C,0.250000*%
%TD*%
G04 APERTURE END LIST*
D10*
%TO.P,H4,1*%
%TO.N,N/C*%
X116600000Y49000000D03*
X117302944Y50697056D03*
X117302944Y47302944D03*
X119000000Y51400000D03*
D11*
X119000000Y49000000D03*
D10*
X119000000Y46600000D03*
X120697056Y50697056D03*
X120697056Y47302944D03*
X121400000Y49000000D03*
%TD*%
%TO.P,H2,1*%
%TO.N,N/C*%
X116600000Y6000000D03*
X117302944Y7697056D03*
X117302944Y4302944D03*
X119000000Y8400000D03*
D11*
X119000000Y6000000D03*
D10*
X119000000Y3600000D03*
X120697056Y7697056D03*
X120697056Y4302944D03*
X121400000Y6000000D03*
%TD*%
D12*
%TO.P,J5,1,Pin_1*%
%TO.N,GND*%
X61000000Y25000000D03*
D13*
%TO.P,J5,2,Pin_2*%
X61000000Y22460000D03*
%TD*%
D14*
%TO.P,R5,1*%
%TO.N,Net-(U1-GATE)*%
X59519000Y35403000D03*
%TO.P,R5,2*%
%TO.N,Net-(Q1-G)*%
X57519000Y35403000D03*
%TD*%
D12*
%TO.P,J2,1,Pin_1*%
%TO.N,+170V*%
X3000000Y30040000D03*
D13*
%TO.P,J2,2,Pin_2*%
%TO.N,unconnected-(J2-Pin_2-Pad2)*%
X3000000Y27500000D03*
%TO.P,J2,3,Pin_3*%
%TO.N,GND*%
X3000000Y24960000D03*
%TD*%
D10*
%TO.P,H1,1*%
%TO.N,N/C*%
X3600000Y49000000D03*
X4302944Y50697056D03*
X4302944Y47302944D03*
X6000000Y51400000D03*
D11*
X6000000Y49000000D03*
D10*
X6000000Y46600000D03*
X7697056Y50697056D03*
X7697056Y47302944D03*
X8400000Y49000000D03*
%TD*%
D12*
%TO.P,J3,1,Pin_1*%
%TO.N,GND*%
X122000000Y21150000D03*
D13*
%TO.P,J3,2,Pin_2*%
%TO.N,/ENABLE*%
X122000000Y23690000D03*
%TO.P,J3,3,Pin_3*%
%TO.N,/SRCLK*%
X122000000Y26230000D03*
%TO.P,J3,4,Pin_4*%
%TO.N,/SER_DATA*%
X122000000Y28770000D03*
%TO.P,J3,5,Pin_5*%
%TO.N,/RCLK*%
X122000000Y31310000D03*
%TO.P,J3,6,Pin_6*%
%TO.N,+5V*%
X122000000Y33850000D03*
%TD*%
D15*
%TO.P,U2,1,3V3*%
%TO.N,unconnected-(U2-3V3-Pad1)*%
X89023000Y4256000D03*
D16*
%TO.P,U2,2,EN/RESET*%
%TO.N,unconnected-(U2-EN{slash}RESET-Pad2)*%
X89023000Y6796000D03*
%TO.P,U2,3,GPIO4/MTMS*%
%TO.N,unconnected-(U2-GPIO4{slash}MTMS-Pad3)*%
X89023000Y9336000D03*
%TO.P,U2,4,GPIO5/MTDI*%
%TO.N,unconnected-(U2-GPIO5{slash}MTDI-Pad4)*%
X89023000Y11876000D03*
%TO.P,U2,5,GPIO6*%
%TO.N,RX*%
X89023000Y14416000D03*
%TO.P,U2,6,GPIO7*%
%TO.N,TX*%
X89023000Y16956000D03*
%TO.P,U2,7,GPIO0*%
%TO.N,OUT*%
X89023000Y19496000D03*
%TO.P,U2,8,GPIO1*%
%TO.N,unconnected-(U2-GPIO1-Pad8)*%
X89023000Y22036000D03*
%TO.P,U2,9,GPIO8/BOOT*%
%TO.N,unconnected-(U2-GPIO8{slash}BOOT-Pad9)*%
X89023000Y24576000D03*
%TO.P,U2,10,GPIO10*%
%TO.N,unconnected-(U2-GPIO10-Pad10)*%
X89023000Y27116000D03*
%TO.P,U2,11,GPIO11*%
%TO.N,PSU_EN*%
X89023000Y29656000D03*
%TO.P,U2,12,GPIO2*%
%TO.N,CC2*%
X89023000Y32196000D03*
%TO.P,U2,13,GPIO3*%
%TO.N,CC1*%
X89023000Y34736000D03*
%TO.P,U2,14,5V*%
%TO.N,+5V*%
X89023000Y37276000D03*
%TO.P,U2,15,GND*%
%TO.N,GND*%
X89023000Y39816000D03*
%TO.P,U2,16,NC*%
%TO.N,unconnected-(U2-NC-Pad16)*%
X89023000Y42356000D03*
%TO.P,U2,17,NC*%
%TO.N,unconnected-(U2-NC-Pad17)*%
X111883000Y42356000D03*
%TO.P,U2,18,GND*%
%TO.N,GND*%
X111883000Y39816000D03*
%TO.P,U2,19,GPIO12/USB_D-*%
%TO.N,unconnected-(U2-GPIO12{slash}USB_D--Pad19)*%
X111883000Y37276000D03*
%TO.P,U2,20,GPIO13/USB_D+*%
%TO.N,unconnected-(U2-GPIO13{slash}USB_D+-Pad20)*%
X111883000Y34736000D03*
%TO.P,U2,21,GND*%
%TO.N,GND*%
X111883000Y32196000D03*
%TO.P,U2,22,GPIO9/BOOT*%
%TO.N,unconnected-(U2-GPIO9{slash}BOOT-Pad22)*%
X111883000Y29656000D03*
%TO.P,U2,23,GPIO18*%
%TO.N,/RCLK*%
X111883000Y27116000D03*
%TO.P,U2,24,GPIO19*%
%TO.N,/SER_DATA*%
X111883000Y24576000D03*
%TO.P,U2,25,GPIO20*%
%TO.N,/SRCLK*%
X111883000Y22036000D03*
%TO.P,U2,26,GPIO21*%
%TO.N,/ENABLE*%
X111883000Y19496000D03*
%TO.P,U2,27,GPIO22*%
%TO.N,unconnected-(U2-GPIO22-Pad27)*%
X111883000Y16956000D03*
%TO.P,U2,28,GPIO23*%
%TO.N,unconnected-(U2-GPIO23-Pad28)*%
X111883000Y14416000D03*
%TO.P,U2,29,GPIO15/JTAG*%
%TO.N,unconnected-(U2-GPIO15{slash}JTAG-Pad29)*%
X111883000Y11876000D03*
%TO.P,U2,30,GPIO17/U0RXD*%
%TO.N,unconnected-(U2-GPIO17{slash}U0RXD-Pad30)*%
X111883000Y9336000D03*
%TO.P,U2,31,GPIO16/U0TXD*%
%TO.N,unconnected-(U2-GPIO16{slash}U0TXD-Pad31)*%
X111883000Y6796000D03*
%TO.P,U2,32,GND*%
%TO.N,GND*%
X111883000Y4256000D03*
%TD*%
D10*
%TO.P,H3,1*%
%TO.N,N/C*%
X3600000Y6000000D03*
X4302944Y7697056D03*
X4302944Y4302944D03*
X6000000Y8400000D03*
D11*
X6000000Y6000000D03*
D10*
X6000000Y3600000D03*
X7697056Y7697056D03*
X7697056Y4302944D03*
X8400000Y6000000D03*
%TD*%
D17*
%TO.P,J1,S1,SHIELD*%
%TO.N,unconnected-(J1-SHIELD-PadS1)*%
X58180000Y52401600D03*
X58180000Y48601600D03*
X66820000Y52401600D03*
X66820000Y48601600D03*
%TD*%
D18*
%TO.P,C1,1*%
%TO.N,+5V*%
X53606000Y18004000D03*
D19*
%TO.P,C1,2*%
%TO.N,GND*%
X57106000Y18004000D03*
%TD*%
D20*
%TO.P,C15,1*%
%TO.N,+170V*%
X17101000Y23926905D03*
%TO.P,C15,2*%
%TO.N,GND*%
X17101000Y31426905D03*
%TD*%
%TO.P,C14,1*%
%TO.N,+170V*%
X23070000Y23926905D03*
%TO.P,C14,2*%
%TO.N,GND*%
X23070000Y31426905D03*
%TD*%
D21*
%TO.P,J4,1,OUT*%
%TO.N,OUT*%
X80728000Y15608000D03*
D22*
%TO.P,J4,2,TX*%
%TO.N,TX*%
X79478000Y15608000D03*
%TO.P,J4,3,RX*%
%TO.N,RX*%
X78228000Y15608000D03*
%TO.P,J4,4,GND*%
%TO.N,GND*%
X76978000Y15608000D03*
%TO.P,J4,5,VCC*%
%TO.N,+5V*%
X75728000Y15608000D03*
%TD*%
D18*
%TO.P,C2,1*%
%TO.N,+5V*%
X53606000Y8733000D03*
D19*
%TO.P,C2,2*%
%TO.N,GND*%
X57106000Y8733000D03*
%TD*%
D23*
%TO.N,GND*%
X76958000Y13654000D03*
D24*
X64893000Y36641000D03*
X65782000Y35752000D03*
D23*
X72132000Y38419000D03*
X29968000Y32196000D03*
X79498000Y47690000D03*
X17268000Y34736000D03*
X73529000Y33085000D03*
X12188000Y29656000D03*
X21078000Y36006000D03*
X44954000Y2986000D03*
X22348000Y34736000D03*
X21078000Y33593000D03*
X72640000Y40197000D03*
X28698000Y36006000D03*
X28698000Y30926000D03*
X72640000Y41848000D03*
X26158000Y33593000D03*
X23618000Y33593000D03*
D24*
X65782000Y36641000D03*
D23*
X73529000Y34482000D03*
X18538000Y36006000D03*
X61591000Y30037000D03*
X65985200Y33618400D03*
X18538000Y33593000D03*
X15998000Y33593000D03*
X28698000Y33593000D03*
X65274000Y47182000D03*
X57781000Y39816000D03*
X84070000Y52312800D03*
D24*
X64893000Y35752000D03*
D23*
X56511000Y38292000D03*
X49526000Y2986000D03*
D24*
X64893000Y37530000D03*
D23*
X42668000Y4002000D03*
X24888000Y34736000D03*
X43430000Y2986000D03*
X26158000Y36006000D03*
X19808000Y34736000D03*
D24*
X66036000Y40324000D03*
D23*
X73529000Y37403000D03*
D24*
X64766000Y40324000D03*
D23*
X39620000Y4002000D03*
X46478000Y2986000D03*
X59686000Y47182000D03*
D24*
X64766000Y41848000D03*
D23*
X40382000Y2986000D03*
X41144000Y4002000D03*
D24*
X65401000Y41086000D03*
D23*
X27428000Y32196000D03*
D24*
X66036000Y41848000D03*
X65782000Y37530000D03*
D23*
X48002000Y2986000D03*
X27428000Y34736000D03*
X41906000Y2986000D03*
X23618000Y36006000D03*
X63115000Y31688000D03*
X15998000Y36006000D03*
X26539000Y30926000D03*
%TO.N,Net-(Q1-G)*%
X57995000Y28799000D03*
%TO.N,Net-(U1-GATE)*%
X61170000Y35403000D03*
%TO.N,FB*%
X61104000Y39972000D03*
X69604000Y38722000D03*
%TO.N,CC1*%
X85848000Y38927000D03*
X85848000Y35625000D03*
%TO.N,CC2*%
X83562000Y35625000D03*
X83562000Y38927000D03*
%TO.N,PSU_EN*%
X70354000Y36006000D03*
X61104000Y37472000D03*
X82419000Y29656000D03*
X77974000Y29656000D03*
%TD*%
D25*
%TO.N,Net-(Q1-G)*%
X57106000Y29180000D02*
X57106000Y34990000D01*
X57106000Y34990000D02*
X57519000Y35403000D01*
X57995000Y28799000D02*
X57487000Y28799000D01*
X57487000Y28799000D02*
X57106000Y29180000D01*
%TO.N,Net-(U1-GATE)*%
X61170000Y35403000D02*
X59519000Y35403000D01*
D26*
%TO.N,FB*%
X61104000Y39972000D02*
X61854000Y39222000D01*
X69104000Y39222000D02*
X69604000Y38722000D01*
X61854000Y39222000D02*
X69104000Y39222000D01*
D25*
%TO.N,CC1*%
X85848000Y38927000D02*
X85848000Y35625000D01*
%TO.N,CC2*%
X83562000Y38927000D02*
X83562000Y35625000D01*
D26*
%TO.N,PSU_EN*%
X69338000Y36768000D02*
X69338000Y37530000D01*
D25*
X82419000Y29656000D02*
X77974000Y29656000D01*
D26*
X68322000Y38546000D02*
X62178000Y38546000D01*
X77974000Y29656000D02*
X78228000Y29656000D01*
X70354000Y36006000D02*
X70100000Y36006000D01*
X61104000Y37472000D02*
X61268000Y37472000D01*
X62178000Y38546000D02*
X61104000Y37472000D01*
X69338000Y37530000D02*
X68322000Y38546000D01*
X70100000Y36006000D02*
X69338000Y36768000D01*
%TD*%
%TA.AperFunction,Conductor*%
%TO.N,GND*%
G36*
X123891039Y54020315D02*
G01*
X123936794Y53967511D01*
X123948000Y53916000D01*
X123948000Y1332000D01*
X123928315Y1264961D01*
X123875511Y1219206D01*
X123824000Y1208000D01*
X110356500Y1208000D01*
X110289461Y1227685D01*
X110243706Y1280489D01*
X110232500Y1332000D01*
X110232500Y2961241D01*
X110232528Y2961384D01*
X110232524Y2961384D01*
X110232539Y2985998D01*
X110232541Y2986000D01*
X110232462Y2986192D01*
X110232384Y2986382D01*
X110232380Y2986386D01*
X110232194Y2986462D01*
X110232002Y2986541D01*
X110207446Y2986541D01*
X110207240Y2986500D01*
X90952760Y2986500D01*
X90952554Y2986541D01*
X90927998Y2986541D01*
X90927807Y2986462D01*
X90927619Y2986385D01*
X90927615Y2986382D01*
X90927459Y2986001D01*
X90927476Y2961384D01*
X90927471Y2961384D01*
X90927500Y2961241D01*
X90927500Y1332000D01*
X90907815Y1264961D01*
X90855011Y1219206D01*
X90803500Y1208000D01*
X1136000Y1208000D01*
X1068961Y1227685D01*
X1023206Y1280489D01*
X1012000Y1332000D01*
X1012000Y6000000D01*
X2294422Y6000000D01*
X2314722Y5612661D01*
X2364275Y5299796D01*
X2375398Y5229567D01*
X2410562Y5098331D01*
X2475788Y4854906D01*
X2614787Y4492803D01*
X2790877Y4147207D01*
X3002122Y3821918D01*
X3002124Y3821916D01*
X3246219Y3520484D01*
X3520484Y3246219D01*
X3562489Y3212204D01*
X3821917Y3002123D01*
X4147206Y2790878D01*
X4147211Y2790875D01*
X4492806Y2614786D01*
X4854913Y2475786D01*
X5229567Y2375398D01*
X5612662Y2314722D01*
X5978576Y2295545D01*
X5999999Y2294422D01*
X6000000Y2294422D01*
X6000001Y2294422D01*
X6020301Y2295486D01*
X6387338Y2314722D01*
X6770433Y2375398D01*
X7145087Y2475786D01*
X7507194Y2614786D01*
X7852789Y2790875D01*
X8178084Y3002124D01*
X8479516Y3246219D01*
X8753781Y3520484D01*
X8824755Y3608130D01*
X87522500Y3608130D01*
X87522501Y3608124D01*
X87528908Y3548517D01*
X87579202Y3413672D01*
X87579206Y3413665D01*
X87665452Y3298456D01*
X87665455Y3298453D01*
X87780664Y3212207D01*
X87780671Y3212203D01*
X87915517Y3161909D01*
X87915516Y3161909D01*
X87922444Y3161165D01*
X87975127Y3155500D01*
X90070872Y3155501D01*
X90130483Y3161909D01*
X90265331Y3212204D01*
X90380546Y3298454D01*
X90466796Y3413669D01*
X90517091Y3548517D01*
X90523500Y3608127D01*
X90523499Y4903872D01*
X90517091Y4963483D01*
X90466796Y5098331D01*
X90466795Y5098332D01*
X90466793Y5098336D01*
X90380547Y5213545D01*
X90380544Y5213548D01*
X90265335Y5299794D01*
X90265328Y5299798D01*
X90130482Y5350092D01*
X90130483Y5350092D01*
X90070883Y5356499D01*
X90070881Y5356500D01*
X90070873Y5356500D01*
X90070864Y5356500D01*
X87975129Y5356500D01*
X87975123Y5356499D01*
X87915516Y5350092D01*
X87780671Y5299798D01*
X87780664Y5299794D01*
X87665455Y5213548D01*
X87665452Y5213545D01*
X87579206Y5098336D01*
X87579202Y5098329D01*
X87528908Y4963483D01*
X87522501Y4903884D01*
X87522501Y4903877D01*
X87522500Y4903865D01*
X87522500Y3608130D01*
X8824755Y3608130D01*
X8997876Y3821916D01*
X9209125Y4147211D01*
X9385214Y4492806D01*
X9524214Y4854913D01*
X9624602Y5229567D01*
X9685278Y5612662D01*
X9705578Y6000000D01*
X9685278Y6387338D01*
X9624602Y6770433D01*
X9603658Y6848599D01*
X87518746Y6848599D01*
X87528745Y6638673D01*
X87578296Y6434422D01*
X87578298Y6434418D01*
X87665598Y6243257D01*
X87665601Y6243252D01*
X87665602Y6243250D01*
X87665604Y6243247D01*
X87728627Y6154744D01*
X87787515Y6072047D01*
X87787520Y6072041D01*
X87939620Y5927015D01*
X88034578Y5865989D01*
X88116428Y5813387D01*
X88311543Y5735275D01*
X88414729Y5715388D01*
X88517914Y5695500D01*
X88517915Y5695500D01*
X89475419Y5695500D01*
X89475425Y5695500D01*
X89632218Y5710472D01*
X89833875Y5769684D01*
X90020682Y5865989D01*
X90185886Y5995908D01*
X90323519Y6154744D01*
X90428604Y6336756D01*
X90497344Y6535367D01*
X90527254Y6743398D01*
X90522243Y6848599D01*
X110378746Y6848599D01*
X110388745Y6638673D01*
X110438296Y6434422D01*
X110438298Y6434418D01*
X110525598Y6243257D01*
X110525601Y6243252D01*
X110525602Y6243250D01*
X110525604Y6243247D01*
X110588627Y6154744D01*
X110647515Y6072047D01*
X110647520Y6072041D01*
X110799620Y5927015D01*
X110894578Y5865989D01*
X110976428Y5813387D01*
X111171543Y5735275D01*
X111274729Y5715388D01*
X111377914Y5695500D01*
X111377915Y5695500D01*
X112335419Y5695500D01*
X112335425Y5695500D01*
X112492218Y5710472D01*
X112693875Y5769684D01*
X112880682Y5865989D01*
X113045886Y5995908D01*
X113049432Y6000000D01*
X115294422Y6000000D01*
X115314722Y5612661D01*
X115364275Y5299796D01*
X115375398Y5229567D01*
X115410562Y5098331D01*
X115475788Y4854906D01*
X115614787Y4492803D01*
X115790877Y4147207D01*
X116002122Y3821918D01*
X116002124Y3821916D01*
X116246219Y3520484D01*
X116520484Y3246219D01*
X116562489Y3212204D01*
X116821917Y3002123D01*
X117147206Y2790878D01*
X117147211Y2790875D01*
X117492806Y2614786D01*
X117854913Y2475786D01*
X118229567Y2375398D01*
X118612662Y2314722D01*
X118978576Y2295545D01*
X118999999Y2294422D01*
X119000000Y2294422D01*
X119000001Y2294422D01*
X119020301Y2295486D01*
X119387338Y2314722D01*
X119770433Y2375398D01*
X120145087Y2475786D01*
X120507194Y2614786D01*
X120852789Y2790875D01*
X121178084Y3002124D01*
X121479516Y3246219D01*
X121753781Y3520484D01*
X121997876Y3821916D01*
X122209125Y4147211D01*
X122385214Y4492806D01*
X122524214Y4854913D01*
X122624602Y5229567D01*
X122685278Y5612662D01*
X122705578Y6000000D01*
X122685278Y6387338D01*
X122624602Y6770433D01*
X122524214Y7145087D01*
X122385214Y7507194D01*
X122378713Y7519952D01*
X122291729Y7690669D01*
X122209125Y7852789D01*
X122206569Y7856725D01*
X121997877Y8178083D01*
X121813322Y8405989D01*
X121753781Y8479516D01*
X121479516Y8753781D01*
X121327655Y8876756D01*
X121178082Y8997878D01*
X120852793Y9209123D01*
X120507197Y9385213D01*
X120145094Y9524212D01*
X120145087Y9524214D01*
X119770433Y9624602D01*
X119770429Y9624603D01*
X119770428Y9624603D01*
X119387339Y9685278D01*
X119000001Y9705578D01*
X118999999Y9705578D01*
X118612660Y9685278D01*
X118229572Y9624603D01*
X118229570Y9624603D01*
X117854905Y9524212D01*
X117492802Y9385213D01*
X117147206Y9209123D01*
X116821917Y8997878D01*
X116520488Y8753785D01*
X116520480Y8753778D01*
X116246222Y8479520D01*
X116246215Y8479512D01*
X116002122Y8178083D01*
X115790877Y7852794D01*
X115614787Y7507198D01*
X115475788Y7145095D01*
X115375397Y6770430D01*
X115375397Y6770428D01*
X115314722Y6387340D01*
X115294422Y6000001D01*
X115294422Y6000000D01*
X113049432Y6000000D01*
X113183519Y6154744D01*
X113288604Y6336756D01*
X113357344Y6535367D01*
X113387254Y6743398D01*
X113377254Y6953330D01*
X113327704Y7157576D01*
X113327701Y7157583D01*
X113240401Y7348744D01*
X113240398Y7348749D01*
X113240397Y7348750D01*
X113240396Y7348753D01*
X113118486Y7519952D01*
X113118484Y7519954D01*
X113118479Y7519960D01*
X112966379Y7664986D01*
X112789574Y7778612D01*
X112594455Y7856726D01*
X112388086Y7896500D01*
X112388085Y7896500D01*
X111430575Y7896500D01*
X111273782Y7881528D01*
X111273778Y7881527D01*
X111072127Y7822317D01*
X110885313Y7726009D01*
X110720116Y7596095D01*
X110720112Y7596091D01*
X110582478Y7437254D01*
X110477398Y7255250D01*
X110408656Y7056635D01*
X110408656Y7056633D01*
X110393804Y6953330D01*
X110378746Y6848599D01*
X90522243Y6848599D01*
X90517254Y6953330D01*
X90467704Y7157576D01*
X90467701Y7157583D01*
X90380401Y7348744D01*
X90380398Y7348749D01*
X90380397Y7348750D01*
X90380396Y7348753D01*
X90258486Y7519952D01*
X90258484Y7519954D01*
X90258479Y7519960D01*
X90106379Y7664986D01*
X89929574Y7778612D01*
X89734455Y7856726D01*
X89528086Y7896500D01*
X89528085Y7896500D01*
X88570575Y7896500D01*
X88413782Y7881528D01*
X88413778Y7881527D01*
X88212127Y7822317D01*
X88025313Y7726009D01*
X87860116Y7596095D01*
X87860112Y7596091D01*
X87722478Y7437254D01*
X87617398Y7255250D01*
X87548656Y7056635D01*
X87548656Y7056633D01*
X87533804Y6953330D01*
X87518746Y6848599D01*
X9603658Y6848599D01*
X9524214Y7145087D01*
X9385214Y7507194D01*
X9378713Y7519952D01*
X9291729Y7690669D01*
X9209125Y7852789D01*
X9206569Y7856725D01*
X9188123Y7885130D01*
X52305500Y7885130D01*
X52305501Y7885124D01*
X52311908Y7825517D01*
X52362202Y7690672D01*
X52362206Y7690665D01*
X52448452Y7575456D01*
X52448455Y7575453D01*
X52563664Y7489207D01*
X52563671Y7489203D01*
X52698517Y7438909D01*
X52698516Y7438909D01*
X52705444Y7438165D01*
X52758127Y7432500D01*
X54453872Y7432501D01*
X54513483Y7438909D01*
X54648331Y7489204D01*
X54763546Y7575454D01*
X54849796Y7690669D01*
X54900091Y7825517D01*
X54906500Y7885127D01*
X54906499Y9388599D01*
X87518746Y9388599D01*
X87528745Y9178673D01*
X87578296Y8974422D01*
X87578298Y8974418D01*
X87665598Y8783257D01*
X87665601Y8783252D01*
X87665602Y8783250D01*
X87665604Y8783247D01*
X87728627Y8694744D01*
X87787515Y8612047D01*
X87787520Y8612041D01*
X87939620Y8467015D01*
X88034578Y8405989D01*
X88116428Y8353387D01*
X88311543Y8275275D01*
X88414729Y8255388D01*
X88517914Y8235500D01*
X88517915Y8235500D01*
X89475419Y8235500D01*
X89475425Y8235500D01*
X89632218Y8250472D01*
X89833875Y8309684D01*
X90020682Y8405989D01*
X90185886Y8535908D01*
X90323519Y8694744D01*
X90357603Y8753778D01*
X90428601Y8876751D01*
X90428600Y8876751D01*
X90428604Y8876756D01*
X90497344Y9075367D01*
X90527254Y9283398D01*
X90522243Y9388599D01*
X110378746Y9388599D01*
X110388745Y9178673D01*
X110438296Y8974422D01*
X110438298Y8974418D01*
X110525598Y8783257D01*
X110525601Y8783252D01*
X110525602Y8783250D01*
X110525604Y8783247D01*
X110588627Y8694744D01*
X110647515Y8612047D01*
X110647520Y8612041D01*
X110799620Y8467015D01*
X110894578Y8405989D01*
X110976428Y8353387D01*
X111171543Y8275275D01*
X111274729Y8255388D01*
X111377914Y8235500D01*
X111377915Y8235500D01*
X112335419Y8235500D01*
X112335425Y8235500D01*
X112492218Y8250472D01*
X112693875Y8309684D01*
X112880682Y8405989D01*
X113045886Y8535908D01*
X113183519Y8694744D01*
X113217603Y8753778D01*
X113288601Y8876751D01*
X113288600Y8876751D01*
X113288604Y8876756D01*
X113357344Y9075367D01*
X113387254Y9283398D01*
X113377254Y9493330D01*
X113327704Y9697576D01*
X113324050Y9705578D01*
X113240401Y9888744D01*
X113240398Y9888749D01*
X113240397Y9888750D01*
X113240396Y9888753D01*
X113118486Y10059952D01*
X113118484Y10059954D01*
X113118479Y10059960D01*
X112966379Y10204986D01*
X112789574Y10318612D01*
X112594455Y10396726D01*
X112388086Y10436500D01*
X112388085Y10436500D01*
X111430575Y10436500D01*
X111273782Y10421528D01*
X111273778Y10421527D01*
X111072127Y10362317D01*
X110885313Y10266009D01*
X110720116Y10136095D01*
X110720112Y10136091D01*
X110582478Y9977254D01*
X110477398Y9795250D01*
X110408656Y9596635D01*
X110408656Y9596633D01*
X110393804Y9493330D01*
X110378746Y9388599D01*
X90522243Y9388599D01*
X90517254Y9493330D01*
X90467704Y9697576D01*
X90464050Y9705578D01*
X90380401Y9888744D01*
X90380398Y9888749D01*
X90380397Y9888750D01*
X90380396Y9888753D01*
X90258486Y10059952D01*
X90258484Y10059954D01*
X90258479Y10059960D01*
X90106379Y10204986D01*
X89929574Y10318612D01*
X89734455Y10396726D01*
X89528086Y10436500D01*
X89528085Y10436500D01*
X88570575Y10436500D01*
X88413782Y10421528D01*
X88413778Y10421527D01*
X88212127Y10362317D01*
X88025313Y10266009D01*
X87860116Y10136095D01*
X87860112Y10136091D01*
X87722478Y9977254D01*
X87617398Y9795250D01*
X87548656Y9596635D01*
X87548656Y9596633D01*
X87533804Y9493330D01*
X87518746Y9388599D01*
X54906499Y9388599D01*
X54906499Y9580872D01*
X54900091Y9640483D01*
X54849796Y9775331D01*
X54849795Y9775332D01*
X54849793Y9775336D01*
X54763547Y9890545D01*
X54763544Y9890548D01*
X54648335Y9976794D01*
X54648328Y9976798D01*
X54513482Y10027092D01*
X54513483Y10027092D01*
X54453883Y10033499D01*
X54453881Y10033500D01*
X54453873Y10033500D01*
X54453864Y10033500D01*
X52758129Y10033500D01*
X52758123Y10033499D01*
X52698516Y10027092D01*
X52563671Y9976798D01*
X52563664Y9976794D01*
X52448455Y9890548D01*
X52448452Y9890545D01*
X52362206Y9775336D01*
X52362202Y9775329D01*
X52311908Y9640483D01*
X52307194Y9596633D01*
X52305501Y9580877D01*
X52305500Y9580865D01*
X52305500Y7885130D01*
X9188123Y7885130D01*
X8997877Y8178083D01*
X8813322Y8405989D01*
X8753781Y8479516D01*
X8479516Y8753781D01*
X8327655Y8876756D01*
X8178082Y8997878D01*
X7852793Y9209123D01*
X7507197Y9385213D01*
X7145094Y9524212D01*
X7145087Y9524214D01*
X6770433Y9624602D01*
X6770429Y9624603D01*
X6770428Y9624603D01*
X6387339Y9685278D01*
X6000001Y9705578D01*
X5999999Y9705578D01*
X5612660Y9685278D01*
X5229572Y9624603D01*
X5229570Y9624603D01*
X4854905Y9524212D01*
X4492802Y9385213D01*
X4147206Y9209123D01*
X3821917Y8997878D01*
X3520488Y8753785D01*
X3520480Y8753778D01*
X3246222Y8479520D01*
X3246215Y8479512D01*
X3002122Y8178083D01*
X2790877Y7852794D01*
X2614787Y7507198D01*
X2475788Y7145095D01*
X2375397Y6770430D01*
X2375397Y6770428D01*
X2314722Y6387340D01*
X2294422Y6000001D01*
X2294422Y6000000D01*
X1012000Y6000000D01*
X1012000Y11928599D01*
X87518746Y11928599D01*
X87528745Y11718673D01*
X87578296Y11514422D01*
X87578298Y11514418D01*
X87665598Y11323257D01*
X87665601Y11323252D01*
X87665602Y11323250D01*
X87665604Y11323247D01*
X87728627Y11234744D01*
X87787515Y11152047D01*
X87787520Y11152041D01*
X87939620Y11007015D01*
X88034578Y10945989D01*
X88116428Y10893387D01*
X88311543Y10815275D01*
X88414729Y10795388D01*
X88517914Y10775500D01*
X88517915Y10775500D01*
X89475419Y10775500D01*
X89475425Y10775500D01*
X89632218Y10790472D01*
X89833875Y10849684D01*
X90020682Y10945989D01*
X90185886Y11075908D01*
X90323519Y11234744D01*
X90428604Y11416756D01*
X90497344Y11615367D01*
X90527254Y11823398D01*
X90522243Y11928599D01*
X110378746Y11928599D01*
X110388745Y11718673D01*
X110438296Y11514422D01*
X110438298Y11514418D01*
X110525598Y11323257D01*
X110525601Y11323252D01*
X110525602Y11323250D01*
X110525604Y11323247D01*
X110588627Y11234744D01*
X110647515Y11152047D01*
X110647520Y11152041D01*
X110799620Y11007015D01*
X110894578Y10945989D01*
X110976428Y10893387D01*
X111171543Y10815275D01*
X111274729Y10795388D01*
X111377914Y10775500D01*
X111377915Y10775500D01*
X112335419Y10775500D01*
X112335425Y10775500D01*
X112492218Y10790472D01*
X112693875Y10849684D01*
X112880682Y10945989D01*
X113045886Y11075908D01*
X113183519Y11234744D01*
X113288604Y11416756D01*
X113357344Y11615367D01*
X113387254Y11823398D01*
X113377254Y12033330D01*
X113327704Y12237576D01*
X113327701Y12237583D01*
X113240401Y12428744D01*
X113240398Y12428749D01*
X113240397Y12428750D01*
X113240396Y12428753D01*
X113118486Y12599952D01*
X113118484Y12599954D01*
X113118479Y12599960D01*
X112966379Y12744986D01*
X112789574Y12858612D01*
X112594455Y12936726D01*
X112388086Y12976500D01*
X112388085Y12976500D01*
X111430575Y12976500D01*
X111273782Y12961528D01*
X111273778Y12961527D01*
X111072127Y12902317D01*
X110885313Y12806009D01*
X110720116Y12676095D01*
X110720112Y12676091D01*
X110582478Y12517254D01*
X110477398Y12335250D01*
X110408656Y12136635D01*
X110408656Y12136633D01*
X110393804Y12033330D01*
X110378746Y11928599D01*
X90522243Y11928599D01*
X90517254Y12033330D01*
X90467704Y12237576D01*
X90467701Y12237583D01*
X90380401Y12428744D01*
X90380398Y12428749D01*
X90380397Y12428750D01*
X90380396Y12428753D01*
X90258486Y12599952D01*
X90258484Y12599954D01*
X90258479Y12599960D01*
X90106379Y12744986D01*
X89929574Y12858612D01*
X89734455Y12936726D01*
X89528086Y12976500D01*
X89528085Y12976500D01*
X88570575Y12976500D01*
X88413782Y12961528D01*
X88413778Y12961527D01*
X88212127Y12902317D01*
X88025313Y12806009D01*
X87860116Y12676095D01*
X87860112Y12676091D01*
X87722478Y12517254D01*
X87617398Y12335250D01*
X87548656Y12136635D01*
X87548656Y12136633D01*
X87533804Y12033330D01*
X87518746Y11928599D01*
X1012000Y11928599D01*
X1012000Y15310808D01*
X74827500Y15310808D01*
X74842326Y15169744D01*
X74842327Y15169741D01*
X74900818Y14989723D01*
X74900821Y14989716D01*
X74995467Y14825784D01*
X75038874Y14777576D01*
X75122129Y14685112D01*
X75275265Y14573852D01*
X75275270Y14573849D01*
X75448192Y14496858D01*
X75448197Y14496856D01*
X75633354Y14457500D01*
X75633355Y14457500D01*
X75822644Y14457500D01*
X75822646Y14457500D01*
X76007803Y14496856D01*
X76180730Y14573849D01*
X76333871Y14685112D01*
X76460533Y14825784D01*
X76555179Y14989716D01*
X76613674Y15169744D01*
X76628500Y15310808D01*
X77327500Y15310808D01*
X77342326Y15169744D01*
X77342327Y15169741D01*
X77400818Y14989723D01*
X77400821Y14989716D01*
X77495467Y14825784D01*
X77538874Y14777576D01*
X77622129Y14685112D01*
X77775265Y14573852D01*
X77775270Y14573849D01*
X77948192Y14496858D01*
X77948197Y14496856D01*
X78133354Y14457500D01*
X78133355Y14457500D01*
X78322644Y14457500D01*
X78322646Y14457500D01*
X78507803Y14496856D01*
X78680730Y14573849D01*
X78780115Y14646056D01*
X78845921Y14669536D01*
X78913975Y14653711D01*
X78925885Y14646056D01*
X79025265Y14573852D01*
X79025270Y14573849D01*
X79198192Y14496858D01*
X79198197Y14496856D01*
X79383354Y14457500D01*
X79383355Y14457500D01*
X79572644Y14457500D01*
X79572646Y14457500D01*
X79757803Y14496856D01*
X79930730Y14573849D01*
X79959295Y14594603D01*
X80025099Y14618084D01*
X80093153Y14602260D01*
X80096305Y14600418D01*
X80238394Y14514522D01*
X80400804Y14463914D01*
X80471384Y14457500D01*
X80471387Y14457500D01*
X80984613Y14457500D01*
X80984616Y14457500D01*
X81055196Y14463914D01*
X81070231Y14468599D01*
X87518746Y14468599D01*
X87528745Y14258673D01*
X87578296Y14054422D01*
X87578298Y14054418D01*
X87665598Y13863257D01*
X87665601Y13863252D01*
X87665602Y13863250D01*
X87665604Y13863247D01*
X87728627Y13774744D01*
X87787515Y13692047D01*
X87787520Y13692041D01*
X87939620Y13547015D01*
X88034578Y13485989D01*
X88116428Y13433387D01*
X88311543Y13355275D01*
X88414729Y13335388D01*
X88517914Y13315500D01*
X88517915Y13315500D01*
X89475419Y13315500D01*
X89475425Y13315500D01*
X89632218Y13330472D01*
X89833875Y13389684D01*
X90020682Y13485989D01*
X90185886Y13615908D01*
X90323519Y13774744D01*
X90428604Y13956756D01*
X90497344Y14155367D01*
X90527254Y14363398D01*
X90522243Y14468599D01*
X110378746Y14468599D01*
X110388745Y14258673D01*
X110438296Y14054422D01*
X110438298Y14054418D01*
X110525598Y13863257D01*
X110525601Y13863252D01*
X110525602Y13863250D01*
X110525604Y13863247D01*
X110588627Y13774744D01*
X110647515Y13692047D01*
X110647520Y13692041D01*
X110799620Y13547015D01*
X110894578Y13485989D01*
X110976428Y13433387D01*
X111171543Y13355275D01*
X111274729Y13335388D01*
X111377914Y13315500D01*
X111377915Y13315500D01*
X112335419Y13315500D01*
X112335425Y13315500D01*
X112492218Y13330472D01*
X112693875Y13389684D01*
X112880682Y13485989D01*
X113045886Y13615908D01*
X113183519Y13774744D01*
X113288604Y13956756D01*
X113357344Y14155367D01*
X113387254Y14363398D01*
X113377254Y14573330D01*
X113327704Y14777576D01*
X113305688Y14825784D01*
X113240401Y14968744D01*
X113240398Y14968749D01*
X113240397Y14968750D01*
X113240396Y14968753D01*
X113118486Y15139952D01*
X113118484Y15139954D01*
X113118479Y15139960D01*
X112966379Y15284986D01*
X112789574Y15398612D01*
X112594455Y15476726D01*
X112388086Y15516500D01*
X112388085Y15516500D01*
X111430575Y15516500D01*
X111273782Y15501528D01*
X111273778Y15501527D01*
X111072127Y15442317D01*
X110885313Y15346009D01*
X110720116Y15216095D01*
X110720112Y15216091D01*
X110582478Y15057254D01*
X110477398Y14875250D01*
X110408656Y14676635D01*
X110408656Y14676633D01*
X110382809Y14496856D01*
X110378746Y14468599D01*
X90522243Y14468599D01*
X90517254Y14573330D01*
X90467704Y14777576D01*
X90445688Y14825784D01*
X90380401Y14968744D01*
X90380398Y14968749D01*
X90380397Y14968750D01*
X90380396Y14968753D01*
X90258486Y15139952D01*
X90258484Y15139954D01*
X90258479Y15139960D01*
X90106379Y15284986D01*
X89929574Y15398612D01*
X89734455Y15476726D01*
X89528086Y15516500D01*
X89528085Y15516500D01*
X88570575Y15516500D01*
X88413782Y15501528D01*
X88413778Y15501527D01*
X88212127Y15442317D01*
X88025313Y15346009D01*
X87860116Y15216095D01*
X87860112Y15216091D01*
X87722478Y15057254D01*
X87617398Y14875250D01*
X87548656Y14676635D01*
X87548656Y14676633D01*
X87522809Y14496856D01*
X87518746Y14468599D01*
X81070231Y14468599D01*
X81217606Y14514522D01*
X81363185Y14602528D01*
X81483472Y14722815D01*
X81571478Y14868394D01*
X81622086Y15030804D01*
X81628500Y15101384D01*
X81628500Y16114616D01*
X81622086Y16185196D01*
X81571478Y16347606D01*
X81483472Y16493185D01*
X81483470Y16493187D01*
X81483469Y16493189D01*
X81363188Y16613470D01*
X81359666Y16615599D01*
X81217606Y16701478D01*
X81055196Y16752086D01*
X81055194Y16752087D01*
X81055192Y16752087D01*
X81005778Y16756577D01*
X80984616Y16758500D01*
X80471384Y16758500D01*
X80452145Y16756752D01*
X80400807Y16752087D01*
X80400804Y16752086D01*
X80244890Y16703502D01*
X80238391Y16701477D01*
X80096330Y16615599D01*
X80028775Y16597763D01*
X79962302Y16619281D01*
X79959297Y16621397D01*
X79930733Y16642149D01*
X79930729Y16642152D01*
X79757807Y16719143D01*
X79757802Y16719145D01*
X79602817Y16752087D01*
X79572646Y16758500D01*
X79383354Y16758500D01*
X79353183Y16752087D01*
X79198197Y16719145D01*
X79198192Y16719143D01*
X79025271Y16642152D01*
X78925885Y16569944D01*
X78860078Y16546465D01*
X78792025Y16562291D01*
X78780115Y16569944D01*
X78712208Y16619281D01*
X78680730Y16642151D01*
X78680728Y16642152D01*
X78680729Y16642152D01*
X78507807Y16719143D01*
X78507802Y16719145D01*
X78352817Y16752087D01*
X78322646Y16758500D01*
X78133354Y16758500D01*
X78103183Y16752087D01*
X77948197Y16719145D01*
X77948192Y16719143D01*
X77775270Y16642152D01*
X77775265Y16642149D01*
X77622129Y16530889D01*
X77495466Y16390215D01*
X77400821Y16226285D01*
X77400818Y16226278D01*
X77355569Y16087015D01*
X77342326Y16046256D01*
X77327500Y15905192D01*
X77327500Y15310808D01*
X76628500Y15310808D01*
X76628500Y15905192D01*
X76613674Y16046256D01*
X76555179Y16226284D01*
X76460533Y16390216D01*
X76333871Y16530888D01*
X76333870Y16530889D01*
X76180734Y16642149D01*
X76180729Y16642152D01*
X76007807Y16719143D01*
X76007802Y16719145D01*
X75852817Y16752087D01*
X75822646Y16758500D01*
X75633354Y16758500D01*
X75603183Y16752087D01*
X75448197Y16719145D01*
X75448192Y16719143D01*
X75275270Y16642152D01*
X75275265Y16642149D01*
X75122129Y16530889D01*
X74995466Y16390215D01*
X74900821Y16226285D01*
X74900818Y16226278D01*
X74855569Y16087015D01*
X74842326Y16046256D01*
X74827500Y15905192D01*
X74827500Y15310808D01*
X1012000Y15310808D01*
X1012000Y17156130D01*
X52305500Y17156130D01*
X52305501Y17156124D01*
X52311908Y17096517D01*
X52362202Y16961672D01*
X52362206Y16961665D01*
X52448452Y16846456D01*
X52448455Y16846453D01*
X52563664Y16760207D01*
X52563671Y16760203D01*
X52698517Y16709909D01*
X52698516Y16709909D01*
X52705444Y16709165D01*
X52758127Y16703500D01*
X54453872Y16703501D01*
X54513483Y16709909D01*
X54648331Y16760204D01*
X54763546Y16846454D01*
X54849796Y16961669D01*
X54867300Y17008599D01*
X87518746Y17008599D01*
X87528745Y16798673D01*
X87578296Y16594422D01*
X87578298Y16594418D01*
X87665598Y16403257D01*
X87665601Y16403252D01*
X87665602Y16403250D01*
X87665604Y16403247D01*
X87728627Y16314744D01*
X87787515Y16232047D01*
X87787520Y16232041D01*
X87939620Y16087015D01*
X88034578Y16025989D01*
X88116428Y15973387D01*
X88311543Y15895275D01*
X88414729Y15875388D01*
X88517914Y15855500D01*
X88517915Y15855500D01*
X89475419Y15855500D01*
X89475425Y15855500D01*
X89632218Y15870472D01*
X89833875Y15929684D01*
X90020682Y16025989D01*
X90046459Y16046260D01*
X90185883Y16155906D01*
X90185886Y16155908D01*
X90323519Y16314744D01*
X90428604Y16496756D01*
X90497344Y16695367D01*
X90527254Y16903398D01*
X90522243Y17008599D01*
X110378746Y17008599D01*
X110388745Y16798673D01*
X110438296Y16594422D01*
X110438298Y16594418D01*
X110525598Y16403257D01*
X110525601Y16403252D01*
X110525602Y16403250D01*
X110525604Y16403247D01*
X110588627Y16314744D01*
X110647515Y16232047D01*
X110647520Y16232041D01*
X110799620Y16087015D01*
X110894578Y16025989D01*
X110976428Y15973387D01*
X111171543Y15895275D01*
X111274729Y15875388D01*
X111377914Y15855500D01*
X111377915Y15855500D01*
X112335419Y15855500D01*
X112335425Y15855500D01*
X112492218Y15870472D01*
X112693875Y15929684D01*
X112880682Y16025989D01*
X112906459Y16046260D01*
X113045883Y16155906D01*
X113045886Y16155908D01*
X113183519Y16314744D01*
X113288604Y16496756D01*
X113357344Y16695367D01*
X113387254Y16903398D01*
X113377254Y17113330D01*
X113327704Y17317576D01*
X113327701Y17317583D01*
X113240401Y17508744D01*
X113240398Y17508749D01*
X113240397Y17508750D01*
X113240396Y17508753D01*
X113118486Y17679952D01*
X113118484Y17679954D01*
X113118479Y17679960D01*
X112966379Y17824986D01*
X112789574Y17938612D01*
X112594455Y18016726D01*
X112388086Y18056500D01*
X112388085Y18056500D01*
X111430575Y18056500D01*
X111273782Y18041528D01*
X111273778Y18041527D01*
X111072127Y17982317D01*
X110885313Y17886009D01*
X110720116Y17756095D01*
X110720112Y17756091D01*
X110582478Y17597254D01*
X110477398Y17415250D01*
X110408656Y17216635D01*
X110408656Y17216633D01*
X110391387Y17096518D01*
X110378746Y17008599D01*
X90522243Y17008599D01*
X90517254Y17113330D01*
X90467704Y17317576D01*
X90467701Y17317583D01*
X90380401Y17508744D01*
X90380398Y17508749D01*
X90380397Y17508750D01*
X90380396Y17508753D01*
X90258486Y17679952D01*
X90258484Y17679954D01*
X90258479Y17679960D01*
X90106379Y17824986D01*
X89929574Y17938612D01*
X89734455Y18016726D01*
X89528086Y18056500D01*
X89528085Y18056500D01*
X88570575Y18056500D01*
X88413782Y18041528D01*
X88413778Y18041527D01*
X88212127Y17982317D01*
X88025313Y17886009D01*
X87860116Y17756095D01*
X87860112Y17756091D01*
X87722478Y17597254D01*
X87617398Y17415250D01*
X87548656Y17216635D01*
X87548656Y17216633D01*
X87531387Y17096518D01*
X87518746Y17008599D01*
X54867300Y17008599D01*
X54900091Y17096517D01*
X54906500Y17156127D01*
X54906499Y18851872D01*
X54900091Y18911483D01*
X54853367Y19036756D01*
X54849797Y19046329D01*
X54849793Y19046336D01*
X54763547Y19161545D01*
X54763544Y19161548D01*
X54648335Y19247794D01*
X54648328Y19247798D01*
X54513482Y19298092D01*
X54513483Y19298092D01*
X54453883Y19304499D01*
X54453881Y19304500D01*
X54453873Y19304500D01*
X54453864Y19304500D01*
X52758129Y19304500D01*
X52758123Y19304499D01*
X52698516Y19298092D01*
X52563671Y19247798D01*
X52563664Y19247794D01*
X52448455Y19161548D01*
X52448452Y19161545D01*
X52362206Y19046336D01*
X52362202Y19046329D01*
X52311908Y18911483D01*
X52305501Y18851884D01*
X52305501Y18851877D01*
X52305500Y18851865D01*
X52305500Y17156130D01*
X1012000Y17156130D01*
X1012000Y19548599D01*
X87518746Y19548599D01*
X87528745Y19338673D01*
X87578296Y19134422D01*
X87578298Y19134418D01*
X87665598Y18943257D01*
X87665601Y18943252D01*
X87665602Y18943250D01*
X87665604Y18943247D01*
X87730677Y18851865D01*
X87787515Y18772047D01*
X87787520Y18772041D01*
X87939620Y18627015D01*
X88034578Y18565989D01*
X88116428Y18513387D01*
X88311543Y18435275D01*
X88414729Y18415388D01*
X88517914Y18395500D01*
X88517915Y18395500D01*
X89475419Y18395500D01*
X89475425Y18395500D01*
X89632218Y18410472D01*
X89833875Y18469684D01*
X90020682Y18565989D01*
X90185886Y18695908D01*
X90323519Y18854744D01*
X90356278Y18911483D01*
X90428601Y19036751D01*
X90428600Y19036751D01*
X90428604Y19036756D01*
X90497344Y19235367D01*
X90527254Y19443398D01*
X90522243Y19548599D01*
X110378746Y19548599D01*
X110388745Y19338673D01*
X110438296Y19134422D01*
X110438298Y19134418D01*
X110525598Y18943257D01*
X110525601Y18943252D01*
X110525602Y18943250D01*
X110525604Y18943247D01*
X110590677Y18851865D01*
X110647515Y18772047D01*
X110647520Y18772041D01*
X110799620Y18627015D01*
X110894578Y18565989D01*
X110976428Y18513387D01*
X111171543Y18435275D01*
X111274729Y18415388D01*
X111377914Y18395500D01*
X111377915Y18395500D01*
X112335419Y18395500D01*
X112335425Y18395500D01*
X112492218Y18410472D01*
X112693875Y18469684D01*
X112880682Y18565989D01*
X113045886Y18695908D01*
X113183519Y18854744D01*
X113216278Y18911483D01*
X113288601Y19036751D01*
X113288600Y19036751D01*
X113288604Y19036756D01*
X113357344Y19235367D01*
X113387254Y19443398D01*
X113377254Y19653330D01*
X113327704Y19857576D01*
X113327701Y19857583D01*
X113240401Y20048744D01*
X113240398Y20048749D01*
X113240397Y20048750D01*
X113240396Y20048753D01*
X113118486Y20219952D01*
X113118484Y20219954D01*
X113118479Y20219960D01*
X112966379Y20364986D01*
X112789574Y20478612D01*
X112594455Y20556726D01*
X112388086Y20596500D01*
X112388085Y20596500D01*
X111430575Y20596500D01*
X111273782Y20581528D01*
X111273778Y20581527D01*
X111072127Y20522317D01*
X110885313Y20426009D01*
X110720116Y20296095D01*
X110720112Y20296091D01*
X110582478Y20137254D01*
X110477398Y19955250D01*
X110408656Y19756635D01*
X110408656Y19756633D01*
X110393804Y19653330D01*
X110378746Y19548599D01*
X90522243Y19548599D01*
X90517254Y19653330D01*
X90467704Y19857576D01*
X90467701Y19857583D01*
X90380401Y20048744D01*
X90380398Y20048749D01*
X90380397Y20048750D01*
X90380396Y20048753D01*
X90258486Y20219952D01*
X90258484Y20219954D01*
X90258479Y20219960D01*
X90106379Y20364986D01*
X89929574Y20478612D01*
X89734455Y20556726D01*
X89528086Y20596500D01*
X89528085Y20596500D01*
X88570575Y20596500D01*
X88413782Y20581528D01*
X88413778Y20581527D01*
X88212127Y20522317D01*
X88025313Y20426009D01*
X87860116Y20296095D01*
X87860112Y20296091D01*
X87722478Y20137254D01*
X87617398Y19955250D01*
X87548656Y19756635D01*
X87548656Y19756633D01*
X87533804Y19653330D01*
X87518746Y19548599D01*
X1012000Y19548599D01*
X1012000Y23926904D01*
X15095390Y23926904D01*
X15115804Y23641472D01*
X15176628Y23361868D01*
X15176630Y23361862D01*
X15176631Y23361859D01*
X15275521Y23096726D01*
X15276635Y23093739D01*
X15413770Y22842596D01*
X15413775Y22842588D01*
X15585254Y22613518D01*
X15585270Y22613500D01*
X15787594Y22411176D01*
X15787612Y22411160D01*
X16016682Y22239681D01*
X16016690Y22239676D01*
X16267833Y22102541D01*
X16267832Y22102541D01*
X16267836Y22102540D01*
X16267839Y22102538D01*
X16535954Y22002536D01*
X16535960Y22002535D01*
X16535962Y22002534D01*
X16815566Y21941710D01*
X16815568Y21941710D01*
X16815572Y21941709D01*
X17069220Y21923568D01*
X17100999Y21921295D01*
X17101000Y21921295D01*
X17101001Y21921295D01*
X17129595Y21923341D01*
X17386428Y21941709D01*
X17666046Y22002536D01*
X17934161Y22102538D01*
X18185315Y22239679D01*
X18414395Y22411166D01*
X18616739Y22613510D01*
X18788226Y22842590D01*
X18925367Y23093744D01*
X19025369Y23361859D01*
X19086196Y23641477D01*
X19106610Y23926904D01*
X21064390Y23926904D01*
X21084804Y23641472D01*
X21145628Y23361868D01*
X21145630Y23361862D01*
X21145631Y23361859D01*
X21244521Y23096726D01*
X21245635Y23093739D01*
X21382770Y22842596D01*
X21382775Y22842588D01*
X21554254Y22613518D01*
X21554270Y22613500D01*
X21756594Y22411176D01*
X21756612Y22411160D01*
X21985682Y22239681D01*
X21985690Y22239676D01*
X22236833Y22102541D01*
X22236832Y22102541D01*
X22236836Y22102540D01*
X22236839Y22102538D01*
X22504954Y22002536D01*
X22504960Y22002535D01*
X22504962Y22002534D01*
X22784566Y21941710D01*
X22784568Y21941710D01*
X22784572Y21941709D01*
X23038220Y21923568D01*
X23069999Y21921295D01*
X23070000Y21921295D01*
X23070001Y21921295D01*
X23098595Y21923341D01*
X23355428Y21941709D01*
X23635046Y22002536D01*
X23865789Y22088599D01*
X87518746Y22088599D01*
X87528745Y21878673D01*
X87578296Y21674422D01*
X87578298Y21674418D01*
X87665598Y21483257D01*
X87665601Y21483252D01*
X87665602Y21483250D01*
X87665604Y21483247D01*
X87728627Y21394744D01*
X87787515Y21312047D01*
X87787520Y21312041D01*
X87939620Y21167015D01*
X88034578Y21105989D01*
X88116428Y21053387D01*
X88311543Y20975275D01*
X88414729Y20955388D01*
X88517914Y20935500D01*
X88517915Y20935500D01*
X89475419Y20935500D01*
X89475425Y20935500D01*
X89632218Y20950472D01*
X89833875Y21009684D01*
X90020682Y21105989D01*
X90185886Y21235908D01*
X90323519Y21394744D01*
X90428604Y21576756D01*
X90497344Y21775367D01*
X90527254Y21983398D01*
X90522243Y22088599D01*
X110378746Y22088599D01*
X110388745Y21878673D01*
X110438296Y21674422D01*
X110438298Y21674418D01*
X110525598Y21483257D01*
X110525601Y21483252D01*
X110525602Y21483250D01*
X110525604Y21483247D01*
X110588627Y21394744D01*
X110647515Y21312047D01*
X110647520Y21312041D01*
X110799620Y21167015D01*
X110894578Y21105989D01*
X110976428Y21053387D01*
X111171543Y20975275D01*
X111274729Y20955388D01*
X111377914Y20935500D01*
X111377915Y20935500D01*
X112335419Y20935500D01*
X112335425Y20935500D01*
X112492218Y20950472D01*
X112693875Y21009684D01*
X112880682Y21105989D01*
X113045886Y21235908D01*
X113183519Y21394744D01*
X113288604Y21576756D01*
X113357344Y21775367D01*
X113387254Y21983398D01*
X113377254Y22193330D01*
X113327704Y22397576D01*
X113327701Y22397583D01*
X113240401Y22588744D01*
X113240398Y22588749D01*
X113240397Y22588750D01*
X113240396Y22588753D01*
X113118486Y22759952D01*
X113118484Y22759954D01*
X113118479Y22759960D01*
X112966379Y22904986D01*
X112789574Y23018612D01*
X112594455Y23096726D01*
X112388086Y23136500D01*
X112388085Y23136500D01*
X111430575Y23136500D01*
X111273782Y23121528D01*
X111273778Y23121527D01*
X111072127Y23062317D01*
X110885313Y22966009D01*
X110720116Y22836095D01*
X110720112Y22836091D01*
X110582478Y22677254D01*
X110477398Y22495250D01*
X110408656Y22296635D01*
X110408656Y22296633D01*
X110380751Y22102541D01*
X110378746Y22088599D01*
X90522243Y22088599D01*
X90517254Y22193330D01*
X90467704Y22397576D01*
X90467701Y22397583D01*
X90380401Y22588744D01*
X90380398Y22588749D01*
X90380397Y22588750D01*
X90380396Y22588753D01*
X90258486Y22759952D01*
X90258484Y22759954D01*
X90258479Y22759960D01*
X90106379Y22904986D01*
X89929574Y23018612D01*
X89734455Y23096726D01*
X89528086Y23136500D01*
X89528085Y23136500D01*
X88570575Y23136500D01*
X88413782Y23121528D01*
X88413778Y23121527D01*
X88212127Y23062317D01*
X88025313Y22966009D01*
X87860116Y22836095D01*
X87860112Y22836091D01*
X87722478Y22677254D01*
X87617398Y22495250D01*
X87548656Y22296635D01*
X87548656Y22296633D01*
X87520751Y22102541D01*
X87518746Y22088599D01*
X23865789Y22088599D01*
X23903161Y22102538D01*
X24154315Y22239679D01*
X24383395Y22411166D01*
X24585739Y22613510D01*
X24757226Y22842590D01*
X24894367Y23093744D01*
X24994369Y23361859D01*
X25055196Y23641477D01*
X25075610Y23926905D01*
X25055196Y24212333D01*
X25054742Y24214418D01*
X24994371Y24491943D01*
X24994370Y24491945D01*
X24994369Y24491951D01*
X24943402Y24628599D01*
X87518746Y24628599D01*
X87528745Y24418673D01*
X87578296Y24214422D01*
X87578298Y24214418D01*
X87665598Y24023257D01*
X87665601Y24023252D01*
X87665602Y24023250D01*
X87665604Y24023247D01*
X87735275Y23925408D01*
X87787515Y23852047D01*
X87787520Y23852041D01*
X87939620Y23707015D01*
X88034578Y23645989D01*
X88116428Y23593387D01*
X88311543Y23515275D01*
X88414729Y23495388D01*
X88517914Y23475500D01*
X88517915Y23475500D01*
X89475419Y23475500D01*
X89475425Y23475500D01*
X89632218Y23490472D01*
X89833875Y23549684D01*
X90020682Y23645989D01*
X90185886Y23775908D01*
X90323519Y23934744D01*
X90428604Y24116756D01*
X90497344Y24315367D01*
X90527254Y24523398D01*
X90522243Y24628599D01*
X110378746Y24628599D01*
X110388745Y24418673D01*
X110438296Y24214422D01*
X110438298Y24214418D01*
X110525598Y24023257D01*
X110525601Y24023252D01*
X110525602Y24023250D01*
X110525604Y24023247D01*
X110595275Y23925408D01*
X110647515Y23852047D01*
X110647520Y23852041D01*
X110799620Y23707015D01*
X110894578Y23645989D01*
X110976428Y23593387D01*
X111171543Y23515275D01*
X111274729Y23495388D01*
X111377914Y23475500D01*
X111377915Y23475500D01*
X112335419Y23475500D01*
X112335425Y23475500D01*
X112492218Y23490472D01*
X112693875Y23549684D01*
X112880682Y23645989D01*
X112936646Y23690000D01*
X120644341Y23690000D01*
X120664936Y23454597D01*
X120664938Y23454587D01*
X120726094Y23226345D01*
X120726096Y23226341D01*
X120726097Y23226337D01*
X120822961Y23018613D01*
X120825965Y23012170D01*
X120825967Y23012166D01*
X120858287Y22966009D01*
X120961505Y22818599D01*
X121128599Y22651505D01*
X121182876Y22613500D01*
X121322165Y22515968D01*
X121322167Y22515967D01*
X121322170Y22515965D01*
X121536337Y22416097D01*
X121536343Y22416096D01*
X121536344Y22416095D01*
X121554740Y22411166D01*
X121764592Y22354937D01*
X121952918Y22338461D01*
X121999999Y22334341D01*
X122000000Y22334341D01*
X122000001Y22334341D01*
X122039234Y22337774D01*
X122235408Y22354937D01*
X122463663Y22416097D01*
X122677830Y22515965D01*
X122871401Y22651505D01*
X123038495Y22818599D01*
X123174035Y23012170D01*
X123273903Y23226337D01*
X123335063Y23454592D01*
X123355659Y23690000D01*
X123335063Y23925408D01*
X123273903Y24153663D01*
X123174035Y24367829D01*
X123087125Y24491951D01*
X123038494Y24561403D01*
X122871402Y24728494D01*
X122871396Y24728499D01*
X122685842Y24858425D01*
X122642217Y24913002D01*
X122635023Y24982500D01*
X122666546Y25044855D01*
X122685842Y25061575D01*
X122781782Y25128753D01*
X122871401Y25191505D01*
X123038495Y25358599D01*
X123174035Y25552170D01*
X123273903Y25766337D01*
X123335063Y25994592D01*
X123355659Y26230000D01*
X123335063Y26465408D01*
X123273903Y26693663D01*
X123174035Y26907829D01*
X123084054Y27036337D01*
X123038494Y27101403D01*
X122871402Y27268494D01*
X122871396Y27268499D01*
X122685842Y27398425D01*
X122642217Y27453002D01*
X122635023Y27522500D01*
X122666546Y27584855D01*
X122685842Y27601575D01*
X122781782Y27668753D01*
X122871401Y27731505D01*
X123038495Y27898599D01*
X123174035Y28092170D01*
X123273903Y28306337D01*
X123335063Y28534592D01*
X123355659Y28770000D01*
X123335063Y29005408D01*
X123273903Y29233663D01*
X123174035Y29447829D01*
X123160091Y29467744D01*
X123038494Y29641403D01*
X122871402Y29808494D01*
X122871396Y29808499D01*
X122685842Y29938425D01*
X122642217Y29993002D01*
X122635023Y30062500D01*
X122666546Y30124855D01*
X122685842Y30141575D01*
X122708026Y30157109D01*
X122871401Y30271505D01*
X123038495Y30438599D01*
X123174035Y30632170D01*
X123273903Y30846337D01*
X123335063Y31074592D01*
X123355659Y31310000D01*
X123335063Y31545408D01*
X123273903Y31773663D01*
X123174035Y31987829D01*
X123038495Y32181401D01*
X123038494Y32181403D01*
X122871402Y32348494D01*
X122871396Y32348499D01*
X122685842Y32478425D01*
X122642217Y32533002D01*
X122635023Y32602500D01*
X122666546Y32664855D01*
X122685842Y32681575D01*
X122781782Y32748753D01*
X122871401Y32811505D01*
X123038495Y32978599D01*
X123174035Y33172170D01*
X123273903Y33386337D01*
X123335063Y33614592D01*
X123355659Y33850000D01*
X123335063Y34085408D01*
X123273903Y34313663D01*
X123174035Y34527829D01*
X123168381Y34535905D01*
X123038494Y34721403D01*
X122871402Y34888494D01*
X122871395Y34888499D01*
X122677834Y35024033D01*
X122677830Y35024035D01*
X122677828Y35024036D01*
X122463663Y35123903D01*
X122463659Y35123904D01*
X122463655Y35123906D01*
X122235413Y35185062D01*
X122235403Y35185064D01*
X122000001Y35205659D01*
X121999999Y35205659D01*
X121764596Y35185064D01*
X121764586Y35185062D01*
X121536344Y35123906D01*
X121536335Y35123902D01*
X121322171Y35024036D01*
X121322169Y35024035D01*
X121128597Y34888495D01*
X120961505Y34721403D01*
X120825965Y34527831D01*
X120825964Y34527829D01*
X120726098Y34313665D01*
X120726094Y34313656D01*
X120664938Y34085414D01*
X120664936Y34085404D01*
X120644341Y33850001D01*
X120644341Y33850000D01*
X120664936Y33614597D01*
X120664938Y33614587D01*
X120726094Y33386345D01*
X120726096Y33386341D01*
X120726097Y33386337D01*
X120822961Y33178613D01*
X120825965Y33172170D01*
X120825967Y33172166D01*
X120961501Y32978605D01*
X120961506Y32978598D01*
X121128597Y32811507D01*
X121128603Y32811502D01*
X121314158Y32681575D01*
X121357783Y32626998D01*
X121364977Y32557500D01*
X121333454Y32495145D01*
X121314158Y32478425D01*
X121128597Y32348495D01*
X120961505Y32181403D01*
X120825965Y31987831D01*
X120825964Y31987829D01*
X120726098Y31773665D01*
X120726094Y31773656D01*
X120664938Y31545414D01*
X120664936Y31545404D01*
X120644341Y31310001D01*
X120644341Y31310000D01*
X120664936Y31074597D01*
X120664938Y31074587D01*
X120726094Y30846345D01*
X120726096Y30846341D01*
X120726097Y30846337D01*
X120822961Y30638613D01*
X120825965Y30632170D01*
X120825967Y30632166D01*
X120961501Y30438605D01*
X120961506Y30438598D01*
X121128597Y30271507D01*
X121128603Y30271502D01*
X121314158Y30141575D01*
X121357783Y30086998D01*
X121364977Y30017500D01*
X121333454Y29955145D01*
X121314158Y29938425D01*
X121128597Y29808495D01*
X120961505Y29641403D01*
X120825965Y29447831D01*
X120825964Y29447829D01*
X120726098Y29233665D01*
X120726094Y29233656D01*
X120664938Y29005414D01*
X120664936Y29005404D01*
X120644341Y28770001D01*
X120644341Y28770000D01*
X120664936Y28534597D01*
X120664938Y28534587D01*
X120726094Y28306345D01*
X120726096Y28306341D01*
X120726097Y28306337D01*
X120810138Y28126112D01*
X120825965Y28092170D01*
X120825967Y28092166D01*
X120961501Y27898605D01*
X120961506Y27898598D01*
X121128597Y27731507D01*
X121128603Y27731502D01*
X121314158Y27601575D01*
X121357783Y27546998D01*
X121364977Y27477500D01*
X121333454Y27415145D01*
X121314158Y27398425D01*
X121128597Y27268495D01*
X120961505Y27101403D01*
X120825965Y26907831D01*
X120825964Y26907829D01*
X120726098Y26693665D01*
X120726094Y26693656D01*
X120664938Y26465414D01*
X120664936Y26465404D01*
X120644341Y26230001D01*
X120644341Y26230000D01*
X120664936Y25994597D01*
X120664938Y25994587D01*
X120726094Y25766345D01*
X120726096Y25766341D01*
X120726097Y25766337D01*
X120822961Y25558613D01*
X120825965Y25552170D01*
X120825967Y25552166D01*
X120961501Y25358605D01*
X120961506Y25358598D01*
X121128597Y25191507D01*
X121128603Y25191502D01*
X121314158Y25061575D01*
X121357783Y25006998D01*
X121364977Y24937500D01*
X121333454Y24875145D01*
X121314158Y24858425D01*
X121128597Y24728495D01*
X120961505Y24561403D01*
X120825965Y24367831D01*
X120825964Y24367829D01*
X120726098Y24153665D01*
X120726094Y24153656D01*
X120664938Y23925414D01*
X120664936Y23925404D01*
X120644341Y23690001D01*
X120644341Y23690000D01*
X112936646Y23690000D01*
X113045886Y23775908D01*
X113183519Y23934744D01*
X113288604Y24116756D01*
X113357344Y24315367D01*
X113387254Y24523398D01*
X113377254Y24733330D01*
X113327704Y24937576D01*
X113327701Y24937583D01*
X113240401Y25128744D01*
X113240398Y25128749D01*
X113240397Y25128750D01*
X113240396Y25128753D01*
X113118486Y25299952D01*
X113118484Y25299954D01*
X113118479Y25299960D01*
X112966379Y25444986D01*
X112789574Y25558612D01*
X112594455Y25636726D01*
X112388086Y25676500D01*
X112388085Y25676500D01*
X111430575Y25676500D01*
X111273782Y25661528D01*
X111273778Y25661527D01*
X111072127Y25602317D01*
X110885313Y25506009D01*
X110720116Y25376095D01*
X110720112Y25376091D01*
X110582478Y25217254D01*
X110477398Y25035250D01*
X110408656Y24836635D01*
X110408656Y24836633D01*
X110393109Y24728495D01*
X110378746Y24628599D01*
X90522243Y24628599D01*
X90517254Y24733330D01*
X90467704Y24937576D01*
X90467701Y24937583D01*
X90380401Y25128744D01*
X90380398Y25128749D01*
X90380397Y25128750D01*
X90380396Y25128753D01*
X90258486Y25299952D01*
X90258484Y25299954D01*
X90258479Y25299960D01*
X90106379Y25444986D01*
X89929574Y25558612D01*
X89734455Y25636726D01*
X89528086Y25676500D01*
X89528085Y25676500D01*
X88570575Y25676500D01*
X88413782Y25661528D01*
X88413778Y25661527D01*
X88212127Y25602317D01*
X88025313Y25506009D01*
X87860116Y25376095D01*
X87860112Y25376091D01*
X87722478Y25217254D01*
X87617398Y25035250D01*
X87548656Y24836635D01*
X87548656Y24836633D01*
X87533109Y24728495D01*
X87518746Y24628599D01*
X24943402Y24628599D01*
X24894367Y24760066D01*
X24837595Y24864035D01*
X24757229Y25011215D01*
X24757224Y25011223D01*
X24585745Y25240293D01*
X24585729Y25240311D01*
X24383405Y25442635D01*
X24383387Y25442651D01*
X24154317Y25614130D01*
X24154309Y25614135D01*
X23903166Y25751270D01*
X23903167Y25751270D01*
X23795915Y25791273D01*
X23635046Y25851274D01*
X23635043Y25851275D01*
X23635037Y25851277D01*
X23355433Y25912101D01*
X23070001Y25932515D01*
X23069999Y25932515D01*
X22784566Y25912101D01*
X22504962Y25851277D01*
X22236833Y25751270D01*
X21985690Y25614135D01*
X21985682Y25614130D01*
X21756612Y25442651D01*
X21756594Y25442635D01*
X21554270Y25240311D01*
X21554254Y25240293D01*
X21382775Y25011223D01*
X21382770Y25011215D01*
X21245635Y24760072D01*
X21145628Y24491943D01*
X21084804Y24212339D01*
X21064390Y23926907D01*
X21064390Y23926904D01*
X19106610Y23926904D01*
X19106610Y23926905D01*
X19086196Y24212333D01*
X19085742Y24214418D01*
X19025371Y24491943D01*
X19025370Y24491945D01*
X19025369Y24491951D01*
X18925367Y24760066D01*
X18868595Y24864035D01*
X18788229Y25011215D01*
X18788224Y25011223D01*
X18616745Y25240293D01*
X18616729Y25240311D01*
X18414405Y25442635D01*
X18414387Y25442651D01*
X18185317Y25614130D01*
X18185309Y25614135D01*
X17934166Y25751270D01*
X17934167Y25751270D01*
X17826915Y25791273D01*
X17666046Y25851274D01*
X17666043Y25851275D01*
X17666037Y25851277D01*
X17386433Y25912101D01*
X17101001Y25932515D01*
X17100999Y25932515D01*
X16815566Y25912101D01*
X16535962Y25851277D01*
X16267833Y25751270D01*
X16016690Y25614135D01*
X16016682Y25614130D01*
X15787612Y25442651D01*
X15787594Y25442635D01*
X15585270Y25240311D01*
X15585254Y25240293D01*
X15413775Y25011223D01*
X15413770Y25011215D01*
X15276635Y24760072D01*
X15176628Y24491943D01*
X15115804Y24212339D01*
X15095390Y23926907D01*
X15095390Y23926904D01*
X1012000Y23926904D01*
X1012000Y29145040D01*
X1349500Y29145040D01*
X1364630Y29010751D01*
X1364631Y29010746D01*
X1424211Y28840477D01*
X1477850Y28755112D01*
X1520184Y28687738D01*
X1647738Y28560184D01*
X1738080Y28503418D01*
X1787712Y28472232D01*
X1800478Y28464211D01*
X1818031Y28458069D01*
X1827496Y28454757D01*
X1884272Y28414035D01*
X1910019Y28349082D01*
X1896563Y28280521D01*
X1888116Y28266592D01*
X1825965Y28177831D01*
X1825964Y28177829D01*
X1726098Y27963665D01*
X1726094Y27963656D01*
X1664938Y27735414D01*
X1664936Y27735404D01*
X1644341Y27500001D01*
X1644341Y27500000D01*
X1664936Y27264597D01*
X1664938Y27264587D01*
X1726094Y27036345D01*
X1726096Y27036341D01*
X1726097Y27036337D01*
X1810484Y26855369D01*
X1825965Y26822170D01*
X1825967Y26822166D01*
X1934281Y26667479D01*
X1961505Y26628599D01*
X2128599Y26461505D01*
X2225384Y26393735D01*
X2322165Y26325968D01*
X2322167Y26325967D01*
X2322170Y26325965D01*
X2536337Y26226097D01*
X2764592Y26164937D01*
X2952918Y26148461D01*
X2999999Y26144341D01*
X3000000Y26144341D01*
X3000001Y26144341D01*
X3039234Y26147774D01*
X3235408Y26164937D01*
X3463663Y26226097D01*
X3677830Y26325965D01*
X3871401Y26461505D01*
X4038495Y26628599D01*
X4174035Y26822170D01*
X4273903Y27036337D01*
X4309342Y27168599D01*
X87518746Y27168599D01*
X87528745Y26958673D01*
X87578296Y26754422D01*
X87578298Y26754418D01*
X87665598Y26563257D01*
X87665601Y26563252D01*
X87665602Y26563250D01*
X87665604Y26563247D01*
X87787514Y26392048D01*
X87787515Y26392047D01*
X87787520Y26392041D01*
X87939620Y26247015D01*
X88080797Y26156286D01*
X88116428Y26133387D01*
X88311543Y26055275D01*
X88414729Y26035388D01*
X88517914Y26015500D01*
X88517915Y26015500D01*
X89475419Y26015500D01*
X89475425Y26015500D01*
X89632218Y26030472D01*
X89833875Y26089684D01*
X90020682Y26185989D01*
X90185886Y26315908D01*
X90323519Y26474744D01*
X90428604Y26656756D01*
X90497344Y26855367D01*
X90527254Y27063398D01*
X90522243Y27168599D01*
X110378746Y27168599D01*
X110388745Y26958673D01*
X110438296Y26754422D01*
X110438298Y26754418D01*
X110525598Y26563257D01*
X110525601Y26563252D01*
X110525602Y26563250D01*
X110525604Y26563247D01*
X110647514Y26392048D01*
X110647515Y26392047D01*
X110647520Y26392041D01*
X110799620Y26247015D01*
X110940797Y26156286D01*
X110976428Y26133387D01*
X111171543Y26055275D01*
X111274729Y26035388D01*
X111377914Y26015500D01*
X111377915Y26015500D01*
X112335419Y26015500D01*
X112335425Y26015500D01*
X112492218Y26030472D01*
X112693875Y26089684D01*
X112880682Y26185989D01*
X113045886Y26315908D01*
X113183519Y26474744D01*
X113288604Y26656756D01*
X113357344Y26855367D01*
X113387254Y27063398D01*
X113377254Y27273330D01*
X113327704Y27477576D01*
X113327701Y27477583D01*
X113240401Y27668744D01*
X113240398Y27668749D01*
X113240397Y27668750D01*
X113240396Y27668753D01*
X113118486Y27839952D01*
X113118484Y27839954D01*
X113118479Y27839960D01*
X112966379Y27984986D01*
X112789574Y28098612D01*
X112725673Y28124194D01*
X112646503Y28155889D01*
X112594455Y28176726D01*
X112388086Y28216500D01*
X112388085Y28216500D01*
X111430575Y28216500D01*
X111273782Y28201528D01*
X111273778Y28201527D01*
X111072127Y28142317D01*
X110885313Y28046009D01*
X110720116Y27916095D01*
X110720112Y27916091D01*
X110582478Y27757254D01*
X110477398Y27575250D01*
X110408656Y27376635D01*
X110408656Y27376633D01*
X110392547Y27264587D01*
X110378746Y27168599D01*
X90522243Y27168599D01*
X90517254Y27273330D01*
X90467704Y27477576D01*
X90467701Y27477583D01*
X90380401Y27668744D01*
X90380398Y27668749D01*
X90380397Y27668750D01*
X90380396Y27668753D01*
X90258486Y27839952D01*
X90258484Y27839954D01*
X90258479Y27839960D01*
X90106379Y27984986D01*
X89929574Y28098612D01*
X89865673Y28124194D01*
X89786503Y28155889D01*
X89734455Y28176726D01*
X89528086Y28216500D01*
X89528085Y28216500D01*
X88570575Y28216500D01*
X88413782Y28201528D01*
X88413778Y28201527D01*
X88212127Y28142317D01*
X88025313Y28046009D01*
X87860116Y27916095D01*
X87860112Y27916091D01*
X87722478Y27757254D01*
X87617398Y27575250D01*
X87548656Y27376635D01*
X87548656Y27376633D01*
X87532547Y27264587D01*
X87518746Y27168599D01*
X4309342Y27168599D01*
X4335063Y27264592D01*
X4355659Y27500000D01*
X4353690Y27522500D01*
X4340895Y27668749D01*
X4335063Y27735408D01*
X4273903Y27963663D01*
X4174035Y28177829D01*
X4146957Y28216500D01*
X4111883Y28266592D01*
X4089556Y28332798D01*
X4106566Y28400565D01*
X4157514Y28448378D01*
X4172504Y28454757D01*
X4181969Y28458069D01*
X4199522Y28464211D01*
X4352262Y28560184D01*
X4479816Y28687738D01*
X4575789Y28840478D01*
X4635368Y29010745D01*
X4635596Y29012763D01*
X4642934Y29077896D01*
X4650500Y29145046D01*
X4650500Y29201975D01*
X56350710Y29201975D01*
X56355028Y29152632D01*
X56355500Y29141824D01*
X56355500Y29136289D01*
X56359098Y29105505D01*
X56359464Y29101917D01*
X56366000Y29027209D01*
X56367461Y29020133D01*
X56367403Y29020122D01*
X56369034Y29012763D01*
X56369092Y29012776D01*
X56370757Y29005751D01*
X56370758Y29005746D01*
X56370759Y29005745D01*
X56378996Y28983112D01*
X56396400Y28935295D01*
X56397582Y28931893D01*
X56421182Y28860674D01*
X56424236Y28854126D01*
X56424182Y28854102D01*
X56427470Y28847312D01*
X56427521Y28847337D01*
X56430761Y28840886D01*
X56471979Y28778216D01*
X56473889Y28775218D01*
X56504253Y28725992D01*
X56513289Y28711342D01*
X56517766Y28705681D01*
X56517719Y28705644D01*
X56522482Y28699798D01*
X56522528Y28699836D01*
X56527173Y28694301D01*
X56581710Y28642848D01*
X56584263Y28640369D01*
X56752421Y28472212D01*
X56756638Y28467780D01*
X56761540Y28462366D01*
X56766063Y28458263D01*
X56765886Y28458069D01*
X56770819Y28453814D01*
X56911268Y28313365D01*
X56923050Y28299732D01*
X56937391Y28280469D01*
X56975342Y28248623D01*
X56983316Y28241316D01*
X56987218Y28237414D01*
X57011544Y28218179D01*
X57014340Y28215901D01*
X57042062Y28192640D01*
X57071786Y28167698D01*
X57071794Y28167694D01*
X57077824Y28163727D01*
X57077790Y28163677D01*
X57084137Y28159634D01*
X57084169Y28159684D01*
X57090321Y28155890D01*
X57090322Y28155890D01*
X57090323Y28155889D01*
X57119428Y28142317D01*
X57158294Y28124194D01*
X57161510Y28122638D01*
X57228567Y28088960D01*
X57228576Y28088958D01*
X57235355Y28086490D01*
X57235334Y28086433D01*
X57242451Y28083960D01*
X57242470Y28084016D01*
X57249324Y28081745D01*
X57249325Y28081745D01*
X57249327Y28081744D01*
X57322848Y28066564D01*
X57326209Y28065819D01*
X57399279Y28048500D01*
X57399285Y28048500D01*
X57406452Y28047662D01*
X57406445Y28047603D01*
X57413946Y28046837D01*
X57413952Y28046896D01*
X57421141Y28046268D01*
X57421144Y28046267D01*
X57421146Y28046268D01*
X57421147Y28046267D01*
X57451124Y28047139D01*
X57513721Y28032261D01*
X57524420Y28026475D01*
X57538304Y28017730D01*
X57542269Y28014849D01*
X57542273Y28014847D01*
X57558522Y28007613D01*
X57567069Y28003408D01*
X57590059Y27990973D01*
X57612745Y27979432D01*
X57613809Y27978924D01*
X57677415Y27954496D01*
X57683311Y27952053D01*
X57715197Y27937856D01*
X57900354Y27898500D01*
X57900355Y27898500D01*
X58089644Y27898500D01*
X58089646Y27898500D01*
X58274803Y27937856D01*
X58447730Y28014849D01*
X58600871Y28126112D01*
X58727533Y28266784D01*
X58822179Y28430716D01*
X58880674Y28610744D01*
X58900460Y28799000D01*
X58880674Y28987256D01*
X58822179Y29167284D01*
X58727533Y29331216D01*
X58600871Y29471888D01*
X58564009Y29498670D01*
X58447734Y29583149D01*
X58447729Y29583152D01*
X58284112Y29656000D01*
X77068540Y29656000D01*
X77088326Y29467744D01*
X77088327Y29467741D01*
X77146818Y29287723D01*
X77146821Y29287716D01*
X77241467Y29123784D01*
X77341431Y29012763D01*
X77368129Y28983112D01*
X77521265Y28871852D01*
X77521270Y28871849D01*
X77694192Y28794858D01*
X77694197Y28794856D01*
X77879354Y28755500D01*
X77879355Y28755500D01*
X78068644Y28755500D01*
X78068646Y28755500D01*
X78224375Y28788602D01*
X78227233Y28789174D01*
X78836318Y28903376D01*
X78859170Y28905500D01*
X81533830Y28905500D01*
X81556682Y28903376D01*
X82165755Y28789176D01*
X82168645Y28788597D01*
X82324354Y28755500D01*
X82350044Y28755500D01*
X82356917Y28755178D01*
X82356921Y28755248D01*
X82359970Y28755114D01*
X82359983Y28755112D01*
X82359995Y28755113D01*
X82359997Y28755112D01*
X82431016Y28755498D01*
X82431690Y28755500D01*
X82513644Y28755500D01*
X82513646Y28755500D01*
X82698803Y28794856D01*
X82871730Y28871849D01*
X83024871Y28983112D01*
X83151533Y29123784D01*
X83246179Y29287716D01*
X83304674Y29467744D01*
X83324460Y29656000D01*
X83318932Y29708599D01*
X87518746Y29708599D01*
X87528745Y29498673D01*
X87578296Y29294422D01*
X87578298Y29294418D01*
X87665598Y29103257D01*
X87665601Y29103252D01*
X87665602Y29103250D01*
X87665604Y29103247D01*
X87735275Y29005408D01*
X87787515Y28932047D01*
X87787520Y28932041D01*
X87939620Y28787015D01*
X88034578Y28725989D01*
X88116428Y28673387D01*
X88311543Y28595275D01*
X88414729Y28575388D01*
X88517914Y28555500D01*
X88517915Y28555500D01*
X89475419Y28555500D01*
X89475425Y28555500D01*
X89632218Y28570472D01*
X89833875Y28629684D01*
X90020682Y28725989D01*
X90185886Y28855908D01*
X90323519Y29014744D01*
X90324657Y29016714D01*
X90428601Y29196751D01*
X90428600Y29196751D01*
X90428604Y29196756D01*
X90497344Y29395367D01*
X90527254Y29603398D01*
X90522243Y29708599D01*
X110378746Y29708599D01*
X110388745Y29498673D01*
X110438296Y29294422D01*
X110438298Y29294418D01*
X110525598Y29103257D01*
X110525601Y29103252D01*
X110525602Y29103250D01*
X110525604Y29103247D01*
X110595275Y29005408D01*
X110647515Y28932047D01*
X110647520Y28932041D01*
X110799620Y28787015D01*
X110894578Y28725989D01*
X110976428Y28673387D01*
X111171543Y28595275D01*
X111274729Y28575388D01*
X111377914Y28555500D01*
X111377915Y28555500D01*
X112335419Y28555500D01*
X112335425Y28555500D01*
X112492218Y28570472D01*
X112693875Y28629684D01*
X112880682Y28725989D01*
X113045886Y28855908D01*
X113183519Y29014744D01*
X113184657Y29016714D01*
X113288601Y29196751D01*
X113288600Y29196751D01*
X113288604Y29196756D01*
X113357344Y29395367D01*
X113387254Y29603398D01*
X113377254Y29813330D01*
X113327704Y30017576D01*
X113327701Y30017583D01*
X113240401Y30208744D01*
X113240398Y30208749D01*
X113240397Y30208750D01*
X113240396Y30208753D01*
X113118486Y30379952D01*
X113118484Y30379954D01*
X113118479Y30379960D01*
X112966379Y30524986D01*
X112789574Y30638612D01*
X112594455Y30716726D01*
X112388086Y30756500D01*
X112388085Y30756500D01*
X111430575Y30756500D01*
X111273782Y30741528D01*
X111273778Y30741527D01*
X111072127Y30682317D01*
X110885313Y30586009D01*
X110720116Y30456095D01*
X110720112Y30456091D01*
X110582478Y30297254D01*
X110477398Y30115250D01*
X110408656Y29916635D01*
X110408656Y29916633D01*
X110381963Y29730972D01*
X110378746Y29708599D01*
X90522243Y29708599D01*
X90517254Y29813330D01*
X90467704Y30017576D01*
X90467701Y30017583D01*
X90380401Y30208744D01*
X90380398Y30208749D01*
X90380397Y30208750D01*
X90380396Y30208753D01*
X90258486Y30379952D01*
X90258484Y30379954D01*
X90258479Y30379960D01*
X90106379Y30524986D01*
X89929574Y30638612D01*
X89734455Y30716726D01*
X89528086Y30756500D01*
X89528085Y30756500D01*
X88570575Y30756500D01*
X88413782Y30741528D01*
X88413778Y30741527D01*
X88212127Y30682317D01*
X88025313Y30586009D01*
X87860116Y30456095D01*
X87860112Y30456091D01*
X87722478Y30297254D01*
X87617398Y30115250D01*
X87548656Y29916635D01*
X87548656Y29916633D01*
X87521963Y29730972D01*
X87518746Y29708599D01*
X83318932Y29708599D01*
X83304674Y29844256D01*
X83246179Y30024284D01*
X83151533Y30188216D01*
X83024871Y30328888D01*
X83024870Y30328889D01*
X82871734Y30440149D01*
X82871729Y30440152D01*
X82698807Y30517143D01*
X82698802Y30517145D01*
X82553001Y30548135D01*
X82513646Y30556500D01*
X82324354Y30556500D01*
X82168701Y30523416D01*
X82165773Y30522830D01*
X81556676Y30408624D01*
X81533824Y30406500D01*
X78859176Y30406500D01*
X78836324Y30408624D01*
X78227213Y30522833D01*
X78224285Y30523419D01*
X78068647Y30556500D01*
X78068646Y30556500D01*
X78042967Y30556500D01*
X78035927Y30556830D01*
X78035925Y30556770D01*
X78032850Y30556905D01*
X78032847Y30556905D01*
X77977854Y30556597D01*
X77960926Y30556502D01*
X77960232Y30556500D01*
X77879354Y30556500D01*
X77846897Y30549602D01*
X77694197Y30517145D01*
X77694192Y30517143D01*
X77521270Y30440152D01*
X77521265Y30440149D01*
X77368129Y30328889D01*
X77241466Y30188215D01*
X77146821Y30024285D01*
X77146818Y30024278D01*
X77088327Y29844260D01*
X77088326Y29844256D01*
X77068540Y29656000D01*
X58284112Y29656000D01*
X58274807Y29660143D01*
X58274802Y29660145D01*
X58129001Y29691135D01*
X58089646Y29699500D01*
X58089645Y29699500D01*
X58013213Y29699500D01*
X57999396Y29700272D01*
X57984968Y29701890D01*
X57967219Y29703880D01*
X57967218Y29703880D01*
X57966683Y29703940D01*
X57902254Y29730972D01*
X57862668Y29788546D01*
X57856500Y29827168D01*
X57856500Y32248599D01*
X87518746Y32248599D01*
X87528745Y32038673D01*
X87578296Y31834422D01*
X87578298Y31834418D01*
X87665598Y31643257D01*
X87665601Y31643252D01*
X87665602Y31643250D01*
X87665604Y31643247D01*
X87735275Y31545408D01*
X87787515Y31472047D01*
X87787520Y31472041D01*
X87939620Y31327015D01*
X88034578Y31265989D01*
X88116428Y31213387D01*
X88311543Y31135275D01*
X88414729Y31115388D01*
X88517914Y31095500D01*
X88517915Y31095500D01*
X89475419Y31095500D01*
X89475425Y31095500D01*
X89632218Y31110472D01*
X89833875Y31169684D01*
X90020682Y31265989D01*
X90185886Y31395908D01*
X90323519Y31554744D01*
X90358764Y31615789D01*
X90428601Y31736751D01*
X90428600Y31736751D01*
X90428604Y31736756D01*
X90497344Y31935367D01*
X90527254Y32143398D01*
X90517254Y32353330D01*
X90467704Y32557576D01*
X90467701Y32557583D01*
X90380401Y32748744D01*
X90380398Y32748749D01*
X90380397Y32748750D01*
X90380396Y32748753D01*
X90258486Y32919952D01*
X90258484Y32919954D01*
X90258479Y32919960D01*
X90106379Y33064986D01*
X89929574Y33178612D01*
X89734455Y33256726D01*
X89528086Y33296500D01*
X89528085Y33296500D01*
X88570575Y33296500D01*
X88413782Y33281528D01*
X88413778Y33281527D01*
X88212127Y33222317D01*
X88025313Y33126009D01*
X87860116Y32996095D01*
X87860112Y32996091D01*
X87722478Y32837254D01*
X87617398Y32655250D01*
X87548656Y32456635D01*
X87548656Y32456633D01*
X87533109Y32348495D01*
X87518746Y32248599D01*
X57856500Y32248599D01*
X57856500Y33858036D01*
X57876185Y33925075D01*
X57890815Y33943666D01*
X58207319Y34275158D01*
X58231894Y34295056D01*
X58337656Y34360288D01*
X58431319Y34453951D01*
X58492642Y34487436D01*
X58562334Y34482452D01*
X58606681Y34453951D01*
X58700344Y34360288D01*
X58849666Y34268186D01*
X59016203Y34213001D01*
X59118991Y34202500D01*
X59919008Y34202501D01*
X59919016Y34202502D01*
X59919019Y34202502D01*
X59975302Y34208252D01*
X60021797Y34213001D01*
X60188334Y34268186D01*
X60337656Y34360288D01*
X60358905Y34381538D01*
X60388161Y34403229D01*
X60671322Y34554460D01*
X60739728Y34568678D01*
X60752574Y34566959D01*
X60916755Y34536176D01*
X60919645Y34535597D01*
X61075354Y34502500D01*
X61101044Y34502500D01*
X61107917Y34502178D01*
X61107921Y34502248D01*
X61110970Y34502114D01*
X61110983Y34502112D01*
X61110995Y34502113D01*
X61110997Y34502112D01*
X61182016Y34502498D01*
X61182690Y34502500D01*
X61264644Y34502500D01*
X61264646Y34502500D01*
X61449803Y34541856D01*
X61622730Y34618849D01*
X61775871Y34730112D01*
X61902533Y34870784D01*
X61997179Y35034716D01*
X62055674Y35214744D01*
X62075460Y35403000D01*
X62055674Y35591256D01*
X61997179Y35771284D01*
X61902533Y35935216D01*
X61775871Y36075888D01*
X61775870Y36075889D01*
X61622734Y36187149D01*
X61622729Y36187152D01*
X61449807Y36264143D01*
X61449802Y36264145D01*
X61304001Y36295135D01*
X61264646Y36303500D01*
X61075354Y36303500D01*
X60919675Y36270411D01*
X60916766Y36269829D01*
X60752589Y36239046D01*
X60683070Y36246039D01*
X60671320Y36251544D01*
X60388161Y36402774D01*
X60358897Y36424471D01*
X60337657Y36445711D01*
X60337656Y36445712D01*
X60188334Y36537814D01*
X60021797Y36592999D01*
X60021795Y36593000D01*
X59919010Y36603500D01*
X59118998Y36603500D01*
X59118980Y36603499D01*
X59016203Y36593000D01*
X59016200Y36592999D01*
X58849668Y36537815D01*
X58849663Y36537813D01*
X58700342Y36445711D01*
X58606681Y36352049D01*
X58545358Y36318564D01*
X58475666Y36323548D01*
X58431319Y36352049D01*
X58337657Y36445711D01*
X58337656Y36445712D01*
X58188334Y36537814D01*
X58021797Y36592999D01*
X58021795Y36593000D01*
X57919010Y36603500D01*
X57118998Y36603500D01*
X57118980Y36603499D01*
X57016203Y36593000D01*
X57016200Y36592999D01*
X56849668Y36537815D01*
X56849663Y36537813D01*
X56700342Y36445711D01*
X56576289Y36321658D01*
X56484187Y36172337D01*
X56484186Y36172334D01*
X56429001Y36005797D01*
X56429001Y36005796D01*
X56429000Y36005796D01*
X56418500Y35903017D01*
X56418500Y35546105D01*
X56416308Y35522890D01*
X56413429Y35507784D01*
X56413428Y35507776D01*
X56403280Y35285118D01*
X56397359Y35255499D01*
X56397620Y35255437D01*
X56396328Y35249991D01*
X56396163Y35249519D01*
X56395931Y35248354D01*
X56393491Y35241650D01*
X56393435Y35241671D01*
X56390960Y35234550D01*
X56391015Y35234531D01*
X56388743Y35227675D01*
X56373573Y35154212D01*
X56372793Y35150696D01*
X56355499Y35077721D01*
X56354661Y35070546D01*
X56354601Y35070553D01*
X56353835Y35063055D01*
X56353895Y35063049D01*
X56353265Y35055860D01*
X56355448Y34980872D01*
X56355500Y34977265D01*
X56355500Y34239562D01*
X56355371Y34233916D01*
X56351582Y34150800D01*
X56351186Y34139172D01*
X56351173Y34138617D01*
X56351174Y34138610D01*
X56351174Y34138609D01*
X56353426Y34085408D01*
X56353944Y34073188D01*
X56354179Y34071593D01*
X56355500Y34053539D01*
X56355500Y29243706D01*
X56354191Y29225737D01*
X56350710Y29201975D01*
X4650500Y29201975D01*
X4650500Y30934954D01*
X4635368Y31069255D01*
X4575789Y31239522D01*
X4479816Y31392262D01*
X4352262Y31519816D01*
X4311523Y31545414D01*
X4199523Y31615789D01*
X4029254Y31675369D01*
X4029249Y31675370D01*
X3894960Y31690500D01*
X3894954Y31690500D01*
X2105046Y31690500D01*
X2105039Y31690500D01*
X1970750Y31675370D01*
X1970745Y31675369D01*
X1800476Y31615789D01*
X1647737Y31519816D01*
X1520184Y31392263D01*
X1424211Y31239524D01*
X1364633Y31069258D01*
X1364630Y31069250D01*
X1349500Y30934961D01*
X1349500Y29145040D01*
X1012000Y29145040D01*
X1012000Y37472000D01*
X60198540Y37472000D01*
X60218326Y37283744D01*
X60218327Y37283741D01*
X60276818Y37103723D01*
X60276821Y37103716D01*
X60371467Y36939784D01*
X60463965Y36837055D01*
X60498129Y36799112D01*
X60651265Y36687852D01*
X60651270Y36687849D01*
X60824192Y36610858D01*
X60824197Y36610856D01*
X61009354Y36571500D01*
X61009355Y36571500D01*
X61198644Y36571500D01*
X61198646Y36571500D01*
X61383803Y36610856D01*
X61556730Y36687849D01*
X61709871Y36799112D01*
X61836533Y36939784D01*
X61931179Y37103716D01*
X61931182Y37103728D01*
X61933819Y37109648D01*
X61933974Y37109579D01*
X61937235Y37117192D01*
X61937124Y37117242D01*
X61938944Y37121276D01*
X61938948Y37121281D01*
X62177318Y37649403D01*
X62202651Y37686062D01*
X62400773Y37884184D01*
X62462096Y37917666D01*
X62488453Y37920500D01*
X68011548Y37920500D01*
X68078587Y37900815D01*
X68099229Y37884181D01*
X68676181Y37307229D01*
X68709666Y37245906D01*
X68712500Y37219548D01*
X68712500Y36850745D01*
X68710775Y36835128D01*
X68711061Y36835101D01*
X68710326Y36827335D01*
X68712439Y36760128D01*
X68712500Y36756233D01*
X68712500Y36728643D01*
X68713003Y36724665D01*
X68713918Y36713033D01*
X68715290Y36669376D01*
X68715291Y36669373D01*
X68720880Y36650133D01*
X68724824Y36631089D01*
X68727336Y36611208D01*
X68743414Y36570597D01*
X68747197Y36559548D01*
X68753511Y36537815D01*
X68759382Y36517610D01*
X68763779Y36510174D01*
X68769580Y36500366D01*
X68778138Y36482897D01*
X68785514Y36464268D01*
X68811181Y36428940D01*
X68817593Y36419179D01*
X68839828Y36381583D01*
X68839833Y36381576D01*
X68853990Y36367420D01*
X68866628Y36352624D01*
X68878405Y36336414D01*
X68878406Y36336413D01*
X68912057Y36308575D01*
X68920698Y36300712D01*
X69198584Y36022826D01*
X69210849Y36007863D01*
X69210999Y36007978D01*
X69213711Y36004478D01*
X69507729Y35625003D01*
X69606290Y35497796D01*
X69615646Y35483864D01*
X69621467Y35473784D01*
X69621470Y35473781D01*
X69621471Y35473779D01*
X69642979Y35449891D01*
X69648846Y35442870D01*
X69663453Y35424018D01*
X69683469Y35399781D01*
X69684420Y35398700D01*
X69684423Y35398697D01*
X69706754Y35377254D01*
X69715547Y35368810D01*
X69721811Y35362341D01*
X69748129Y35333112D01*
X69901265Y35221852D01*
X69901270Y35221849D01*
X70074192Y35144858D01*
X70074197Y35144856D01*
X70259354Y35105500D01*
X70259355Y35105500D01*
X70448644Y35105500D01*
X70448646Y35105500D01*
X70633803Y35144856D01*
X70806730Y35221849D01*
X70959871Y35333112D01*
X71086533Y35473784D01*
X71173837Y35625000D01*
X82656540Y35625000D01*
X82676326Y35436744D01*
X82676327Y35436741D01*
X82734818Y35256723D01*
X82734821Y35256716D01*
X82829467Y35092784D01*
X82891369Y35024035D01*
X82956129Y34952112D01*
X83109265Y34840852D01*
X83109270Y34840849D01*
X83282192Y34763858D01*
X83282197Y34763856D01*
X83467354Y34724500D01*
X83467355Y34724500D01*
X83656644Y34724500D01*
X83656646Y34724500D01*
X83841803Y34763856D01*
X84014730Y34840849D01*
X84167871Y34952112D01*
X84294533Y35092784D01*
X84389179Y35256716D01*
X84447674Y35436744D01*
X84467460Y35625000D01*
X84942540Y35625000D01*
X84962326Y35436744D01*
X84962327Y35436741D01*
X85020818Y35256723D01*
X85020821Y35256716D01*
X85115467Y35092784D01*
X85177369Y35024035D01*
X85242129Y34952112D01*
X85395265Y34840852D01*
X85395270Y34840849D01*
X85568192Y34763858D01*
X85568197Y34763856D01*
X85753354Y34724500D01*
X85753355Y34724500D01*
X85942644Y34724500D01*
X85942646Y34724500D01*
X86127803Y34763856D01*
X86183376Y34788599D01*
X87518746Y34788599D01*
X87528745Y34578673D01*
X87578296Y34374422D01*
X87578298Y34374418D01*
X87665598Y34183257D01*
X87665601Y34183252D01*
X87665602Y34183250D01*
X87665604Y34183247D01*
X87787514Y34012048D01*
X87787515Y34012047D01*
X87787520Y34012041D01*
X87939620Y33867015D01*
X88034578Y33805989D01*
X88116428Y33753387D01*
X88311543Y33675275D01*
X88414729Y33655388D01*
X88517914Y33635500D01*
X88517915Y33635500D01*
X89475419Y33635500D01*
X89475425Y33635500D01*
X89632218Y33650472D01*
X89833875Y33709684D01*
X90020682Y33805989D01*
X90185886Y33935908D01*
X90323519Y34094744D01*
X90391796Y34213002D01*
X90428601Y34276751D01*
X90428600Y34276751D01*
X90428604Y34276756D01*
X90497344Y34475367D01*
X90527254Y34683398D01*
X90522243Y34788599D01*
X110378746Y34788599D01*
X110388745Y34578673D01*
X110438296Y34374422D01*
X110438298Y34374418D01*
X110525598Y34183257D01*
X110525601Y34183252D01*
X110525602Y34183250D01*
X110525604Y34183247D01*
X110647514Y34012048D01*
X110647515Y34012047D01*
X110647520Y34012041D01*
X110799620Y33867015D01*
X110894578Y33805989D01*
X110976428Y33753387D01*
X111171543Y33675275D01*
X111274729Y33655388D01*
X111377914Y33635500D01*
X111377915Y33635500D01*
X112335419Y33635500D01*
X112335425Y33635500D01*
X112492218Y33650472D01*
X112693875Y33709684D01*
X112880682Y33805989D01*
X113045886Y33935908D01*
X113183519Y34094744D01*
X113251796Y34213002D01*
X113288601Y34276751D01*
X113288600Y34276751D01*
X113288604Y34276756D01*
X113357344Y34475367D01*
X113387254Y34683398D01*
X113377254Y34893330D01*
X113327704Y35097576D01*
X113324085Y35105500D01*
X113240401Y35288744D01*
X113240398Y35288749D01*
X113240397Y35288750D01*
X113240396Y35288753D01*
X113118486Y35459952D01*
X113118484Y35459954D01*
X113118479Y35459960D01*
X112966379Y35604986D01*
X112789574Y35718612D01*
X112767340Y35727513D01*
X112594457Y35796725D01*
X112594455Y35796726D01*
X112388086Y35836500D01*
X112388085Y35836500D01*
X111430575Y35836500D01*
X111273782Y35821528D01*
X111273778Y35821527D01*
X111072127Y35762317D01*
X110885313Y35666009D01*
X110720116Y35536095D01*
X110720112Y35536091D01*
X110582478Y35377254D01*
X110477398Y35195250D01*
X110408656Y34996635D01*
X110408656Y34996633D01*
X110386259Y34840852D01*
X110378746Y34788599D01*
X90522243Y34788599D01*
X90517254Y34893330D01*
X90467704Y35097576D01*
X90464085Y35105500D01*
X90380401Y35288744D01*
X90380398Y35288749D01*
X90380397Y35288750D01*
X90380396Y35288753D01*
X90258486Y35459952D01*
X90258484Y35459954D01*
X90258479Y35459960D01*
X90106379Y35604986D01*
X89929574Y35718612D01*
X89907340Y35727513D01*
X89734457Y35796725D01*
X89734455Y35796726D01*
X89528086Y35836500D01*
X89528085Y35836500D01*
X88570575Y35836500D01*
X88413782Y35821528D01*
X88413778Y35821527D01*
X88212127Y35762317D01*
X88025313Y35666009D01*
X87860116Y35536095D01*
X87860112Y35536091D01*
X87722478Y35377254D01*
X87617398Y35195250D01*
X87548656Y34996635D01*
X87548656Y34996633D01*
X87526259Y34840852D01*
X87518746Y34788599D01*
X86183376Y34788599D01*
X86300730Y34840849D01*
X86453871Y34952112D01*
X86580533Y35092784D01*
X86675179Y35256716D01*
X86733674Y35436744D01*
X86753460Y35625000D01*
X86742685Y35727513D01*
X86742551Y35729345D01*
X86741890Y35735125D01*
X86741781Y35736108D01*
X86733674Y35813256D01*
X86732216Y35817744D01*
X86720388Y35854145D01*
X86716444Y35869603D01*
X86600624Y36487325D01*
X86598500Y36510174D01*
X86598500Y37328599D01*
X87518746Y37328599D01*
X87528745Y37118673D01*
X87578296Y36914422D01*
X87578298Y36914418D01*
X87665598Y36723257D01*
X87665601Y36723252D01*
X87665602Y36723250D01*
X87665604Y36723247D01*
X87787514Y36552048D01*
X87787515Y36552047D01*
X87787520Y36552041D01*
X87939620Y36407015D01*
X88034578Y36345989D01*
X88116428Y36293387D01*
X88311543Y36215275D01*
X88414729Y36195388D01*
X88517914Y36175500D01*
X88517915Y36175500D01*
X89475419Y36175500D01*
X89475425Y36175500D01*
X89632218Y36190472D01*
X89833875Y36249684D01*
X90020682Y36345989D01*
X90039155Y36360516D01*
X90113750Y36419179D01*
X90185886Y36475908D01*
X90323519Y36634744D01*
X90326997Y36640767D01*
X90413242Y36790149D01*
X90428604Y36816756D01*
X90497344Y37015367D01*
X90527254Y37223398D01*
X90522243Y37328599D01*
X110378746Y37328599D01*
X110388745Y37118673D01*
X110438296Y36914422D01*
X110438298Y36914418D01*
X110525598Y36723257D01*
X110525601Y36723252D01*
X110525602Y36723250D01*
X110525604Y36723247D01*
X110647514Y36552048D01*
X110647515Y36552047D01*
X110647520Y36552041D01*
X110799620Y36407015D01*
X110894578Y36345989D01*
X110976428Y36293387D01*
X111171543Y36215275D01*
X111274729Y36195388D01*
X111377914Y36175500D01*
X111377915Y36175500D01*
X112335419Y36175500D01*
X112335425Y36175500D01*
X112492218Y36190472D01*
X112693875Y36249684D01*
X112880682Y36345989D01*
X112899155Y36360516D01*
X112973750Y36419179D01*
X113045886Y36475908D01*
X113183519Y36634744D01*
X113186997Y36640767D01*
X113273242Y36790149D01*
X113288604Y36816756D01*
X113357344Y37015367D01*
X113387254Y37223398D01*
X113377254Y37433330D01*
X113327704Y37637576D01*
X113322305Y37649399D01*
X113240401Y37828744D01*
X113240398Y37828749D01*
X113240397Y37828750D01*
X113240396Y37828753D01*
X113118486Y37999952D01*
X113118484Y37999954D01*
X113118479Y37999960D01*
X112966379Y38144986D01*
X112789574Y38258612D01*
X112737348Y38279520D01*
X112594457Y38336725D01*
X112594455Y38336726D01*
X112388086Y38376500D01*
X112388085Y38376500D01*
X111430575Y38376500D01*
X111273782Y38361528D01*
X111273778Y38361527D01*
X111072127Y38302317D01*
X110885313Y38206009D01*
X110720116Y38076095D01*
X110720112Y38076091D01*
X110582478Y37917254D01*
X110477398Y37735250D01*
X110408656Y37536635D01*
X110408656Y37536633D01*
X110393804Y37433330D01*
X110378746Y37328599D01*
X90522243Y37328599D01*
X90517254Y37433330D01*
X90467704Y37637576D01*
X90462305Y37649399D01*
X90380401Y37828744D01*
X90380398Y37828749D01*
X90380397Y37828750D01*
X90380396Y37828753D01*
X90258486Y37999952D01*
X90258484Y37999954D01*
X90258479Y37999960D01*
X90106379Y38144986D01*
X89929574Y38258612D01*
X89877348Y38279520D01*
X89734457Y38336725D01*
X89734455Y38336726D01*
X89528086Y38376500D01*
X89528085Y38376500D01*
X88570575Y38376500D01*
X88413782Y38361528D01*
X88413778Y38361527D01*
X88212127Y38302317D01*
X88025313Y38206009D01*
X87860116Y38076095D01*
X87860112Y38076091D01*
X87722478Y37917254D01*
X87617398Y37735250D01*
X87548656Y37536635D01*
X87548656Y37536633D01*
X87533804Y37433330D01*
X87518746Y37328599D01*
X86598500Y37328599D01*
X86598500Y38041827D01*
X86600624Y38064678D01*
X86642177Y38286295D01*
X86716443Y38682391D01*
X86720388Y38697856D01*
X86720391Y38697866D01*
X86733674Y38738744D01*
X86741889Y38816920D01*
X86742415Y38821198D01*
X86744805Y38838212D01*
X86748688Y38865857D01*
X86748690Y38865884D01*
X86748693Y38865903D01*
X86748887Y38867966D01*
X86748887Y38867974D01*
X86748888Y38867984D01*
X86748844Y38875903D01*
X86749521Y38889532D01*
X86753460Y38927000D01*
X86733674Y39115256D01*
X86675179Y39295284D01*
X86580533Y39459216D01*
X86453871Y39599888D01*
X86453870Y39599889D01*
X86300734Y39711149D01*
X86300729Y39711152D01*
X86127807Y39788143D01*
X86127802Y39788145D01*
X85980368Y39819482D01*
X85942646Y39827500D01*
X85753354Y39827500D01*
X85720897Y39820602D01*
X85568197Y39788145D01*
X85568192Y39788143D01*
X85395270Y39711152D01*
X85395265Y39711149D01*
X85242129Y39599889D01*
X85115466Y39459215D01*
X85020821Y39295285D01*
X85020818Y39295278D01*
X84969408Y39137053D01*
X84962326Y39115256D01*
X84959701Y39090278D01*
X84942540Y38927000D01*
X84953328Y38824350D01*
X84953463Y38822523D01*
X84954108Y38816875D01*
X84954227Y38815783D01*
X84962325Y38738751D01*
X84962327Y38738740D01*
X84975608Y38697866D01*
X84979553Y38682400D01*
X85080336Y38144888D01*
X85095376Y38064678D01*
X85097500Y38041826D01*
X85097500Y36510177D01*
X85095376Y36487325D01*
X84979552Y35869600D01*
X84975608Y35854137D01*
X84962325Y35813255D01*
X84954106Y35735065D01*
X84953581Y35730790D01*
X84950730Y35710489D01*
X84947310Y35686138D01*
X84947309Y35686132D01*
X84947111Y35684023D01*
X84947110Y35683999D01*
X84947153Y35676085D01*
X84946476Y35662462D01*
X84943877Y35637723D01*
X84942540Y35625000D01*
X84467460Y35625000D01*
X84456685Y35727513D01*
X84456551Y35729345D01*
X84455890Y35735125D01*
X84455781Y35736108D01*
X84447674Y35813256D01*
X84446216Y35817744D01*
X84434388Y35854145D01*
X84430444Y35869603D01*
X84314624Y36487325D01*
X84312500Y36510174D01*
X84312500Y38041827D01*
X84314624Y38064678D01*
X84356177Y38286295D01*
X84430443Y38682391D01*
X84434388Y38697856D01*
X84434391Y38697866D01*
X84447674Y38738744D01*
X84455889Y38816920D01*
X84456415Y38821198D01*
X84458805Y38838212D01*
X84462688Y38865857D01*
X84462690Y38865884D01*
X84462693Y38865903D01*
X84462887Y38867966D01*
X84462887Y38867974D01*
X84462888Y38867984D01*
X84462844Y38875903D01*
X84463521Y38889532D01*
X84467460Y38927000D01*
X84447674Y39115256D01*
X84389179Y39295284D01*
X84294533Y39459216D01*
X84167871Y39599888D01*
X84167870Y39599889D01*
X84014734Y39711149D01*
X84014729Y39711152D01*
X83841807Y39788143D01*
X83841802Y39788145D01*
X83694368Y39819482D01*
X83656646Y39827500D01*
X83467354Y39827500D01*
X83434897Y39820602D01*
X83282197Y39788145D01*
X83282192Y39788143D01*
X83109270Y39711152D01*
X83109265Y39711149D01*
X82956129Y39599889D01*
X82829466Y39459215D01*
X82734821Y39295285D01*
X82734818Y39295278D01*
X82683408Y39137053D01*
X82676326Y39115256D01*
X82673701Y39090278D01*
X82656540Y38927000D01*
X82667328Y38824350D01*
X82667463Y38822523D01*
X82668108Y38816875D01*
X82668227Y38815783D01*
X82676325Y38738751D01*
X82676327Y38738740D01*
X82689608Y38697866D01*
X82693553Y38682400D01*
X82794336Y38144888D01*
X82809376Y38064678D01*
X82811500Y38041826D01*
X82811500Y36510177D01*
X82809376Y36487325D01*
X82693552Y35869600D01*
X82689608Y35854137D01*
X82676325Y35813255D01*
X82668106Y35735065D01*
X82667581Y35730790D01*
X82664730Y35710489D01*
X82661310Y35686138D01*
X82661309Y35686132D01*
X82661111Y35684023D01*
X82661110Y35683999D01*
X82661153Y35676085D01*
X82660476Y35662462D01*
X82657877Y35637723D01*
X82656540Y35625000D01*
X71173837Y35625000D01*
X71181179Y35637716D01*
X71239674Y35817744D01*
X71259460Y36006000D01*
X71239674Y36194256D01*
X71181179Y36374284D01*
X71086533Y36538216D01*
X70959871Y36678888D01*
X70959870Y36678889D01*
X70806734Y36790149D01*
X70806729Y36790152D01*
X70633807Y36867143D01*
X70633802Y36867145D01*
X70488001Y36898135D01*
X70448646Y36906500D01*
X70448645Y36906500D01*
X70435659Y36906500D01*
X70415698Y36908117D01*
X70067539Y36964904D01*
X70004542Y36995124D01*
X69967884Y37054605D01*
X69963500Y37087287D01*
X69963500Y37447258D01*
X69965224Y37462878D01*
X69964939Y37462904D01*
X69965671Y37470660D01*
X69965673Y37470667D01*
X69963561Y37537874D01*
X69963500Y37541769D01*
X69963500Y37569346D01*
X69963500Y37569350D01*
X69962996Y37573335D01*
X69962080Y37584979D01*
X69960709Y37628627D01*
X69955122Y37647856D01*
X69951174Y37666916D01*
X69948663Y37686796D01*
X69932588Y37727396D01*
X69928805Y37738443D01*
X69926815Y37745291D01*
X69922339Y37760698D01*
X69922535Y37830565D01*
X69960475Y37889236D01*
X69990970Y37908571D01*
X70056730Y37937849D01*
X70209871Y38049112D01*
X70336533Y38189784D01*
X70431179Y38353716D01*
X70489674Y38533744D01*
X70509460Y38722000D01*
X70489674Y38910256D01*
X70431179Y39090284D01*
X70336533Y39254216D01*
X70209871Y39394888D01*
X70148077Y39439784D01*
X70056730Y39506152D01*
X69941264Y39557561D01*
X69935243Y39560438D01*
X69909080Y39573817D01*
X69909079Y39573818D01*
X69895554Y39578449D01*
X69885307Y39582475D01*
X69883803Y39583144D01*
X69883801Y39583145D01*
X69883791Y39583149D01*
X69880996Y39584057D01*
X69871554Y39586668D01*
X69515687Y39708530D01*
X69481904Y39728868D01*
X69480894Y39727476D01*
X69474584Y39732060D01*
X69474582Y39732062D01*
X69457029Y39741712D01*
X69440763Y39752396D01*
X69424932Y39764676D01*
X69384849Y39782022D01*
X69374363Y39787159D01*
X69336094Y39808197D01*
X69336092Y39808198D01*
X69316693Y39813178D01*
X69298281Y39819482D01*
X69279898Y39827438D01*
X69279892Y39827440D01*
X69236760Y39834271D01*
X69225322Y39836639D01*
X69183020Y39847500D01*
X69183019Y39847500D01*
X69162984Y39847500D01*
X69143586Y39849027D01*
X69136162Y39850203D01*
X69123805Y39852160D01*
X69123804Y39852160D01*
X69080325Y39848050D01*
X69068656Y39847500D01*
X62233520Y39847500D01*
X62166481Y39867185D01*
X62120726Y39919989D01*
X62120499Y39920487D01*
X62012277Y40160256D01*
X61938948Y40322720D01*
X61938944Y40322728D01*
X61938936Y40322745D01*
X61937555Y40325469D01*
X61933877Y40334374D01*
X61933821Y40334348D01*
X61931182Y40340274D01*
X61931179Y40340284D01*
X61923579Y40353448D01*
X61920369Y40359374D01*
X61918316Y40363424D01*
X61915207Y40368349D01*
X61915356Y40368444D01*
X61912198Y40373161D01*
X61836534Y40504215D01*
X61709870Y40644889D01*
X61556734Y40756149D01*
X61556729Y40756152D01*
X61383807Y40833143D01*
X61383802Y40833145D01*
X61238001Y40864135D01*
X61198646Y40872500D01*
X61009354Y40872500D01*
X60976897Y40865602D01*
X60824197Y40833145D01*
X60824192Y40833143D01*
X60651270Y40756152D01*
X60651265Y40756149D01*
X60498129Y40644889D01*
X60371466Y40504215D01*
X60276821Y40340285D01*
X60276818Y40340278D01*
X60218327Y40160260D01*
X60218326Y40160256D01*
X60198540Y39972000D01*
X60218326Y39783744D01*
X60218327Y39783741D01*
X60276818Y39603723D01*
X60276821Y39603716D01*
X60371467Y39439784D01*
X60411891Y39394889D01*
X60498129Y39299112D01*
X60651265Y39187852D01*
X60651267Y39187851D01*
X60651270Y39187849D01*
X60694013Y39168819D01*
X60716757Y39158692D01*
X60732898Y39150023D01*
X60753272Y39137057D01*
X60753280Y39137052D01*
X61281399Y38898682D01*
X61318066Y38873343D01*
X61353197Y38838212D01*
X61363022Y38825949D01*
X61363243Y38826131D01*
X61368213Y38820123D01*
X61377724Y38811192D01*
X61413121Y38750952D01*
X61410330Y38681138D01*
X61380524Y38633117D01*
X61318070Y38570663D01*
X61281402Y38545323D01*
X60753269Y38306945D01*
X60712536Y38286295D01*
X60707610Y38283184D01*
X60707294Y38283684D01*
X60690200Y38273485D01*
X60651271Y38256153D01*
X60651267Y38256151D01*
X60498129Y38144889D01*
X60371466Y38004215D01*
X60276821Y37840285D01*
X60276818Y37840278D01*
X60221507Y37670046D01*
X60218326Y37660256D01*
X60198540Y37472000D01*
X1012000Y37472000D01*
X1012000Y42408599D01*
X87518746Y42408599D01*
X87528745Y42198673D01*
X87578296Y41994422D01*
X87578298Y41994418D01*
X87665598Y41803257D01*
X87665601Y41803252D01*
X87665602Y41803250D01*
X87665604Y41803247D01*
X87728627Y41714744D01*
X87787515Y41632047D01*
X87787520Y41632041D01*
X87939620Y41487015D01*
X88034578Y41425989D01*
X88116428Y41373387D01*
X88311543Y41295275D01*
X88414729Y41275388D01*
X88517914Y41255500D01*
X88517915Y41255500D01*
X89475419Y41255500D01*
X89475425Y41255500D01*
X89632218Y41270472D01*
X89833875Y41329684D01*
X90020682Y41425989D01*
X90185886Y41555908D01*
X90323519Y41714744D01*
X90428604Y41896756D01*
X90497344Y42095367D01*
X90527254Y42303398D01*
X90522243Y42408599D01*
X110378746Y42408599D01*
X110388745Y42198673D01*
X110438296Y41994422D01*
X110438298Y41994418D01*
X110525598Y41803257D01*
X110525601Y41803252D01*
X110525602Y41803250D01*
X110525604Y41803247D01*
X110588627Y41714744D01*
X110647515Y41632047D01*
X110647520Y41632041D01*
X110799620Y41487015D01*
X110894578Y41425989D01*
X110976428Y41373387D01*
X111171543Y41295275D01*
X111274729Y41275388D01*
X111377914Y41255500D01*
X111377915Y41255500D01*
X112335419Y41255500D01*
X112335425Y41255500D01*
X112492218Y41270472D01*
X112693875Y41329684D01*
X112880682Y41425989D01*
X113045886Y41555908D01*
X113183519Y41714744D01*
X113288604Y41896756D01*
X113357344Y42095367D01*
X113387254Y42303398D01*
X113377254Y42513330D01*
X113327704Y42717576D01*
X113327701Y42717583D01*
X113240401Y42908744D01*
X113240398Y42908749D01*
X113240397Y42908750D01*
X113240396Y42908753D01*
X113118486Y43079952D01*
X113118484Y43079954D01*
X113118479Y43079960D01*
X112966379Y43224986D01*
X112789574Y43338612D01*
X112594455Y43416726D01*
X112388086Y43456500D01*
X112388085Y43456500D01*
X111430575Y43456500D01*
X111273782Y43441528D01*
X111273778Y43441527D01*
X111072127Y43382317D01*
X110885313Y43286009D01*
X110720116Y43156095D01*
X110720112Y43156091D01*
X110582478Y42997254D01*
X110477398Y42815250D01*
X110408656Y42616635D01*
X110408656Y42616633D01*
X110393804Y42513330D01*
X110378746Y42408599D01*
X90522243Y42408599D01*
X90517254Y42513330D01*
X90467704Y42717576D01*
X90467701Y42717583D01*
X90380401Y42908744D01*
X90380398Y42908749D01*
X90380397Y42908750D01*
X90380396Y42908753D01*
X90258486Y43079952D01*
X90258484Y43079954D01*
X90258479Y43079960D01*
X90106379Y43224986D01*
X89929574Y43338612D01*
X89734455Y43416726D01*
X89528086Y43456500D01*
X89528085Y43456500D01*
X88570575Y43456500D01*
X88413782Y43441528D01*
X88413778Y43441527D01*
X88212127Y43382317D01*
X88025313Y43286009D01*
X87860116Y43156095D01*
X87860112Y43156091D01*
X87722478Y42997254D01*
X87617398Y42815250D01*
X87548656Y42616635D01*
X87548656Y42616633D01*
X87533804Y42513330D01*
X87518746Y42408599D01*
X1012000Y42408599D01*
X1012000Y49000000D01*
X2294422Y49000000D01*
X2314722Y48612661D01*
X2375397Y48229573D01*
X2375397Y48229571D01*
X2475788Y47854906D01*
X2614787Y47492803D01*
X2790877Y47147207D01*
X3002122Y46821918D01*
X3002124Y46821916D01*
X3246219Y46520484D01*
X3520484Y46246219D01*
X3520488Y46246216D01*
X3821917Y46002123D01*
X4147206Y45790878D01*
X4147211Y45790875D01*
X4492806Y45614786D01*
X4854913Y45475786D01*
X5229567Y45375398D01*
X5612662Y45314722D01*
X5978576Y45295545D01*
X5999999Y45294422D01*
X6000000Y45294422D01*
X6000001Y45294422D01*
X6020301Y45295486D01*
X6387338Y45314722D01*
X6770433Y45375398D01*
X7145087Y45475786D01*
X7507194Y45614786D01*
X7852789Y45790875D01*
X8178084Y46002124D01*
X8479516Y46246219D01*
X8753781Y46520484D01*
X8997876Y46821916D01*
X9209125Y47147211D01*
X9385214Y47492806D01*
X9524214Y47854913D01*
X9624602Y48229567D01*
X9627837Y48249992D01*
X57129500Y48249992D01*
X57131512Y48229567D01*
X57144699Y48095668D01*
X57144700Y48095666D01*
X57204768Y47897646D01*
X57302315Y47715150D01*
X57302317Y47715148D01*
X57433589Y47555190D01*
X57509609Y47492803D01*
X57593550Y47423915D01*
X57776046Y47326368D01*
X57974066Y47266300D01*
X57974065Y47266300D01*
X57992529Y47264482D01*
X58180000Y47246017D01*
X58385934Y47266300D01*
X58583954Y47326368D01*
X58766450Y47423915D01*
X58926410Y47555190D01*
X59057685Y47715150D01*
X59155232Y47897646D01*
X59215300Y48095666D01*
X59230500Y48249992D01*
X65769500Y48249992D01*
X65771512Y48229567D01*
X65784699Y48095668D01*
X65784700Y48095666D01*
X65844768Y47897646D01*
X65942315Y47715150D01*
X65942317Y47715148D01*
X66073589Y47555190D01*
X66149609Y47492803D01*
X66233550Y47423915D01*
X66416046Y47326368D01*
X66614066Y47266300D01*
X66614065Y47266300D01*
X66632529Y47264482D01*
X66820000Y47246017D01*
X67025934Y47266300D01*
X67223954Y47326368D01*
X67406450Y47423915D01*
X67566410Y47555190D01*
X67697685Y47715150D01*
X67795232Y47897646D01*
X67855300Y48095666D01*
X67870500Y48249992D01*
X67870500Y48953208D01*
X67865891Y49000000D01*
X115294422Y49000000D01*
X115314722Y48612661D01*
X115375397Y48229573D01*
X115375397Y48229571D01*
X115475788Y47854906D01*
X115614787Y47492803D01*
X115790877Y47147207D01*
X116002122Y46821918D01*
X116002124Y46821916D01*
X116246219Y46520484D01*
X116520484Y46246219D01*
X116520488Y46246216D01*
X116821917Y46002123D01*
X117147206Y45790878D01*
X117147211Y45790875D01*
X117492806Y45614786D01*
X117854913Y45475786D01*
X118229567Y45375398D01*
X118612662Y45314722D01*
X118978576Y45295545D01*
X118999999Y45294422D01*
X119000000Y45294422D01*
X119000001Y45294422D01*
X119020301Y45295486D01*
X119387338Y45314722D01*
X119770433Y45375398D01*
X120145087Y45475786D01*
X120507194Y45614786D01*
X120852789Y45790875D01*
X121178084Y46002124D01*
X121479516Y46246219D01*
X121753781Y46520484D01*
X121997876Y46821916D01*
X122209125Y47147211D01*
X122385214Y47492806D01*
X122524214Y47854913D01*
X122624602Y48229567D01*
X122685278Y48612662D01*
X122705578Y49000000D01*
X122685278Y49387338D01*
X122624602Y49770433D01*
X122524214Y50145087D01*
X122385214Y50507194D01*
X122209125Y50852789D01*
X122209122Y50852794D01*
X121997877Y51178083D01*
X121753784Y51479512D01*
X121753781Y51479516D01*
X121479516Y51753781D01*
X121304303Y51895666D01*
X121178082Y51997878D01*
X120852793Y52209123D01*
X120507197Y52385213D01*
X120145094Y52524212D01*
X120145087Y52524214D01*
X119770433Y52624602D01*
X119770429Y52624603D01*
X119770428Y52624603D01*
X119387339Y52685278D01*
X119000001Y52705578D01*
X118999999Y52705578D01*
X118612660Y52685278D01*
X118229572Y52624603D01*
X118229570Y52624603D01*
X117854905Y52524212D01*
X117492802Y52385213D01*
X117147206Y52209123D01*
X116821917Y51997878D01*
X116520488Y51753785D01*
X116520480Y51753778D01*
X116246222Y51479520D01*
X116246215Y51479512D01*
X116002122Y51178083D01*
X115790877Y50852794D01*
X115614787Y50507198D01*
X115475788Y50145095D01*
X115375397Y49770430D01*
X115375397Y49770428D01*
X115314722Y49387340D01*
X115294422Y49000001D01*
X115294422Y49000000D01*
X67865891Y49000000D01*
X67855300Y49107534D01*
X67795232Y49305554D01*
X67697685Y49488050D01*
X67645702Y49551391D01*
X67566410Y49648011D01*
X67406452Y49779283D01*
X67406453Y49779283D01*
X67406450Y49779285D01*
X67223954Y49876832D01*
X67025934Y49936900D01*
X67025932Y49936901D01*
X67025934Y49936901D01*
X66820000Y49957183D01*
X66614067Y49936901D01*
X66416043Y49876831D01*
X66305898Y49817957D01*
X66233550Y49779285D01*
X66233548Y49779284D01*
X66233547Y49779283D01*
X66073589Y49648011D01*
X65942317Y49488053D01*
X65844769Y49305557D01*
X65784699Y49107533D01*
X65774109Y49000001D01*
X65769500Y48953208D01*
X65769500Y48249992D01*
X59230500Y48249992D01*
X59230500Y48953208D01*
X59215300Y49107534D01*
X59155232Y49305554D01*
X59057685Y49488050D01*
X59005702Y49551391D01*
X58926410Y49648011D01*
X58766452Y49779283D01*
X58766453Y49779283D01*
X58766450Y49779285D01*
X58583954Y49876832D01*
X58385934Y49936900D01*
X58385932Y49936901D01*
X58385934Y49936901D01*
X58180000Y49957183D01*
X57974067Y49936901D01*
X57776043Y49876831D01*
X57665898Y49817957D01*
X57593550Y49779285D01*
X57593548Y49779284D01*
X57593547Y49779283D01*
X57433589Y49648011D01*
X57302317Y49488053D01*
X57204769Y49305557D01*
X57144699Y49107533D01*
X57134109Y49000001D01*
X57129500Y48953208D01*
X57129500Y48249992D01*
X9627837Y48249992D01*
X9685278Y48612662D01*
X9705578Y49000000D01*
X9685278Y49387338D01*
X9624602Y49770433D01*
X9524214Y50145087D01*
X9385214Y50507194D01*
X9209125Y50852789D01*
X9209122Y50852794D01*
X8997877Y51178083D01*
X8753784Y51479512D01*
X8753781Y51479516D01*
X8479516Y51753781D01*
X8304303Y51895666D01*
X8178082Y51997878D01*
X8097827Y52049996D01*
X57129500Y52049996D01*
X57144699Y51895668D01*
X57144700Y51895666D01*
X57204768Y51697646D01*
X57302315Y51515150D01*
X57302317Y51515148D01*
X57433589Y51355190D01*
X57530209Y51275898D01*
X57593550Y51223915D01*
X57776046Y51126368D01*
X57974066Y51066300D01*
X57974065Y51066300D01*
X57992529Y51064482D01*
X58180000Y51046017D01*
X58385934Y51066300D01*
X58583954Y51126368D01*
X58766450Y51223915D01*
X58926410Y51355190D01*
X59057685Y51515150D01*
X59155232Y51697646D01*
X59215300Y51895666D01*
X59230500Y52049992D01*
X59230500Y52049996D01*
X65769500Y52049996D01*
X65784699Y51895668D01*
X65784700Y51895666D01*
X65844768Y51697646D01*
X65942315Y51515150D01*
X65942317Y51515148D01*
X66073589Y51355190D01*
X66170209Y51275898D01*
X66233550Y51223915D01*
X66416046Y51126368D01*
X66614066Y51066300D01*
X66614065Y51066300D01*
X66632529Y51064482D01*
X66820000Y51046017D01*
X67025934Y51066300D01*
X67223954Y51126368D01*
X67406450Y51223915D01*
X67566410Y51355190D01*
X67697685Y51515150D01*
X67795232Y51697646D01*
X67855300Y51895666D01*
X67870500Y52049992D01*
X67870500Y52753208D01*
X67855300Y52907534D01*
X67795232Y53105554D01*
X67697685Y53288050D01*
X67645702Y53351391D01*
X67566410Y53448011D01*
X67406452Y53579283D01*
X67406453Y53579283D01*
X67406450Y53579285D01*
X67223954Y53676832D01*
X67025934Y53736900D01*
X67025932Y53736901D01*
X67025934Y53736901D01*
X66820000Y53757183D01*
X66614067Y53736901D01*
X66416043Y53676831D01*
X66305898Y53617957D01*
X66233550Y53579285D01*
X66233548Y53579284D01*
X66233547Y53579283D01*
X66073589Y53448011D01*
X65942317Y53288053D01*
X65844769Y53105557D01*
X65784699Y52907533D01*
X65769500Y52753205D01*
X65769500Y52049996D01*
X59230500Y52049996D01*
X59230500Y52753208D01*
X59215300Y52907534D01*
X59155232Y53105554D01*
X59057685Y53288050D01*
X59005702Y53351391D01*
X58926410Y53448011D01*
X58766452Y53579283D01*
X58766453Y53579283D01*
X58766450Y53579285D01*
X58583954Y53676832D01*
X58385934Y53736900D01*
X58385932Y53736901D01*
X58385934Y53736901D01*
X58180000Y53757183D01*
X57974067Y53736901D01*
X57776043Y53676831D01*
X57665898Y53617957D01*
X57593550Y53579285D01*
X57593548Y53579284D01*
X57593547Y53579283D01*
X57433589Y53448011D01*
X57302317Y53288053D01*
X57204769Y53105557D01*
X57144699Y52907533D01*
X57129500Y52753205D01*
X57129500Y52049996D01*
X8097827Y52049996D01*
X7852793Y52209123D01*
X7507197Y52385213D01*
X7145094Y52524212D01*
X7145087Y52524214D01*
X6770433Y52624602D01*
X6770429Y52624603D01*
X6770428Y52624603D01*
X6387339Y52685278D01*
X6000001Y52705578D01*
X5999999Y52705578D01*
X5612660Y52685278D01*
X5229572Y52624603D01*
X5229570Y52624603D01*
X4854905Y52524212D01*
X4492802Y52385213D01*
X4147206Y52209123D01*
X3821917Y51997878D01*
X3520488Y51753785D01*
X3520480Y51753778D01*
X3246222Y51479520D01*
X3246215Y51479512D01*
X3002122Y51178083D01*
X2790877Y50852794D01*
X2614787Y50507198D01*
X2475788Y50145095D01*
X2375397Y49770430D01*
X2375397Y49770428D01*
X2314722Y49387340D01*
X2294422Y49000001D01*
X2294422Y49000000D01*
X1012000Y49000000D01*
X1012000Y53916000D01*
X1031685Y53983039D01*
X1084489Y54028794D01*
X1136000Y54040000D01*
X123824000Y54040000D01*
X123891039Y54020315D01*
G37*
%TD.AperFunction*%
%TD*%
%TA.AperFunction,Conductor*%
%TO.N,CC2*%
G36*
X83810563Y36421573D02*
G01*
X83813790Y36415456D01*
X83959408Y35638821D01*
X83957564Y35630058D01*
X83950064Y35625165D01*
X83947937Y35624965D01*
X83562029Y35624001D01*
X83561971Y35624001D01*
X83176062Y35624965D01*
X83167797Y35628413D01*
X83164391Y35636694D01*
X83164591Y35638821D01*
X83310210Y36415456D01*
X83315103Y36422956D01*
X83321710Y36425000D01*
X83802290Y36425000D01*
X83810563Y36421573D01*
G37*
%TD.AperFunction*%
%TD*%
%TA.AperFunction,Conductor*%
%TO.N,FB*%
G36*
X69026593Y39341697D02*
G01*
X69745314Y39095579D01*
X69752030Y39089658D01*
X69752592Y39080721D01*
X69752343Y39080059D01*
X69606853Y38726504D01*
X69600535Y38720157D01*
X69600500Y38720142D01*
X69245171Y38573357D01*
X69236216Y38573366D01*
X69229928Y38579613D01*
X69169707Y38722000D01*
X69017991Y39080721D01*
X69012030Y39094816D01*
X69011106Y39099374D01*
X69011106Y39330627D01*
X69014533Y39338900D01*
X69022806Y39342327D01*
X69026593Y39341697D01*
G37*
%TD.AperFunction*%
%TD*%
%TA.AperFunction,Conductor*%
%TO.N,CC1*%
G36*
X86096563Y36421573D02*
G01*
X86099790Y36415456D01*
X86245408Y35638821D01*
X86243564Y35630058D01*
X86236064Y35625165D01*
X86233937Y35624965D01*
X85848029Y35624001D01*
X85847971Y35624001D01*
X85462062Y35624965D01*
X85453797Y35628413D01*
X85450391Y35636694D01*
X85450591Y35638821D01*
X85596210Y36415456D01*
X85601103Y36422956D01*
X85607710Y36425000D01*
X86088290Y36425000D01*
X86096563Y36421573D01*
G37*
%TD.AperFunction*%
%TD*%
%TA.AperFunction,Conductor*%
%TO.N,CC1*%
G36*
X86233939Y38927036D02*
G01*
X86242202Y38923588D01*
X86245608Y38915307D01*
X86245408Y38913180D01*
X86099790Y38136544D01*
X86094897Y38129044D01*
X86088290Y38127000D01*
X85607710Y38127000D01*
X85599437Y38130427D01*
X85596210Y38136544D01*
X85450591Y38913180D01*
X85452435Y38921943D01*
X85459935Y38926836D01*
X85462052Y38927036D01*
X85848000Y38928000D01*
X86233939Y38927036D01*
G37*
%TD.AperFunction*%
%TD*%
%TA.AperFunction,Conductor*%
%TO.N,Net-(U1-GATE)*%
G36*
X61164942Y35798565D02*
G01*
X61169835Y35791065D01*
X61170035Y35788938D01*
X61171000Y35403000D01*
X61171000Y35402942D01*
X61170035Y35017063D01*
X61166587Y35008798D01*
X61158306Y35005392D01*
X61156179Y35005592D01*
X60379544Y35151211D01*
X60372044Y35156104D01*
X60370000Y35162711D01*
X60370000Y35643290D01*
X60373427Y35651563D01*
X60379542Y35654790D01*
X61156180Y35800409D01*
X61164942Y35798565D01*
G37*
%TD.AperFunction*%
%TD*%
%TA.AperFunction,Conductor*%
%TO.N,Net-(Q1-G)*%
G36*
X56931900Y35495794D02*
G01*
X57002427Y35484767D01*
X57513558Y35404851D01*
X57521203Y35400187D01*
X57521812Y35399263D01*
X57923613Y34722398D01*
X57924889Y34713535D01*
X57922014Y34708346D01*
X57359456Y34119151D01*
X57351265Y34115534D01*
X57350994Y34115531D01*
X56868246Y34115531D01*
X56859973Y34118958D01*
X56856546Y34127231D01*
X56856558Y34127764D01*
X56914508Y35399263D01*
X56918405Y35484769D01*
X56922205Y35492875D01*
X56930626Y35495922D01*
X56931900Y35495794D01*
G37*
%TD.AperFunction*%
%TD*%
%TA.AperFunction,Conductor*%
%TO.N,PSU_EN*%
G36*
X77987817Y30053410D02*
G01*
X78764457Y29907790D01*
X78771956Y29902897D01*
X78774000Y29896290D01*
X78774000Y29415711D01*
X78770573Y29407438D01*
X78764456Y29404211D01*
X77987820Y29258592D01*
X77979057Y29260436D01*
X77974164Y29267936D01*
X77973964Y29270054D01*
X77973000Y29656000D01*
X77973964Y30041941D01*
X77977412Y30050203D01*
X77985693Y30053609D01*
X77987817Y30053410D01*
G37*
%TD.AperFunction*%
%TD*%
%TA.AperFunction,Conductor*%
%TO.N,Net-(Q1-G)*%
G36*
X57991333Y29195458D02*
G01*
X57995015Y29187295D01*
X57995021Y29186952D01*
X57995702Y28800645D01*
X57994801Y28796122D01*
X57846907Y28441395D01*
X57840560Y28435077D01*
X57831606Y28435098D01*
X57830542Y28435606D01*
X57117553Y28821232D01*
X57111906Y28828182D01*
X57112828Y28837089D01*
X57114843Y28839793D01*
X57454026Y29178976D01*
X57461932Y29182396D01*
X57982957Y29198625D01*
X57991333Y29195458D01*
G37*
%TD.AperFunction*%
%TD*%
%TA.AperFunction,Conductor*%
%TO.N,PSU_EN*%
G36*
X69789685Y36498043D02*
G01*
X70344201Y36407599D01*
X70351814Y36402885D01*
X70354017Y36396073D01*
X70354698Y36010169D01*
X70351286Y36001889D01*
X70351250Y36001854D01*
X70080545Y35732499D01*
X70072264Y35729093D01*
X70063999Y35732541D01*
X70063050Y35733620D01*
X69613304Y36314084D01*
X69610947Y36322721D01*
X69614280Y36329520D01*
X69779530Y36494770D01*
X69787802Y36498196D01*
X69789685Y36498043D01*
G37*
%TD.AperFunction*%
%TD*%
%TA.AperFunction,Conductor*%
%TO.N,PSU_EN*%
G36*
X61587014Y38120357D02*
G01*
X61752356Y37955015D01*
X61755783Y37946742D01*
X61754747Y37941929D01*
X61478206Y37329240D01*
X61471679Y37323109D01*
X61463090Y37323233D01*
X61107804Y37469437D01*
X61101457Y37475755D01*
X61101436Y37475805D01*
X60955232Y37831091D01*
X60955253Y37840045D01*
X60961237Y37846206D01*
X61573928Y38122749D01*
X61582878Y38123028D01*
X61587014Y38120357D01*
G37*
%TD.AperFunction*%
%TD*%
%TA.AperFunction,Conductor*%
%TO.N,FB*%
G36*
X61472044Y40120747D02*
G01*
X61478206Y40114761D01*
X61754747Y39502072D01*
X61755027Y39493122D01*
X61752356Y39488986D01*
X61587014Y39323644D01*
X61578741Y39320217D01*
X61573928Y39321253D01*
X60961239Y39597794D01*
X60955108Y39604321D01*
X60955232Y39612910D01*
X61101437Y39968198D01*
X61107753Y39974543D01*
X61463090Y40120768D01*
X61472044Y40120747D01*
G37*
%TD.AperFunction*%
%TD*%
%TA.AperFunction,Conductor*%
%TO.N,CC2*%
G36*
X83947939Y38927036D02*
G01*
X83956202Y38923588D01*
X83959608Y38915307D01*
X83959408Y38913180D01*
X83813790Y38136544D01*
X83808897Y38129044D01*
X83802290Y38127000D01*
X83321710Y38127000D01*
X83313437Y38130427D01*
X83310210Y38136544D01*
X83164591Y38913180D01*
X83166435Y38921943D01*
X83173935Y38926836D01*
X83176052Y38927036D01*
X83562000Y38928000D01*
X83947939Y38927036D01*
G37*
%TD.AperFunction*%
%TD*%
%TA.AperFunction,Conductor*%
%TO.N,PSU_EN*%
G36*
X82413942Y30051565D02*
G01*
X82418835Y30044065D01*
X82419035Y30041938D01*
X82420000Y29656000D01*
X82420000Y29655942D01*
X82419035Y29270063D01*
X82415587Y29261798D01*
X82407306Y29258392D01*
X82405179Y29258592D01*
X81628544Y29404211D01*
X81621044Y29409104D01*
X81619000Y29415711D01*
X81619000Y29896290D01*
X81622427Y29904563D01*
X81628542Y29907790D01*
X82405180Y30053409D01*
X82413942Y30051565D01*
G37*
%TD.AperFunction*%
%TD*%
%TA.AperFunction,Conductor*%
%TO.N,Net-(U1-GATE)*%
G36*
X60071704Y35998709D02*
G01*
X60712812Y35656305D01*
X60718495Y35649385D01*
X60719000Y35645985D01*
X60719000Y35160016D01*
X60715573Y35151743D01*
X60712812Y35149696D01*
X60071706Y34807293D01*
X60062794Y34806418D01*
X60057538Y34809741D01*
X59525159Y35395128D01*
X59522128Y35403554D01*
X59525159Y35410872D01*
X59742074Y35649385D01*
X60057540Y35996262D01*
X60065640Y36000075D01*
X60071704Y35998709D01*
G37*
%TD.AperFunction*%
%TD*%
M02*
