M48
; DRILL file {KiCad 7.0.10} date Tue Mar 19 17:41:54 2024
; FORMAT={-:-/ absolute / metric / decimal}
; #@! TF.CreationDate,2024-03-19T17:41:54+02:00
; #@! TF.GenerationSoftware,Kicad,Pcbnew,7.0.10
; #@! TF.FileFunction,Plated,1,2,PTH
FMAT,2
METRIC
; #@! TA.AperFunction,Plated,PTH,ViaDrill
T1C0.300
; #@! TA.AperFunction,Plated,PTH,ViaDrill
T2C0.400
; #@! TA.AperFunction,Plated,PTH,ComponentDrill
T3C0.500
; #@! TA.AperFunction,Plated,PTH,ComponentDrill
T4C0.600
; #@! TA.AperFunction,Plated,PTH,ComponentDrill
T5C0.800
; #@! TA.AperFunction,Plated,PTH,ComponentDrill
T6C1.000
; #@! TA.AperFunction,Plated,PTH,ComponentDrill
T7C3.200
%
G90
G05
T1
X64.766Y41.848
X64.766Y40.324
X64.893Y37.53
X64.893Y36.641
X64.893Y35.752
X65.401Y41.086
X65.782Y37.53
X65.782Y36.641
X65.782Y35.752
X66.036Y41.848
X66.036Y40.324
T2
X12.188Y29.656
X15.998Y36.006
X15.998Y33.593
X17.268Y34.736
X18.538Y36.006
X18.538Y33.593
X19.808Y34.736
X21.078Y36.006
X21.078Y33.593
X22.348Y34.736
X23.618Y36.006
X23.618Y33.593
X24.888Y34.736
X26.158Y36.006
X26.158Y33.593
X26.539Y30.926
X27.428Y34.736
X27.428Y32.196
X28.698Y36.006
X28.698Y33.593
X28.698Y30.926
X29.968Y32.196
X39.62Y4.002
X40.382Y2.986
X41.144Y4.002
X41.906Y2.986
X42.668Y4.002
X43.43Y2.986
X44.954Y2.986
X46.478Y2.986
X48.002Y2.986
X49.526Y2.986
X56.511Y38.292
X57.781Y39.816
X57.995Y28.799
X59.686Y47.182
X61.104Y39.972
X61.104Y37.472
X61.17Y35.403
X61.591Y30.037
X63.115Y31.688
X65.274Y47.182
X65.985Y33.618
X69.604Y38.722
X70.354Y36.006
X72.132Y38.419
X72.64Y41.848
X72.64Y40.197
X73.529Y37.403
X73.529Y34.482
X73.529Y33.085
X76.958Y13.654
X77.974Y29.656
X79.498Y47.69
X82.419Y29.656
X83.562Y38.927
X83.562Y35.625
X84.07Y52.313
X85.848Y38.927
X85.848Y35.625
T3
X3.6Y49.0
X3.6Y6.0
X4.303Y50.697
X4.303Y47.303
X4.303Y7.697
X4.303Y4.303
X6.0Y51.4
X6.0Y46.6
X6.0Y8.4
X6.0Y3.6
X7.697Y50.697
X7.697Y47.303
X7.697Y7.697
X7.697Y4.303
X8.4Y49.0
X8.4Y6.0
X75.728Y15.608
X76.978Y15.608
X78.228Y15.608
X79.478Y15.608
X80.728Y15.608
X116.6Y49.0
X116.6Y6.0
X117.303Y50.697
X117.303Y47.303
X117.303Y7.697
X117.303Y4.303
X119.0Y51.4
X119.0Y46.6
X119.0Y8.4
X119.0Y3.6
X120.697Y50.697
X120.697Y47.303
X120.697Y7.697
X120.697Y4.303
X121.4Y49.0
X121.4Y6.0
T5
X53.606Y18.004
X53.606Y8.733
X57.106Y18.004
X57.106Y8.733
X89.023Y42.356
X89.023Y39.816
X89.023Y37.276
X89.023Y34.736
X89.023Y32.196
X89.023Y29.656
X89.023Y27.116
X89.023Y24.576
X89.023Y22.036
X89.023Y19.496
X89.023Y16.956
X89.023Y14.416
X89.023Y11.876
X89.023Y9.336
X89.023Y6.796
X89.023Y4.256
X111.883Y42.356
X111.883Y39.816
X111.883Y37.276
X111.883Y34.736
X111.883Y32.196
X111.883Y29.656
X111.883Y27.116
X111.883Y24.576
X111.883Y22.036
X111.883Y19.496
X111.883Y16.956
X111.883Y14.416
X111.883Y11.876
X111.883Y9.336
X111.883Y6.796
X111.883Y4.256
T6
X3.0Y30.04
X3.0Y27.5
X3.0Y24.96
X17.101Y31.427
X17.101Y23.927
X23.07Y31.427
X23.07Y23.927
X61.0Y25.0
X61.0Y22.46
X122.0Y33.85
X122.0Y31.31
X122.0Y28.77
X122.0Y26.23
X122.0Y23.69
X122.0Y21.15
T7
X6.0Y49.0
X6.0Y6.0
X119.0Y49.0
X119.0Y6.0
T4
G00X58.18Y52.702
M15
G01X58.18Y52.102
M16
G05
G00X58.18Y48.902
M15
G01X58.18Y48.302
M16
G05
G00X66.82Y52.702
M15
G01X66.82Y52.102
M16
G05
G00X66.82Y48.902
M15
G01X66.82Y48.302
M16
G05
M30
