%TF.GenerationSoftware,KiCad,Pcbnew,7.0.10*%
%TF.CreationDate,2024-03-25T13:31:30+02:00*%
%TF.ProjectId,Sulari_panel,53756c61-7269-45f7-9061-6e656c2e6b69,rev?*%
%TF.SameCoordinates,PX15bc0b2PY718c5c0*%
%TF.FileFunction,Legend,Top*%
%TF.FilePolarity,Positive*%
%FSLAX46Y46*%
G04 Gerber Fmt 4.6, Leading zero omitted, Abs format (unit mm)*
G04 Created by KiCad (PCBNEW 7.0.10) date 2024-03-25 13:31:30*
%MOMM*%
%LPD*%
G01*
G04 APERTURE LIST*
%ADD10C,0.150000*%
%ADD11C,0.300000*%
%ADD12C,0.101600*%
%ADD13C,0.100000*%
%ADD14C,0.120000*%
%ADD15C,0.254000*%
%ADD16C,0.843521*%
G04 APERTURE END LIST*
D10*
G36*
X116835923Y26665923D02*
G01*
X116866330Y26635516D01*
X116900588Y26567000D01*
X116900588Y26459553D01*
X116866330Y26391037D01*
X116835923Y26360630D01*
X116767407Y26326372D01*
X116479160Y26326372D01*
X116479160Y26700181D01*
X116767407Y26700181D01*
X116835923Y26665923D01*
G37*
G36*
X120002683Y25557324D02*
G01*
X115186303Y25557324D01*
X115186303Y26489467D01*
X115329160Y26489467D01*
X115330693Y26485254D01*
X115329652Y26480893D01*
X115337078Y26455926D01*
X115384697Y26360688D01*
X115385886Y26359563D01*
X115398746Y26341196D01*
X115446365Y26293577D01*
X115447846Y26292886D01*
X115465857Y26279528D01*
X115561095Y26231909D01*
X115564623Y26231503D01*
X115576446Y26226230D01*
X115758936Y26180608D01*
X115835923Y26142114D01*
X115866330Y26111707D01*
X115900588Y26043191D01*
X115900588Y25983363D01*
X115866329Y25914847D01*
X115835922Y25884439D01*
X115767407Y25850181D01*
X115559187Y25850181D01*
X115427877Y25893951D01*
X115376593Y25892550D01*
X115338208Y25858513D01*
X115330683Y25807764D01*
X115357538Y25764052D01*
X115380443Y25751649D01*
X115523299Y25704030D01*
X115524934Y25704075D01*
X115547017Y25700181D01*
X115785112Y25700181D01*
X115789325Y25701715D01*
X115793686Y25700673D01*
X115818653Y25708099D01*
X115913891Y25755718D01*
X115915015Y25756906D01*
X115933384Y25769768D01*
X115938797Y25775181D01*
X116329160Y25775181D01*
X116346707Y25726972D01*
X116391136Y25701320D01*
X116441660Y25710229D01*
X116474637Y25749529D01*
X116479160Y25775181D01*
X116479160Y26176372D01*
X116603206Y26176372D01*
X116914146Y25732171D01*
X116956167Y25702739D01*
X117007275Y25707203D01*
X117043557Y25743475D01*
X117048036Y25794582D01*
X117037031Y25818190D01*
X116786061Y26176718D01*
X116789325Y26177906D01*
X116793686Y26176864D01*
X116818653Y26184290D01*
X116857579Y26203753D01*
X117281541Y26203753D01*
X117282726Y26200496D01*
X117283780Y26185563D01*
X117331399Y25995087D01*
X117333387Y25992143D01*
X117337078Y25979736D01*
X117384697Y25884498D01*
X117385883Y25883375D01*
X117398746Y25865006D01*
X117493984Y25769767D01*
X117498048Y25767872D01*
X117500395Y25764052D01*
X117523300Y25751649D01*
X117666156Y25704030D01*
X117667791Y25704075D01*
X117689874Y25700181D01*
X117785112Y25700181D01*
X117786650Y25700742D01*
X117808829Y25704030D01*
X117951686Y25751649D01*
X117955197Y25754437D01*
X117959666Y25754827D01*
X117981003Y25769768D01*
X117986416Y25775181D01*
X118329160Y25775181D01*
X118335823Y25756873D01*
X118339208Y25737681D01*
X118344392Y25733331D01*
X118346707Y25726972D01*
X118363580Y25717230D01*
X118378508Y25704704D01*
X118388250Y25702987D01*
X118391136Y25701320D01*
X118394418Y25701899D01*
X118404160Y25700181D01*
X118880350Y25700181D01*
X118928559Y25717728D01*
X118954211Y25762157D01*
X118951914Y25775181D01*
X119138684Y25775181D01*
X119156231Y25726972D01*
X119200660Y25701320D01*
X119251184Y25710229D01*
X119284161Y25749529D01*
X119288684Y25775181D01*
X119288684Y26172687D01*
X119348426Y26232430D01*
X119725112Y25730181D01*
X119768075Y25702142D01*
X119819009Y25708278D01*
X119854083Y25745719D01*
X119856885Y25796945D01*
X119845112Y25820181D01*
X119455569Y26339573D01*
X119838145Y26722148D01*
X119859826Y26768644D01*
X119846549Y26818199D01*
X119804523Y26847625D01*
X119753416Y26843154D01*
X119732079Y26828214D01*
X119288684Y26384819D01*
X119288684Y26775181D01*
X119271137Y26823390D01*
X119226708Y26849042D01*
X119176184Y26840133D01*
X119143207Y26800833D01*
X119138684Y26775181D01*
X119138684Y25775181D01*
X118951914Y25775181D01*
X118945302Y25812681D01*
X118906002Y25845658D01*
X118880350Y25850181D01*
X118479160Y25850181D01*
X118479160Y26775181D01*
X118461613Y26823390D01*
X118417184Y26849042D01*
X118366660Y26840133D01*
X118333683Y26800833D01*
X118329160Y26775181D01*
X118329160Y25775181D01*
X117986416Y25775181D01*
X118028621Y25817387D01*
X118050302Y25863884D01*
X118037024Y25913439D01*
X117994999Y25942865D01*
X117943891Y25938393D01*
X117922554Y25923452D01*
X117887455Y25888353D01*
X117772942Y25850181D01*
X117702044Y25850181D01*
X117587531Y25888352D01*
X117513418Y25962466D01*
X117474924Y26039453D01*
X117431541Y26212987D01*
X117431541Y26337376D01*
X117474924Y26510910D01*
X117513418Y26587897D01*
X117587531Y26662010D01*
X117702044Y26700181D01*
X117772942Y26700181D01*
X117887455Y26662010D01*
X117922555Y26626910D01*
X117969051Y26605229D01*
X118018606Y26618506D01*
X118048032Y26660532D01*
X118043561Y26711639D01*
X118028621Y26732976D01*
X117981002Y26780595D01*
X117976938Y26782490D01*
X117974591Y26786311D01*
X117951686Y26798713D01*
X117808829Y26846332D01*
X117807194Y26846288D01*
X117785112Y26850181D01*
X117689874Y26850181D01*
X117688336Y26849622D01*
X117666156Y26846332D01*
X117523300Y26798713D01*
X117519789Y26795927D01*
X117515321Y26795536D01*
X117493984Y26780595D01*
X117398746Y26685357D01*
X117398055Y26683876D01*
X117384697Y26665865D01*
X117337078Y26570627D01*
X117336671Y26567099D01*
X117331399Y26555276D01*
X117283780Y26364800D01*
X117284140Y26361352D01*
X117281541Y26346610D01*
X117281541Y26203753D01*
X116857579Y26203753D01*
X116913891Y26231909D01*
X116915016Y26233099D01*
X116933383Y26245958D01*
X116981002Y26293577D01*
X116981693Y26295059D01*
X116995051Y26313069D01*
X117042670Y26408307D01*
X117043182Y26412761D01*
X117046065Y26416196D01*
X117050588Y26441848D01*
X117050588Y26584705D01*
X117049054Y26588919D01*
X117050096Y26593280D01*
X117042670Y26618246D01*
X116995051Y26713484D01*
X116993861Y26714610D01*
X116981002Y26732976D01*
X116933383Y26780595D01*
X116931901Y26781286D01*
X116913891Y26794644D01*
X116818653Y26842263D01*
X116814199Y26842776D01*
X116810764Y26845658D01*
X116785112Y26850181D01*
X116404160Y26850181D01*
X116385851Y26843518D01*
X116366660Y26840133D01*
X116362309Y26834949D01*
X116355951Y26832634D01*
X116346208Y26815761D01*
X116333683Y26800833D01*
X116331965Y26791091D01*
X116330299Y26788205D01*
X116330877Y26784923D01*
X116329160Y26775181D01*
X116329160Y25775181D01*
X115938797Y25775181D01*
X115981002Y25817387D01*
X115981692Y25818869D01*
X115995051Y25836879D01*
X116042670Y25932117D01*
X116043182Y25936571D01*
X116046065Y25940006D01*
X116050588Y25965658D01*
X116050588Y26060896D01*
X116049054Y26065110D01*
X116050096Y26069471D01*
X116042670Y26094437D01*
X115995051Y26189675D01*
X115993861Y26190801D01*
X115981002Y26209167D01*
X115933383Y26256786D01*
X115931901Y26257477D01*
X115913891Y26270835D01*
X115818653Y26318454D01*
X115815124Y26318861D01*
X115803302Y26324133D01*
X115620812Y26369756D01*
X115543825Y26408249D01*
X115513418Y26438656D01*
X115479160Y26507172D01*
X115479160Y26567000D01*
X115513418Y26635516D01*
X115543825Y26665923D01*
X115612341Y26700181D01*
X115820561Y26700181D01*
X115951870Y26656411D01*
X116003154Y26657812D01*
X116041540Y26691850D01*
X116049065Y26742598D01*
X116022210Y26786311D01*
X115999305Y26798713D01*
X115856448Y26846332D01*
X115854813Y26846288D01*
X115832731Y26850181D01*
X115594636Y26850181D01*
X115590422Y26848648D01*
X115586061Y26849689D01*
X115561095Y26842263D01*
X115465857Y26794644D01*
X115464731Y26793455D01*
X115446365Y26780595D01*
X115398746Y26732976D01*
X115398055Y26731495D01*
X115384697Y26713484D01*
X115337078Y26618246D01*
X115336565Y26613793D01*
X115333683Y26610357D01*
X115329160Y26584705D01*
X115329160Y26489467D01*
X115186303Y26489467D01*
X115186303Y26993038D01*
X120002683Y26993038D01*
X120002683Y25557324D01*
G37*
G36*
X117359685Y29205923D02*
G01*
X117390092Y29175516D01*
X117424350Y29107000D01*
X117424350Y28999553D01*
X117390092Y28931037D01*
X117359685Y28900630D01*
X117291169Y28866372D01*
X117002922Y28866372D01*
X117002922Y29240181D01*
X117291169Y29240181D01*
X117359685Y29205923D01*
G37*
G36*
X119955302Y28002086D02*
G01*
X114805303Y28002086D01*
X114805303Y28232967D01*
X117615966Y28232967D01*
X117624875Y28182443D01*
X117664175Y28149466D01*
X117689827Y28144943D01*
X118451731Y28144943D01*
X118499940Y28162490D01*
X118525592Y28206919D01*
X118516683Y28257443D01*
X118477383Y28290420D01*
X118451731Y28294943D01*
X117689827Y28294943D01*
X117641618Y28277396D01*
X117615966Y28232967D01*
X114805303Y28232967D01*
X114805303Y29029467D01*
X114948160Y29029467D01*
X114949693Y29025254D01*
X114948652Y29020893D01*
X114956078Y28995926D01*
X115003697Y28900688D01*
X115004886Y28899563D01*
X115017746Y28881196D01*
X115065365Y28833577D01*
X115066846Y28832886D01*
X115084857Y28819528D01*
X115180095Y28771909D01*
X115183623Y28771503D01*
X115195446Y28766230D01*
X115377936Y28720608D01*
X115454923Y28682114D01*
X115485330Y28651707D01*
X115519588Y28583191D01*
X115519588Y28523363D01*
X115485329Y28454847D01*
X115454922Y28424439D01*
X115386407Y28390181D01*
X115178187Y28390181D01*
X115046877Y28433951D01*
X114995593Y28432550D01*
X114957208Y28398513D01*
X114949683Y28347764D01*
X114976538Y28304052D01*
X114999443Y28291649D01*
X115142299Y28244030D01*
X115143934Y28244075D01*
X115166017Y28240181D01*
X115404112Y28240181D01*
X115408325Y28241715D01*
X115412686Y28240673D01*
X115437653Y28248099D01*
X115532891Y28295718D01*
X115534015Y28296906D01*
X115552384Y28309768D01*
X115557797Y28315181D01*
X115948160Y28315181D01*
X115954823Y28296873D01*
X115958208Y28277681D01*
X115963392Y28273331D01*
X115965707Y28266972D01*
X115982580Y28257230D01*
X115997508Y28244704D01*
X116007250Y28242987D01*
X116010136Y28241320D01*
X116013418Y28241899D01*
X116023160Y28240181D01*
X116499350Y28240181D01*
X116547559Y28257728D01*
X116573211Y28302157D01*
X116570914Y28315181D01*
X116852922Y28315181D01*
X116870469Y28266972D01*
X116914898Y28241320D01*
X116965422Y28250229D01*
X116998399Y28289529D01*
X117002922Y28315181D01*
X117002922Y28716372D01*
X117126968Y28716372D01*
X117437908Y28272171D01*
X117479929Y28242739D01*
X117531037Y28247203D01*
X117567319Y28283475D01*
X117570098Y28315181D01*
X118614827Y28315181D01*
X118632374Y28266972D01*
X118676803Y28241320D01*
X118727327Y28250229D01*
X118760304Y28289529D01*
X118764827Y28315181D01*
X119091017Y28315181D01*
X119108564Y28266972D01*
X119152993Y28241320D01*
X119203517Y28250229D01*
X119236494Y28289529D01*
X119241017Y28315181D01*
X119241017Y29032765D01*
X119672327Y28277970D01*
X119677620Y28273489D01*
X119679992Y28266972D01*
X119696729Y28257309D01*
X119711480Y28244819D01*
X119718414Y28244789D01*
X119724421Y28241320D01*
X119743454Y28244677D01*
X119762782Y28244590D01*
X119768115Y28249025D01*
X119774945Y28250229D01*
X119787369Y28265036D01*
X119802229Y28277392D01*
X119803463Y28284216D01*
X119807922Y28289529D01*
X119812445Y28315181D01*
X119812445Y29315181D01*
X119794898Y29363390D01*
X119750469Y29389042D01*
X119699945Y29380133D01*
X119666968Y29340833D01*
X119662445Y29315181D01*
X119662445Y28597598D01*
X119231135Y29352391D01*
X119225842Y29356873D01*
X119223470Y29363390D01*
X119206730Y29373055D01*
X119191982Y29385543D01*
X119185047Y29385574D01*
X119179041Y29389042D01*
X119160007Y29385686D01*
X119140680Y29385772D01*
X119135346Y29381338D01*
X119128517Y29380133D01*
X119116092Y29365327D01*
X119101233Y29352970D01*
X119099998Y29346147D01*
X119095540Y29340833D01*
X119091017Y29315181D01*
X119091017Y28315181D01*
X118764827Y28315181D01*
X118764827Y29315181D01*
X118747280Y29363390D01*
X118702851Y29389042D01*
X118652327Y29380133D01*
X118619350Y29340833D01*
X118614827Y29315181D01*
X118614827Y28315181D01*
X117570098Y28315181D01*
X117571798Y28334582D01*
X117560793Y28358190D01*
X117309823Y28716718D01*
X117313087Y28717906D01*
X117317448Y28716864D01*
X117342415Y28724290D01*
X117437653Y28771909D01*
X117438778Y28773099D01*
X117457145Y28785958D01*
X117504764Y28833577D01*
X117505455Y28835059D01*
X117518813Y28853069D01*
X117566432Y28948307D01*
X117566944Y28952761D01*
X117569827Y28956196D01*
X117574350Y28981848D01*
X117574350Y29124705D01*
X117572816Y29128919D01*
X117573858Y29133280D01*
X117566432Y29158246D01*
X117518813Y29253484D01*
X117517623Y29254610D01*
X117504764Y29272976D01*
X117457145Y29320595D01*
X117455663Y29321286D01*
X117437653Y29334644D01*
X117342415Y29382263D01*
X117337961Y29382776D01*
X117334526Y29385658D01*
X117308874Y29390181D01*
X116927922Y29390181D01*
X116909613Y29383518D01*
X116890422Y29380133D01*
X116886071Y29374949D01*
X116879713Y29372634D01*
X116869970Y29355761D01*
X116857445Y29340833D01*
X116855727Y29331091D01*
X116854061Y29328205D01*
X116854639Y29324923D01*
X116852922Y29315181D01*
X116852922Y28315181D01*
X116570914Y28315181D01*
X116564302Y28352681D01*
X116525002Y28385658D01*
X116499350Y28390181D01*
X116098160Y28390181D01*
X116098160Y28763991D01*
X116356493Y28763991D01*
X116404702Y28781538D01*
X116430354Y28825967D01*
X116421445Y28876491D01*
X116382145Y28909468D01*
X116356493Y28913991D01*
X116098160Y28913991D01*
X116098160Y29240181D01*
X116499350Y29240181D01*
X116547559Y29257728D01*
X116573211Y29302157D01*
X116564302Y29352681D01*
X116525002Y29385658D01*
X116499350Y29390181D01*
X116023160Y29390181D01*
X116004851Y29383518D01*
X115985660Y29380133D01*
X115981309Y29374949D01*
X115974951Y29372634D01*
X115965208Y29355761D01*
X115952683Y29340833D01*
X115950965Y29331091D01*
X115949299Y29328205D01*
X115949877Y29324923D01*
X115948160Y29315181D01*
X115948160Y28315181D01*
X115557797Y28315181D01*
X115600002Y28357387D01*
X115600692Y28358869D01*
X115614051Y28376879D01*
X115661670Y28472117D01*
X115662182Y28476571D01*
X115665065Y28480006D01*
X115669588Y28505658D01*
X115669588Y28600896D01*
X115668054Y28605110D01*
X115669096Y28609471D01*
X115661670Y28634437D01*
X115614051Y28729675D01*
X115612861Y28730801D01*
X115600002Y28749167D01*
X115552383Y28796786D01*
X115550901Y28797477D01*
X115532891Y28810835D01*
X115437653Y28858454D01*
X115434124Y28858861D01*
X115422302Y28864133D01*
X115239812Y28909756D01*
X115162825Y28948249D01*
X115132418Y28978656D01*
X115098160Y29047172D01*
X115098160Y29107000D01*
X115132418Y29175516D01*
X115162825Y29205923D01*
X115231341Y29240181D01*
X115439561Y29240181D01*
X115570870Y29196411D01*
X115622154Y29197812D01*
X115660540Y29231850D01*
X115668065Y29282598D01*
X115641210Y29326311D01*
X115618305Y29338713D01*
X115475448Y29386332D01*
X115473813Y29386288D01*
X115451731Y29390181D01*
X115213636Y29390181D01*
X115209422Y29388648D01*
X115205061Y29389689D01*
X115180095Y29382263D01*
X115084857Y29334644D01*
X115083731Y29333455D01*
X115065365Y29320595D01*
X115017746Y29272976D01*
X115017055Y29271495D01*
X115003697Y29253484D01*
X114956078Y29158246D01*
X114955565Y29153793D01*
X114952683Y29150357D01*
X114948160Y29124705D01*
X114948160Y29029467D01*
X114805303Y29029467D01*
X114805303Y29533038D01*
X119955302Y29533038D01*
X119955302Y28002086D01*
G37*
G36*
X117934979Y23645820D02*
G01*
X117961473Y23619326D01*
X117995731Y23550810D01*
X117995731Y23443363D01*
X117961472Y23374847D01*
X117931065Y23344439D01*
X117862550Y23310181D01*
X117574303Y23310181D01*
X117574303Y23683991D01*
X117820466Y23683991D01*
X117934979Y23645820D01*
G37*
G36*
X117883447Y24125923D02*
G01*
X117913854Y24095516D01*
X117948112Y24027000D01*
X117948112Y23967172D01*
X117913854Y23898656D01*
X117883447Y23868249D01*
X117814931Y23833991D01*
X117574303Y23833991D01*
X117574303Y24160181D01*
X117814931Y24160181D01*
X117883447Y24125923D01*
G37*
G36*
X116966674Y23595896D02*
G01*
X116698598Y23595896D01*
X116832636Y23998011D01*
X116966674Y23595896D01*
G37*
G36*
X120001735Y23017324D02*
G01*
X114471922Y23017324D01*
X114471922Y23235181D01*
X114614779Y23235181D01*
X114621442Y23216873D01*
X114624827Y23197681D01*
X114630011Y23193331D01*
X114632326Y23186972D01*
X114649199Y23177230D01*
X114664127Y23164704D01*
X114673869Y23162987D01*
X114676755Y23161320D01*
X114680037Y23161899D01*
X114689779Y23160181D01*
X115165969Y23160181D01*
X115214178Y23177728D01*
X115239830Y23222157D01*
X115237533Y23235181D01*
X115519541Y23235181D01*
X115537088Y23186972D01*
X115581517Y23161320D01*
X115632041Y23170229D01*
X115665018Y23209529D01*
X115669541Y23235181D01*
X115669541Y23952765D01*
X116100851Y23197970D01*
X116106144Y23193489D01*
X116108516Y23186972D01*
X116125253Y23177309D01*
X116140004Y23164819D01*
X116146938Y23164789D01*
X116152945Y23161320D01*
X116171978Y23164677D01*
X116191306Y23164590D01*
X116196639Y23169025D01*
X116203469Y23170229D01*
X116215893Y23185036D01*
X116230753Y23197392D01*
X116231987Y23204216D01*
X116236446Y23209529D01*
X116240969Y23235181D01*
X116240969Y23258898D01*
X116428152Y23258898D01*
X116429553Y23207614D01*
X116463590Y23169229D01*
X116514339Y23161704D01*
X116558051Y23188559D01*
X116570454Y23211464D01*
X116648598Y23445896D01*
X117016674Y23445896D01*
X117094818Y23211464D01*
X117126709Y23171278D01*
X117176970Y23160992D01*
X117222084Y23185421D01*
X117240941Y23233133D01*
X117240637Y23235181D01*
X117424303Y23235181D01*
X117430966Y23216873D01*
X117434351Y23197681D01*
X117439535Y23193331D01*
X117441850Y23186972D01*
X117458723Y23177230D01*
X117473651Y23164704D01*
X117483393Y23162987D01*
X117486279Y23161320D01*
X117489561Y23161899D01*
X117499303Y23160181D01*
X117880255Y23160181D01*
X117884468Y23161715D01*
X117888829Y23160673D01*
X117913796Y23168099D01*
X118009034Y23215718D01*
X118010158Y23216906D01*
X118028527Y23229768D01*
X118033940Y23235181D01*
X118424303Y23235181D01*
X118430966Y23216873D01*
X118434351Y23197681D01*
X118439535Y23193331D01*
X118441850Y23186972D01*
X118458723Y23177230D01*
X118473651Y23164704D01*
X118483393Y23162987D01*
X118486279Y23161320D01*
X118489561Y23161899D01*
X118499303Y23160181D01*
X118975493Y23160181D01*
X119023702Y23177728D01*
X119049354Y23222157D01*
X119047057Y23235181D01*
X119233827Y23235181D01*
X119240490Y23216873D01*
X119243875Y23197681D01*
X119249059Y23193331D01*
X119251374Y23186972D01*
X119268247Y23177230D01*
X119283175Y23164704D01*
X119292917Y23162987D01*
X119295803Y23161320D01*
X119299085Y23161899D01*
X119308827Y23160181D01*
X119785017Y23160181D01*
X119833226Y23177728D01*
X119858878Y23222157D01*
X119849969Y23272681D01*
X119810669Y23305658D01*
X119785017Y23310181D01*
X119383827Y23310181D01*
X119383827Y23683991D01*
X119642160Y23683991D01*
X119690369Y23701538D01*
X119716021Y23745967D01*
X119707112Y23796491D01*
X119667812Y23829468D01*
X119642160Y23833991D01*
X119383827Y23833991D01*
X119383827Y24160181D01*
X119785017Y24160181D01*
X119833226Y24177728D01*
X119858878Y24222157D01*
X119849969Y24272681D01*
X119810669Y24305658D01*
X119785017Y24310181D01*
X119308827Y24310181D01*
X119290518Y24303518D01*
X119271327Y24300133D01*
X119266976Y24294949D01*
X119260618Y24292634D01*
X119250875Y24275761D01*
X119238350Y24260833D01*
X119236632Y24251091D01*
X119234966Y24248205D01*
X119235544Y24244923D01*
X119233827Y24235181D01*
X119233827Y23235181D01*
X119047057Y23235181D01*
X119040445Y23272681D01*
X119001145Y23305658D01*
X118975493Y23310181D01*
X118574303Y23310181D01*
X118574303Y24235181D01*
X118556756Y24283390D01*
X118512327Y24309042D01*
X118461803Y24300133D01*
X118428826Y24260833D01*
X118424303Y24235181D01*
X118424303Y23235181D01*
X118033940Y23235181D01*
X118076145Y23277387D01*
X118076835Y23278869D01*
X118090194Y23296879D01*
X118137813Y23392117D01*
X118138325Y23396571D01*
X118141208Y23400006D01*
X118145731Y23425658D01*
X118145731Y23568515D01*
X118144197Y23572729D01*
X118145239Y23577090D01*
X118137813Y23602056D01*
X118090194Y23697294D01*
X118089004Y23698420D01*
X118076145Y23716786D01*
X118028526Y23764405D01*
X118024462Y23766300D01*
X118022115Y23770121D01*
X118006114Y23778785D01*
X118028526Y23801196D01*
X118029217Y23802678D01*
X118042575Y23820688D01*
X118090194Y23915926D01*
X118090706Y23920380D01*
X118093589Y23923815D01*
X118098112Y23949467D01*
X118098112Y24044705D01*
X118096578Y24048919D01*
X118097620Y24053280D01*
X118090194Y24078246D01*
X118042575Y24173484D01*
X118041385Y24174610D01*
X118028526Y24192976D01*
X117980907Y24240595D01*
X117979425Y24241286D01*
X117961415Y24254644D01*
X117866177Y24302263D01*
X117861723Y24302776D01*
X117858288Y24305658D01*
X117832636Y24310181D01*
X117499303Y24310181D01*
X117480994Y24303518D01*
X117461803Y24300133D01*
X117457452Y24294949D01*
X117451094Y24292634D01*
X117441351Y24275761D01*
X117428826Y24260833D01*
X117427108Y24251091D01*
X117425442Y24248205D01*
X117426020Y24244923D01*
X117424303Y24235181D01*
X117424303Y23235181D01*
X117240637Y23235181D01*
X117237120Y23258898D01*
X116903787Y24258898D01*
X116902444Y24260590D01*
X116902386Y24262747D01*
X116886644Y24280500D01*
X116871896Y24299084D01*
X116869781Y24299517D01*
X116868348Y24301133D01*
X116844879Y24304613D01*
X116821635Y24309370D01*
X116819735Y24308342D01*
X116817600Y24308658D01*
X116797382Y24296238D01*
X116776521Y24284941D01*
X116775727Y24282934D01*
X116773887Y24281803D01*
X116761485Y24258898D01*
X116428152Y23258898D01*
X116240969Y23258898D01*
X116240969Y24235181D01*
X116223422Y24283390D01*
X116178993Y24309042D01*
X116128469Y24300133D01*
X116095492Y24260833D01*
X116090969Y24235181D01*
X116090969Y23517598D01*
X115659659Y24272391D01*
X115654366Y24276873D01*
X115651994Y24283390D01*
X115635254Y24293055D01*
X115620506Y24305543D01*
X115613571Y24305574D01*
X115607565Y24309042D01*
X115588531Y24305686D01*
X115569204Y24305772D01*
X115563870Y24301338D01*
X115557041Y24300133D01*
X115544616Y24285327D01*
X115529757Y24272970D01*
X115528522Y24266147D01*
X115524064Y24260833D01*
X115519541Y24235181D01*
X115519541Y23235181D01*
X115237533Y23235181D01*
X115230921Y23272681D01*
X115191621Y23305658D01*
X115165969Y23310181D01*
X114764779Y23310181D01*
X114764779Y23683991D01*
X115023112Y23683991D01*
X115071321Y23701538D01*
X115096973Y23745967D01*
X115088064Y23796491D01*
X115048764Y23829468D01*
X115023112Y23833991D01*
X114764779Y23833991D01*
X114764779Y24160181D01*
X115165969Y24160181D01*
X115214178Y24177728D01*
X115239830Y24222157D01*
X115230921Y24272681D01*
X115191621Y24305658D01*
X115165969Y24310181D01*
X114689779Y24310181D01*
X114671470Y24303518D01*
X114652279Y24300133D01*
X114647928Y24294949D01*
X114641570Y24292634D01*
X114631827Y24275761D01*
X114619302Y24260833D01*
X114617584Y24251091D01*
X114615918Y24248205D01*
X114616496Y24244923D01*
X114614779Y24235181D01*
X114614779Y23235181D01*
X114471922Y23235181D01*
X114471922Y24453038D01*
X120001735Y24453038D01*
X120001735Y23017324D01*
G37*
D11*
X152929171Y30786918D02*
X151857742Y30786918D01*
X151857742Y30786918D02*
X151643457Y30858347D01*
X151643457Y30858347D02*
X151500600Y31001204D01*
X151500600Y31001204D02*
X151429171Y31215490D01*
X151429171Y31215490D02*
X151429171Y31358347D01*
X151429171Y29358347D02*
X151429171Y30072633D01*
X151429171Y30072633D02*
X152929171Y30072633D01*
X151572028Y28001204D02*
X151500600Y28072632D01*
X151500600Y28072632D02*
X151429171Y28286918D01*
X151429171Y28286918D02*
X151429171Y28429775D01*
X151429171Y28429775D02*
X151500600Y28644061D01*
X151500600Y28644061D02*
X151643457Y28786918D01*
X151643457Y28786918D02*
X151786314Y28858347D01*
X151786314Y28858347D02*
X152072028Y28929775D01*
X152072028Y28929775D02*
X152286314Y28929775D01*
X152286314Y28929775D02*
X152572028Y28858347D01*
X152572028Y28858347D02*
X152714885Y28786918D01*
X152714885Y28786918D02*
X152857742Y28644061D01*
X152857742Y28644061D02*
X152929171Y28429775D01*
X152929171Y28429775D02*
X152929171Y28286918D01*
X152929171Y28286918D02*
X152857742Y28072632D01*
X152857742Y28072632D02*
X152786314Y28001204D01*
X152929171Y26929775D02*
X151857742Y26929775D01*
X151857742Y26929775D02*
X151643457Y27001204D01*
X151643457Y27001204D02*
X151500600Y27144061D01*
X151500600Y27144061D02*
X151429171Y27358347D01*
X151429171Y27358347D02*
X151429171Y27501204D01*
X151429171Y25501204D02*
X151429171Y26215490D01*
X151429171Y26215490D02*
X152929171Y26215490D01*
X151572028Y24144061D02*
X151500600Y24215489D01*
X151500600Y24215489D02*
X151429171Y24429775D01*
X151429171Y24429775D02*
X151429171Y24572632D01*
X151429171Y24572632D02*
X151500600Y24786918D01*
X151500600Y24786918D02*
X151643457Y24929775D01*
X151643457Y24929775D02*
X151786314Y25001204D01*
X151786314Y25001204D02*
X152072028Y25072632D01*
X152072028Y25072632D02*
X152286314Y25072632D01*
X152286314Y25072632D02*
X152572028Y25001204D01*
X152572028Y25001204D02*
X152714885Y24929775D01*
X152714885Y24929775D02*
X152857742Y24786918D01*
X152857742Y24786918D02*
X152929171Y24572632D01*
X152929171Y24572632D02*
X152929171Y24429775D01*
X152929171Y24429775D02*
X152857742Y24215489D01*
X152857742Y24215489D02*
X152786314Y24144061D01*
X152929171Y23072632D02*
X151857742Y23072632D01*
X151857742Y23072632D02*
X151643457Y23144061D01*
X151643457Y23144061D02*
X151500600Y23286918D01*
X151500600Y23286918D02*
X151429171Y23501204D01*
X151429171Y23501204D02*
X151429171Y23644061D01*
X151429171Y21644061D02*
X151429171Y22358347D01*
X151429171Y22358347D02*
X152929171Y22358347D01*
X151572028Y20286918D02*
X151500600Y20358346D01*
X151500600Y20358346D02*
X151429171Y20572632D01*
X151429171Y20572632D02*
X151429171Y20715489D01*
X151429171Y20715489D02*
X151500600Y20929775D01*
X151500600Y20929775D02*
X151643457Y21072632D01*
X151643457Y21072632D02*
X151786314Y21144061D01*
X151786314Y21144061D02*
X152072028Y21215489D01*
X152072028Y21215489D02*
X152286314Y21215489D01*
X152286314Y21215489D02*
X152572028Y21144061D01*
X152572028Y21144061D02*
X152714885Y21072632D01*
X152714885Y21072632D02*
X152857742Y20929775D01*
X152857742Y20929775D02*
X152929171Y20715489D01*
X152929171Y20715489D02*
X152929171Y20572632D01*
X152929171Y20572632D02*
X152857742Y20358346D01*
X152857742Y20358346D02*
X152786314Y20286918D01*
X152929171Y19215489D02*
X151857742Y19215489D01*
X151857742Y19215489D02*
X151643457Y19286918D01*
X151643457Y19286918D02*
X151500600Y19429775D01*
X151500600Y19429775D02*
X151429171Y19644061D01*
X151429171Y19644061D02*
X151429171Y19786918D01*
X151429171Y17786918D02*
X151429171Y18501204D01*
X151429171Y18501204D02*
X152929171Y18501204D01*
X151572028Y16429775D02*
X151500600Y16501203D01*
X151500600Y16501203D02*
X151429171Y16715489D01*
X151429171Y16715489D02*
X151429171Y16858346D01*
X151429171Y16858346D02*
X151500600Y17072632D01*
X151500600Y17072632D02*
X151643457Y17215489D01*
X151643457Y17215489D02*
X151786314Y17286918D01*
X151786314Y17286918D02*
X152072028Y17358346D01*
X152072028Y17358346D02*
X152286314Y17358346D01*
X152286314Y17358346D02*
X152572028Y17286918D01*
X152572028Y17286918D02*
X152714885Y17215489D01*
X152714885Y17215489D02*
X152857742Y17072632D01*
X152857742Y17072632D02*
X152929171Y16858346D01*
X152929171Y16858346D02*
X152929171Y16715489D01*
X152929171Y16715489D02*
X152857742Y16501203D01*
X152857742Y16501203D02*
X152786314Y16429775D01*
D10*
G36*
X119490836Y21582010D02*
G01*
X119564949Y21507897D01*
X119603442Y21430910D01*
X119646826Y21257376D01*
X119646826Y21132987D01*
X119603442Y20959453D01*
X119564948Y20882466D01*
X119490836Y20808353D01*
X119376323Y20770181D01*
X119225398Y20770181D01*
X119225398Y21620181D01*
X119376323Y21620181D01*
X119490836Y21582010D01*
G37*
G36*
X119939683Y20477324D02*
G01*
X116837303Y20477324D01*
X116837303Y21123753D01*
X116980160Y21123753D01*
X116981345Y21120496D01*
X116982399Y21105563D01*
X117030018Y20915087D01*
X117032006Y20912143D01*
X117035697Y20899736D01*
X117083316Y20804498D01*
X117084502Y20803375D01*
X117097365Y20785006D01*
X117192603Y20689767D01*
X117196667Y20687872D01*
X117199014Y20684052D01*
X117221919Y20671649D01*
X117364775Y20624030D01*
X117366410Y20624075D01*
X117388493Y20620181D01*
X117483731Y20620181D01*
X117485269Y20620742D01*
X117507448Y20624030D01*
X117650305Y20671649D01*
X117653816Y20674437D01*
X117658285Y20674827D01*
X117679622Y20689768D01*
X117685035Y20695181D01*
X118027779Y20695181D01*
X118045326Y20646972D01*
X118089755Y20621320D01*
X118140279Y20630229D01*
X118173256Y20669529D01*
X118177779Y20695181D01*
X118177779Y21412765D01*
X118609089Y20657970D01*
X118614382Y20653489D01*
X118616754Y20646972D01*
X118633491Y20637309D01*
X118648242Y20624819D01*
X118655176Y20624789D01*
X118661183Y20621320D01*
X118680216Y20624677D01*
X118699544Y20624590D01*
X118704877Y20629025D01*
X118711707Y20630229D01*
X118724131Y20645036D01*
X118738991Y20657392D01*
X118740225Y20664216D01*
X118744684Y20669529D01*
X118749207Y20695181D01*
X119075398Y20695181D01*
X119082061Y20676873D01*
X119085446Y20657681D01*
X119090630Y20653331D01*
X119092945Y20646972D01*
X119109818Y20637230D01*
X119124746Y20624704D01*
X119134488Y20622987D01*
X119137374Y20621320D01*
X119140656Y20621899D01*
X119150398Y20620181D01*
X119388493Y20620181D01*
X119390031Y20620742D01*
X119412210Y20624030D01*
X119555067Y20671649D01*
X119558579Y20674437D01*
X119563046Y20674827D01*
X119584383Y20689767D01*
X119679622Y20785007D01*
X119680313Y20786490D01*
X119693670Y20804498D01*
X119741289Y20899736D01*
X119741695Y20903265D01*
X119746968Y20915087D01*
X119794587Y21105563D01*
X119794226Y21109012D01*
X119796826Y21123753D01*
X119796826Y21266610D01*
X119795640Y21269868D01*
X119794587Y21284800D01*
X119746968Y21475276D01*
X119744979Y21478221D01*
X119741289Y21490627D01*
X119693670Y21585865D01*
X119692483Y21586989D01*
X119679621Y21605357D01*
X119584383Y21700595D01*
X119580319Y21702490D01*
X119577972Y21706311D01*
X119555067Y21718713D01*
X119412210Y21766332D01*
X119410575Y21766288D01*
X119388493Y21770181D01*
X119150398Y21770181D01*
X119132089Y21763518D01*
X119112898Y21760133D01*
X119108547Y21754949D01*
X119102189Y21752634D01*
X119092446Y21735761D01*
X119079921Y21720833D01*
X119078203Y21711091D01*
X119076537Y21708205D01*
X119077115Y21704923D01*
X119075398Y21695181D01*
X119075398Y20695181D01*
X118749207Y20695181D01*
X118749207Y21695181D01*
X118731660Y21743390D01*
X118687231Y21769042D01*
X118636707Y21760133D01*
X118603730Y21720833D01*
X118599207Y21695181D01*
X118599207Y20977598D01*
X118167897Y21732391D01*
X118162604Y21736873D01*
X118160232Y21743390D01*
X118143492Y21753055D01*
X118128744Y21765543D01*
X118121809Y21765574D01*
X118115803Y21769042D01*
X118096769Y21765686D01*
X118077442Y21765772D01*
X118072108Y21761338D01*
X118065279Y21760133D01*
X118052854Y21745327D01*
X118037995Y21732970D01*
X118036760Y21726147D01*
X118032302Y21720833D01*
X118027779Y21695181D01*
X118027779Y20695181D01*
X117685035Y20695181D01*
X117727240Y20737387D01*
X117734158Y20752225D01*
X117744684Y20764768D01*
X117747527Y20780896D01*
X117748921Y20783884D01*
X117748398Y20785835D01*
X117749207Y20790420D01*
X117749207Y21123753D01*
X117742543Y21142062D01*
X117739159Y21161253D01*
X117733974Y21165604D01*
X117731660Y21171962D01*
X117714786Y21181705D01*
X117699859Y21194230D01*
X117690116Y21195948D01*
X117687231Y21197614D01*
X117683948Y21197036D01*
X117674207Y21198753D01*
X117483731Y21198753D01*
X117435522Y21181206D01*
X117409870Y21136777D01*
X117418779Y21086253D01*
X117458079Y21053276D01*
X117483731Y21048753D01*
X117599207Y21048753D01*
X117599207Y20821486D01*
X117586074Y20808353D01*
X117471561Y20770181D01*
X117400663Y20770181D01*
X117286150Y20808352D01*
X117212037Y20882466D01*
X117173543Y20959453D01*
X117130160Y21132987D01*
X117130160Y21257376D01*
X117173543Y21430910D01*
X117212037Y21507897D01*
X117286150Y21582010D01*
X117400663Y21620181D01*
X117513645Y21620181D01*
X117593047Y21580480D01*
X117644013Y21574615D01*
X117686826Y21602881D01*
X117701453Y21652056D01*
X117681050Y21699127D01*
X117660129Y21714644D01*
X117564891Y21762263D01*
X117560437Y21762776D01*
X117557002Y21765658D01*
X117531350Y21770181D01*
X117388493Y21770181D01*
X117386955Y21769622D01*
X117364775Y21766332D01*
X117221919Y21718713D01*
X117218408Y21715927D01*
X117213940Y21715536D01*
X117192603Y21700595D01*
X117097365Y21605357D01*
X117096674Y21603876D01*
X117083316Y21585865D01*
X117035697Y21490627D01*
X117035290Y21487099D01*
X117030018Y21475276D01*
X116982399Y21284800D01*
X116982759Y21281352D01*
X116980160Y21266610D01*
X116980160Y21123753D01*
X116837303Y21123753D01*
X116837303Y21913038D01*
X119939683Y21913038D01*
X119939683Y20477324D01*
G37*
G36*
X120031072Y33177324D02*
G01*
X116886061Y33177324D01*
X116886061Y33789158D01*
X117028918Y33789158D01*
X117037827Y33738634D01*
X117077127Y33705657D01*
X117102779Y33701134D01*
X117408731Y33701134D01*
X117408731Y33395181D01*
X117426278Y33346972D01*
X117470707Y33321320D01*
X117521231Y33330229D01*
X117554208Y33369529D01*
X117558731Y33395181D01*
X117558731Y33701134D01*
X117864684Y33701134D01*
X117912893Y33718681D01*
X117938545Y33763110D01*
X117929636Y33813634D01*
X117890336Y33846611D01*
X117864684Y33851134D01*
X117558731Y33851134D01*
X117558731Y33925527D01*
X118218541Y33925527D01*
X118225067Y33901168D01*
X118231290Y33876738D01*
X118231690Y33876451D01*
X118231818Y33875973D01*
X118252452Y33861525D01*
X118272946Y33846792D01*
X118273439Y33846830D01*
X118273844Y33846546D01*
X118298947Y33848743D01*
X118324106Y33850630D01*
X118324459Y33850976D01*
X118324951Y33851018D01*
X118346288Y33865958D01*
X118385301Y33904971D01*
X118453817Y33939229D01*
X118656502Y33939229D01*
X118725018Y33904971D01*
X118755425Y33874564D01*
X118789683Y33806048D01*
X118789683Y33603363D01*
X118755424Y33534847D01*
X118725017Y33504439D01*
X118656502Y33470181D01*
X118453817Y33470181D01*
X118385301Y33504439D01*
X118346289Y33543452D01*
X118299792Y33565134D01*
X118250237Y33551857D01*
X118220811Y33509832D01*
X118225281Y33458725D01*
X118240221Y33437388D01*
X118287840Y33389768D01*
X118289321Y33389078D01*
X118307333Y33375718D01*
X118402571Y33328099D01*
X118407024Y33327587D01*
X118410460Y33324704D01*
X118436112Y33320181D01*
X118674207Y33320181D01*
X118678420Y33321715D01*
X118682781Y33320673D01*
X118707748Y33328099D01*
X118802986Y33375718D01*
X118804110Y33376906D01*
X118822479Y33389768D01*
X118870097Y33437387D01*
X118870787Y33438869D01*
X118884146Y33456879D01*
X118931765Y33552117D01*
X118932277Y33556571D01*
X118935160Y33560006D01*
X118939683Y33585658D01*
X118939683Y33823753D01*
X118938149Y33827967D01*
X118939191Y33832328D01*
X118931765Y33857294D01*
X118884146Y33952532D01*
X118882956Y33953658D01*
X118870097Y33972024D01*
X118822478Y34019643D01*
X118820996Y34020334D01*
X118802986Y34033692D01*
X118707748Y34081311D01*
X118703294Y34081824D01*
X118699859Y34084706D01*
X118674207Y34089229D01*
X118436112Y34089229D01*
X118431898Y34087696D01*
X118427537Y34088737D01*
X118402571Y34081311D01*
X118383929Y34071991D01*
X118408748Y34320181D01*
X118817064Y34320181D01*
X118865273Y34337728D01*
X118890925Y34382157D01*
X118888267Y34397230D01*
X119075426Y34397230D01*
X119079247Y34371464D01*
X119412580Y33371464D01*
X119413922Y33369773D01*
X119413981Y33367614D01*
X119429730Y33349853D01*
X119444471Y33331278D01*
X119446584Y33330846D01*
X119448018Y33329229D01*
X119471488Y33325749D01*
X119494732Y33320992D01*
X119496631Y33322021D01*
X119498767Y33321704D01*
X119518980Y33334123D01*
X119539846Y33345421D01*
X119540639Y33347429D01*
X119542479Y33348559D01*
X119554882Y33371464D01*
X119888215Y34371464D01*
X119886814Y34422747D01*
X119852776Y34461133D01*
X119802028Y34468658D01*
X119758315Y34441803D01*
X119745913Y34418898D01*
X119483731Y33632352D01*
X119221549Y34418898D01*
X119189658Y34459084D01*
X119139397Y34469370D01*
X119094283Y34444941D01*
X119075426Y34397230D01*
X118888267Y34397230D01*
X118882016Y34432681D01*
X118842716Y34465658D01*
X118817064Y34470181D01*
X118340874Y34470181D01*
X118325906Y34464734D01*
X118310023Y34463542D01*
X118302516Y34456220D01*
X118292665Y34452634D01*
X118284701Y34438841D01*
X118273299Y34427718D01*
X118268567Y34410898D01*
X118267013Y34408205D01*
X118267320Y34406463D01*
X118266246Y34402644D01*
X118218627Y33926454D01*
X118218749Y33925974D01*
X118218541Y33925527D01*
X117558731Y33925527D01*
X117558731Y34157086D01*
X117541184Y34205295D01*
X117496755Y34230947D01*
X117446231Y34222038D01*
X117413254Y34182738D01*
X117408731Y34157086D01*
X117408731Y33851134D01*
X117102779Y33851134D01*
X117054570Y33833587D01*
X117028918Y33789158D01*
X116886061Y33789158D01*
X116886061Y34613038D01*
X120031072Y34613038D01*
X120031072Y33177324D01*
G37*
G36*
X7603836Y25392010D02*
G01*
X7677949Y25317897D01*
X7716442Y25240910D01*
X7759826Y25067376D01*
X7759826Y24942987D01*
X7716442Y24769453D01*
X7677948Y24692466D01*
X7603836Y24618353D01*
X7489323Y24580181D01*
X7338398Y24580181D01*
X7338398Y25430181D01*
X7489323Y25430181D01*
X7603836Y25392010D01*
G37*
G36*
X8052683Y24287324D02*
G01*
X4950303Y24287324D01*
X4950303Y24933753D01*
X5093160Y24933753D01*
X5094345Y24930496D01*
X5095399Y24915563D01*
X5143018Y24725087D01*
X5145006Y24722143D01*
X5148697Y24709736D01*
X5196316Y24614498D01*
X5197502Y24613375D01*
X5210365Y24595006D01*
X5305603Y24499767D01*
X5309667Y24497872D01*
X5312014Y24494052D01*
X5334919Y24481649D01*
X5477775Y24434030D01*
X5479410Y24434075D01*
X5501493Y24430181D01*
X5596731Y24430181D01*
X5598269Y24430742D01*
X5620448Y24434030D01*
X5763305Y24481649D01*
X5766816Y24484437D01*
X5771285Y24484827D01*
X5792622Y24499768D01*
X5798035Y24505181D01*
X6140779Y24505181D01*
X6158326Y24456972D01*
X6202755Y24431320D01*
X6253279Y24440229D01*
X6286256Y24479529D01*
X6290779Y24505181D01*
X6290779Y25222765D01*
X6722089Y24467970D01*
X6727382Y24463489D01*
X6729754Y24456972D01*
X6746491Y24447309D01*
X6761242Y24434819D01*
X6768176Y24434789D01*
X6774183Y24431320D01*
X6793216Y24434677D01*
X6812544Y24434590D01*
X6817877Y24439025D01*
X6824707Y24440229D01*
X6837131Y24455036D01*
X6851991Y24467392D01*
X6853225Y24474216D01*
X6857684Y24479529D01*
X6862207Y24505181D01*
X7188398Y24505181D01*
X7195061Y24486873D01*
X7198446Y24467681D01*
X7203630Y24463331D01*
X7205945Y24456972D01*
X7222818Y24447230D01*
X7237746Y24434704D01*
X7247488Y24432987D01*
X7250374Y24431320D01*
X7253656Y24431899D01*
X7263398Y24430181D01*
X7501493Y24430181D01*
X7503031Y24430742D01*
X7525210Y24434030D01*
X7668067Y24481649D01*
X7671579Y24484437D01*
X7676046Y24484827D01*
X7697383Y24499767D01*
X7792622Y24595007D01*
X7793313Y24596490D01*
X7806670Y24614498D01*
X7854289Y24709736D01*
X7854695Y24713265D01*
X7859968Y24725087D01*
X7907587Y24915563D01*
X7907226Y24919012D01*
X7909826Y24933753D01*
X7909826Y25076610D01*
X7908640Y25079868D01*
X7907587Y25094800D01*
X7859968Y25285276D01*
X7857979Y25288221D01*
X7854289Y25300627D01*
X7806670Y25395865D01*
X7805483Y25396989D01*
X7792621Y25415357D01*
X7697383Y25510595D01*
X7693319Y25512490D01*
X7690972Y25516311D01*
X7668067Y25528713D01*
X7525210Y25576332D01*
X7523575Y25576288D01*
X7501493Y25580181D01*
X7263398Y25580181D01*
X7245089Y25573518D01*
X7225898Y25570133D01*
X7221547Y25564949D01*
X7215189Y25562634D01*
X7205446Y25545761D01*
X7192921Y25530833D01*
X7191203Y25521091D01*
X7189537Y25518205D01*
X7190115Y25514923D01*
X7188398Y25505181D01*
X7188398Y24505181D01*
X6862207Y24505181D01*
X6862207Y25505181D01*
X6844660Y25553390D01*
X6800231Y25579042D01*
X6749707Y25570133D01*
X6716730Y25530833D01*
X6712207Y25505181D01*
X6712207Y24787598D01*
X6280897Y25542391D01*
X6275604Y25546873D01*
X6273232Y25553390D01*
X6256492Y25563055D01*
X6241744Y25575543D01*
X6234809Y25575574D01*
X6228803Y25579042D01*
X6209769Y25575686D01*
X6190442Y25575772D01*
X6185108Y25571338D01*
X6178279Y25570133D01*
X6165854Y25555327D01*
X6150995Y25542970D01*
X6149760Y25536147D01*
X6145302Y25530833D01*
X6140779Y25505181D01*
X6140779Y24505181D01*
X5798035Y24505181D01*
X5840240Y24547387D01*
X5847158Y24562225D01*
X5857684Y24574768D01*
X5860527Y24590896D01*
X5861921Y24593884D01*
X5861398Y24595835D01*
X5862207Y24600420D01*
X5862207Y24933753D01*
X5855543Y24952062D01*
X5852159Y24971253D01*
X5846974Y24975604D01*
X5844660Y24981962D01*
X5827786Y24991705D01*
X5812859Y25004230D01*
X5803116Y25005948D01*
X5800231Y25007614D01*
X5796948Y25007036D01*
X5787207Y25008753D01*
X5596731Y25008753D01*
X5548522Y24991206D01*
X5522870Y24946777D01*
X5531779Y24896253D01*
X5571079Y24863276D01*
X5596731Y24858753D01*
X5712207Y24858753D01*
X5712207Y24631486D01*
X5699074Y24618353D01*
X5584561Y24580181D01*
X5513663Y24580181D01*
X5399150Y24618352D01*
X5325037Y24692466D01*
X5286543Y24769453D01*
X5243160Y24942987D01*
X5243160Y25067376D01*
X5286543Y25240910D01*
X5325037Y25317897D01*
X5399150Y25392010D01*
X5513663Y25430181D01*
X5626645Y25430181D01*
X5706047Y25390480D01*
X5757013Y25384615D01*
X5799826Y25412881D01*
X5814453Y25462056D01*
X5794050Y25509127D01*
X5773129Y25524644D01*
X5677891Y25572263D01*
X5673437Y25572776D01*
X5670002Y25575658D01*
X5644350Y25580181D01*
X5501493Y25580181D01*
X5499955Y25579622D01*
X5477775Y25576332D01*
X5334919Y25528713D01*
X5331408Y25525927D01*
X5326940Y25525536D01*
X5305603Y25510595D01*
X5210365Y25415357D01*
X5209674Y25413876D01*
X5196316Y25395865D01*
X5148697Y25300627D01*
X5148290Y25297099D01*
X5143018Y25285276D01*
X5095399Y25094800D01*
X5095759Y25091352D01*
X5093160Y25076610D01*
X5093160Y24933753D01*
X4950303Y24933753D01*
X4950303Y25723038D01*
X8052683Y25723038D01*
X8052683Y24287324D01*
G37*
G36*
X7052397Y26827324D02*
G01*
X4997922Y26827324D01*
X4997922Y27045181D01*
X5140779Y27045181D01*
X5158326Y26996972D01*
X5202755Y26971320D01*
X5253279Y26980229D01*
X5286256Y27019529D01*
X5290779Y27045181D01*
X5290779Y27762765D01*
X5722089Y27007970D01*
X5727382Y27003489D01*
X5729754Y26996972D01*
X5746491Y26987309D01*
X5761242Y26974819D01*
X5768176Y26974789D01*
X5774183Y26971320D01*
X5793216Y26974677D01*
X5812544Y26974590D01*
X5817877Y26979025D01*
X5824707Y26980229D01*
X5837131Y26995036D01*
X5851991Y27007392D01*
X5853225Y27014216D01*
X5857684Y27019529D01*
X5862207Y27045181D01*
X5862207Y27473753D01*
X6140779Y27473753D01*
X6141964Y27470496D01*
X6143018Y27455563D01*
X6190637Y27265087D01*
X6192625Y27262143D01*
X6196316Y27249736D01*
X6243935Y27154498D01*
X6245121Y27153375D01*
X6257984Y27135006D01*
X6353222Y27039767D01*
X6357286Y27037872D01*
X6359633Y27034052D01*
X6382538Y27021649D01*
X6525394Y26974030D01*
X6527029Y26974075D01*
X6549112Y26970181D01*
X6644350Y26970181D01*
X6645888Y26970742D01*
X6668067Y26974030D01*
X6810924Y27021649D01*
X6814435Y27024437D01*
X6818904Y27024827D01*
X6840241Y27039768D01*
X6887859Y27087387D01*
X6909540Y27133884D01*
X6896262Y27183439D01*
X6854237Y27212865D01*
X6803129Y27208393D01*
X6781792Y27193452D01*
X6746693Y27158353D01*
X6632180Y27120181D01*
X6561282Y27120181D01*
X6446769Y27158352D01*
X6372656Y27232466D01*
X6334162Y27309453D01*
X6290779Y27482987D01*
X6290779Y27607376D01*
X6334162Y27780910D01*
X6372656Y27857897D01*
X6446769Y27932010D01*
X6561282Y27970181D01*
X6632180Y27970181D01*
X6746693Y27932010D01*
X6781793Y27896910D01*
X6828289Y27875229D01*
X6877844Y27888506D01*
X6907270Y27930532D01*
X6902799Y27981639D01*
X6887859Y28002976D01*
X6840240Y28050595D01*
X6836176Y28052490D01*
X6833829Y28056311D01*
X6810924Y28068713D01*
X6668067Y28116332D01*
X6666432Y28116288D01*
X6644350Y28120181D01*
X6549112Y28120181D01*
X6547574Y28119622D01*
X6525394Y28116332D01*
X6382538Y28068713D01*
X6379027Y28065927D01*
X6374559Y28065536D01*
X6353222Y28050595D01*
X6257984Y27955357D01*
X6257293Y27953876D01*
X6243935Y27935865D01*
X6196316Y27840627D01*
X6195909Y27837099D01*
X6190637Y27825276D01*
X6143018Y27634800D01*
X6143378Y27631352D01*
X6140779Y27616610D01*
X6140779Y27473753D01*
X5862207Y27473753D01*
X5862207Y28045181D01*
X5844660Y28093390D01*
X5800231Y28119042D01*
X5749707Y28110133D01*
X5716730Y28070833D01*
X5712207Y28045181D01*
X5712207Y27327598D01*
X5280897Y28082391D01*
X5275604Y28086873D01*
X5273232Y28093390D01*
X5256492Y28103055D01*
X5241744Y28115543D01*
X5234809Y28115574D01*
X5228803Y28119042D01*
X5209769Y28115686D01*
X5190442Y28115772D01*
X5185108Y28111338D01*
X5178279Y28110133D01*
X5165854Y28095327D01*
X5150995Y28082970D01*
X5149760Y28076147D01*
X5145302Y28070833D01*
X5140779Y28045181D01*
X5140779Y27045181D01*
X4997922Y27045181D01*
X4997922Y28263038D01*
X7052397Y28263038D01*
X7052397Y26827324D01*
G37*
G36*
X8695161Y30475923D02*
G01*
X8725568Y30445516D01*
X8764061Y30368529D01*
X8807445Y30194995D01*
X8807445Y29975368D01*
X8764061Y29801834D01*
X8725567Y29724847D01*
X8695160Y29694439D01*
X8626645Y29660181D01*
X8566817Y29660181D01*
X8498301Y29694439D01*
X8467894Y29724847D01*
X8429400Y29801834D01*
X8386017Y29975368D01*
X8386017Y30194995D01*
X8429400Y30368529D01*
X8467894Y30445516D01*
X8498301Y30475923D01*
X8566817Y30510181D01*
X8626645Y30510181D01*
X8695161Y30475923D01*
G37*
G36*
X10048834Y29367324D02*
G01*
X4999061Y29367324D01*
X4999061Y29979158D01*
X5141918Y29979158D01*
X5150827Y29928634D01*
X5190127Y29895657D01*
X5215779Y29891134D01*
X5521731Y29891134D01*
X5521731Y29585181D01*
X5539278Y29536972D01*
X5583707Y29511320D01*
X5634231Y29520229D01*
X5667208Y29559529D01*
X5671731Y29585181D01*
X5671731Y29598205D01*
X6332394Y29598205D01*
X6341303Y29547681D01*
X6380603Y29514704D01*
X6406255Y29510181D01*
X6977683Y29510181D01*
X7025892Y29527728D01*
X7051544Y29572157D01*
X7042635Y29622681D01*
X7003335Y29655658D01*
X6977683Y29660181D01*
X6766969Y29660181D01*
X6766969Y30585181D01*
X6765493Y30589235D01*
X6766514Y30593424D01*
X6764150Y30598205D01*
X7237156Y30598205D01*
X7246065Y30547681D01*
X7285365Y30514704D01*
X7311017Y30510181D01*
X7863942Y30510181D01*
X7480176Y29614725D01*
X7477314Y29563502D01*
X7508046Y29522422D01*
X7557994Y29510709D01*
X7603786Y29533841D01*
X7618048Y29555637D01*
X7793975Y29966134D01*
X8236017Y29966134D01*
X8237202Y29962877D01*
X8238256Y29947944D01*
X8285875Y29757468D01*
X8287863Y29754524D01*
X8291554Y29742117D01*
X8339173Y29646879D01*
X8340361Y29645754D01*
X8353221Y29627388D01*
X8400840Y29579768D01*
X8402321Y29579078D01*
X8420333Y29565718D01*
X8515571Y29518099D01*
X8520024Y29517587D01*
X8523460Y29514704D01*
X8549112Y29510181D01*
X8644350Y29510181D01*
X8648563Y29511715D01*
X8652924Y29510673D01*
X8677891Y29518099D01*
X8773129Y29565718D01*
X8774253Y29566906D01*
X8792622Y29579768D01*
X8840240Y29627387D01*
X8840930Y29628869D01*
X8854289Y29646879D01*
X8901908Y29742117D01*
X8902314Y29745646D01*
X8907587Y29757468D01*
X8955206Y29947944D01*
X8954845Y29951393D01*
X8957445Y29966134D01*
X8957445Y30204229D01*
X8956259Y30207487D01*
X8955206Y30222419D01*
X8907587Y30412895D01*
X8905598Y30415840D01*
X8901908Y30428246D01*
X8854289Y30523484D01*
X8853099Y30524610D01*
X8840240Y30542976D01*
X8795986Y30587230D01*
X9093188Y30587230D01*
X9097009Y30561464D01*
X9430342Y29561464D01*
X9431684Y29559773D01*
X9431743Y29557614D01*
X9447492Y29539853D01*
X9462233Y29521278D01*
X9464346Y29520846D01*
X9465780Y29519229D01*
X9489250Y29515749D01*
X9512494Y29510992D01*
X9514393Y29512021D01*
X9516529Y29511704D01*
X9536742Y29524123D01*
X9557608Y29535421D01*
X9558401Y29537429D01*
X9560241Y29538559D01*
X9572644Y29561464D01*
X9905977Y30561464D01*
X9904576Y30612747D01*
X9870538Y30651133D01*
X9819790Y30658658D01*
X9776077Y30631803D01*
X9763675Y30608898D01*
X9501493Y29822352D01*
X9239311Y30608898D01*
X9207420Y30649084D01*
X9157159Y30659370D01*
X9112045Y30634941D01*
X9093188Y30587230D01*
X8795986Y30587230D01*
X8792621Y30590595D01*
X8791139Y30591286D01*
X8773129Y30604644D01*
X8677891Y30652263D01*
X8673437Y30652776D01*
X8670002Y30655658D01*
X8644350Y30660181D01*
X8549112Y30660181D01*
X8544898Y30658648D01*
X8540537Y30659689D01*
X8515571Y30652263D01*
X8420333Y30604644D01*
X8419207Y30603455D01*
X8400841Y30590595D01*
X8353222Y30542976D01*
X8352531Y30541495D01*
X8339173Y30523484D01*
X8291554Y30428246D01*
X8291147Y30424718D01*
X8285875Y30412895D01*
X8238256Y30222419D01*
X8238616Y30218971D01*
X8236017Y30204229D01*
X8236017Y29966134D01*
X7793975Y29966134D01*
X8046619Y30555637D01*
X8047113Y30564483D01*
X8051544Y30572157D01*
X8048504Y30589392D01*
X8049481Y30606860D01*
X8044173Y30613954D01*
X8042635Y30622681D01*
X8029229Y30633930D01*
X8018749Y30647939D01*
X8010123Y30649962D01*
X8003335Y30655658D01*
X7977683Y30660181D01*
X7311017Y30660181D01*
X7262808Y30642634D01*
X7237156Y30598205D01*
X6764150Y30598205D01*
X6756866Y30612937D01*
X6749422Y30633390D01*
X6745687Y30635546D01*
X6743776Y30639413D01*
X6723841Y30648160D01*
X6704993Y30659042D01*
X6700745Y30658294D01*
X6696796Y30660026D01*
X6675901Y30653913D01*
X6654469Y30650133D01*
X6651697Y30646831D01*
X6647558Y30645619D01*
X6629565Y30626784D01*
X6538445Y30490104D01*
X6457066Y30408725D01*
X6372714Y30366549D01*
X6337442Y30329295D01*
X6334367Y30278084D01*
X6364931Y30236879D01*
X6414829Y30224959D01*
X6439796Y30232385D01*
X6535034Y30280004D01*
X6536159Y30281194D01*
X6554526Y30294053D01*
X6616969Y30356496D01*
X6616969Y29660181D01*
X6406255Y29660181D01*
X6358046Y29642634D01*
X6332394Y29598205D01*
X5671731Y29598205D01*
X5671731Y29891134D01*
X5977684Y29891134D01*
X6025893Y29908681D01*
X6051545Y29953110D01*
X6042636Y30003634D01*
X6003336Y30036611D01*
X5977684Y30041134D01*
X5671731Y30041134D01*
X5671731Y30347086D01*
X5654184Y30395295D01*
X5609755Y30420947D01*
X5559231Y30412038D01*
X5526254Y30372738D01*
X5521731Y30347086D01*
X5521731Y30041134D01*
X5215779Y30041134D01*
X5167570Y30023587D01*
X5141918Y29979158D01*
X4999061Y29979158D01*
X4999061Y30803038D01*
X10048834Y30803038D01*
X10048834Y29367324D01*
G37*
G36*
X116772542Y31745923D02*
G01*
X116802949Y31715516D01*
X116837207Y31647000D01*
X116837207Y31539553D01*
X116802949Y31471037D01*
X116772542Y31440630D01*
X116704026Y31406372D01*
X116415779Y31406372D01*
X116415779Y31780181D01*
X116704026Y31780181D01*
X116772542Y31745923D01*
G37*
G36*
X119939302Y30637324D02*
G01*
X116122922Y30637324D01*
X116122922Y30855181D01*
X116265779Y30855181D01*
X116283326Y30806972D01*
X116327755Y30781320D01*
X116378279Y30790229D01*
X116411256Y30829529D01*
X116415779Y30855181D01*
X116415779Y31256372D01*
X116539825Y31256372D01*
X116850765Y30812171D01*
X116892786Y30782739D01*
X116943894Y30787203D01*
X116980176Y30823475D01*
X116984655Y30874582D01*
X116973650Y30898190D01*
X116722680Y31256718D01*
X116725944Y31257906D01*
X116730305Y31256864D01*
X116755272Y31264290D01*
X116794198Y31283753D01*
X117218160Y31283753D01*
X117219345Y31280496D01*
X117220399Y31265563D01*
X117268018Y31075087D01*
X117270006Y31072143D01*
X117273697Y31059736D01*
X117321316Y30964498D01*
X117322502Y30963375D01*
X117335365Y30945006D01*
X117430603Y30849767D01*
X117434667Y30847872D01*
X117437014Y30844052D01*
X117459919Y30831649D01*
X117602775Y30784030D01*
X117604410Y30784075D01*
X117626493Y30780181D01*
X117721731Y30780181D01*
X117723269Y30780742D01*
X117745448Y30784030D01*
X117888305Y30831649D01*
X117891816Y30834437D01*
X117896285Y30834827D01*
X117917622Y30849768D01*
X117923035Y30855181D01*
X118265779Y30855181D01*
X118272442Y30836873D01*
X118275827Y30817681D01*
X118281011Y30813331D01*
X118283326Y30806972D01*
X118300199Y30797230D01*
X118315127Y30784704D01*
X118324869Y30782987D01*
X118327755Y30781320D01*
X118331037Y30781899D01*
X118340779Y30780181D01*
X118816969Y30780181D01*
X118865178Y30797728D01*
X118890830Y30842157D01*
X118888533Y30855181D01*
X119075303Y30855181D01*
X119092850Y30806972D01*
X119137279Y30781320D01*
X119187803Y30790229D01*
X119220780Y30829529D01*
X119225303Y30855181D01*
X119225303Y31252687D01*
X119285045Y31312430D01*
X119661731Y30810181D01*
X119704694Y30782142D01*
X119755628Y30788278D01*
X119790702Y30825719D01*
X119793504Y30876945D01*
X119781731Y30900181D01*
X119392188Y31419573D01*
X119774764Y31802148D01*
X119796445Y31848644D01*
X119783168Y31898199D01*
X119741142Y31927625D01*
X119690035Y31923154D01*
X119668698Y31908214D01*
X119225303Y31464819D01*
X119225303Y31855181D01*
X119207756Y31903390D01*
X119163327Y31929042D01*
X119112803Y31920133D01*
X119079826Y31880833D01*
X119075303Y31855181D01*
X119075303Y30855181D01*
X118888533Y30855181D01*
X118881921Y30892681D01*
X118842621Y30925658D01*
X118816969Y30930181D01*
X118415779Y30930181D01*
X118415779Y31855181D01*
X118398232Y31903390D01*
X118353803Y31929042D01*
X118303279Y31920133D01*
X118270302Y31880833D01*
X118265779Y31855181D01*
X118265779Y30855181D01*
X117923035Y30855181D01*
X117965240Y30897387D01*
X117986921Y30943884D01*
X117973643Y30993439D01*
X117931618Y31022865D01*
X117880510Y31018393D01*
X117859173Y31003452D01*
X117824074Y30968353D01*
X117709561Y30930181D01*
X117638663Y30930181D01*
X117524150Y30968352D01*
X117450037Y31042466D01*
X117411543Y31119453D01*
X117368160Y31292987D01*
X117368160Y31417376D01*
X117411543Y31590910D01*
X117450037Y31667897D01*
X117524150Y31742010D01*
X117638663Y31780181D01*
X117709561Y31780181D01*
X117824074Y31742010D01*
X117859174Y31706910D01*
X117905670Y31685229D01*
X117955225Y31698506D01*
X117984651Y31740532D01*
X117980180Y31791639D01*
X117965240Y31812976D01*
X117917621Y31860595D01*
X117913557Y31862490D01*
X117911210Y31866311D01*
X117888305Y31878713D01*
X117745448Y31926332D01*
X117743813Y31926288D01*
X117721731Y31930181D01*
X117626493Y31930181D01*
X117624955Y31929622D01*
X117602775Y31926332D01*
X117459919Y31878713D01*
X117456408Y31875927D01*
X117451940Y31875536D01*
X117430603Y31860595D01*
X117335365Y31765357D01*
X117334674Y31763876D01*
X117321316Y31745865D01*
X117273697Y31650627D01*
X117273290Y31647099D01*
X117268018Y31635276D01*
X117220399Y31444800D01*
X117220759Y31441352D01*
X117218160Y31426610D01*
X117218160Y31283753D01*
X116794198Y31283753D01*
X116850510Y31311909D01*
X116851635Y31313099D01*
X116870002Y31325958D01*
X116917621Y31373577D01*
X116918312Y31375059D01*
X116931670Y31393069D01*
X116979289Y31488307D01*
X116979801Y31492761D01*
X116982684Y31496196D01*
X116987207Y31521848D01*
X116987207Y31664705D01*
X116985673Y31668919D01*
X116986715Y31673280D01*
X116979289Y31698246D01*
X116931670Y31793484D01*
X116930480Y31794610D01*
X116917621Y31812976D01*
X116870002Y31860595D01*
X116868520Y31861286D01*
X116850510Y31874644D01*
X116755272Y31922263D01*
X116750818Y31922776D01*
X116747383Y31925658D01*
X116721731Y31930181D01*
X116340779Y31930181D01*
X116322470Y31923518D01*
X116303279Y31920133D01*
X116298928Y31914949D01*
X116292570Y31912634D01*
X116282827Y31895761D01*
X116270302Y31880833D01*
X116268584Y31871091D01*
X116266918Y31868205D01*
X116267496Y31864923D01*
X116265779Y31855181D01*
X116265779Y30855181D01*
X116122922Y30855181D01*
X116122922Y32073038D01*
X119939302Y32073038D01*
X119939302Y30637324D01*
G37*
X74848142Y45129181D02*
X74514809Y45605372D01*
X74276714Y45129181D02*
X74276714Y46129181D01*
X74276714Y46129181D02*
X74657666Y46129181D01*
X74657666Y46129181D02*
X74752904Y46081562D01*
X74752904Y46081562D02*
X74800523Y46033943D01*
X74800523Y46033943D02*
X74848142Y45938705D01*
X74848142Y45938705D02*
X74848142Y45795848D01*
X74848142Y45795848D02*
X74800523Y45700610D01*
X74800523Y45700610D02*
X74752904Y45652991D01*
X74752904Y45652991D02*
X74657666Y45605372D01*
X74657666Y45605372D02*
X74276714Y45605372D01*
X75800523Y45129181D02*
X75229095Y45129181D01*
X75514809Y45129181D02*
X75514809Y46129181D01*
X75514809Y46129181D02*
X75419571Y45986324D01*
X75419571Y45986324D02*
X75324333Y45891086D01*
X75324333Y45891086D02*
X75229095Y45843467D01*
X76705285Y46129181D02*
X76229095Y46129181D01*
X76229095Y46129181D02*
X76181476Y45652991D01*
X76181476Y45652991D02*
X76229095Y45700610D01*
X76229095Y45700610D02*
X76324333Y45748229D01*
X76324333Y45748229D02*
X76562428Y45748229D01*
X76562428Y45748229D02*
X76657666Y45700610D01*
X76657666Y45700610D02*
X76705285Y45652991D01*
X76705285Y45652991D02*
X76752904Y45557753D01*
X76752904Y45557753D02*
X76752904Y45319658D01*
X76752904Y45319658D02*
X76705285Y45224420D01*
X76705285Y45224420D02*
X76657666Y45176800D01*
X76657666Y45176800D02*
X76562428Y45129181D01*
X76562428Y45129181D02*
X76324333Y45129181D01*
X76324333Y45129181D02*
X76229095Y45176800D01*
X76229095Y45176800D02*
X76181476Y45224420D01*
D12*
X66903380Y31793758D02*
X66903380Y33063758D01*
X66903380Y33063758D02*
X67629095Y31793758D01*
X67629095Y31793758D02*
X67629095Y33063758D01*
X68112904Y33063758D02*
X68899095Y33063758D01*
X68899095Y33063758D02*
X68475761Y32579949D01*
X68475761Y32579949D02*
X68657190Y32579949D01*
X68657190Y32579949D02*
X68778142Y32519473D01*
X68778142Y32519473D02*
X68838618Y32458996D01*
X68838618Y32458996D02*
X68899095Y32338044D01*
X68899095Y32338044D02*
X68899095Y32035663D01*
X68899095Y32035663D02*
X68838618Y31914711D01*
X68838618Y31914711D02*
X68778142Y31854234D01*
X68778142Y31854234D02*
X68657190Y31793758D01*
X68657190Y31793758D02*
X68294333Y31793758D01*
X68294333Y31793758D02*
X68173380Y31854234D01*
X68173380Y31854234D02*
X68112904Y31914711D01*
D10*
X76349047Y35420274D02*
X76349047Y36690274D01*
X76953809Y35420274D02*
X76953809Y36690274D01*
X76953809Y36690274D02*
X77679524Y35420274D01*
X77679524Y35420274D02*
X77679524Y36690274D01*
X78284285Y35904084D02*
X79251905Y35904084D01*
X80521905Y35420274D02*
X79796190Y35420274D01*
X80159047Y35420274D02*
X80159047Y36690274D01*
X80159047Y36690274D02*
X80038095Y36508846D01*
X80038095Y36508846D02*
X79917143Y36387893D01*
X79917143Y36387893D02*
X79796190Y36327417D01*
X81610476Y36266941D02*
X81610476Y35420274D01*
X81308095Y36750750D02*
X81005714Y35843608D01*
X81005714Y35843608D02*
X81791905Y35843608D01*
X185877095Y39628181D02*
X185877095Y38818658D01*
X185877095Y38818658D02*
X185924714Y38723420D01*
X185924714Y38723420D02*
X185972333Y38675800D01*
X185972333Y38675800D02*
X186067571Y38628181D01*
X186067571Y38628181D02*
X186258047Y38628181D01*
X186258047Y38628181D02*
X186353285Y38675800D01*
X186353285Y38675800D02*
X186400904Y38723420D01*
X186400904Y38723420D02*
X186448523Y38818658D01*
X186448523Y38818658D02*
X186448523Y39628181D01*
X187448523Y38628181D02*
X186877095Y38628181D01*
X187162809Y38628181D02*
X187162809Y39628181D01*
X187162809Y39628181D02*
X187067571Y39485324D01*
X187067571Y39485324D02*
X186972333Y39390086D01*
X186972333Y39390086D02*
X186877095Y39342467D01*
X227175905Y11326181D02*
X227175905Y12326181D01*
X227175905Y12326181D02*
X227414000Y12326181D01*
X227414000Y12326181D02*
X227556857Y12278562D01*
X227556857Y12278562D02*
X227652095Y12183324D01*
X227652095Y12183324D02*
X227699714Y12088086D01*
X227699714Y12088086D02*
X227747333Y11897610D01*
X227747333Y11897610D02*
X227747333Y11754753D01*
X227747333Y11754753D02*
X227699714Y11564277D01*
X227699714Y11564277D02*
X227652095Y11469039D01*
X227652095Y11469039D02*
X227556857Y11373800D01*
X227556857Y11373800D02*
X227414000Y11326181D01*
X227414000Y11326181D02*
X227175905Y11326181D01*
X228128286Y12230943D02*
X228175905Y12278562D01*
X228175905Y12278562D02*
X228271143Y12326181D01*
X228271143Y12326181D02*
X228509238Y12326181D01*
X228509238Y12326181D02*
X228604476Y12278562D01*
X228604476Y12278562D02*
X228652095Y12230943D01*
X228652095Y12230943D02*
X228699714Y12135705D01*
X228699714Y12135705D02*
X228699714Y12040467D01*
X228699714Y12040467D02*
X228652095Y11897610D01*
X228652095Y11897610D02*
X228080667Y11326181D01*
X228080667Y11326181D02*
X228699714Y11326181D01*
X42082142Y20586420D02*
X42034523Y20538800D01*
X42034523Y20538800D02*
X41891666Y20491181D01*
X41891666Y20491181D02*
X41796428Y20491181D01*
X41796428Y20491181D02*
X41653571Y20538800D01*
X41653571Y20538800D02*
X41558333Y20634039D01*
X41558333Y20634039D02*
X41510714Y20729277D01*
X41510714Y20729277D02*
X41463095Y20919753D01*
X41463095Y20919753D02*
X41463095Y21062610D01*
X41463095Y21062610D02*
X41510714Y21253086D01*
X41510714Y21253086D02*
X41558333Y21348324D01*
X41558333Y21348324D02*
X41653571Y21443562D01*
X41653571Y21443562D02*
X41796428Y21491181D01*
X41796428Y21491181D02*
X41891666Y21491181D01*
X41891666Y21491181D02*
X42034523Y21443562D01*
X42034523Y21443562D02*
X42082142Y21395943D01*
X43034523Y20491181D02*
X42463095Y20491181D01*
X42748809Y20491181D02*
X42748809Y21491181D01*
X42748809Y21491181D02*
X42653571Y21348324D01*
X42653571Y21348324D02*
X42558333Y21253086D01*
X42558333Y21253086D02*
X42463095Y21205467D01*
X43510714Y20491181D02*
X43701190Y20491181D01*
X43701190Y20491181D02*
X43796428Y20538800D01*
X43796428Y20538800D02*
X43844047Y20586420D01*
X43844047Y20586420D02*
X43939285Y20729277D01*
X43939285Y20729277D02*
X43986904Y20919753D01*
X43986904Y20919753D02*
X43986904Y21300705D01*
X43986904Y21300705D02*
X43939285Y21395943D01*
X43939285Y21395943D02*
X43891666Y21443562D01*
X43891666Y21443562D02*
X43796428Y21491181D01*
X43796428Y21491181D02*
X43605952Y21491181D01*
X43605952Y21491181D02*
X43510714Y21443562D01*
X43510714Y21443562D02*
X43463095Y21395943D01*
X43463095Y21395943D02*
X43415476Y21300705D01*
X43415476Y21300705D02*
X43415476Y21062610D01*
X43415476Y21062610D02*
X43463095Y20967372D01*
X43463095Y20967372D02*
X43510714Y20919753D01*
X43510714Y20919753D02*
X43605952Y20872134D01*
X43605952Y20872134D02*
X43796428Y20872134D01*
X43796428Y20872134D02*
X43891666Y20919753D01*
X43891666Y20919753D02*
X43939285Y20967372D01*
X43939285Y20967372D02*
X43986904Y21062610D01*
X106987095Y45748181D02*
X106987095Y44938658D01*
X106987095Y44938658D02*
X107034714Y44843420D01*
X107034714Y44843420D02*
X107082333Y44795800D01*
X107082333Y44795800D02*
X107177571Y44748181D01*
X107177571Y44748181D02*
X107368047Y44748181D01*
X107368047Y44748181D02*
X107463285Y44795800D01*
X107463285Y44795800D02*
X107510904Y44843420D01*
X107510904Y44843420D02*
X107558523Y44938658D01*
X107558523Y44938658D02*
X107558523Y45748181D01*
X108082333Y44748181D02*
X108272809Y44748181D01*
X108272809Y44748181D02*
X108368047Y44795800D01*
X108368047Y44795800D02*
X108415666Y44843420D01*
X108415666Y44843420D02*
X108510904Y44986277D01*
X108510904Y44986277D02*
X108558523Y45176753D01*
X108558523Y45176753D02*
X108558523Y45557705D01*
X108558523Y45557705D02*
X108510904Y45652943D01*
X108510904Y45652943D02*
X108463285Y45700562D01*
X108463285Y45700562D02*
X108368047Y45748181D01*
X108368047Y45748181D02*
X108177571Y45748181D01*
X108177571Y45748181D02*
X108082333Y45700562D01*
X108082333Y45700562D02*
X108034714Y45652943D01*
X108034714Y45652943D02*
X107987095Y45557705D01*
X107987095Y45557705D02*
X107987095Y45319610D01*
X107987095Y45319610D02*
X108034714Y45224372D01*
X108034714Y45224372D02*
X108082333Y45176753D01*
X108082333Y45176753D02*
X108177571Y45129134D01*
X108177571Y45129134D02*
X108368047Y45129134D01*
X108368047Y45129134D02*
X108463285Y45176753D01*
X108463285Y45176753D02*
X108510904Y45224372D01*
X108510904Y45224372D02*
X108558523Y45319610D01*
X176780333Y37202181D02*
X176447000Y37678372D01*
X176208905Y37202181D02*
X176208905Y38202181D01*
X176208905Y38202181D02*
X176589857Y38202181D01*
X176589857Y38202181D02*
X176685095Y38154562D01*
X176685095Y38154562D02*
X176732714Y38106943D01*
X176732714Y38106943D02*
X176780333Y38011705D01*
X176780333Y38011705D02*
X176780333Y37868848D01*
X176780333Y37868848D02*
X176732714Y37773610D01*
X176732714Y37773610D02*
X176685095Y37725991D01*
X176685095Y37725991D02*
X176589857Y37678372D01*
X176589857Y37678372D02*
X176208905Y37678372D01*
X177256524Y37202181D02*
X177447000Y37202181D01*
X177447000Y37202181D02*
X177542238Y37249800D01*
X177542238Y37249800D02*
X177589857Y37297420D01*
X177589857Y37297420D02*
X177685095Y37440277D01*
X177685095Y37440277D02*
X177732714Y37630753D01*
X177732714Y37630753D02*
X177732714Y38011705D01*
X177732714Y38011705D02*
X177685095Y38106943D01*
X177685095Y38106943D02*
X177637476Y38154562D01*
X177637476Y38154562D02*
X177542238Y38202181D01*
X177542238Y38202181D02*
X177351762Y38202181D01*
X177351762Y38202181D02*
X177256524Y38154562D01*
X177256524Y38154562D02*
X177208905Y38106943D01*
X177208905Y38106943D02*
X177161286Y38011705D01*
X177161286Y38011705D02*
X177161286Y37773610D01*
X177161286Y37773610D02*
X177208905Y37678372D01*
X177208905Y37678372D02*
X177256524Y37630753D01*
X177256524Y37630753D02*
X177351762Y37583134D01*
X177351762Y37583134D02*
X177542238Y37583134D01*
X177542238Y37583134D02*
X177637476Y37630753D01*
X177637476Y37630753D02*
X177685095Y37678372D01*
X177685095Y37678372D02*
X177732714Y37773610D01*
X195489333Y23264181D02*
X195156000Y23740372D01*
X194917905Y23264181D02*
X194917905Y24264181D01*
X194917905Y24264181D02*
X195298857Y24264181D01*
X195298857Y24264181D02*
X195394095Y24216562D01*
X195394095Y24216562D02*
X195441714Y24168943D01*
X195441714Y24168943D02*
X195489333Y24073705D01*
X195489333Y24073705D02*
X195489333Y23930848D01*
X195489333Y23930848D02*
X195441714Y23835610D01*
X195441714Y23835610D02*
X195394095Y23787991D01*
X195394095Y23787991D02*
X195298857Y23740372D01*
X195298857Y23740372D02*
X194917905Y23740372D01*
X196441714Y23264181D02*
X195870286Y23264181D01*
X196156000Y23264181D02*
X196156000Y24264181D01*
X196156000Y24264181D02*
X196060762Y24121324D01*
X196060762Y24121324D02*
X195965524Y24026086D01*
X195965524Y24026086D02*
X195870286Y23978467D01*
X60878142Y17538420D02*
X60830523Y17490800D01*
X60830523Y17490800D02*
X60687666Y17443181D01*
X60687666Y17443181D02*
X60592428Y17443181D01*
X60592428Y17443181D02*
X60449571Y17490800D01*
X60449571Y17490800D02*
X60354333Y17586039D01*
X60354333Y17586039D02*
X60306714Y17681277D01*
X60306714Y17681277D02*
X60259095Y17871753D01*
X60259095Y17871753D02*
X60259095Y18014610D01*
X60259095Y18014610D02*
X60306714Y18205086D01*
X60306714Y18205086D02*
X60354333Y18300324D01*
X60354333Y18300324D02*
X60449571Y18395562D01*
X60449571Y18395562D02*
X60592428Y18443181D01*
X60592428Y18443181D02*
X60687666Y18443181D01*
X60687666Y18443181D02*
X60830523Y18395562D01*
X60830523Y18395562D02*
X60878142Y18347943D01*
X61259095Y18347943D02*
X61306714Y18395562D01*
X61306714Y18395562D02*
X61401952Y18443181D01*
X61401952Y18443181D02*
X61640047Y18443181D01*
X61640047Y18443181D02*
X61735285Y18395562D01*
X61735285Y18395562D02*
X61782904Y18347943D01*
X61782904Y18347943D02*
X61830523Y18252705D01*
X61830523Y18252705D02*
X61830523Y18157467D01*
X61830523Y18157467D02*
X61782904Y18014610D01*
X61782904Y18014610D02*
X61211476Y17443181D01*
X61211476Y17443181D02*
X61830523Y17443181D01*
X62449571Y18443181D02*
X62544809Y18443181D01*
X62544809Y18443181D02*
X62640047Y18395562D01*
X62640047Y18395562D02*
X62687666Y18347943D01*
X62687666Y18347943D02*
X62735285Y18252705D01*
X62735285Y18252705D02*
X62782904Y18062229D01*
X62782904Y18062229D02*
X62782904Y17824134D01*
X62782904Y17824134D02*
X62735285Y17633658D01*
X62735285Y17633658D02*
X62687666Y17538420D01*
X62687666Y17538420D02*
X62640047Y17490800D01*
X62640047Y17490800D02*
X62544809Y17443181D01*
X62544809Y17443181D02*
X62449571Y17443181D01*
X62449571Y17443181D02*
X62354333Y17490800D01*
X62354333Y17490800D02*
X62306714Y17538420D01*
X62306714Y17538420D02*
X62259095Y17633658D01*
X62259095Y17633658D02*
X62211476Y17824134D01*
X62211476Y17824134D02*
X62211476Y18062229D01*
X62211476Y18062229D02*
X62259095Y18252705D01*
X62259095Y18252705D02*
X62306714Y18347943D01*
X62306714Y18347943D02*
X62354333Y18395562D01*
X62354333Y18395562D02*
X62449571Y18443181D01*
X176812142Y39742420D02*
X176764523Y39694800D01*
X176764523Y39694800D02*
X176621666Y39647181D01*
X176621666Y39647181D02*
X176526428Y39647181D01*
X176526428Y39647181D02*
X176383571Y39694800D01*
X176383571Y39694800D02*
X176288333Y39790039D01*
X176288333Y39790039D02*
X176240714Y39885277D01*
X176240714Y39885277D02*
X176193095Y40075753D01*
X176193095Y40075753D02*
X176193095Y40218610D01*
X176193095Y40218610D02*
X176240714Y40409086D01*
X176240714Y40409086D02*
X176288333Y40504324D01*
X176288333Y40504324D02*
X176383571Y40599562D01*
X176383571Y40599562D02*
X176526428Y40647181D01*
X176526428Y40647181D02*
X176621666Y40647181D01*
X176621666Y40647181D02*
X176764523Y40599562D01*
X176764523Y40599562D02*
X176812142Y40551943D01*
X177764523Y39647181D02*
X177193095Y39647181D01*
X177478809Y39647181D02*
X177478809Y40647181D01*
X177478809Y40647181D02*
X177383571Y40504324D01*
X177383571Y40504324D02*
X177288333Y40409086D01*
X177288333Y40409086D02*
X177193095Y40361467D01*
X178383571Y40647181D02*
X178478809Y40647181D01*
X178478809Y40647181D02*
X178574047Y40599562D01*
X178574047Y40599562D02*
X178621666Y40551943D01*
X178621666Y40551943D02*
X178669285Y40456705D01*
X178669285Y40456705D02*
X178716904Y40266229D01*
X178716904Y40266229D02*
X178716904Y40028134D01*
X178716904Y40028134D02*
X178669285Y39837658D01*
X178669285Y39837658D02*
X178621666Y39742420D01*
X178621666Y39742420D02*
X178574047Y39694800D01*
X178574047Y39694800D02*
X178478809Y39647181D01*
X178478809Y39647181D02*
X178383571Y39647181D01*
X178383571Y39647181D02*
X178288333Y39694800D01*
X178288333Y39694800D02*
X178240714Y39742420D01*
X178240714Y39742420D02*
X178193095Y39837658D01*
X178193095Y39837658D02*
X178145476Y40028134D01*
X178145476Y40028134D02*
X178145476Y40266229D01*
X178145476Y40266229D02*
X178193095Y40456705D01*
X178193095Y40456705D02*
X178240714Y40551943D01*
X178240714Y40551943D02*
X178288333Y40599562D01*
X178288333Y40599562D02*
X178383571Y40647181D01*
X228247142Y37424420D02*
X228199523Y37376800D01*
X228199523Y37376800D02*
X228056666Y37329181D01*
X228056666Y37329181D02*
X227961428Y37329181D01*
X227961428Y37329181D02*
X227818571Y37376800D01*
X227818571Y37376800D02*
X227723333Y37472039D01*
X227723333Y37472039D02*
X227675714Y37567277D01*
X227675714Y37567277D02*
X227628095Y37757753D01*
X227628095Y37757753D02*
X227628095Y37900610D01*
X227628095Y37900610D02*
X227675714Y38091086D01*
X227675714Y38091086D02*
X227723333Y38186324D01*
X227723333Y38186324D02*
X227818571Y38281562D01*
X227818571Y38281562D02*
X227961428Y38329181D01*
X227961428Y38329181D02*
X228056666Y38329181D01*
X228056666Y38329181D02*
X228199523Y38281562D01*
X228199523Y38281562D02*
X228247142Y38233943D01*
X229199523Y37329181D02*
X228628095Y37329181D01*
X228913809Y37329181D02*
X228913809Y38329181D01*
X228913809Y38329181D02*
X228818571Y38186324D01*
X228818571Y38186324D02*
X228723333Y38091086D01*
X228723333Y38091086D02*
X228628095Y38043467D01*
X230056666Y37995848D02*
X230056666Y37329181D01*
X229818571Y38376800D02*
X229580476Y37662515D01*
X229580476Y37662515D02*
X230199523Y37662515D01*
X97962142Y20586420D02*
X97914523Y20538800D01*
X97914523Y20538800D02*
X97771666Y20491181D01*
X97771666Y20491181D02*
X97676428Y20491181D01*
X97676428Y20491181D02*
X97533571Y20538800D01*
X97533571Y20538800D02*
X97438333Y20634039D01*
X97438333Y20634039D02*
X97390714Y20729277D01*
X97390714Y20729277D02*
X97343095Y20919753D01*
X97343095Y20919753D02*
X97343095Y21062610D01*
X97343095Y21062610D02*
X97390714Y21253086D01*
X97390714Y21253086D02*
X97438333Y21348324D01*
X97438333Y21348324D02*
X97533571Y21443562D01*
X97533571Y21443562D02*
X97676428Y21491181D01*
X97676428Y21491181D02*
X97771666Y21491181D01*
X97771666Y21491181D02*
X97914523Y21443562D01*
X97914523Y21443562D02*
X97962142Y21395943D01*
X98343095Y21395943D02*
X98390714Y21443562D01*
X98390714Y21443562D02*
X98485952Y21491181D01*
X98485952Y21491181D02*
X98724047Y21491181D01*
X98724047Y21491181D02*
X98819285Y21443562D01*
X98819285Y21443562D02*
X98866904Y21395943D01*
X98866904Y21395943D02*
X98914523Y21300705D01*
X98914523Y21300705D02*
X98914523Y21205467D01*
X98914523Y21205467D02*
X98866904Y21062610D01*
X98866904Y21062610D02*
X98295476Y20491181D01*
X98295476Y20491181D02*
X98914523Y20491181D01*
X99295476Y21395943D02*
X99343095Y21443562D01*
X99343095Y21443562D02*
X99438333Y21491181D01*
X99438333Y21491181D02*
X99676428Y21491181D01*
X99676428Y21491181D02*
X99771666Y21443562D01*
X99771666Y21443562D02*
X99819285Y21395943D01*
X99819285Y21395943D02*
X99866904Y21300705D01*
X99866904Y21300705D02*
X99866904Y21205467D01*
X99866904Y21205467D02*
X99819285Y21062610D01*
X99819285Y21062610D02*
X99247857Y20491181D01*
X99247857Y20491181D02*
X99866904Y20491181D01*
X14959095Y21745181D02*
X14959095Y20935658D01*
X14959095Y20935658D02*
X15006714Y20840420D01*
X15006714Y20840420D02*
X15054333Y20792800D01*
X15054333Y20792800D02*
X15149571Y20745181D01*
X15149571Y20745181D02*
X15340047Y20745181D01*
X15340047Y20745181D02*
X15435285Y20792800D01*
X15435285Y20792800D02*
X15482904Y20840420D01*
X15482904Y20840420D02*
X15530523Y20935658D01*
X15530523Y20935658D02*
X15530523Y21745181D01*
X15911476Y21745181D02*
X16530523Y21745181D01*
X16530523Y21745181D02*
X16197190Y21364229D01*
X16197190Y21364229D02*
X16340047Y21364229D01*
X16340047Y21364229D02*
X16435285Y21316610D01*
X16435285Y21316610D02*
X16482904Y21268991D01*
X16482904Y21268991D02*
X16530523Y21173753D01*
X16530523Y21173753D02*
X16530523Y20935658D01*
X16530523Y20935658D02*
X16482904Y20840420D01*
X16482904Y20840420D02*
X16435285Y20792800D01*
X16435285Y20792800D02*
X16340047Y20745181D01*
X16340047Y20745181D02*
X16054333Y20745181D01*
X16054333Y20745181D02*
X15959095Y20792800D01*
X15959095Y20792800D02*
X15911476Y20840420D01*
X190536333Y17644420D02*
X190488714Y17596800D01*
X190488714Y17596800D02*
X190345857Y17549181D01*
X190345857Y17549181D02*
X190250619Y17549181D01*
X190250619Y17549181D02*
X190107762Y17596800D01*
X190107762Y17596800D02*
X190012524Y17692039D01*
X190012524Y17692039D02*
X189964905Y17787277D01*
X189964905Y17787277D02*
X189917286Y17977753D01*
X189917286Y17977753D02*
X189917286Y18120610D01*
X189917286Y18120610D02*
X189964905Y18311086D01*
X189964905Y18311086D02*
X190012524Y18406324D01*
X190012524Y18406324D02*
X190107762Y18501562D01*
X190107762Y18501562D02*
X190250619Y18549181D01*
X190250619Y18549181D02*
X190345857Y18549181D01*
X190345857Y18549181D02*
X190488714Y18501562D01*
X190488714Y18501562D02*
X190536333Y18453943D01*
X191488714Y17549181D02*
X190917286Y17549181D01*
X191203000Y17549181D02*
X191203000Y18549181D01*
X191203000Y18549181D02*
X191107762Y18406324D01*
X191107762Y18406324D02*
X191012524Y18311086D01*
X191012524Y18311086D02*
X190917286Y18263467D01*
X103677142Y44748181D02*
X103343809Y45224372D01*
X103105714Y44748181D02*
X103105714Y45748181D01*
X103105714Y45748181D02*
X103486666Y45748181D01*
X103486666Y45748181D02*
X103581904Y45700562D01*
X103581904Y45700562D02*
X103629523Y45652943D01*
X103629523Y45652943D02*
X103677142Y45557705D01*
X103677142Y45557705D02*
X103677142Y45414848D01*
X103677142Y45414848D02*
X103629523Y45319610D01*
X103629523Y45319610D02*
X103581904Y45271991D01*
X103581904Y45271991D02*
X103486666Y45224372D01*
X103486666Y45224372D02*
X103105714Y45224372D01*
X104058095Y45652943D02*
X104105714Y45700562D01*
X104105714Y45700562D02*
X104200952Y45748181D01*
X104200952Y45748181D02*
X104439047Y45748181D01*
X104439047Y45748181D02*
X104534285Y45700562D01*
X104534285Y45700562D02*
X104581904Y45652943D01*
X104581904Y45652943D02*
X104629523Y45557705D01*
X104629523Y45557705D02*
X104629523Y45462467D01*
X104629523Y45462467D02*
X104581904Y45319610D01*
X104581904Y45319610D02*
X104010476Y44748181D01*
X104010476Y44748181D02*
X104629523Y44748181D01*
X105534285Y45748181D02*
X105058095Y45748181D01*
X105058095Y45748181D02*
X105010476Y45271991D01*
X105010476Y45271991D02*
X105058095Y45319610D01*
X105058095Y45319610D02*
X105153333Y45367229D01*
X105153333Y45367229D02*
X105391428Y45367229D01*
X105391428Y45367229D02*
X105486666Y45319610D01*
X105486666Y45319610D02*
X105534285Y45271991D01*
X105534285Y45271991D02*
X105581904Y45176753D01*
X105581904Y45176753D02*
X105581904Y44938658D01*
X105581904Y44938658D02*
X105534285Y44843420D01*
X105534285Y44843420D02*
X105486666Y44795800D01*
X105486666Y44795800D02*
X105391428Y44748181D01*
X105391428Y44748181D02*
X105153333Y44748181D01*
X105153333Y44748181D02*
X105058095Y44795800D01*
X105058095Y44795800D02*
X105010476Y44843420D01*
X80436142Y20586420D02*
X80388523Y20538800D01*
X80388523Y20538800D02*
X80245666Y20491181D01*
X80245666Y20491181D02*
X80150428Y20491181D01*
X80150428Y20491181D02*
X80007571Y20538800D01*
X80007571Y20538800D02*
X79912333Y20634039D01*
X79912333Y20634039D02*
X79864714Y20729277D01*
X79864714Y20729277D02*
X79817095Y20919753D01*
X79817095Y20919753D02*
X79817095Y21062610D01*
X79817095Y21062610D02*
X79864714Y21253086D01*
X79864714Y21253086D02*
X79912333Y21348324D01*
X79912333Y21348324D02*
X80007571Y21443562D01*
X80007571Y21443562D02*
X80150428Y21491181D01*
X80150428Y21491181D02*
X80245666Y21491181D01*
X80245666Y21491181D02*
X80388523Y21443562D01*
X80388523Y21443562D02*
X80436142Y21395943D01*
X80817095Y21395943D02*
X80864714Y21443562D01*
X80864714Y21443562D02*
X80959952Y21491181D01*
X80959952Y21491181D02*
X81198047Y21491181D01*
X81198047Y21491181D02*
X81293285Y21443562D01*
X81293285Y21443562D02*
X81340904Y21395943D01*
X81340904Y21395943D02*
X81388523Y21300705D01*
X81388523Y21300705D02*
X81388523Y21205467D01*
X81388523Y21205467D02*
X81340904Y21062610D01*
X81340904Y21062610D02*
X80769476Y20491181D01*
X80769476Y20491181D02*
X81388523Y20491181D01*
X82340904Y20491181D02*
X81769476Y20491181D01*
X82055190Y20491181D02*
X82055190Y21491181D01*
X82055190Y21491181D02*
X81959952Y21348324D01*
X81959952Y21348324D02*
X81864714Y21253086D01*
X81864714Y21253086D02*
X81769476Y21205467D01*
X55290142Y42589181D02*
X54956809Y43065372D01*
X54718714Y42589181D02*
X54718714Y43589181D01*
X54718714Y43589181D02*
X55099666Y43589181D01*
X55099666Y43589181D02*
X55194904Y43541562D01*
X55194904Y43541562D02*
X55242523Y43493943D01*
X55242523Y43493943D02*
X55290142Y43398705D01*
X55290142Y43398705D02*
X55290142Y43255848D01*
X55290142Y43255848D02*
X55242523Y43160610D01*
X55242523Y43160610D02*
X55194904Y43112991D01*
X55194904Y43112991D02*
X55099666Y43065372D01*
X55099666Y43065372D02*
X54718714Y43065372D01*
X55671095Y43493943D02*
X55718714Y43541562D01*
X55718714Y43541562D02*
X55813952Y43589181D01*
X55813952Y43589181D02*
X56052047Y43589181D01*
X56052047Y43589181D02*
X56147285Y43541562D01*
X56147285Y43541562D02*
X56194904Y43493943D01*
X56194904Y43493943D02*
X56242523Y43398705D01*
X56242523Y43398705D02*
X56242523Y43303467D01*
X56242523Y43303467D02*
X56194904Y43160610D01*
X56194904Y43160610D02*
X55623476Y42589181D01*
X55623476Y42589181D02*
X56242523Y42589181D01*
X57194904Y42589181D02*
X56623476Y42589181D01*
X56909190Y42589181D02*
X56909190Y43589181D01*
X56909190Y43589181D02*
X56813952Y43446324D01*
X56813952Y43446324D02*
X56718714Y43351086D01*
X56718714Y43351086D02*
X56623476Y43303467D01*
X90136095Y21745181D02*
X90136095Y20935658D01*
X90136095Y20935658D02*
X90183714Y20840420D01*
X90183714Y20840420D02*
X90231333Y20792800D01*
X90231333Y20792800D02*
X90326571Y20745181D01*
X90326571Y20745181D02*
X90517047Y20745181D01*
X90517047Y20745181D02*
X90612285Y20792800D01*
X90612285Y20792800D02*
X90659904Y20840420D01*
X90659904Y20840420D02*
X90707523Y20935658D01*
X90707523Y20935658D02*
X90707523Y21745181D01*
X91088476Y21745181D02*
X91755142Y21745181D01*
X91755142Y21745181D02*
X91326571Y20745181D01*
X192124333Y35075181D02*
X191791000Y35551372D01*
X191552905Y35075181D02*
X191552905Y36075181D01*
X191552905Y36075181D02*
X191933857Y36075181D01*
X191933857Y36075181D02*
X192029095Y36027562D01*
X192029095Y36027562D02*
X192076714Y35979943D01*
X192076714Y35979943D02*
X192124333Y35884705D01*
X192124333Y35884705D02*
X192124333Y35741848D01*
X192124333Y35741848D02*
X192076714Y35646610D01*
X192076714Y35646610D02*
X192029095Y35598991D01*
X192029095Y35598991D02*
X191933857Y35551372D01*
X191933857Y35551372D02*
X191552905Y35551372D01*
X192457667Y36075181D02*
X193124333Y36075181D01*
X193124333Y36075181D02*
X192695762Y35075181D01*
X92120142Y42589181D02*
X91786809Y43065372D01*
X91548714Y42589181D02*
X91548714Y43589181D01*
X91548714Y43589181D02*
X91929666Y43589181D01*
X91929666Y43589181D02*
X92024904Y43541562D01*
X92024904Y43541562D02*
X92072523Y43493943D01*
X92072523Y43493943D02*
X92120142Y43398705D01*
X92120142Y43398705D02*
X92120142Y43255848D01*
X92120142Y43255848D02*
X92072523Y43160610D01*
X92072523Y43160610D02*
X92024904Y43112991D01*
X92024904Y43112991D02*
X91929666Y43065372D01*
X91929666Y43065372D02*
X91548714Y43065372D01*
X92501095Y43493943D02*
X92548714Y43541562D01*
X92548714Y43541562D02*
X92643952Y43589181D01*
X92643952Y43589181D02*
X92882047Y43589181D01*
X92882047Y43589181D02*
X92977285Y43541562D01*
X92977285Y43541562D02*
X93024904Y43493943D01*
X93024904Y43493943D02*
X93072523Y43398705D01*
X93072523Y43398705D02*
X93072523Y43303467D01*
X93072523Y43303467D02*
X93024904Y43160610D01*
X93024904Y43160610D02*
X92453476Y42589181D01*
X92453476Y42589181D02*
X93072523Y42589181D01*
X93929666Y43255848D02*
X93929666Y42589181D01*
X93691571Y43636800D02*
X93453476Y42922515D01*
X93453476Y42922515D02*
X94072523Y42922515D01*
X104820142Y48907420D02*
X104772523Y48859800D01*
X104772523Y48859800D02*
X104629666Y48812181D01*
X104629666Y48812181D02*
X104534428Y48812181D01*
X104534428Y48812181D02*
X104391571Y48859800D01*
X104391571Y48859800D02*
X104296333Y48955039D01*
X104296333Y48955039D02*
X104248714Y49050277D01*
X104248714Y49050277D02*
X104201095Y49240753D01*
X104201095Y49240753D02*
X104201095Y49383610D01*
X104201095Y49383610D02*
X104248714Y49574086D01*
X104248714Y49574086D02*
X104296333Y49669324D01*
X104296333Y49669324D02*
X104391571Y49764562D01*
X104391571Y49764562D02*
X104534428Y49812181D01*
X104534428Y49812181D02*
X104629666Y49812181D01*
X104629666Y49812181D02*
X104772523Y49764562D01*
X104772523Y49764562D02*
X104820142Y49716943D01*
X105201095Y49716943D02*
X105248714Y49764562D01*
X105248714Y49764562D02*
X105343952Y49812181D01*
X105343952Y49812181D02*
X105582047Y49812181D01*
X105582047Y49812181D02*
X105677285Y49764562D01*
X105677285Y49764562D02*
X105724904Y49716943D01*
X105724904Y49716943D02*
X105772523Y49621705D01*
X105772523Y49621705D02*
X105772523Y49526467D01*
X105772523Y49526467D02*
X105724904Y49383610D01*
X105724904Y49383610D02*
X105153476Y48812181D01*
X105153476Y48812181D02*
X105772523Y48812181D01*
X106105857Y49812181D02*
X106724904Y49812181D01*
X106724904Y49812181D02*
X106391571Y49431229D01*
X106391571Y49431229D02*
X106534428Y49431229D01*
X106534428Y49431229D02*
X106629666Y49383610D01*
X106629666Y49383610D02*
X106677285Y49335991D01*
X106677285Y49335991D02*
X106724904Y49240753D01*
X106724904Y49240753D02*
X106724904Y49002658D01*
X106724904Y49002658D02*
X106677285Y48907420D01*
X106677285Y48907420D02*
X106629666Y48859800D01*
X106629666Y48859800D02*
X106534428Y48812181D01*
X106534428Y48812181D02*
X106248714Y48812181D01*
X106248714Y48812181D02*
X106153476Y48859800D01*
X106153476Y48859800D02*
X106105857Y48907420D01*
X183416142Y33868420D02*
X183368523Y33820800D01*
X183368523Y33820800D02*
X183225666Y33773181D01*
X183225666Y33773181D02*
X183130428Y33773181D01*
X183130428Y33773181D02*
X182987571Y33820800D01*
X182987571Y33820800D02*
X182892333Y33916039D01*
X182892333Y33916039D02*
X182844714Y34011277D01*
X182844714Y34011277D02*
X182797095Y34201753D01*
X182797095Y34201753D02*
X182797095Y34344610D01*
X182797095Y34344610D02*
X182844714Y34535086D01*
X182844714Y34535086D02*
X182892333Y34630324D01*
X182892333Y34630324D02*
X182987571Y34725562D01*
X182987571Y34725562D02*
X183130428Y34773181D01*
X183130428Y34773181D02*
X183225666Y34773181D01*
X183225666Y34773181D02*
X183368523Y34725562D01*
X183368523Y34725562D02*
X183416142Y34677943D01*
X184368523Y33773181D02*
X183797095Y33773181D01*
X184082809Y33773181D02*
X184082809Y34773181D01*
X184082809Y34773181D02*
X183987571Y34630324D01*
X183987571Y34630324D02*
X183892333Y34535086D01*
X183892333Y34535086D02*
X183797095Y34487467D01*
X184749476Y34677943D02*
X184797095Y34725562D01*
X184797095Y34725562D02*
X184892333Y34773181D01*
X184892333Y34773181D02*
X185130428Y34773181D01*
X185130428Y34773181D02*
X185225666Y34725562D01*
X185225666Y34725562D02*
X185273285Y34677943D01*
X185273285Y34677943D02*
X185320904Y34582705D01*
X185320904Y34582705D02*
X185320904Y34487467D01*
X185320904Y34487467D02*
X185273285Y34344610D01*
X185273285Y34344610D02*
X184701857Y33773181D01*
X184701857Y33773181D02*
X185320904Y33773181D01*
X190536333Y8246420D02*
X190488714Y8198800D01*
X190488714Y8198800D02*
X190345857Y8151181D01*
X190345857Y8151181D02*
X190250619Y8151181D01*
X190250619Y8151181D02*
X190107762Y8198800D01*
X190107762Y8198800D02*
X190012524Y8294039D01*
X190012524Y8294039D02*
X189964905Y8389277D01*
X189964905Y8389277D02*
X189917286Y8579753D01*
X189917286Y8579753D02*
X189917286Y8722610D01*
X189917286Y8722610D02*
X189964905Y8913086D01*
X189964905Y8913086D02*
X190012524Y9008324D01*
X190012524Y9008324D02*
X190107762Y9103562D01*
X190107762Y9103562D02*
X190250619Y9151181D01*
X190250619Y9151181D02*
X190345857Y9151181D01*
X190345857Y9151181D02*
X190488714Y9103562D01*
X190488714Y9103562D02*
X190536333Y9055943D01*
X190917286Y9055943D02*
X190964905Y9103562D01*
X190964905Y9103562D02*
X191060143Y9151181D01*
X191060143Y9151181D02*
X191298238Y9151181D01*
X191298238Y9151181D02*
X191393476Y9103562D01*
X191393476Y9103562D02*
X191441095Y9055943D01*
X191441095Y9055943D02*
X191488714Y8960705D01*
X191488714Y8960705D02*
X191488714Y8865467D01*
X191488714Y8865467D02*
X191441095Y8722610D01*
X191441095Y8722610D02*
X190869667Y8151181D01*
X190869667Y8151181D02*
X191488714Y8151181D01*
X51689095Y21745181D02*
X51689095Y20935658D01*
X51689095Y20935658D02*
X51736714Y20840420D01*
X51736714Y20840420D02*
X51784333Y20792800D01*
X51784333Y20792800D02*
X51879571Y20745181D01*
X51879571Y20745181D02*
X52070047Y20745181D01*
X52070047Y20745181D02*
X52165285Y20792800D01*
X52165285Y20792800D02*
X52212904Y20840420D01*
X52212904Y20840420D02*
X52260523Y20935658D01*
X52260523Y20935658D02*
X52260523Y21745181D01*
X53212904Y21745181D02*
X52736714Y21745181D01*
X52736714Y21745181D02*
X52689095Y21268991D01*
X52689095Y21268991D02*
X52736714Y21316610D01*
X52736714Y21316610D02*
X52831952Y21364229D01*
X52831952Y21364229D02*
X53070047Y21364229D01*
X53070047Y21364229D02*
X53165285Y21316610D01*
X53165285Y21316610D02*
X53212904Y21268991D01*
X53212904Y21268991D02*
X53260523Y21173753D01*
X53260523Y21173753D02*
X53260523Y20935658D01*
X53260523Y20935658D02*
X53212904Y20840420D01*
X53212904Y20840420D02*
X53165285Y20792800D01*
X53165285Y20792800D02*
X53070047Y20745181D01*
X53070047Y20745181D02*
X52831952Y20745181D01*
X52831952Y20745181D02*
X52736714Y20792800D01*
X52736714Y20792800D02*
X52689095Y20840420D01*
X186210142Y31709420D02*
X186162523Y31661800D01*
X186162523Y31661800D02*
X186019666Y31614181D01*
X186019666Y31614181D02*
X185924428Y31614181D01*
X185924428Y31614181D02*
X185781571Y31661800D01*
X185781571Y31661800D02*
X185686333Y31757039D01*
X185686333Y31757039D02*
X185638714Y31852277D01*
X185638714Y31852277D02*
X185591095Y32042753D01*
X185591095Y32042753D02*
X185591095Y32185610D01*
X185591095Y32185610D02*
X185638714Y32376086D01*
X185638714Y32376086D02*
X185686333Y32471324D01*
X185686333Y32471324D02*
X185781571Y32566562D01*
X185781571Y32566562D02*
X185924428Y32614181D01*
X185924428Y32614181D02*
X186019666Y32614181D01*
X186019666Y32614181D02*
X186162523Y32566562D01*
X186162523Y32566562D02*
X186210142Y32518943D01*
X187162523Y31614181D02*
X186591095Y31614181D01*
X186876809Y31614181D02*
X186876809Y32614181D01*
X186876809Y32614181D02*
X186781571Y32471324D01*
X186781571Y32471324D02*
X186686333Y32376086D01*
X186686333Y32376086D02*
X186591095Y32328467D01*
X187495857Y32614181D02*
X188114904Y32614181D01*
X188114904Y32614181D02*
X187781571Y32233229D01*
X187781571Y32233229D02*
X187924428Y32233229D01*
X187924428Y32233229D02*
X188019666Y32185610D01*
X188019666Y32185610D02*
X188067285Y32137991D01*
X188067285Y32137991D02*
X188114904Y32042753D01*
X188114904Y32042753D02*
X188114904Y31804658D01*
X188114904Y31804658D02*
X188067285Y31709420D01*
X188067285Y31709420D02*
X188019666Y31661800D01*
X188019666Y31661800D02*
X187924428Y31614181D01*
X187924428Y31614181D02*
X187638714Y31614181D01*
X187638714Y31614181D02*
X187543476Y31661800D01*
X187543476Y31661800D02*
X187495857Y31709420D01*
X164493142Y49521181D02*
X164159809Y49997372D01*
X163921714Y49521181D02*
X163921714Y50521181D01*
X163921714Y50521181D02*
X164302666Y50521181D01*
X164302666Y50521181D02*
X164397904Y50473562D01*
X164397904Y50473562D02*
X164445523Y50425943D01*
X164445523Y50425943D02*
X164493142Y50330705D01*
X164493142Y50330705D02*
X164493142Y50187848D01*
X164493142Y50187848D02*
X164445523Y50092610D01*
X164445523Y50092610D02*
X164397904Y50044991D01*
X164397904Y50044991D02*
X164302666Y49997372D01*
X164302666Y49997372D02*
X163921714Y49997372D01*
X165445523Y49521181D02*
X164874095Y49521181D01*
X165159809Y49521181D02*
X165159809Y50521181D01*
X165159809Y50521181D02*
X165064571Y50378324D01*
X165064571Y50378324D02*
X164969333Y50283086D01*
X164969333Y50283086D02*
X164874095Y50235467D01*
X166397904Y49521181D02*
X165826476Y49521181D01*
X166112190Y49521181D02*
X166112190Y50521181D01*
X166112190Y50521181D02*
X166016952Y50378324D01*
X166016952Y50378324D02*
X165921714Y50283086D01*
X165921714Y50283086D02*
X165826476Y50235467D01*
X35605142Y42589181D02*
X35271809Y43065372D01*
X35033714Y42589181D02*
X35033714Y43589181D01*
X35033714Y43589181D02*
X35414666Y43589181D01*
X35414666Y43589181D02*
X35509904Y43541562D01*
X35509904Y43541562D02*
X35557523Y43493943D01*
X35557523Y43493943D02*
X35605142Y43398705D01*
X35605142Y43398705D02*
X35605142Y43255848D01*
X35605142Y43255848D02*
X35557523Y43160610D01*
X35557523Y43160610D02*
X35509904Y43112991D01*
X35509904Y43112991D02*
X35414666Y43065372D01*
X35414666Y43065372D02*
X35033714Y43065372D01*
X35986095Y43493943D02*
X36033714Y43541562D01*
X36033714Y43541562D02*
X36128952Y43589181D01*
X36128952Y43589181D02*
X36367047Y43589181D01*
X36367047Y43589181D02*
X36462285Y43541562D01*
X36462285Y43541562D02*
X36509904Y43493943D01*
X36509904Y43493943D02*
X36557523Y43398705D01*
X36557523Y43398705D02*
X36557523Y43303467D01*
X36557523Y43303467D02*
X36509904Y43160610D01*
X36509904Y43160610D02*
X35938476Y42589181D01*
X35938476Y42589181D02*
X36557523Y42589181D01*
X37176571Y43589181D02*
X37271809Y43589181D01*
X37271809Y43589181D02*
X37367047Y43541562D01*
X37367047Y43541562D02*
X37414666Y43493943D01*
X37414666Y43493943D02*
X37462285Y43398705D01*
X37462285Y43398705D02*
X37509904Y43208229D01*
X37509904Y43208229D02*
X37509904Y42970134D01*
X37509904Y42970134D02*
X37462285Y42779658D01*
X37462285Y42779658D02*
X37414666Y42684420D01*
X37414666Y42684420D02*
X37367047Y42636800D01*
X37367047Y42636800D02*
X37271809Y42589181D01*
X37271809Y42589181D02*
X37176571Y42589181D01*
X37176571Y42589181D02*
X37081333Y42636800D01*
X37081333Y42636800D02*
X37033714Y42684420D01*
X37033714Y42684420D02*
X36986095Y42779658D01*
X36986095Y42779658D02*
X36938476Y42970134D01*
X36938476Y42970134D02*
X36938476Y43208229D01*
X36938476Y43208229D02*
X36986095Y43398705D01*
X36986095Y43398705D02*
X37033714Y43493943D01*
X37033714Y43493943D02*
X37081333Y43541562D01*
X37081333Y43541562D02*
X37176571Y43589181D01*
X195489333Y25791220D02*
X195441714Y25743600D01*
X195441714Y25743600D02*
X195298857Y25695981D01*
X195298857Y25695981D02*
X195203619Y25695981D01*
X195203619Y25695981D02*
X195060762Y25743600D01*
X195060762Y25743600D02*
X194965524Y25838839D01*
X194965524Y25838839D02*
X194917905Y25934077D01*
X194917905Y25934077D02*
X194870286Y26124553D01*
X194870286Y26124553D02*
X194870286Y26267410D01*
X194870286Y26267410D02*
X194917905Y26457886D01*
X194917905Y26457886D02*
X194965524Y26553124D01*
X194965524Y26553124D02*
X195060762Y26648362D01*
X195060762Y26648362D02*
X195203619Y26695981D01*
X195203619Y26695981D02*
X195298857Y26695981D01*
X195298857Y26695981D02*
X195441714Y26648362D01*
X195441714Y26648362D02*
X195489333Y26600743D01*
X196060762Y26267410D02*
X195965524Y26315029D01*
X195965524Y26315029D02*
X195917905Y26362648D01*
X195917905Y26362648D02*
X195870286Y26457886D01*
X195870286Y26457886D02*
X195870286Y26505505D01*
X195870286Y26505505D02*
X195917905Y26600743D01*
X195917905Y26600743D02*
X195965524Y26648362D01*
X195965524Y26648362D02*
X196060762Y26695981D01*
X196060762Y26695981D02*
X196251238Y26695981D01*
X196251238Y26695981D02*
X196346476Y26648362D01*
X196346476Y26648362D02*
X196394095Y26600743D01*
X196394095Y26600743D02*
X196441714Y26505505D01*
X196441714Y26505505D02*
X196441714Y26457886D01*
X196441714Y26457886D02*
X196394095Y26362648D01*
X196394095Y26362648D02*
X196346476Y26315029D01*
X196346476Y26315029D02*
X196251238Y26267410D01*
X196251238Y26267410D02*
X196060762Y26267410D01*
X196060762Y26267410D02*
X195965524Y26219791D01*
X195965524Y26219791D02*
X195917905Y26172172D01*
X195917905Y26172172D02*
X195870286Y26076934D01*
X195870286Y26076934D02*
X195870286Y25886458D01*
X195870286Y25886458D02*
X195917905Y25791220D01*
X195917905Y25791220D02*
X195965524Y25743600D01*
X195965524Y25743600D02*
X196060762Y25695981D01*
X196060762Y25695981D02*
X196251238Y25695981D01*
X196251238Y25695981D02*
X196346476Y25743600D01*
X196346476Y25743600D02*
X196394095Y25791220D01*
X196394095Y25791220D02*
X196441714Y25886458D01*
X196441714Y25886458D02*
X196441714Y26076934D01*
X196441714Y26076934D02*
X196394095Y26172172D01*
X196394095Y26172172D02*
X196346476Y26219791D01*
X196346476Y26219791D02*
X196251238Y26267410D01*
X184313333Y42989181D02*
X183980000Y43465372D01*
X183741905Y42989181D02*
X183741905Y43989181D01*
X183741905Y43989181D02*
X184122857Y43989181D01*
X184122857Y43989181D02*
X184218095Y43941562D01*
X184218095Y43941562D02*
X184265714Y43893943D01*
X184265714Y43893943D02*
X184313333Y43798705D01*
X184313333Y43798705D02*
X184313333Y43655848D01*
X184313333Y43655848D02*
X184265714Y43560610D01*
X184265714Y43560610D02*
X184218095Y43512991D01*
X184218095Y43512991D02*
X184122857Y43465372D01*
X184122857Y43465372D02*
X183741905Y43465372D01*
X184694286Y43893943D02*
X184741905Y43941562D01*
X184741905Y43941562D02*
X184837143Y43989181D01*
X184837143Y43989181D02*
X185075238Y43989181D01*
X185075238Y43989181D02*
X185170476Y43941562D01*
X185170476Y43941562D02*
X185218095Y43893943D01*
X185218095Y43893943D02*
X185265714Y43798705D01*
X185265714Y43798705D02*
X185265714Y43703467D01*
X185265714Y43703467D02*
X185218095Y43560610D01*
X185218095Y43560610D02*
X184646667Y42989181D01*
X184646667Y42989181D02*
X185265714Y42989181D01*
D13*
X212801095Y40644581D02*
X213372523Y40644581D01*
X213086809Y39644581D02*
X213086809Y40644581D01*
X214229666Y39644581D02*
X213658238Y39644581D01*
X213943952Y39644581D02*
X213943952Y40644581D01*
X213943952Y40644581D02*
X213848714Y40501724D01*
X213848714Y40501724D02*
X213753476Y40406486D01*
X213753476Y40406486D02*
X213658238Y40358867D01*
D10*
X24556142Y20586420D02*
X24508523Y20538800D01*
X24508523Y20538800D02*
X24365666Y20491181D01*
X24365666Y20491181D02*
X24270428Y20491181D01*
X24270428Y20491181D02*
X24127571Y20538800D01*
X24127571Y20538800D02*
X24032333Y20634039D01*
X24032333Y20634039D02*
X23984714Y20729277D01*
X23984714Y20729277D02*
X23937095Y20919753D01*
X23937095Y20919753D02*
X23937095Y21062610D01*
X23937095Y21062610D02*
X23984714Y21253086D01*
X23984714Y21253086D02*
X24032333Y21348324D01*
X24032333Y21348324D02*
X24127571Y21443562D01*
X24127571Y21443562D02*
X24270428Y21491181D01*
X24270428Y21491181D02*
X24365666Y21491181D01*
X24365666Y21491181D02*
X24508523Y21443562D01*
X24508523Y21443562D02*
X24556142Y21395943D01*
X25508523Y20491181D02*
X24937095Y20491181D01*
X25222809Y20491181D02*
X25222809Y21491181D01*
X25222809Y21491181D02*
X25127571Y21348324D01*
X25127571Y21348324D02*
X25032333Y21253086D01*
X25032333Y21253086D02*
X24937095Y21205467D01*
X26079952Y21062610D02*
X25984714Y21110229D01*
X25984714Y21110229D02*
X25937095Y21157848D01*
X25937095Y21157848D02*
X25889476Y21253086D01*
X25889476Y21253086D02*
X25889476Y21300705D01*
X25889476Y21300705D02*
X25937095Y21395943D01*
X25937095Y21395943D02*
X25984714Y21443562D01*
X25984714Y21443562D02*
X26079952Y21491181D01*
X26079952Y21491181D02*
X26270428Y21491181D01*
X26270428Y21491181D02*
X26365666Y21443562D01*
X26365666Y21443562D02*
X26413285Y21395943D01*
X26413285Y21395943D02*
X26460904Y21300705D01*
X26460904Y21300705D02*
X26460904Y21253086D01*
X26460904Y21253086D02*
X26413285Y21157848D01*
X26413285Y21157848D02*
X26365666Y21110229D01*
X26365666Y21110229D02*
X26270428Y21062610D01*
X26270428Y21062610D02*
X26079952Y21062610D01*
X26079952Y21062610D02*
X25984714Y21014991D01*
X25984714Y21014991D02*
X25937095Y20967372D01*
X25937095Y20967372D02*
X25889476Y20872134D01*
X25889476Y20872134D02*
X25889476Y20681658D01*
X25889476Y20681658D02*
X25937095Y20586420D01*
X25937095Y20586420D02*
X25984714Y20538800D01*
X25984714Y20538800D02*
X26079952Y20491181D01*
X26079952Y20491181D02*
X26270428Y20491181D01*
X26270428Y20491181D02*
X26365666Y20538800D01*
X26365666Y20538800D02*
X26413285Y20586420D01*
X26413285Y20586420D02*
X26460904Y20681658D01*
X26460904Y20681658D02*
X26460904Y20872134D01*
X26460904Y20872134D02*
X26413285Y20967372D01*
X26413285Y20967372D02*
X26365666Y21014991D01*
X26365666Y21014991D02*
X26270428Y21062610D01*
X212400080Y1295334D02*
X212447700Y1247715D01*
X212447700Y1247715D02*
X212495319Y1104858D01*
X212495319Y1104858D02*
X212495319Y1009620D01*
X212495319Y1009620D02*
X212447700Y866763D01*
X212447700Y866763D02*
X212352461Y771525D01*
X212352461Y771525D02*
X212257223Y723906D01*
X212257223Y723906D02*
X212066747Y676287D01*
X212066747Y676287D02*
X211923890Y676287D01*
X211923890Y676287D02*
X211733414Y723906D01*
X211733414Y723906D02*
X211638176Y771525D01*
X211638176Y771525D02*
X211542938Y866763D01*
X211542938Y866763D02*
X211495319Y1009620D01*
X211495319Y1009620D02*
X211495319Y1104858D01*
X211495319Y1104858D02*
X211542938Y1247715D01*
X211542938Y1247715D02*
X211590557Y1295334D01*
X211495319Y1628668D02*
X211495319Y2295334D01*
X211495319Y2295334D02*
X212495319Y1866763D01*
X234256142Y37424420D02*
X234208523Y37376800D01*
X234208523Y37376800D02*
X234065666Y37329181D01*
X234065666Y37329181D02*
X233970428Y37329181D01*
X233970428Y37329181D02*
X233827571Y37376800D01*
X233827571Y37376800D02*
X233732333Y37472039D01*
X233732333Y37472039D02*
X233684714Y37567277D01*
X233684714Y37567277D02*
X233637095Y37757753D01*
X233637095Y37757753D02*
X233637095Y37900610D01*
X233637095Y37900610D02*
X233684714Y38091086D01*
X233684714Y38091086D02*
X233732333Y38186324D01*
X233732333Y38186324D02*
X233827571Y38281562D01*
X233827571Y38281562D02*
X233970428Y38329181D01*
X233970428Y38329181D02*
X234065666Y38329181D01*
X234065666Y38329181D02*
X234208523Y38281562D01*
X234208523Y38281562D02*
X234256142Y38233943D01*
X235208523Y37329181D02*
X234637095Y37329181D01*
X234922809Y37329181D02*
X234922809Y38329181D01*
X234922809Y38329181D02*
X234827571Y38186324D01*
X234827571Y38186324D02*
X234732333Y38091086D01*
X234732333Y38091086D02*
X234637095Y38043467D01*
X236113285Y38329181D02*
X235637095Y38329181D01*
X235637095Y38329181D02*
X235589476Y37852991D01*
X235589476Y37852991D02*
X235637095Y37900610D01*
X235637095Y37900610D02*
X235732333Y37948229D01*
X235732333Y37948229D02*
X235970428Y37948229D01*
X235970428Y37948229D02*
X236065666Y37900610D01*
X236065666Y37900610D02*
X236113285Y37852991D01*
X236113285Y37852991D02*
X236160904Y37757753D01*
X236160904Y37757753D02*
X236160904Y37519658D01*
X236160904Y37519658D02*
X236113285Y37424420D01*
X236113285Y37424420D02*
X236065666Y37376800D01*
X236065666Y37376800D02*
X235970428Y37329181D01*
X235970428Y37329181D02*
X235732333Y37329181D01*
X235732333Y37329181D02*
X235637095Y37376800D01*
X235637095Y37376800D02*
X235589476Y37424420D01*
X87675142Y42589181D02*
X87341809Y43065372D01*
X87103714Y42589181D02*
X87103714Y43589181D01*
X87103714Y43589181D02*
X87484666Y43589181D01*
X87484666Y43589181D02*
X87579904Y43541562D01*
X87579904Y43541562D02*
X87627523Y43493943D01*
X87627523Y43493943D02*
X87675142Y43398705D01*
X87675142Y43398705D02*
X87675142Y43255848D01*
X87675142Y43255848D02*
X87627523Y43160610D01*
X87627523Y43160610D02*
X87579904Y43112991D01*
X87579904Y43112991D02*
X87484666Y43065372D01*
X87484666Y43065372D02*
X87103714Y43065372D01*
X88056095Y43493943D02*
X88103714Y43541562D01*
X88103714Y43541562D02*
X88198952Y43589181D01*
X88198952Y43589181D02*
X88437047Y43589181D01*
X88437047Y43589181D02*
X88532285Y43541562D01*
X88532285Y43541562D02*
X88579904Y43493943D01*
X88579904Y43493943D02*
X88627523Y43398705D01*
X88627523Y43398705D02*
X88627523Y43303467D01*
X88627523Y43303467D02*
X88579904Y43160610D01*
X88579904Y43160610D02*
X88008476Y42589181D01*
X88008476Y42589181D02*
X88627523Y42589181D01*
X88960857Y43589181D02*
X89579904Y43589181D01*
X89579904Y43589181D02*
X89246571Y43208229D01*
X89246571Y43208229D02*
X89389428Y43208229D01*
X89389428Y43208229D02*
X89484666Y43160610D01*
X89484666Y43160610D02*
X89532285Y43112991D01*
X89532285Y43112991D02*
X89579904Y43017753D01*
X89579904Y43017753D02*
X89579904Y42779658D01*
X89579904Y42779658D02*
X89532285Y42684420D01*
X89532285Y42684420D02*
X89484666Y42636800D01*
X89484666Y42636800D02*
X89389428Y42589181D01*
X89389428Y42589181D02*
X89103714Y42589181D01*
X89103714Y42589181D02*
X89008476Y42636800D01*
X89008476Y42636800D02*
X88960857Y42684420D01*
X34129095Y21745181D02*
X34129095Y20935658D01*
X34129095Y20935658D02*
X34176714Y20840420D01*
X34176714Y20840420D02*
X34224333Y20792800D01*
X34224333Y20792800D02*
X34319571Y20745181D01*
X34319571Y20745181D02*
X34510047Y20745181D01*
X34510047Y20745181D02*
X34605285Y20792800D01*
X34605285Y20792800D02*
X34652904Y20840420D01*
X34652904Y20840420D02*
X34700523Y20935658D01*
X34700523Y20935658D02*
X34700523Y21745181D01*
X35605285Y21411848D02*
X35605285Y20745181D01*
X35367190Y21792800D02*
X35129095Y21078515D01*
X35129095Y21078515D02*
X35748142Y21078515D01*
X183511333Y32249181D02*
X183178000Y32725372D01*
X182939905Y32249181D02*
X182939905Y33249181D01*
X182939905Y33249181D02*
X183320857Y33249181D01*
X183320857Y33249181D02*
X183416095Y33201562D01*
X183416095Y33201562D02*
X183463714Y33153943D01*
X183463714Y33153943D02*
X183511333Y33058705D01*
X183511333Y33058705D02*
X183511333Y32915848D01*
X183511333Y32915848D02*
X183463714Y32820610D01*
X183463714Y32820610D02*
X183416095Y32772991D01*
X183416095Y32772991D02*
X183320857Y32725372D01*
X183320857Y32725372D02*
X182939905Y32725372D01*
X183844667Y33249181D02*
X184463714Y33249181D01*
X184463714Y33249181D02*
X184130381Y32868229D01*
X184130381Y32868229D02*
X184273238Y32868229D01*
X184273238Y32868229D02*
X184368476Y32820610D01*
X184368476Y32820610D02*
X184416095Y32772991D01*
X184416095Y32772991D02*
X184463714Y32677753D01*
X184463714Y32677753D02*
X184463714Y32439658D01*
X184463714Y32439658D02*
X184416095Y32344420D01*
X184416095Y32344420D02*
X184368476Y32296800D01*
X184368476Y32296800D02*
X184273238Y32249181D01*
X184273238Y32249181D02*
X183987524Y32249181D01*
X183987524Y32249181D02*
X183892286Y32296800D01*
X183892286Y32296800D02*
X183844667Y32344420D01*
X18968142Y45175181D02*
X18634809Y45651372D01*
X18396714Y45175181D02*
X18396714Y46175181D01*
X18396714Y46175181D02*
X18777666Y46175181D01*
X18777666Y46175181D02*
X18872904Y46127562D01*
X18872904Y46127562D02*
X18920523Y46079943D01*
X18920523Y46079943D02*
X18968142Y45984705D01*
X18968142Y45984705D02*
X18968142Y45841848D01*
X18968142Y45841848D02*
X18920523Y45746610D01*
X18920523Y45746610D02*
X18872904Y45698991D01*
X18872904Y45698991D02*
X18777666Y45651372D01*
X18777666Y45651372D02*
X18396714Y45651372D01*
X19920523Y45175181D02*
X19349095Y45175181D01*
X19634809Y45175181D02*
X19634809Y46175181D01*
X19634809Y46175181D02*
X19539571Y46032324D01*
X19539571Y46032324D02*
X19444333Y45937086D01*
X19444333Y45937086D02*
X19349095Y45889467D01*
X20253857Y46175181D02*
X20872904Y46175181D01*
X20872904Y46175181D02*
X20539571Y45794229D01*
X20539571Y45794229D02*
X20682428Y45794229D01*
X20682428Y45794229D02*
X20777666Y45746610D01*
X20777666Y45746610D02*
X20825285Y45698991D01*
X20825285Y45698991D02*
X20872904Y45603753D01*
X20872904Y45603753D02*
X20872904Y45365658D01*
X20872904Y45365658D02*
X20825285Y45270420D01*
X20825285Y45270420D02*
X20777666Y45222800D01*
X20777666Y45222800D02*
X20682428Y45175181D01*
X20682428Y45175181D02*
X20396714Y45175181D01*
X20396714Y45175181D02*
X20301476Y45222800D01*
X20301476Y45222800D02*
X20253857Y45270420D01*
D12*
X34137380Y31793758D02*
X34137380Y33063758D01*
X34137380Y33063758D02*
X34863095Y31793758D01*
X34863095Y31793758D02*
X34863095Y33063758D01*
X35407380Y32942806D02*
X35467856Y33003282D01*
X35467856Y33003282D02*
X35588809Y33063758D01*
X35588809Y33063758D02*
X35891190Y33063758D01*
X35891190Y33063758D02*
X36012142Y33003282D01*
X36012142Y33003282D02*
X36072618Y32942806D01*
X36072618Y32942806D02*
X36133095Y32821854D01*
X36133095Y32821854D02*
X36133095Y32700901D01*
X36133095Y32700901D02*
X36072618Y32519473D01*
X36072618Y32519473D02*
X35346904Y31793758D01*
X35346904Y31793758D02*
X36133095Y31793758D01*
D10*
X43329047Y35420274D02*
X43329047Y36690274D01*
X43933809Y35420274D02*
X43933809Y36690274D01*
X43933809Y36690274D02*
X44659524Y35420274D01*
X44659524Y35420274D02*
X44659524Y36690274D01*
X45264285Y35904084D02*
X46231905Y35904084D01*
X47501905Y35420274D02*
X46776190Y35420274D01*
X47139047Y35420274D02*
X47139047Y36690274D01*
X47139047Y36690274D02*
X47018095Y36508846D01*
X47018095Y36508846D02*
X46897143Y36387893D01*
X46897143Y36387893D02*
X46776190Y36327417D01*
X48590476Y36266941D02*
X48590476Y35420274D01*
X48288095Y36750750D02*
X47985714Y35843608D01*
X47985714Y35843608D02*
X48771905Y35843608D01*
X5252142Y20586420D02*
X5204523Y20538800D01*
X5204523Y20538800D02*
X5061666Y20491181D01*
X5061666Y20491181D02*
X4966428Y20491181D01*
X4966428Y20491181D02*
X4823571Y20538800D01*
X4823571Y20538800D02*
X4728333Y20634039D01*
X4728333Y20634039D02*
X4680714Y20729277D01*
X4680714Y20729277D02*
X4633095Y20919753D01*
X4633095Y20919753D02*
X4633095Y21062610D01*
X4633095Y21062610D02*
X4680714Y21253086D01*
X4680714Y21253086D02*
X4728333Y21348324D01*
X4728333Y21348324D02*
X4823571Y21443562D01*
X4823571Y21443562D02*
X4966428Y21491181D01*
X4966428Y21491181D02*
X5061666Y21491181D01*
X5061666Y21491181D02*
X5204523Y21443562D01*
X5204523Y21443562D02*
X5252142Y21395943D01*
X6204523Y20491181D02*
X5633095Y20491181D01*
X5918809Y20491181D02*
X5918809Y21491181D01*
X5918809Y21491181D02*
X5823571Y21348324D01*
X5823571Y21348324D02*
X5728333Y21253086D01*
X5728333Y21253086D02*
X5633095Y21205467D01*
X6537857Y21491181D02*
X7204523Y21491181D01*
X7204523Y21491181D02*
X6775952Y20491181D01*
X205669580Y1295334D02*
X205717200Y1247715D01*
X205717200Y1247715D02*
X205764819Y1104858D01*
X205764819Y1104858D02*
X205764819Y1009620D01*
X205764819Y1009620D02*
X205717200Y866763D01*
X205717200Y866763D02*
X205621961Y771525D01*
X205621961Y771525D02*
X205526723Y723906D01*
X205526723Y723906D02*
X205336247Y676287D01*
X205336247Y676287D02*
X205193390Y676287D01*
X205193390Y676287D02*
X205002914Y723906D01*
X205002914Y723906D02*
X204907676Y771525D01*
X204907676Y771525D02*
X204812438Y866763D01*
X204812438Y866763D02*
X204764819Y1009620D01*
X204764819Y1009620D02*
X204764819Y1104858D01*
X204764819Y1104858D02*
X204812438Y1247715D01*
X204812438Y1247715D02*
X204860057Y1295334D01*
X205098152Y2152477D02*
X205764819Y2152477D01*
X204717200Y1914382D02*
X205431485Y1676287D01*
X205431485Y1676287D02*
X205431485Y2295334D01*
X197614439Y36013943D02*
X197519201Y36061562D01*
X197519201Y36061562D02*
X197423963Y36156800D01*
X197423963Y36156800D02*
X197281106Y36299658D01*
X197281106Y36299658D02*
X197185868Y36347277D01*
X197185868Y36347277D02*
X197090630Y36347277D01*
X197138249Y36109181D02*
X197043011Y36156800D01*
X197043011Y36156800D02*
X196947773Y36252039D01*
X196947773Y36252039D02*
X196900154Y36442515D01*
X196900154Y36442515D02*
X196900154Y36775848D01*
X196900154Y36775848D02*
X196947773Y36966324D01*
X196947773Y36966324D02*
X197043011Y37061562D01*
X197043011Y37061562D02*
X197138249Y37109181D01*
X197138249Y37109181D02*
X197328725Y37109181D01*
X197328725Y37109181D02*
X197423963Y37061562D01*
X197423963Y37061562D02*
X197519201Y36966324D01*
X197519201Y36966324D02*
X197566820Y36775848D01*
X197566820Y36775848D02*
X197566820Y36442515D01*
X197566820Y36442515D02*
X197519201Y36252039D01*
X197519201Y36252039D02*
X197423963Y36156800D01*
X197423963Y36156800D02*
X197328725Y36109181D01*
X197328725Y36109181D02*
X197138249Y36109181D01*
X198519201Y36109181D02*
X197947773Y36109181D01*
X198233487Y36109181D02*
X198233487Y37109181D01*
X198233487Y37109181D02*
X198138249Y36966324D01*
X198138249Y36966324D02*
X198043011Y36871086D01*
X198043011Y36871086D02*
X197947773Y36823467D01*
X176812142Y41520420D02*
X176764523Y41472800D01*
X176764523Y41472800D02*
X176621666Y41425181D01*
X176621666Y41425181D02*
X176526428Y41425181D01*
X176526428Y41425181D02*
X176383571Y41472800D01*
X176383571Y41472800D02*
X176288333Y41568039D01*
X176288333Y41568039D02*
X176240714Y41663277D01*
X176240714Y41663277D02*
X176193095Y41853753D01*
X176193095Y41853753D02*
X176193095Y41996610D01*
X176193095Y41996610D02*
X176240714Y42187086D01*
X176240714Y42187086D02*
X176288333Y42282324D01*
X176288333Y42282324D02*
X176383571Y42377562D01*
X176383571Y42377562D02*
X176526428Y42425181D01*
X176526428Y42425181D02*
X176621666Y42425181D01*
X176621666Y42425181D02*
X176764523Y42377562D01*
X176764523Y42377562D02*
X176812142Y42329943D01*
X177764523Y41425181D02*
X177193095Y41425181D01*
X177478809Y41425181D02*
X177478809Y42425181D01*
X177478809Y42425181D02*
X177383571Y42282324D01*
X177383571Y42282324D02*
X177288333Y42187086D01*
X177288333Y42187086D02*
X177193095Y42139467D01*
X178716904Y41425181D02*
X178145476Y41425181D01*
X178431190Y41425181D02*
X178431190Y42425181D01*
X178431190Y42425181D02*
X178335952Y42282324D01*
X178335952Y42282324D02*
X178240714Y42187086D01*
X178240714Y42187086D02*
X178145476Y42139467D01*
X70966095Y21745181D02*
X70966095Y20935658D01*
X70966095Y20935658D02*
X71013714Y20840420D01*
X71013714Y20840420D02*
X71061333Y20792800D01*
X71061333Y20792800D02*
X71156571Y20745181D01*
X71156571Y20745181D02*
X71347047Y20745181D01*
X71347047Y20745181D02*
X71442285Y20792800D01*
X71442285Y20792800D02*
X71489904Y20840420D01*
X71489904Y20840420D02*
X71537523Y20935658D01*
X71537523Y20935658D02*
X71537523Y21745181D01*
X72442285Y21745181D02*
X72251809Y21745181D01*
X72251809Y21745181D02*
X72156571Y21697562D01*
X72156571Y21697562D02*
X72108952Y21649943D01*
X72108952Y21649943D02*
X72013714Y21507086D01*
X72013714Y21507086D02*
X71966095Y21316610D01*
X71966095Y21316610D02*
X71966095Y20935658D01*
X71966095Y20935658D02*
X72013714Y20840420D01*
X72013714Y20840420D02*
X72061333Y20792800D01*
X72061333Y20792800D02*
X72156571Y20745181D01*
X72156571Y20745181D02*
X72347047Y20745181D01*
X72347047Y20745181D02*
X72442285Y20792800D01*
X72442285Y20792800D02*
X72489904Y20840420D01*
X72489904Y20840420D02*
X72537523Y20935658D01*
X72537523Y20935658D02*
X72537523Y21173753D01*
X72537523Y21173753D02*
X72489904Y21268991D01*
X72489904Y21268991D02*
X72442285Y21316610D01*
X72442285Y21316610D02*
X72347047Y21364229D01*
X72347047Y21364229D02*
X72156571Y21364229D01*
X72156571Y21364229D02*
X72061333Y21316610D01*
X72061333Y21316610D02*
X72013714Y21268991D01*
X72013714Y21268991D02*
X71966095Y21173753D01*
X192553733Y39608820D02*
X192506114Y39561200D01*
X192506114Y39561200D02*
X192363257Y39513581D01*
X192363257Y39513581D02*
X192268019Y39513581D01*
X192268019Y39513581D02*
X192125162Y39561200D01*
X192125162Y39561200D02*
X192029924Y39656439D01*
X192029924Y39656439D02*
X191982305Y39751677D01*
X191982305Y39751677D02*
X191934686Y39942153D01*
X191934686Y39942153D02*
X191934686Y40085010D01*
X191934686Y40085010D02*
X191982305Y40275486D01*
X191982305Y40275486D02*
X192029924Y40370724D01*
X192029924Y40370724D02*
X192125162Y40465962D01*
X192125162Y40465962D02*
X192268019Y40513581D01*
X192268019Y40513581D02*
X192363257Y40513581D01*
X192363257Y40513581D02*
X192506114Y40465962D01*
X192506114Y40465962D02*
X192553733Y40418343D01*
X193029924Y39513581D02*
X193220400Y39513581D01*
X193220400Y39513581D02*
X193315638Y39561200D01*
X193315638Y39561200D02*
X193363257Y39608820D01*
X193363257Y39608820D02*
X193458495Y39751677D01*
X193458495Y39751677D02*
X193506114Y39942153D01*
X193506114Y39942153D02*
X193506114Y40323105D01*
X193506114Y40323105D02*
X193458495Y40418343D01*
X193458495Y40418343D02*
X193410876Y40465962D01*
X193410876Y40465962D02*
X193315638Y40513581D01*
X193315638Y40513581D02*
X193125162Y40513581D01*
X193125162Y40513581D02*
X193029924Y40465962D01*
X193029924Y40465962D02*
X192982305Y40418343D01*
X192982305Y40418343D02*
X192934686Y40323105D01*
X192934686Y40323105D02*
X192934686Y40085010D01*
X192934686Y40085010D02*
X192982305Y39989772D01*
X192982305Y39989772D02*
X193029924Y39942153D01*
X193029924Y39942153D02*
X193125162Y39894534D01*
X193125162Y39894534D02*
X193315638Y39894534D01*
X193315638Y39894534D02*
X193410876Y39942153D01*
X193410876Y39942153D02*
X193458495Y39989772D01*
X193458495Y39989772D02*
X193506114Y40085010D01*
X31795142Y42589181D02*
X31461809Y43065372D01*
X31223714Y42589181D02*
X31223714Y43589181D01*
X31223714Y43589181D02*
X31604666Y43589181D01*
X31604666Y43589181D02*
X31699904Y43541562D01*
X31699904Y43541562D02*
X31747523Y43493943D01*
X31747523Y43493943D02*
X31795142Y43398705D01*
X31795142Y43398705D02*
X31795142Y43255848D01*
X31795142Y43255848D02*
X31747523Y43160610D01*
X31747523Y43160610D02*
X31699904Y43112991D01*
X31699904Y43112991D02*
X31604666Y43065372D01*
X31604666Y43065372D02*
X31223714Y43065372D01*
X32747523Y42589181D02*
X32176095Y42589181D01*
X32461809Y42589181D02*
X32461809Y43589181D01*
X32461809Y43589181D02*
X32366571Y43446324D01*
X32366571Y43446324D02*
X32271333Y43351086D01*
X32271333Y43351086D02*
X32176095Y43303467D01*
X33223714Y42589181D02*
X33414190Y42589181D01*
X33414190Y42589181D02*
X33509428Y42636800D01*
X33509428Y42636800D02*
X33557047Y42684420D01*
X33557047Y42684420D02*
X33652285Y42827277D01*
X33652285Y42827277D02*
X33699904Y43017753D01*
X33699904Y43017753D02*
X33699904Y43398705D01*
X33699904Y43398705D02*
X33652285Y43493943D01*
X33652285Y43493943D02*
X33604666Y43541562D01*
X33604666Y43541562D02*
X33509428Y43589181D01*
X33509428Y43589181D02*
X33318952Y43589181D01*
X33318952Y43589181D02*
X33223714Y43541562D01*
X33223714Y43541562D02*
X33176095Y43493943D01*
X33176095Y43493943D02*
X33128476Y43398705D01*
X33128476Y43398705D02*
X33128476Y43160610D01*
X33128476Y43160610D02*
X33176095Y43065372D01*
X33176095Y43065372D02*
X33223714Y43017753D01*
X33223714Y43017753D02*
X33318952Y42970134D01*
X33318952Y42970134D02*
X33509428Y42970134D01*
X33509428Y42970134D02*
X33604666Y43017753D01*
X33604666Y43017753D02*
X33652285Y43065372D01*
X33652285Y43065372D02*
X33699904Y43160610D01*
X203256080Y1295334D02*
X203303700Y1247715D01*
X203303700Y1247715D02*
X203351319Y1104858D01*
X203351319Y1104858D02*
X203351319Y1009620D01*
X203351319Y1009620D02*
X203303700Y866763D01*
X203303700Y866763D02*
X203208461Y771525D01*
X203208461Y771525D02*
X203113223Y723906D01*
X203113223Y723906D02*
X202922747Y676287D01*
X202922747Y676287D02*
X202779890Y676287D01*
X202779890Y676287D02*
X202589414Y723906D01*
X202589414Y723906D02*
X202494176Y771525D01*
X202494176Y771525D02*
X202398938Y866763D01*
X202398938Y866763D02*
X202351319Y1009620D01*
X202351319Y1009620D02*
X202351319Y1104858D01*
X202351319Y1104858D02*
X202398938Y1247715D01*
X202398938Y1247715D02*
X202446557Y1295334D01*
X202351319Y1628668D02*
X202351319Y2247715D01*
X202351319Y2247715D02*
X202732271Y1914382D01*
X202732271Y1914382D02*
X202732271Y2057239D01*
X202732271Y2057239D02*
X202779890Y2152477D01*
X202779890Y2152477D02*
X202827509Y2200096D01*
X202827509Y2200096D02*
X202922747Y2247715D01*
X202922747Y2247715D02*
X203160842Y2247715D01*
X203160842Y2247715D02*
X203256080Y2200096D01*
X203256080Y2200096D02*
X203303700Y2152477D01*
X203303700Y2152477D02*
X203351319Y2057239D01*
X203351319Y2057239D02*
X203351319Y1771525D01*
X203351319Y1771525D02*
X203303700Y1676287D01*
X203303700Y1676287D02*
X203256080Y1628668D01*
X239169142Y21676420D02*
X239121523Y21628800D01*
X239121523Y21628800D02*
X238978666Y21581181D01*
X238978666Y21581181D02*
X238883428Y21581181D01*
X238883428Y21581181D02*
X238740571Y21628800D01*
X238740571Y21628800D02*
X238645333Y21724039D01*
X238645333Y21724039D02*
X238597714Y21819277D01*
X238597714Y21819277D02*
X238550095Y22009753D01*
X238550095Y22009753D02*
X238550095Y22152610D01*
X238550095Y22152610D02*
X238597714Y22343086D01*
X238597714Y22343086D02*
X238645333Y22438324D01*
X238645333Y22438324D02*
X238740571Y22533562D01*
X238740571Y22533562D02*
X238883428Y22581181D01*
X238883428Y22581181D02*
X238978666Y22581181D01*
X238978666Y22581181D02*
X239121523Y22533562D01*
X239121523Y22533562D02*
X239169142Y22485943D01*
X240121523Y21581181D02*
X239550095Y21581181D01*
X239835809Y21581181D02*
X239835809Y22581181D01*
X239835809Y22581181D02*
X239740571Y22438324D01*
X239740571Y22438324D02*
X239645333Y22343086D01*
X239645333Y22343086D02*
X239550095Y22295467D01*
X240978666Y22581181D02*
X240788190Y22581181D01*
X240788190Y22581181D02*
X240692952Y22533562D01*
X240692952Y22533562D02*
X240645333Y22485943D01*
X240645333Y22485943D02*
X240550095Y22343086D01*
X240550095Y22343086D02*
X240502476Y22152610D01*
X240502476Y22152610D02*
X240502476Y21771658D01*
X240502476Y21771658D02*
X240550095Y21676420D01*
X240550095Y21676420D02*
X240597714Y21628800D01*
X240597714Y21628800D02*
X240692952Y21581181D01*
X240692952Y21581181D02*
X240883428Y21581181D01*
X240883428Y21581181D02*
X240978666Y21628800D01*
X240978666Y21628800D02*
X241026285Y21676420D01*
X241026285Y21676420D02*
X241073904Y21771658D01*
X241073904Y21771658D02*
X241073904Y22009753D01*
X241073904Y22009753D02*
X241026285Y22104991D01*
X241026285Y22104991D02*
X240978666Y22152610D01*
X240978666Y22152610D02*
X240883428Y22200229D01*
X240883428Y22200229D02*
X240692952Y22200229D01*
X240692952Y22200229D02*
X240597714Y22152610D01*
X240597714Y22152610D02*
X240550095Y22104991D01*
X240550095Y22104991D02*
X240502476Y22009753D01*
X68625142Y42589181D02*
X68291809Y43065372D01*
X68053714Y42589181D02*
X68053714Y43589181D01*
X68053714Y43589181D02*
X68434666Y43589181D01*
X68434666Y43589181D02*
X68529904Y43541562D01*
X68529904Y43541562D02*
X68577523Y43493943D01*
X68577523Y43493943D02*
X68625142Y43398705D01*
X68625142Y43398705D02*
X68625142Y43255848D01*
X68625142Y43255848D02*
X68577523Y43160610D01*
X68577523Y43160610D02*
X68529904Y43112991D01*
X68529904Y43112991D02*
X68434666Y43065372D01*
X68434666Y43065372D02*
X68053714Y43065372D01*
X69006095Y43493943D02*
X69053714Y43541562D01*
X69053714Y43541562D02*
X69148952Y43589181D01*
X69148952Y43589181D02*
X69387047Y43589181D01*
X69387047Y43589181D02*
X69482285Y43541562D01*
X69482285Y43541562D02*
X69529904Y43493943D01*
X69529904Y43493943D02*
X69577523Y43398705D01*
X69577523Y43398705D02*
X69577523Y43303467D01*
X69577523Y43303467D02*
X69529904Y43160610D01*
X69529904Y43160610D02*
X68958476Y42589181D01*
X68958476Y42589181D02*
X69577523Y42589181D01*
X69958476Y43493943D02*
X70006095Y43541562D01*
X70006095Y43541562D02*
X70101333Y43589181D01*
X70101333Y43589181D02*
X70339428Y43589181D01*
X70339428Y43589181D02*
X70434666Y43541562D01*
X70434666Y43541562D02*
X70482285Y43493943D01*
X70482285Y43493943D02*
X70529904Y43398705D01*
X70529904Y43398705D02*
X70529904Y43303467D01*
X70529904Y43303467D02*
X70482285Y43160610D01*
X70482285Y43160610D02*
X69910857Y42589181D01*
X69910857Y42589181D02*
X70529904Y42589181D01*
D12*
X90271380Y31793758D02*
X90271380Y33063758D01*
X90271380Y33063758D02*
X90997095Y31793758D01*
X90997095Y31793758D02*
X90997095Y33063758D01*
X92146142Y32640425D02*
X92146142Y31793758D01*
X91843761Y33124234D02*
X91541380Y32217092D01*
X91541380Y32217092D02*
X92327571Y32217092D01*
D10*
X99336047Y35420274D02*
X99336047Y36690274D01*
X99940809Y35420274D02*
X99940809Y36690274D01*
X99940809Y36690274D02*
X100666524Y35420274D01*
X100666524Y35420274D02*
X100666524Y36690274D01*
X101271285Y35904084D02*
X102238905Y35904084D01*
X103508905Y35420274D02*
X102783190Y35420274D01*
X103146047Y35420274D02*
X103146047Y36690274D01*
X103146047Y36690274D02*
X103025095Y36508846D01*
X103025095Y36508846D02*
X102904143Y36387893D01*
X102904143Y36387893D02*
X102783190Y36327417D01*
X104597476Y36266941D02*
X104597476Y35420274D01*
X104295095Y36750750D02*
X103992714Y35843608D01*
X103992714Y35843608D02*
X104778905Y35843608D01*
X118028142Y2711181D02*
X117694809Y3187372D01*
X117456714Y2711181D02*
X117456714Y3711181D01*
X117456714Y3711181D02*
X117837666Y3711181D01*
X117837666Y3711181D02*
X117932904Y3663562D01*
X117932904Y3663562D02*
X117980523Y3615943D01*
X117980523Y3615943D02*
X118028142Y3520705D01*
X118028142Y3520705D02*
X118028142Y3377848D01*
X118028142Y3377848D02*
X117980523Y3282610D01*
X117980523Y3282610D02*
X117932904Y3234991D01*
X117932904Y3234991D02*
X117837666Y3187372D01*
X117837666Y3187372D02*
X117456714Y3187372D01*
X118980523Y2711181D02*
X118409095Y2711181D01*
X118694809Y2711181D02*
X118694809Y3711181D01*
X118694809Y3711181D02*
X118599571Y3568324D01*
X118599571Y3568324D02*
X118504333Y3473086D01*
X118504333Y3473086D02*
X118409095Y3425467D01*
X119313857Y3711181D02*
X119980523Y3711181D01*
X119980523Y3711181D02*
X119551952Y2711181D01*
X42082142Y45175181D02*
X41748809Y45651372D01*
X41510714Y45175181D02*
X41510714Y46175181D01*
X41510714Y46175181D02*
X41891666Y46175181D01*
X41891666Y46175181D02*
X41986904Y46127562D01*
X41986904Y46127562D02*
X42034523Y46079943D01*
X42034523Y46079943D02*
X42082142Y45984705D01*
X42082142Y45984705D02*
X42082142Y45841848D01*
X42082142Y45841848D02*
X42034523Y45746610D01*
X42034523Y45746610D02*
X41986904Y45698991D01*
X41986904Y45698991D02*
X41891666Y45651372D01*
X41891666Y45651372D02*
X41510714Y45651372D01*
X43034523Y45175181D02*
X42463095Y45175181D01*
X42748809Y45175181D02*
X42748809Y46175181D01*
X42748809Y46175181D02*
X42653571Y46032324D01*
X42653571Y46032324D02*
X42558333Y45937086D01*
X42558333Y45937086D02*
X42463095Y45889467D01*
X43891666Y45841848D02*
X43891666Y45175181D01*
X43653571Y46222800D02*
X43415476Y45508515D01*
X43415476Y45508515D02*
X44034523Y45508515D01*
X107696095Y21745181D02*
X107696095Y20935658D01*
X107696095Y20935658D02*
X107743714Y20840420D01*
X107743714Y20840420D02*
X107791333Y20792800D01*
X107791333Y20792800D02*
X107886571Y20745181D01*
X107886571Y20745181D02*
X108077047Y20745181D01*
X108077047Y20745181D02*
X108172285Y20792800D01*
X108172285Y20792800D02*
X108219904Y20840420D01*
X108219904Y20840420D02*
X108267523Y20935658D01*
X108267523Y20935658D02*
X108267523Y21745181D01*
X108886571Y21316610D02*
X108791333Y21364229D01*
X108791333Y21364229D02*
X108743714Y21411848D01*
X108743714Y21411848D02*
X108696095Y21507086D01*
X108696095Y21507086D02*
X108696095Y21554705D01*
X108696095Y21554705D02*
X108743714Y21649943D01*
X108743714Y21649943D02*
X108791333Y21697562D01*
X108791333Y21697562D02*
X108886571Y21745181D01*
X108886571Y21745181D02*
X109077047Y21745181D01*
X109077047Y21745181D02*
X109172285Y21697562D01*
X109172285Y21697562D02*
X109219904Y21649943D01*
X109219904Y21649943D02*
X109267523Y21554705D01*
X109267523Y21554705D02*
X109267523Y21507086D01*
X109267523Y21507086D02*
X109219904Y21411848D01*
X109219904Y21411848D02*
X109172285Y21364229D01*
X109172285Y21364229D02*
X109077047Y21316610D01*
X109077047Y21316610D02*
X108886571Y21316610D01*
X108886571Y21316610D02*
X108791333Y21268991D01*
X108791333Y21268991D02*
X108743714Y21221372D01*
X108743714Y21221372D02*
X108696095Y21126134D01*
X108696095Y21126134D02*
X108696095Y20935658D01*
X108696095Y20935658D02*
X108743714Y20840420D01*
X108743714Y20840420D02*
X108791333Y20792800D01*
X108791333Y20792800D02*
X108886571Y20745181D01*
X108886571Y20745181D02*
X109077047Y20745181D01*
X109077047Y20745181D02*
X109172285Y20792800D01*
X109172285Y20792800D02*
X109219904Y20840420D01*
X109219904Y20840420D02*
X109267523Y20935658D01*
X109267523Y20935658D02*
X109267523Y21126134D01*
X109267523Y21126134D02*
X109219904Y21221372D01*
X109219904Y21221372D02*
X109172285Y21268991D01*
X109172285Y21268991D02*
X109077047Y21316610D01*
X208083080Y1295334D02*
X208130700Y1247715D01*
X208130700Y1247715D02*
X208178319Y1104858D01*
X208178319Y1104858D02*
X208178319Y1009620D01*
X208178319Y1009620D02*
X208130700Y866763D01*
X208130700Y866763D02*
X208035461Y771525D01*
X208035461Y771525D02*
X207940223Y723906D01*
X207940223Y723906D02*
X207749747Y676287D01*
X207749747Y676287D02*
X207606890Y676287D01*
X207606890Y676287D02*
X207416414Y723906D01*
X207416414Y723906D02*
X207321176Y771525D01*
X207321176Y771525D02*
X207225938Y866763D01*
X207225938Y866763D02*
X207178319Y1009620D01*
X207178319Y1009620D02*
X207178319Y1104858D01*
X207178319Y1104858D02*
X207225938Y1247715D01*
X207225938Y1247715D02*
X207273557Y1295334D01*
X207178319Y2200096D02*
X207178319Y1723906D01*
X207178319Y1723906D02*
X207654509Y1676287D01*
X207654509Y1676287D02*
X207606890Y1723906D01*
X207606890Y1723906D02*
X207559271Y1819144D01*
X207559271Y1819144D02*
X207559271Y2057239D01*
X207559271Y2057239D02*
X207606890Y2152477D01*
X207606890Y2152477D02*
X207654509Y2200096D01*
X207654509Y2200096D02*
X207749747Y2247715D01*
X207749747Y2247715D02*
X207987842Y2247715D01*
X207987842Y2247715D02*
X208083080Y2200096D01*
X208083080Y2200096D02*
X208130700Y2152477D01*
X208130700Y2152477D02*
X208178319Y2057239D01*
X208178319Y2057239D02*
X208178319Y1819144D01*
X208178319Y1819144D02*
X208130700Y1723906D01*
X208130700Y1723906D02*
X208083080Y1676287D01*
D12*
X10769380Y31793758D02*
X10769380Y33063758D01*
X10769380Y33063758D02*
X11495095Y31793758D01*
X11495095Y31793758D02*
X11495095Y33063758D01*
X12765095Y31793758D02*
X12039380Y31793758D01*
X12402237Y31793758D02*
X12402237Y33063758D01*
X12402237Y33063758D02*
X12281285Y32882330D01*
X12281285Y32882330D02*
X12160333Y32761377D01*
X12160333Y32761377D02*
X12039380Y32700901D01*
D10*
X20342047Y35420274D02*
X20342047Y36690274D01*
X20946809Y35420274D02*
X20946809Y36690274D01*
X20946809Y36690274D02*
X21672524Y35420274D01*
X21672524Y35420274D02*
X21672524Y36690274D01*
X22277285Y35904084D02*
X23244905Y35904084D01*
X24514905Y35420274D02*
X23789190Y35420274D01*
X24152047Y35420274D02*
X24152047Y36690274D01*
X24152047Y36690274D02*
X24031095Y36508846D01*
X24031095Y36508846D02*
X23910143Y36387893D01*
X23910143Y36387893D02*
X23789190Y36327417D01*
X25603476Y36266941D02*
X25603476Y35420274D01*
X25301095Y36750750D02*
X24998714Y35843608D01*
X24998714Y35843608D02*
X25784905Y35843608D01*
X246281142Y37075181D02*
X245947809Y37551372D01*
X245709714Y37075181D02*
X245709714Y38075181D01*
X245709714Y38075181D02*
X246090666Y38075181D01*
X246090666Y38075181D02*
X246185904Y38027562D01*
X246185904Y38027562D02*
X246233523Y37979943D01*
X246233523Y37979943D02*
X246281142Y37884705D01*
X246281142Y37884705D02*
X246281142Y37741848D01*
X246281142Y37741848D02*
X246233523Y37646610D01*
X246233523Y37646610D02*
X246185904Y37598991D01*
X246185904Y37598991D02*
X246090666Y37551372D01*
X246090666Y37551372D02*
X245709714Y37551372D01*
X247233523Y37075181D02*
X246662095Y37075181D01*
X246947809Y37075181D02*
X246947809Y38075181D01*
X246947809Y38075181D02*
X246852571Y37932324D01*
X246852571Y37932324D02*
X246757333Y37837086D01*
X246757333Y37837086D02*
X246662095Y37789467D01*
X247614476Y37979943D02*
X247662095Y38027562D01*
X247662095Y38027562D02*
X247757333Y38075181D01*
X247757333Y38075181D02*
X247995428Y38075181D01*
X247995428Y38075181D02*
X248090666Y38027562D01*
X248090666Y38027562D02*
X248138285Y37979943D01*
X248138285Y37979943D02*
X248185904Y37884705D01*
X248185904Y37884705D02*
X248185904Y37789467D01*
X248185904Y37789467D02*
X248138285Y37646610D01*
X248138285Y37646610D02*
X247566857Y37075181D01*
X247566857Y37075181D02*
X248185904Y37075181D01*
X179890266Y14148381D02*
X179890266Y13434096D01*
X179890266Y13434096D02*
X179842647Y13291239D01*
X179842647Y13291239D02*
X179747409Y13196000D01*
X179747409Y13196000D02*
X179604552Y13148381D01*
X179604552Y13148381D02*
X179509314Y13148381D01*
X180795028Y13815048D02*
X180795028Y13148381D01*
X180556933Y14196000D02*
X180318838Y13481715D01*
X180318838Y13481715D02*
X180937885Y13481715D01*
X95483142Y45175181D02*
X95149809Y45651372D01*
X94911714Y45175181D02*
X94911714Y46175181D01*
X94911714Y46175181D02*
X95292666Y46175181D01*
X95292666Y46175181D02*
X95387904Y46127562D01*
X95387904Y46127562D02*
X95435523Y46079943D01*
X95435523Y46079943D02*
X95483142Y45984705D01*
X95483142Y45984705D02*
X95483142Y45841848D01*
X95483142Y45841848D02*
X95435523Y45746610D01*
X95435523Y45746610D02*
X95387904Y45698991D01*
X95387904Y45698991D02*
X95292666Y45651372D01*
X95292666Y45651372D02*
X94911714Y45651372D01*
X96435523Y45175181D02*
X95864095Y45175181D01*
X96149809Y45175181D02*
X96149809Y46175181D01*
X96149809Y46175181D02*
X96054571Y46032324D01*
X96054571Y46032324D02*
X95959333Y45937086D01*
X95959333Y45937086D02*
X95864095Y45889467D01*
X97292666Y46175181D02*
X97102190Y46175181D01*
X97102190Y46175181D02*
X97006952Y46127562D01*
X97006952Y46127562D02*
X96959333Y46079943D01*
X96959333Y46079943D02*
X96864095Y45937086D01*
X96864095Y45937086D02*
X96816476Y45746610D01*
X96816476Y45746610D02*
X96816476Y45365658D01*
X96816476Y45365658D02*
X96864095Y45270420D01*
X96864095Y45270420D02*
X96911714Y45222800D01*
X96911714Y45222800D02*
X97006952Y45175181D01*
X97006952Y45175181D02*
X97197428Y45175181D01*
X97197428Y45175181D02*
X97292666Y45222800D01*
X97292666Y45222800D02*
X97340285Y45270420D01*
X97340285Y45270420D02*
X97387904Y45365658D01*
X97387904Y45365658D02*
X97387904Y45603753D01*
X97387904Y45603753D02*
X97340285Y45698991D01*
X97340285Y45698991D02*
X97292666Y45746610D01*
X97292666Y45746610D02*
X97197428Y45794229D01*
X97197428Y45794229D02*
X97006952Y45794229D01*
X97006952Y45794229D02*
X96911714Y45746610D01*
X96911714Y45746610D02*
X96864095Y45698991D01*
X96864095Y45698991D02*
X96816476Y45603753D01*
X238311333Y44568181D02*
X237978000Y45044372D01*
X237739905Y44568181D02*
X237739905Y45568181D01*
X237739905Y45568181D02*
X238120857Y45568181D01*
X238120857Y45568181D02*
X238216095Y45520562D01*
X238216095Y45520562D02*
X238263714Y45472943D01*
X238263714Y45472943D02*
X238311333Y45377705D01*
X238311333Y45377705D02*
X238311333Y45234848D01*
X238311333Y45234848D02*
X238263714Y45139610D01*
X238263714Y45139610D02*
X238216095Y45091991D01*
X238216095Y45091991D02*
X238120857Y45044372D01*
X238120857Y45044372D02*
X237739905Y45044372D01*
X238882762Y45139610D02*
X238787524Y45187229D01*
X238787524Y45187229D02*
X238739905Y45234848D01*
X238739905Y45234848D02*
X238692286Y45330086D01*
X238692286Y45330086D02*
X238692286Y45377705D01*
X238692286Y45377705D02*
X238739905Y45472943D01*
X238739905Y45472943D02*
X238787524Y45520562D01*
X238787524Y45520562D02*
X238882762Y45568181D01*
X238882762Y45568181D02*
X239073238Y45568181D01*
X239073238Y45568181D02*
X239168476Y45520562D01*
X239168476Y45520562D02*
X239216095Y45472943D01*
X239216095Y45472943D02*
X239263714Y45377705D01*
X239263714Y45377705D02*
X239263714Y45330086D01*
X239263714Y45330086D02*
X239216095Y45234848D01*
X239216095Y45234848D02*
X239168476Y45187229D01*
X239168476Y45187229D02*
X239073238Y45139610D01*
X239073238Y45139610D02*
X238882762Y45139610D01*
X238882762Y45139610D02*
X238787524Y45091991D01*
X238787524Y45091991D02*
X238739905Y45044372D01*
X238739905Y45044372D02*
X238692286Y44949134D01*
X238692286Y44949134D02*
X238692286Y44758658D01*
X238692286Y44758658D02*
X238739905Y44663420D01*
X238739905Y44663420D02*
X238787524Y44615800D01*
X238787524Y44615800D02*
X238882762Y44568181D01*
X238882762Y44568181D02*
X239073238Y44568181D01*
X239073238Y44568181D02*
X239168476Y44615800D01*
X239168476Y44615800D02*
X239216095Y44663420D01*
X239216095Y44663420D02*
X239263714Y44758658D01*
X239263714Y44758658D02*
X239263714Y44949134D01*
X239263714Y44949134D02*
X239216095Y45044372D01*
X239216095Y45044372D02*
X239168476Y45091991D01*
X239168476Y45091991D02*
X239073238Y45139610D01*
X174907142Y49521181D02*
X174573809Y49997372D01*
X174335714Y49521181D02*
X174335714Y50521181D01*
X174335714Y50521181D02*
X174716666Y50521181D01*
X174716666Y50521181D02*
X174811904Y50473562D01*
X174811904Y50473562D02*
X174859523Y50425943D01*
X174859523Y50425943D02*
X174907142Y50330705D01*
X174907142Y50330705D02*
X174907142Y50187848D01*
X174907142Y50187848D02*
X174859523Y50092610D01*
X174859523Y50092610D02*
X174811904Y50044991D01*
X174811904Y50044991D02*
X174716666Y49997372D01*
X174716666Y49997372D02*
X174335714Y49997372D01*
X175859523Y49521181D02*
X175288095Y49521181D01*
X175573809Y49521181D02*
X175573809Y50521181D01*
X175573809Y50521181D02*
X175478571Y50378324D01*
X175478571Y50378324D02*
X175383333Y50283086D01*
X175383333Y50283086D02*
X175288095Y50235467D01*
X176478571Y50521181D02*
X176573809Y50521181D01*
X176573809Y50521181D02*
X176669047Y50473562D01*
X176669047Y50473562D02*
X176716666Y50425943D01*
X176716666Y50425943D02*
X176764285Y50330705D01*
X176764285Y50330705D02*
X176811904Y50140229D01*
X176811904Y50140229D02*
X176811904Y49902134D01*
X176811904Y49902134D02*
X176764285Y49711658D01*
X176764285Y49711658D02*
X176716666Y49616420D01*
X176716666Y49616420D02*
X176669047Y49568800D01*
X176669047Y49568800D02*
X176573809Y49521181D01*
X176573809Y49521181D02*
X176478571Y49521181D01*
X176478571Y49521181D02*
X176383333Y49568800D01*
X176383333Y49568800D02*
X176335714Y49616420D01*
X176335714Y49616420D02*
X176288095Y49711658D01*
X176288095Y49711658D02*
X176240476Y49902134D01*
X176240476Y49902134D02*
X176240476Y50140229D01*
X176240476Y50140229D02*
X176288095Y50330705D01*
X176288095Y50330705D02*
X176335714Y50425943D01*
X176335714Y50425943D02*
X176383333Y50473562D01*
X176383333Y50473562D02*
X176478571Y50521181D01*
X12745142Y42589181D02*
X12411809Y43065372D01*
X12173714Y42589181D02*
X12173714Y43589181D01*
X12173714Y43589181D02*
X12554666Y43589181D01*
X12554666Y43589181D02*
X12649904Y43541562D01*
X12649904Y43541562D02*
X12697523Y43493943D01*
X12697523Y43493943D02*
X12745142Y43398705D01*
X12745142Y43398705D02*
X12745142Y43255848D01*
X12745142Y43255848D02*
X12697523Y43160610D01*
X12697523Y43160610D02*
X12649904Y43112991D01*
X12649904Y43112991D02*
X12554666Y43065372D01*
X12554666Y43065372D02*
X12173714Y43065372D01*
X13697523Y42589181D02*
X13126095Y42589181D01*
X13411809Y42589181D02*
X13411809Y43589181D01*
X13411809Y43589181D02*
X13316571Y43446324D01*
X13316571Y43446324D02*
X13221333Y43351086D01*
X13221333Y43351086D02*
X13126095Y43303467D01*
X14268952Y43160610D02*
X14173714Y43208229D01*
X14173714Y43208229D02*
X14126095Y43255848D01*
X14126095Y43255848D02*
X14078476Y43351086D01*
X14078476Y43351086D02*
X14078476Y43398705D01*
X14078476Y43398705D02*
X14126095Y43493943D01*
X14126095Y43493943D02*
X14173714Y43541562D01*
X14173714Y43541562D02*
X14268952Y43589181D01*
X14268952Y43589181D02*
X14459428Y43589181D01*
X14459428Y43589181D02*
X14554666Y43541562D01*
X14554666Y43541562D02*
X14602285Y43493943D01*
X14602285Y43493943D02*
X14649904Y43398705D01*
X14649904Y43398705D02*
X14649904Y43351086D01*
X14649904Y43351086D02*
X14602285Y43255848D01*
X14602285Y43255848D02*
X14554666Y43208229D01*
X14554666Y43208229D02*
X14459428Y43160610D01*
X14459428Y43160610D02*
X14268952Y43160610D01*
X14268952Y43160610D02*
X14173714Y43112991D01*
X14173714Y43112991D02*
X14126095Y43065372D01*
X14126095Y43065372D02*
X14078476Y42970134D01*
X14078476Y42970134D02*
X14078476Y42779658D01*
X14078476Y42779658D02*
X14126095Y42684420D01*
X14126095Y42684420D02*
X14173714Y42636800D01*
X14173714Y42636800D02*
X14268952Y42589181D01*
X14268952Y42589181D02*
X14459428Y42589181D01*
X14459428Y42589181D02*
X14554666Y42636800D01*
X14554666Y42636800D02*
X14602285Y42684420D01*
X14602285Y42684420D02*
X14649904Y42779658D01*
X14649904Y42779658D02*
X14649904Y42970134D01*
X14649904Y42970134D02*
X14602285Y43065372D01*
X14602285Y43065372D02*
X14554666Y43112991D01*
X14554666Y43112991D02*
X14459428Y43160610D01*
X210326580Y1295334D02*
X210374200Y1247715D01*
X210374200Y1247715D02*
X210421819Y1104858D01*
X210421819Y1104858D02*
X210421819Y1009620D01*
X210421819Y1009620D02*
X210374200Y866763D01*
X210374200Y866763D02*
X210278961Y771525D01*
X210278961Y771525D02*
X210183723Y723906D01*
X210183723Y723906D02*
X209993247Y676287D01*
X209993247Y676287D02*
X209850390Y676287D01*
X209850390Y676287D02*
X209659914Y723906D01*
X209659914Y723906D02*
X209564676Y771525D01*
X209564676Y771525D02*
X209469438Y866763D01*
X209469438Y866763D02*
X209421819Y1009620D01*
X209421819Y1009620D02*
X209421819Y1104858D01*
X209421819Y1104858D02*
X209469438Y1247715D01*
X209469438Y1247715D02*
X209517057Y1295334D01*
X209421819Y2152477D02*
X209421819Y1962001D01*
X209421819Y1962001D02*
X209469438Y1866763D01*
X209469438Y1866763D02*
X209517057Y1819144D01*
X209517057Y1819144D02*
X209659914Y1723906D01*
X209659914Y1723906D02*
X209850390Y1676287D01*
X209850390Y1676287D02*
X210231342Y1676287D01*
X210231342Y1676287D02*
X210326580Y1723906D01*
X210326580Y1723906D02*
X210374200Y1771525D01*
X210374200Y1771525D02*
X210421819Y1866763D01*
X210421819Y1866763D02*
X210421819Y2057239D01*
X210421819Y2057239D02*
X210374200Y2152477D01*
X210374200Y2152477D02*
X210326580Y2200096D01*
X210326580Y2200096D02*
X210231342Y2247715D01*
X210231342Y2247715D02*
X209993247Y2247715D01*
X209993247Y2247715D02*
X209898009Y2200096D01*
X209898009Y2200096D02*
X209850390Y2152477D01*
X209850390Y2152477D02*
X209802771Y2057239D01*
X209802771Y2057239D02*
X209802771Y1866763D01*
X209802771Y1866763D02*
X209850390Y1771525D01*
X209850390Y1771525D02*
X209898009Y1723906D01*
X209898009Y1723906D02*
X209993247Y1676287D01*
X191766333Y29455181D02*
X191433000Y29931372D01*
X191194905Y29455181D02*
X191194905Y30455181D01*
X191194905Y30455181D02*
X191575857Y30455181D01*
X191575857Y30455181D02*
X191671095Y30407562D01*
X191671095Y30407562D02*
X191718714Y30359943D01*
X191718714Y30359943D02*
X191766333Y30264705D01*
X191766333Y30264705D02*
X191766333Y30121848D01*
X191766333Y30121848D02*
X191718714Y30026610D01*
X191718714Y30026610D02*
X191671095Y29978991D01*
X191671095Y29978991D02*
X191575857Y29931372D01*
X191575857Y29931372D02*
X191194905Y29931372D01*
X192623476Y30455181D02*
X192433000Y30455181D01*
X192433000Y30455181D02*
X192337762Y30407562D01*
X192337762Y30407562D02*
X192290143Y30359943D01*
X192290143Y30359943D02*
X192194905Y30217086D01*
X192194905Y30217086D02*
X192147286Y30026610D01*
X192147286Y30026610D02*
X192147286Y29645658D01*
X192147286Y29645658D02*
X192194905Y29550420D01*
X192194905Y29550420D02*
X192242524Y29502800D01*
X192242524Y29502800D02*
X192337762Y29455181D01*
X192337762Y29455181D02*
X192528238Y29455181D01*
X192528238Y29455181D02*
X192623476Y29502800D01*
X192623476Y29502800D02*
X192671095Y29550420D01*
X192671095Y29550420D02*
X192718714Y29645658D01*
X192718714Y29645658D02*
X192718714Y29883753D01*
X192718714Y29883753D02*
X192671095Y29978991D01*
X192671095Y29978991D02*
X192623476Y30026610D01*
X192623476Y30026610D02*
X192528238Y30074229D01*
X192528238Y30074229D02*
X192337762Y30074229D01*
X192337762Y30074229D02*
X192242524Y30026610D01*
X192242524Y30026610D02*
X192194905Y29978991D01*
X192194905Y29978991D02*
X192147286Y29883753D01*
X196532666Y51257781D02*
X196532666Y50543496D01*
X196532666Y50543496D02*
X196485047Y50400639D01*
X196485047Y50400639D02*
X196389809Y50305400D01*
X196389809Y50305400D02*
X196246952Y50257781D01*
X196246952Y50257781D02*
X196151714Y50257781D01*
X197532666Y50257781D02*
X196961238Y50257781D01*
X197246952Y50257781D02*
X197246952Y51257781D01*
X197246952Y51257781D02*
X197151714Y51114924D01*
X197151714Y51114924D02*
X197056476Y51019686D01*
X197056476Y51019686D02*
X196961238Y50972067D01*
X194917905Y27836181D02*
X194917905Y28836181D01*
X194917905Y28836181D02*
X195156000Y28836181D01*
X195156000Y28836181D02*
X195298857Y28788562D01*
X195298857Y28788562D02*
X195394095Y28693324D01*
X195394095Y28693324D02*
X195441714Y28598086D01*
X195441714Y28598086D02*
X195489333Y28407610D01*
X195489333Y28407610D02*
X195489333Y28264753D01*
X195489333Y28264753D02*
X195441714Y28074277D01*
X195441714Y28074277D02*
X195394095Y27979039D01*
X195394095Y27979039D02*
X195298857Y27883800D01*
X195298857Y27883800D02*
X195156000Y27836181D01*
X195156000Y27836181D02*
X194917905Y27836181D01*
X196441714Y27836181D02*
X195870286Y27836181D01*
X196156000Y27836181D02*
X196156000Y28836181D01*
X196156000Y28836181D02*
X196060762Y28693324D01*
X196060762Y28693324D02*
X195965524Y28598086D01*
X195965524Y28598086D02*
X195870286Y28550467D01*
%TO.C,G1*%
G36*
X234035199Y12024370D02*
G01*
X234009107Y11953375D01*
X233921610Y11767680D01*
X233781760Y11485348D01*
X233598606Y11124439D01*
X233381199Y10703012D01*
X233181243Y10320247D01*
X232937114Y9855392D01*
X232713907Y9430277D01*
X232521851Y9064396D01*
X232371179Y8777243D01*
X232272122Y8588314D01*
X232237150Y8521442D01*
X232248389Y8487064D01*
X232344421Y8489085D01*
X232538333Y8530508D01*
X232843209Y8614338D01*
X233272135Y8743577D01*
X233462000Y8802600D01*
X233875501Y8930414D01*
X234236334Y9039106D01*
X234521382Y9121945D01*
X234707526Y9172201D01*
X234771543Y9183885D01*
X234747547Y9112653D01*
X234668457Y8924893D01*
X234542954Y8640172D01*
X234379722Y8278053D01*
X234187442Y7858103D01*
X234082437Y7631077D01*
X233878892Y7189321D01*
X233700171Y6795415D01*
X233554935Y6468951D01*
X233451845Y6229521D01*
X233399561Y6096718D01*
X233395197Y6076404D01*
X233475245Y6079084D01*
X233639825Y6116625D01*
X233662809Y6123085D01*
X233818415Y6154925D01*
X233884301Y6142388D01*
X233883276Y6135515D01*
X233822498Y6044830D01*
X233693996Y5880697D01*
X233524923Y5675126D01*
X233342429Y5460123D01*
X233173664Y5267696D01*
X233045781Y5129854D01*
X232986724Y5078593D01*
X232949509Y5141971D01*
X232910197Y5307436D01*
X232896742Y5392922D01*
X232854724Y5685268D01*
X232807395Y5996109D01*
X232799107Y6048363D01*
X232745308Y6384426D01*
X232951971Y6249015D01*
X233097399Y6163739D01*
X233175726Y6136827D01*
X233177982Y6138396D01*
X233203326Y6216395D01*
X233258423Y6411205D01*
X233335358Y6694140D01*
X233426214Y7036513D01*
X233433677Y7064963D01*
X233531619Y7436661D01*
X233622131Y7776568D01*
X233694963Y8046411D01*
X233739007Y8204970D01*
X233807991Y8443201D01*
X232602237Y8033716D01*
X232204062Y7900344D01*
X231858385Y7788079D01*
X231588920Y7704337D01*
X231419377Y7656532D01*
X231371782Y7648931D01*
X231392739Y7721998D01*
X231463848Y7917200D01*
X231578496Y8217507D01*
X231730069Y8605890D01*
X231911956Y9065321D01*
X232117542Y9578770D01*
X232215064Y9820526D01*
X233083045Y11967421D01*
X233545649Y12009368D01*
X233791779Y12027310D01*
X233969676Y12032050D01*
X234035199Y12024370D01*
G37*
G36*
X233625022Y16240747D02*
G01*
X233640819Y16228896D01*
X233705607Y16143626D01*
X233837407Y15938971D01*
X234029929Y15625912D01*
X234276879Y15215428D01*
X234571965Y14718499D01*
X234908896Y14146104D01*
X235281380Y13509223D01*
X235683123Y12818837D01*
X236107834Y12085923D01*
X236549220Y11321463D01*
X237000991Y10536436D01*
X237456852Y9741821D01*
X237910513Y8948598D01*
X238355680Y8167747D01*
X238786063Y7410247D01*
X239195368Y6687078D01*
X239577303Y6009220D01*
X239925577Y5387653D01*
X240233897Y4833355D01*
X240495970Y4357307D01*
X240705506Y3970489D01*
X240856211Y3683879D01*
X240941793Y3508458D01*
X240959586Y3457862D01*
X240914515Y3251679D01*
X240761162Y3100228D01*
X240684113Y3055799D01*
X240581474Y3040841D01*
X240341511Y3027248D01*
X239977012Y3015017D01*
X239500762Y3004143D01*
X238925549Y2994625D01*
X238264160Y2986459D01*
X237529381Y2979643D01*
X236733999Y2974173D01*
X235890802Y2970046D01*
X235012575Y2967259D01*
X234112107Y2965810D01*
X233202183Y2965695D01*
X232295591Y2966912D01*
X231405118Y2969457D01*
X230543550Y2973327D01*
X229723674Y2978519D01*
X228958277Y2985031D01*
X228260146Y2992859D01*
X227642068Y3002001D01*
X227116830Y3012453D01*
X226697218Y3024212D01*
X226396019Y3037275D01*
X226226021Y3051640D01*
X226194409Y3059199D01*
X226005897Y3209421D01*
X225935710Y3399448D01*
X225932938Y3457862D01*
X225969635Y3549778D01*
X226075821Y3760505D01*
X226245203Y4079062D01*
X226295703Y4171768D01*
X227417065Y4171768D01*
X233399968Y4171768D01*
X234333595Y4172409D01*
X235222549Y4174268D01*
X236055552Y4177245D01*
X236821329Y4181243D01*
X237508606Y4186161D01*
X238106105Y4191901D01*
X238602553Y4198366D01*
X238986673Y4205455D01*
X239247189Y4213070D01*
X239372827Y4221112D01*
X239382871Y4224154D01*
X239347046Y4299400D01*
X239244058Y4492806D01*
X239080639Y4792420D01*
X238863519Y5186288D01*
X238599430Y5662456D01*
X238295101Y6208971D01*
X237957263Y6813880D01*
X237592649Y7465229D01*
X237207988Y8151065D01*
X236810011Y8859434D01*
X236405450Y9578383D01*
X236001034Y10295958D01*
X235603496Y11000206D01*
X235219565Y11679173D01*
X234855973Y12320907D01*
X234519451Y12913453D01*
X234216729Y13444857D01*
X233954538Y13903168D01*
X233739610Y14276430D01*
X233578674Y14552691D01*
X233478462Y14719998D01*
X233445956Y14767626D01*
X233402643Y14703713D01*
X233291566Y14518591D01*
X233118391Y14222185D01*
X232888789Y13824421D01*
X232608429Y13335223D01*
X232282980Y12764516D01*
X231918111Y12122226D01*
X231519491Y11418279D01*
X231092789Y10662598D01*
X230643675Y9865110D01*
X230516424Y9638780D01*
X230059848Y8826709D01*
X229622816Y8049981D01*
X229211177Y7318951D01*
X228830777Y6643975D01*
X228487462Y6035411D01*
X228187080Y5503615D01*
X227935478Y5058943D01*
X227738501Y4711752D01*
X227601997Y4472398D01*
X227531813Y4351237D01*
X227525458Y4340851D01*
X227417065Y4171768D01*
X226295703Y4171768D01*
X226471489Y4494466D01*
X226748386Y4995738D01*
X227069602Y5571894D01*
X227428844Y6211956D01*
X227819819Y6904940D01*
X228236236Y7639865D01*
X228671801Y8405750D01*
X229120222Y9191615D01*
X229575206Y9986476D01*
X230030462Y10779354D01*
X230479696Y11559266D01*
X230916615Y12315232D01*
X231334928Y13036270D01*
X231728342Y13711398D01*
X232090564Y14329636D01*
X232415302Y14880002D01*
X232696263Y15351514D01*
X232927154Y15733191D01*
X233101684Y16014053D01*
X233213559Y16183117D01*
X233250998Y16228896D01*
X233392076Y16324043D01*
X233490985Y16327994D01*
X233625022Y16240747D01*
G37*
D14*
%TO.C,R15*%
X79963000Y46357064D02*
X79963000Y44902936D01*
X78143000Y46357064D02*
X78143000Y44902936D01*
D15*
%TO.C,N3*%
X71390001Y32500000D02*
G75*
G03*
X86629999Y32657480I7619999J78740D01*
G01*
X87882220Y32500000D02*
G75*
G03*
X70137780Y32500000I-8872220J0D01*
G01*
X70137780Y32500000D02*
G75*
G03*
X87882220Y32500000I8872220J0D01*
G01*
D14*
%TO.C,U1*%
X186639000Y38243000D02*
X183764000Y38243000D01*
X186639000Y38243000D02*
X188139000Y38243000D01*
X186639000Y35023000D02*
X185139000Y35023000D01*
X186639000Y35023000D02*
X188139000Y35023000D01*
D13*
%TO.C,mouse-bite-3mm-slot*%
X127009678Y24802000D02*
G75*
G03*
X125009678Y24802000I-1000000J0D01*
G01*
X125009678Y30326000D02*
G75*
G03*
X127009678Y30326000I1000000J0D01*
G01*
D14*
%TO.C,D2*%
X229564000Y20354905D02*
X226264000Y20354905D01*
X229564000Y20354905D02*
X229564000Y14844905D01*
X226264000Y20354905D02*
X226264000Y14844905D01*
%TO.C,C19*%
X44581000Y18344233D02*
X44581000Y18636767D01*
X45601000Y18344233D02*
X45601000Y18636767D01*
%TO.C,U9*%
X109410000Y45203000D02*
X109410000Y41753000D01*
X109410000Y45203000D02*
X109410000Y47153000D01*
X118280000Y45203000D02*
X118280000Y43253000D01*
X118280000Y45203000D02*
X118280000Y47153000D01*
%TO.C,R9*%
X180958258Y36610500D02*
X180483742Y36610500D01*
X180958258Y37655500D02*
X180483742Y37655500D01*
%TO.C,R1*%
X198954564Y22984000D02*
X198500436Y22984000D01*
X198954564Y24454000D02*
X198500436Y24454000D01*
%TO.C,C20*%
X63678000Y18364233D02*
X63678000Y18656767D01*
X64698000Y18364233D02*
X64698000Y18656767D01*
%TO.C,C10*%
X181763580Y39592000D02*
X181482420Y39592000D01*
X181763580Y40612000D02*
X181482420Y40612000D01*
%TO.C,C14*%
X226310000Y22406905D02*
X231550000Y22406905D01*
X226310000Y22406905D02*
X226310000Y32946905D01*
X231550000Y22406905D02*
X231550000Y32946905D01*
X226310000Y32946905D02*
X231550000Y32946905D01*
%TO.C,C22*%
X100588000Y18344233D02*
X100588000Y18636767D01*
X101608000Y18344233D02*
X101608000Y18636767D01*
%TO.C,U3*%
X11861000Y19698000D02*
X11861000Y19463000D01*
X11861000Y19463000D02*
X10046000Y19463000D01*
X11861000Y6678000D02*
X11861000Y6913000D01*
X15721000Y19698000D02*
X11861000Y19698000D01*
X15721000Y19698000D02*
X19581000Y19698000D01*
X15721000Y6678000D02*
X11861000Y6678000D01*
X15721000Y6678000D02*
X19581000Y6678000D01*
X19581000Y19698000D02*
X19581000Y19463000D01*
X19581000Y6678000D02*
X19581000Y6913000D01*
%TO.C,C1*%
X201053698Y15689000D02*
X200253698Y15689000D01*
X200653698Y15289000D02*
X200653698Y16089000D01*
X196644000Y13924000D02*
X196644000Y22084000D01*
X196604000Y13924000D02*
X196604000Y22084000D01*
X196564000Y13924000D02*
X196564000Y22084000D01*
X196524000Y13925000D02*
X196524000Y22083000D01*
X196484000Y13927000D02*
X196484000Y22081000D01*
X196444000Y13928000D02*
X196444000Y22080000D01*
X196404000Y13930000D02*
X196404000Y22078000D01*
X196364000Y13933000D02*
X196364000Y22075000D01*
X196324000Y13936000D02*
X196324000Y22072000D01*
X196284000Y13939000D02*
X196284000Y22069000D01*
X196244000Y13943000D02*
X196244000Y22065000D01*
X196204000Y13947000D02*
X196204000Y22061000D01*
X196164000Y13952000D02*
X196164000Y22056000D01*
X196124000Y13956000D02*
X196124000Y22052000D01*
X196084000Y13962000D02*
X196084000Y22046000D01*
X196044000Y13967000D02*
X196044000Y22041000D01*
X196004000Y13974000D02*
X196004000Y22034000D01*
X195964000Y13980000D02*
X195964000Y22028000D01*
X195923000Y13987000D02*
X195923000Y16964000D01*
X195923000Y19044000D02*
X195923000Y22021000D01*
X195883000Y13994000D02*
X195883000Y16964000D01*
X195883000Y19044000D02*
X195883000Y22014000D01*
X195843000Y14002000D02*
X195843000Y16964000D01*
X195843000Y19044000D02*
X195843000Y22006000D01*
X195803000Y14010000D02*
X195803000Y16964000D01*
X195803000Y19044000D02*
X195803000Y21998000D01*
X195763000Y14019000D02*
X195763000Y16964000D01*
X195763000Y19044000D02*
X195763000Y21989000D01*
X195723000Y14028000D02*
X195723000Y16964000D01*
X195723000Y19044000D02*
X195723000Y21980000D01*
X195683000Y14037000D02*
X195683000Y16964000D01*
X195683000Y19044000D02*
X195683000Y21971000D01*
X195643000Y14047000D02*
X195643000Y16964000D01*
X195643000Y19044000D02*
X195643000Y21961000D01*
X195603000Y14057000D02*
X195603000Y16964000D01*
X195603000Y19044000D02*
X195603000Y21951000D01*
X195563000Y14068000D02*
X195563000Y16964000D01*
X195563000Y19044000D02*
X195563000Y21940000D01*
X195523000Y14079000D02*
X195523000Y16964000D01*
X195523000Y19044000D02*
X195523000Y21929000D01*
X195483000Y14090000D02*
X195483000Y16964000D01*
X195483000Y19044000D02*
X195483000Y21918000D01*
X195443000Y14102000D02*
X195443000Y16964000D01*
X195443000Y19044000D02*
X195443000Y21906000D01*
X195403000Y14115000D02*
X195403000Y16964000D01*
X195403000Y19044000D02*
X195403000Y21893000D01*
X195363000Y14127000D02*
X195363000Y16964000D01*
X195363000Y19044000D02*
X195363000Y21881000D01*
X195323000Y14141000D02*
X195323000Y16964000D01*
X195323000Y19044000D02*
X195323000Y21867000D01*
X195283000Y14154000D02*
X195283000Y16964000D01*
X195283000Y19044000D02*
X195283000Y21854000D01*
X195243000Y14169000D02*
X195243000Y16964000D01*
X195243000Y19044000D02*
X195243000Y21839000D01*
X195203000Y14183000D02*
X195203000Y16964000D01*
X195203000Y19044000D02*
X195203000Y21825000D01*
X195163000Y14199000D02*
X195163000Y16964000D01*
X195163000Y19044000D02*
X195163000Y21809000D01*
X195123000Y14214000D02*
X195123000Y16964000D01*
X195123000Y19044000D02*
X195123000Y21794000D01*
X195083000Y14230000D02*
X195083000Y16964000D01*
X195083000Y19044000D02*
X195083000Y21778000D01*
X195043000Y14247000D02*
X195043000Y16964000D01*
X195043000Y19044000D02*
X195043000Y21761000D01*
X195003000Y14264000D02*
X195003000Y16964000D01*
X195003000Y19044000D02*
X195003000Y21744000D01*
X194963000Y14282000D02*
X194963000Y16964000D01*
X194963000Y19044000D02*
X194963000Y21726000D01*
X194923000Y14300000D02*
X194923000Y16964000D01*
X194923000Y19044000D02*
X194923000Y21708000D01*
X194883000Y14318000D02*
X194883000Y16964000D01*
X194883000Y19044000D02*
X194883000Y21690000D01*
X194843000Y14338000D02*
X194843000Y16964000D01*
X194843000Y19044000D02*
X194843000Y21670000D01*
X194803000Y14357000D02*
X194803000Y16964000D01*
X194803000Y19044000D02*
X194803000Y21651000D01*
X194763000Y14377000D02*
X194763000Y16964000D01*
X194763000Y19044000D02*
X194763000Y21631000D01*
X194723000Y14398000D02*
X194723000Y16964000D01*
X194723000Y19044000D02*
X194723000Y21610000D01*
X194683000Y14420000D02*
X194683000Y16964000D01*
X194683000Y19044000D02*
X194683000Y21588000D01*
X194643000Y14442000D02*
X194643000Y16964000D01*
X194643000Y19044000D02*
X194643000Y21566000D01*
X194603000Y14464000D02*
X194603000Y16964000D01*
X194603000Y19044000D02*
X194603000Y21544000D01*
X194563000Y14487000D02*
X194563000Y16964000D01*
X194563000Y19044000D02*
X194563000Y21521000D01*
X194523000Y14511000D02*
X194523000Y16964000D01*
X194523000Y19044000D02*
X194523000Y21497000D01*
X194483000Y14535000D02*
X194483000Y16964000D01*
X194483000Y19044000D02*
X194483000Y21473000D01*
X194443000Y14560000D02*
X194443000Y16964000D01*
X194443000Y19044000D02*
X194443000Y21448000D01*
X194403000Y14586000D02*
X194403000Y16964000D01*
X194403000Y19044000D02*
X194403000Y21422000D01*
X194363000Y14612000D02*
X194363000Y16964000D01*
X194363000Y19044000D02*
X194363000Y21396000D01*
X194323000Y14639000D02*
X194323000Y16964000D01*
X194323000Y19044000D02*
X194323000Y21369000D01*
X194283000Y14666000D02*
X194283000Y16964000D01*
X194283000Y19044000D02*
X194283000Y21342000D01*
X194243000Y14695000D02*
X194243000Y16964000D01*
X194243000Y19044000D02*
X194243000Y21313000D01*
X194203000Y14724000D02*
X194203000Y16964000D01*
X194203000Y19044000D02*
X194203000Y21284000D01*
X194163000Y14754000D02*
X194163000Y16964000D01*
X194163000Y19044000D02*
X194163000Y21254000D01*
X194123000Y14784000D02*
X194123000Y16964000D01*
X194123000Y19044000D02*
X194123000Y21224000D01*
X194083000Y14815000D02*
X194083000Y16964000D01*
X194083000Y19044000D02*
X194083000Y21193000D01*
X194043000Y14848000D02*
X194043000Y16964000D01*
X194043000Y19044000D02*
X194043000Y21160000D01*
X194003000Y14880000D02*
X194003000Y16964000D01*
X194003000Y19044000D02*
X194003000Y21128000D01*
X193963000Y14914000D02*
X193963000Y16964000D01*
X193963000Y19044000D02*
X193963000Y21094000D01*
X193923000Y14949000D02*
X193923000Y16964000D01*
X193923000Y19044000D02*
X193923000Y21059000D01*
X193883000Y14985000D02*
X193883000Y16964000D01*
X193883000Y19044000D02*
X193883000Y21023000D01*
X193843000Y15021000D02*
X193843000Y20987000D01*
X193803000Y15059000D02*
X193803000Y20949000D01*
X193763000Y15097000D02*
X193763000Y20911000D01*
X193723000Y15137000D02*
X193723000Y20871000D01*
X193683000Y15178000D02*
X193683000Y20830000D01*
X193643000Y15220000D02*
X193643000Y20788000D01*
X193603000Y15263000D02*
X193603000Y20745000D01*
X193563000Y15307000D02*
X193563000Y20701000D01*
X193523000Y15353000D02*
X193523000Y20655000D01*
X193483000Y15400000D02*
X193483000Y20608000D01*
X193443000Y15448000D02*
X193443000Y20560000D01*
X193403000Y15499000D02*
X193403000Y20509000D01*
X193363000Y15550000D02*
X193363000Y20458000D01*
X193323000Y15604000D02*
X193323000Y20404000D01*
X193283000Y15659000D02*
X193283000Y20349000D01*
X193243000Y15717000D02*
X193243000Y20291000D01*
X193203000Y15776000D02*
X193203000Y20232000D01*
X193163000Y15838000D02*
X193163000Y20170000D01*
X193123000Y15902000D02*
X193123000Y20106000D01*
X193083000Y15970000D02*
X193083000Y20038000D01*
X193043000Y16040000D02*
X193043000Y19968000D01*
X193003000Y16114000D02*
X193003000Y19894000D01*
X192963000Y16191000D02*
X192963000Y19817000D01*
X192923000Y16273000D02*
X192923000Y19735000D01*
X192883000Y16359000D02*
X192883000Y19649000D01*
X192843000Y16452000D02*
X192843000Y19556000D01*
X192803000Y16551000D02*
X192803000Y19457000D01*
X192763000Y16658000D02*
X192763000Y19350000D01*
X192723000Y16775000D02*
X192723000Y19233000D01*
X192683000Y16906000D02*
X192683000Y19102000D01*
X192643000Y17056000D02*
X192643000Y18952000D01*
X192603000Y17236000D02*
X192603000Y18772000D01*
X192563000Y17471000D02*
X192563000Y18537000D01*
X200764000Y18004000D02*
G75*
G03*
X192524000Y18004000I-4120000J0D01*
G01*
X192524000Y18004000D02*
G75*
G03*
X200764000Y18004000I4120000J0D01*
G01*
%TO.C,R25*%
X104727936Y43906000D02*
X105182064Y43906000D01*
X104727936Y42436000D02*
X105182064Y42436000D01*
%TO.C,C21*%
X83118000Y18351233D02*
X83118000Y18643767D01*
X84138000Y18351233D02*
X84138000Y18643767D01*
%TO.C,R21*%
X56668000Y40223064D02*
X56668000Y39768936D01*
X55198000Y40223064D02*
X55198000Y39768936D01*
%TO.C,U7*%
X87038000Y19698000D02*
X87038000Y19463000D01*
X87038000Y19463000D02*
X85223000Y19463000D01*
X87038000Y6678000D02*
X87038000Y6913000D01*
X90898000Y19698000D02*
X87038000Y19698000D01*
X90898000Y19698000D02*
X94758000Y19698000D01*
X90898000Y6678000D02*
X87038000Y6678000D01*
X90898000Y6678000D02*
X94758000Y6678000D01*
X94758000Y19698000D02*
X94758000Y19463000D01*
X94758000Y6678000D02*
X94758000Y6913000D01*
%TO.C,R7*%
X191100742Y34401500D02*
X191575258Y34401500D01*
X191100742Y33356500D02*
X191575258Y33356500D01*
%TO.C,R24*%
X92028000Y39768936D02*
X92028000Y40223064D01*
X93498000Y39768936D02*
X93498000Y40223064D01*
%TO.C,C23*%
X109292267Y50281000D02*
X108999733Y50281000D01*
X109292267Y51301000D02*
X108999733Y51301000D01*
%TO.C,C12*%
X180861580Y34345000D02*
X180580420Y34345000D01*
X180861580Y35365000D02*
X180580420Y35365000D01*
%TO.C,C2*%
X201053698Y6418000D02*
X200253698Y6418000D01*
X200653698Y6018000D02*
X200653698Y6818000D01*
X196644000Y4653000D02*
X196644000Y12813000D01*
X196604000Y4653000D02*
X196604000Y12813000D01*
X196564000Y4653000D02*
X196564000Y12813000D01*
X196524000Y4654000D02*
X196524000Y12812000D01*
X196484000Y4656000D02*
X196484000Y12810000D01*
X196444000Y4657000D02*
X196444000Y12809000D01*
X196404000Y4659000D02*
X196404000Y12807000D01*
X196364000Y4662000D02*
X196364000Y12804000D01*
X196324000Y4665000D02*
X196324000Y12801000D01*
X196284000Y4668000D02*
X196284000Y12798000D01*
X196244000Y4672000D02*
X196244000Y12794000D01*
X196204000Y4676000D02*
X196204000Y12790000D01*
X196164000Y4681000D02*
X196164000Y12785000D01*
X196124000Y4685000D02*
X196124000Y12781000D01*
X196084000Y4691000D02*
X196084000Y12775000D01*
X196044000Y4696000D02*
X196044000Y12770000D01*
X196004000Y4703000D02*
X196004000Y12763000D01*
X195964000Y4709000D02*
X195964000Y12757000D01*
X195923000Y4716000D02*
X195923000Y7693000D01*
X195923000Y9773000D02*
X195923000Y12750000D01*
X195883000Y4723000D02*
X195883000Y7693000D01*
X195883000Y9773000D02*
X195883000Y12743000D01*
X195843000Y4731000D02*
X195843000Y7693000D01*
X195843000Y9773000D02*
X195843000Y12735000D01*
X195803000Y4739000D02*
X195803000Y7693000D01*
X195803000Y9773000D02*
X195803000Y12727000D01*
X195763000Y4748000D02*
X195763000Y7693000D01*
X195763000Y9773000D02*
X195763000Y12718000D01*
X195723000Y4757000D02*
X195723000Y7693000D01*
X195723000Y9773000D02*
X195723000Y12709000D01*
X195683000Y4766000D02*
X195683000Y7693000D01*
X195683000Y9773000D02*
X195683000Y12700000D01*
X195643000Y4776000D02*
X195643000Y7693000D01*
X195643000Y9773000D02*
X195643000Y12690000D01*
X195603000Y4786000D02*
X195603000Y7693000D01*
X195603000Y9773000D02*
X195603000Y12680000D01*
X195563000Y4797000D02*
X195563000Y7693000D01*
X195563000Y9773000D02*
X195563000Y12669000D01*
X195523000Y4808000D02*
X195523000Y7693000D01*
X195523000Y9773000D02*
X195523000Y12658000D01*
X195483000Y4819000D02*
X195483000Y7693000D01*
X195483000Y9773000D02*
X195483000Y12647000D01*
X195443000Y4831000D02*
X195443000Y7693000D01*
X195443000Y9773000D02*
X195443000Y12635000D01*
X195403000Y4844000D02*
X195403000Y7693000D01*
X195403000Y9773000D02*
X195403000Y12622000D01*
X195363000Y4856000D02*
X195363000Y7693000D01*
X195363000Y9773000D02*
X195363000Y12610000D01*
X195323000Y4870000D02*
X195323000Y7693000D01*
X195323000Y9773000D02*
X195323000Y12596000D01*
X195283000Y4883000D02*
X195283000Y7693000D01*
X195283000Y9773000D02*
X195283000Y12583000D01*
X195243000Y4898000D02*
X195243000Y7693000D01*
X195243000Y9773000D02*
X195243000Y12568000D01*
X195203000Y4912000D02*
X195203000Y7693000D01*
X195203000Y9773000D02*
X195203000Y12554000D01*
X195163000Y4928000D02*
X195163000Y7693000D01*
X195163000Y9773000D02*
X195163000Y12538000D01*
X195123000Y4943000D02*
X195123000Y7693000D01*
X195123000Y9773000D02*
X195123000Y12523000D01*
X195083000Y4959000D02*
X195083000Y7693000D01*
X195083000Y9773000D02*
X195083000Y12507000D01*
X195043000Y4976000D02*
X195043000Y7693000D01*
X195043000Y9773000D02*
X195043000Y12490000D01*
X195003000Y4993000D02*
X195003000Y7693000D01*
X195003000Y9773000D02*
X195003000Y12473000D01*
X194963000Y5011000D02*
X194963000Y7693000D01*
X194963000Y9773000D02*
X194963000Y12455000D01*
X194923000Y5029000D02*
X194923000Y7693000D01*
X194923000Y9773000D02*
X194923000Y12437000D01*
X194883000Y5047000D02*
X194883000Y7693000D01*
X194883000Y9773000D02*
X194883000Y12419000D01*
X194843000Y5067000D02*
X194843000Y7693000D01*
X194843000Y9773000D02*
X194843000Y12399000D01*
X194803000Y5086000D02*
X194803000Y7693000D01*
X194803000Y9773000D02*
X194803000Y12380000D01*
X194763000Y5106000D02*
X194763000Y7693000D01*
X194763000Y9773000D02*
X194763000Y12360000D01*
X194723000Y5127000D02*
X194723000Y7693000D01*
X194723000Y9773000D02*
X194723000Y12339000D01*
X194683000Y5149000D02*
X194683000Y7693000D01*
X194683000Y9773000D02*
X194683000Y12317000D01*
X194643000Y5171000D02*
X194643000Y7693000D01*
X194643000Y9773000D02*
X194643000Y12295000D01*
X194603000Y5193000D02*
X194603000Y7693000D01*
X194603000Y9773000D02*
X194603000Y12273000D01*
X194563000Y5216000D02*
X194563000Y7693000D01*
X194563000Y9773000D02*
X194563000Y12250000D01*
X194523000Y5240000D02*
X194523000Y7693000D01*
X194523000Y9773000D02*
X194523000Y12226000D01*
X194483000Y5264000D02*
X194483000Y7693000D01*
X194483000Y9773000D02*
X194483000Y12202000D01*
X194443000Y5289000D02*
X194443000Y7693000D01*
X194443000Y9773000D02*
X194443000Y12177000D01*
X194403000Y5315000D02*
X194403000Y7693000D01*
X194403000Y9773000D02*
X194403000Y12151000D01*
X194363000Y5341000D02*
X194363000Y7693000D01*
X194363000Y9773000D02*
X194363000Y12125000D01*
X194323000Y5368000D02*
X194323000Y7693000D01*
X194323000Y9773000D02*
X194323000Y12098000D01*
X194283000Y5395000D02*
X194283000Y7693000D01*
X194283000Y9773000D02*
X194283000Y12071000D01*
X194243000Y5424000D02*
X194243000Y7693000D01*
X194243000Y9773000D02*
X194243000Y12042000D01*
X194203000Y5453000D02*
X194203000Y7693000D01*
X194203000Y9773000D02*
X194203000Y12013000D01*
X194163000Y5483000D02*
X194163000Y7693000D01*
X194163000Y9773000D02*
X194163000Y11983000D01*
X194123000Y5513000D02*
X194123000Y7693000D01*
X194123000Y9773000D02*
X194123000Y11953000D01*
X194083000Y5544000D02*
X194083000Y7693000D01*
X194083000Y9773000D02*
X194083000Y11922000D01*
X194043000Y5577000D02*
X194043000Y7693000D01*
X194043000Y9773000D02*
X194043000Y11889000D01*
X194003000Y5609000D02*
X194003000Y7693000D01*
X194003000Y9773000D02*
X194003000Y11857000D01*
X193963000Y5643000D02*
X193963000Y7693000D01*
X193963000Y9773000D02*
X193963000Y11823000D01*
X193923000Y5678000D02*
X193923000Y7693000D01*
X193923000Y9773000D02*
X193923000Y11788000D01*
X193883000Y5714000D02*
X193883000Y7693000D01*
X193883000Y9773000D02*
X193883000Y11752000D01*
X193843000Y5750000D02*
X193843000Y11716000D01*
X193803000Y5788000D02*
X193803000Y11678000D01*
X193763000Y5826000D02*
X193763000Y11640000D01*
X193723000Y5866000D02*
X193723000Y11600000D01*
X193683000Y5907000D02*
X193683000Y11559000D01*
X193643000Y5949000D02*
X193643000Y11517000D01*
X193603000Y5992000D02*
X193603000Y11474000D01*
X193563000Y6036000D02*
X193563000Y11430000D01*
X193523000Y6082000D02*
X193523000Y11384000D01*
X193483000Y6129000D02*
X193483000Y11337000D01*
X193443000Y6177000D02*
X193443000Y11289000D01*
X193403000Y6228000D02*
X193403000Y11238000D01*
X193363000Y6279000D02*
X193363000Y11187000D01*
X193323000Y6333000D02*
X193323000Y11133000D01*
X193283000Y6388000D02*
X193283000Y11078000D01*
X193243000Y6446000D02*
X193243000Y11020000D01*
X193203000Y6505000D02*
X193203000Y10961000D01*
X193163000Y6567000D02*
X193163000Y10899000D01*
X193123000Y6631000D02*
X193123000Y10835000D01*
X193083000Y6699000D02*
X193083000Y10767000D01*
X193043000Y6769000D02*
X193043000Y10697000D01*
X193003000Y6843000D02*
X193003000Y10623000D01*
X192963000Y6920000D02*
X192963000Y10546000D01*
X192923000Y7002000D02*
X192923000Y10464000D01*
X192883000Y7088000D02*
X192883000Y10378000D01*
X192843000Y7181000D02*
X192843000Y10285000D01*
X192803000Y7280000D02*
X192803000Y10186000D01*
X192763000Y7387000D02*
X192763000Y10079000D01*
X192723000Y7504000D02*
X192723000Y9962000D01*
X192683000Y7635000D02*
X192683000Y9831000D01*
X192643000Y7785000D02*
X192643000Y9681000D01*
X192603000Y7965000D02*
X192603000Y9501000D01*
X192563000Y8200000D02*
X192563000Y9266000D01*
X200764000Y8733000D02*
G75*
G03*
X192524000Y8733000I-4120000J0D01*
G01*
X192524000Y8733000D02*
G75*
G03*
X200764000Y8733000I4120000J0D01*
G01*
%TO.C,U5*%
X48591000Y19698000D02*
X48591000Y19463000D01*
X48591000Y19463000D02*
X46776000Y19463000D01*
X48591000Y6678000D02*
X48591000Y6913000D01*
X52451000Y19698000D02*
X48591000Y19698000D01*
X52451000Y19698000D02*
X56311000Y19698000D01*
X52451000Y6678000D02*
X48591000Y6678000D01*
X52451000Y6678000D02*
X56311000Y6678000D01*
X56311000Y19698000D02*
X56311000Y19463000D01*
X56311000Y6678000D02*
X56311000Y6913000D01*
%TO.C,C13*%
X188189580Y33115000D02*
X187908420Y33115000D01*
X188189580Y34135000D02*
X187908420Y34135000D01*
%TO.C,R11*%
X167195000Y49748936D02*
X167195000Y50203064D01*
X168665000Y49748936D02*
X168665000Y50203064D01*
%TO.C,R20*%
X35513000Y39768936D02*
X35513000Y40223064D01*
X36983000Y39768936D02*
X36983000Y40223064D01*
%TO.C,C8*%
X198984580Y25640800D02*
X198703420Y25640800D01*
X198984580Y26660800D02*
X198703420Y26660800D01*
%TO.C,R2*%
X185002500Y41164258D02*
X185002500Y40689742D01*
X183957500Y41164258D02*
X183957500Y40689742D01*
%TO.C,T1*%
X224688200Y35301400D02*
X224688200Y12644600D01*
X202437800Y35301400D02*
X202437800Y12644600D01*
D16*
X224297160Y37485800D02*
G75*
G03*
X223453640Y37485800I-421760J0D01*
G01*
X223453640Y37485800D02*
G75*
G03*
X224297160Y37485800I421760J0D01*
G01*
D14*
%TO.C,C18*%
X27111000Y18351233D02*
X27111000Y18643767D01*
X28131000Y18351233D02*
X28131000Y18643767D01*
%TO.C,C7*%
X212774000Y6751252D02*
X212774000Y6228748D01*
X211304000Y6751252D02*
X211304000Y6228748D01*
%TO.C,C15*%
X232279000Y22406905D02*
X237519000Y22406905D01*
X232279000Y22406905D02*
X232279000Y32946905D01*
X237519000Y22406905D02*
X237519000Y32946905D01*
X232279000Y32946905D02*
X237519000Y32946905D01*
%TO.C,R23*%
X89053000Y40223064D02*
X89053000Y39768936D01*
X87583000Y40223064D02*
X87583000Y39768936D01*
%TO.C,U4*%
X31031000Y19698000D02*
X31031000Y19463000D01*
X31031000Y19463000D02*
X29216000Y19463000D01*
X31031000Y6678000D02*
X31031000Y6913000D01*
X34891000Y19698000D02*
X31031000Y19698000D01*
X34891000Y19698000D02*
X38751000Y19698000D01*
X34891000Y6678000D02*
X31031000Y6678000D01*
X34891000Y6678000D02*
X38751000Y6678000D01*
X38751000Y19698000D02*
X38751000Y19463000D01*
X38751000Y6678000D02*
X38751000Y6913000D01*
%TO.C,R3*%
X180958258Y32554500D02*
X180483742Y32554500D01*
X180958258Y33599500D02*
X180483742Y33599500D01*
%TO.C,R13*%
X23943000Y46357064D02*
X23943000Y44902936D01*
X22123000Y46357064D02*
X22123000Y44902936D01*
D15*
%TO.C,N2*%
X38370001Y32500000D02*
G75*
G03*
X53609999Y32657480I7619999J78740D01*
G01*
X54862220Y32500000D02*
G75*
G03*
X37117780Y32500000I-8872220J0D01*
G01*
X37117780Y32500000D02*
G75*
G03*
X54862220Y32500000I8872220J0D01*
G01*
D14*
%TO.C,C17*%
X7671000Y18364233D02*
X7671000Y18656767D01*
X8691000Y18364233D02*
X8691000Y18656767D01*
%TO.C,C4*%
X206218500Y6601252D02*
X206218500Y5178748D01*
X204398500Y6601252D02*
X204398500Y5178748D01*
%TO.C,Q1*%
X193559678Y35326800D02*
X200533078Y35326800D01*
X193959678Y30145200D02*
X200558478Y30145200D01*
%TO.C,C11*%
X181763580Y41370000D02*
X181482420Y41370000D01*
X181763580Y42390000D02*
X181482420Y42390000D01*
%TO.C,U6*%
X67868000Y19698000D02*
X67868000Y19463000D01*
X67868000Y19463000D02*
X66053000Y19463000D01*
X67868000Y6678000D02*
X67868000Y6913000D01*
X71728000Y19698000D02*
X67868000Y19698000D01*
X71728000Y19698000D02*
X75588000Y19698000D01*
X71728000Y6678000D02*
X67868000Y6678000D01*
X71728000Y6678000D02*
X75588000Y6678000D01*
X75588000Y19698000D02*
X75588000Y19463000D01*
X75588000Y6678000D02*
X75588000Y6913000D01*
%TO.C,C9*%
X192934748Y38957000D02*
X193457252Y38957000D01*
X192934748Y37487000D02*
X193457252Y37487000D01*
%TO.C,R19*%
X33173000Y40223064D02*
X33173000Y39768936D01*
X31703000Y40223064D02*
X31703000Y39768936D01*
D13*
%TO.C,mouse-bite-3mm-slot*%
X127009678Y9802000D02*
G75*
G03*
X125009678Y9802000I-1000000J0D01*
G01*
X125009678Y15326000D02*
G75*
G03*
X127009678Y15326000I1000000J0D01*
G01*
D14*
%TO.C,C3*%
X203805000Y6601252D02*
X203805000Y5178748D01*
X201985000Y6601252D02*
X201985000Y5178748D01*
%TO.C,C16*%
X238902000Y25388748D02*
X238902000Y26811252D01*
X240722000Y25388748D02*
X240722000Y26811252D01*
%TO.C,R22*%
X68533000Y39768936D02*
X68533000Y40223064D01*
X70003000Y39768936D02*
X70003000Y40223064D01*
D15*
%TO.C,N4*%
X94377001Y32500000D02*
G75*
G03*
X109616999Y32657480I7619999J78740D01*
G01*
X110869220Y32500000D02*
G75*
G03*
X93124780Y32500000I-8872220J0D01*
G01*
X93124780Y32500000D02*
G75*
G03*
X110869220Y32500000I8872220J0D01*
G01*
D14*
%TO.C,R17*%
X122629000Y5137064D02*
X122629000Y3682936D01*
X120809000Y5137064D02*
X120809000Y3682936D01*
%TO.C,R14*%
X46903000Y46357064D02*
X46903000Y44902936D01*
X45083000Y46357064D02*
X45083000Y44902936D01*
%TO.C,U8*%
X104598000Y19698000D02*
X104598000Y19463000D01*
X104598000Y19463000D02*
X102783000Y19463000D01*
X104598000Y6678000D02*
X104598000Y6913000D01*
X108458000Y19698000D02*
X104598000Y19698000D01*
X108458000Y19698000D02*
X112318000Y19698000D01*
X108458000Y6678000D02*
X104598000Y6678000D01*
X108458000Y6678000D02*
X112318000Y6678000D01*
X112318000Y19698000D02*
X112318000Y19463000D01*
X112318000Y6678000D02*
X112318000Y6913000D01*
%TO.C,C5*%
X208632000Y6601252D02*
X208632000Y5178748D01*
X206812000Y6601252D02*
X206812000Y5178748D01*
D15*
%TO.C,N1*%
X15383001Y32500000D02*
G75*
G03*
X30622999Y32657480I7619999J78740D01*
G01*
X31875220Y32500000D02*
G75*
G03*
X14130780Y32500000I-8872220J0D01*
G01*
X14130780Y32500000D02*
G75*
G03*
X31875220Y32500000I8872220J0D01*
G01*
D14*
%TO.C,R12*%
X242966000Y36802936D02*
X242966000Y38257064D01*
X244786000Y36802936D02*
X244786000Y38257064D01*
%TO.C,J4*%
X169662000Y16768000D02*
X169662000Y11048000D01*
X169662000Y11048000D02*
X173772000Y11048000D01*
X170732000Y16768000D02*
X169662000Y16768000D01*
X170732000Y16468000D02*
X170732000Y16768000D01*
X171022000Y17058000D02*
X170522000Y17058000D01*
X171022000Y16758000D02*
X171022000Y17058000D01*
X173772000Y16468000D02*
X170732000Y16468000D01*
X173772000Y16468000D02*
X176812000Y16468000D01*
X176812000Y16768000D02*
X177882000Y16768000D01*
X176812000Y16468000D02*
X176812000Y16768000D01*
X177882000Y16768000D02*
X177882000Y11048000D01*
X177882000Y11048000D02*
X173772000Y11048000D01*
%TO.C,R16*%
X100277000Y46357064D02*
X100277000Y44902936D01*
X98457000Y46357064D02*
X98457000Y44902936D01*
%TO.C,R8*%
X239205064Y41954000D02*
X237750936Y41954000D01*
X239205064Y43774000D02*
X237750936Y43774000D01*
%TO.C,R10*%
X173237000Y50203064D02*
X173237000Y49748936D01*
X171767000Y50203064D02*
X171767000Y49748936D01*
%TO.C,R18*%
X12653000Y39768936D02*
X12653000Y40223064D01*
X14123000Y39768936D02*
X14123000Y40223064D01*
%TO.C,C6*%
X210700500Y6751252D02*
X210700500Y6228748D01*
X209230500Y6751252D02*
X209230500Y6228748D01*
D13*
%TO.C,mouse-bite-3mm-slot*%
X127009678Y39802000D02*
G75*
G03*
X125009678Y39802000I-1000000J0D01*
G01*
X125009678Y45326000D02*
G75*
G03*
X127009678Y45326000I1000000J0D01*
G01*
D14*
%TO.C,R6*%
X191588564Y30985000D02*
X191134436Y30985000D01*
X191588564Y32455000D02*
X191134436Y32455000D01*
%TO.C,J1*%
X194170000Y51351600D02*
X194170000Y49651600D01*
X184830000Y51351600D02*
X184830000Y49651600D01*
%TO.C,D1*%
X197348000Y29141000D02*
X197348000Y27441000D01*
X197348000Y29141000D02*
X200008000Y29141000D01*
X197348000Y27441000D02*
X200008000Y27441000D01*
%TD*%
M02*
