%TF.GenerationSoftware,KiCad,Pcbnew,7.0.10*%
%TF.CreationDate,2024-03-25T13:31:30+02:00*%
%TF.ProjectId,Sulari_panel,53756c61-7269-45f7-9061-6e656c2e6b69,rev?*%
%TF.SameCoordinates,PX15bc0b2PY718c5c0*%
%TF.FileFunction,Profile,NP*%
%FSLAX46Y46*%
G04 Gerber Fmt 4.6, Leading zero omitted, Abs format (unit mm)*
G04 Created by KiCad (PCBNEW 7.0.10) date 2024-03-25 13:31:30*
%MOMM*%
%LPD*%
G01*
G04 APERTURE LIST*
%TA.AperFunction,Profile*%
%ADD10C,0.100000*%
%TD*%
G04 APERTURE END LIST*
D10*
X127009678Y24814000D02*
X127009678Y15364000D01*
X0Y55000000D02*
X0Y0D01*
X125009678Y45364000D02*
X125000000Y55000000D01*
X125009678Y30364000D02*
X125009678Y39814000D01*
X125009678Y45364000D02*
G75*
G03*
X127009678Y45364000I1000000J0D01*
G01*
X127000000Y55000000D02*
X252000000Y55000000D01*
X127009678Y24814000D02*
G75*
G03*
X125009678Y24814000I-1000000J0D01*
G01*
X127009678Y9804000D02*
G75*
G03*
X125009678Y9804000I-1000000J0D01*
G01*
X127009678Y9804000D02*
X127000000Y0D01*
X141768000Y2986000D02*
X161072000Y2986000D01*
X125000000Y55000000D02*
X0Y55000000D01*
X252000000Y0D02*
X161072000Y0D01*
X141768000Y0D02*
X127000000Y0D01*
X252000000Y55000000D02*
X252000000Y0D01*
X127009678Y39814000D02*
X127009678Y30364000D01*
X125000000Y0D02*
X125009678Y9804000D01*
X161072000Y0D02*
X161072000Y2986000D01*
X125009678Y15364000D02*
G75*
G03*
X127009678Y15364000I1000000J0D01*
G01*
X141768000Y0D02*
X141768000Y2986000D01*
X127000000Y55000000D02*
X127009678Y45364000D01*
X125009678Y15364000D02*
X125009678Y24814000D01*
X125009678Y30364000D02*
G75*
G03*
X127009678Y30364000I1000000J0D01*
G01*
X0Y0D02*
X125000000Y0D01*
X127009678Y39814000D02*
G75*
G03*
X125009678Y39814000I-1000000J0D01*
G01*
M02*
