M48
; DRILL file {KiCad 7.0.10} date Mon Mar 25 13:31:20 2024
; FORMAT={-:-/ absolute / metric / decimal}
; #@! TF.CreationDate,2024-03-25T13:31:20+02:00
; #@! TF.GenerationSoftware,Kicad,Pcbnew,7.0.10
; #@! TF.FileFunction,NonPlated,1,2,NPTH
FMAT,2
METRIC
; #@! TA.AperFunction,NonPlated,NPTH,ComponentDrill
T1C0.500
%
G90
G05
T1
X125.26Y44.088
X125.26Y43.326
X125.26Y42.552
X125.26Y41.802
X125.26Y41.052
X125.26Y29.088
X125.26Y28.326
X125.26Y27.552
X125.26Y26.802
X125.26Y26.052
X125.26Y14.088
X125.26Y13.326
X125.26Y12.552
X125.26Y11.802
X125.26Y11.052
X126.76Y44.088
X126.76Y43.326
X126.76Y42.552
X126.76Y41.802
X126.76Y41.052
X126.76Y29.088
X126.76Y28.326
X126.76Y27.552
X126.76Y26.802
X126.76Y26.052
X126.76Y14.088
X126.76Y13.326
X126.76Y12.552
X126.76Y11.802
X126.76Y11.052
M30
