M48
; DRILL file {KiCad 7.0.10} date Mon Mar 25 13:31:20 2024
; FORMAT={-:-/ absolute / metric / decimal}
; #@! TF.CreationDate,2024-03-25T13:31:20+02:00
; #@! TF.GenerationSoftware,Kicad,Pcbnew,7.0.10
; #@! TF.FileFunction,Plated,1,2,PTH
FMAT,2
METRIC
; #@! TA.AperFunction,Plated,PTH,ComponentDrill
T1C0.200
; #@! TA.AperFunction,Plated,PTH,ViaDrill
T2C0.300
; #@! TA.AperFunction,Plated,PTH,ViaDrill
T3C0.400
; #@! TA.AperFunction,Plated,PTH,ComponentDrill
T4C0.500
; #@! TA.AperFunction,Plated,PTH,ComponentDrill
T5C0.600
; #@! TA.AperFunction,Plated,PTH,ComponentDrill
T6C0.800
; #@! TA.AperFunction,Plated,PTH,ComponentDrill
T7C1.000
; #@! TA.AperFunction,Plated,PTH,ComponentDrill
T8C1.440
; #@! TA.AperFunction,Plated,PTH,ComponentDrill
T9C3.200
%
G90
G05
T1
X186.089Y37.283
X186.089Y35.983
X187.189Y37.283
X187.189Y35.983
T2
X185.964Y41.848
X185.964Y40.324
X186.599Y41.086
X187.234Y41.848
X187.234Y40.324
T3
X4.244Y7.992
X4.244Y4.69
X6.403Y7.484
X6.403Y4.69
X6.696Y19.373
X8.181Y20.978
X8.689Y7.484
X8.689Y4.69
X10.711Y20.388
X13.161Y7.458
X14.871Y7.458
X14.912Y2.912
X16.563Y3.801
X16.581Y7.458
X18.291Y7.458
X20.361Y20.378
X22.659Y18.903
X22.659Y17.633
X22.659Y16.12
X25.834Y7.611
X25.834Y2.023
X26.043Y19.36
X27.611Y20.938
X27.612Y7.611
X27.612Y4.69
X27.993Y16.12
X30.231Y20.478
X32.151Y7.488
X33.962Y2.912
X33.982Y7.484
X35.814Y7.484
X35.867Y3.801
X37.645Y7.484
X39.531Y20.378
X41.963Y18.903
X41.963Y17.633
X41.963Y16.12
X43.741Y7.484
X43.741Y2.023
X43.801Y19.328
X45.081Y20.692
X45.392Y7.484
X45.392Y4.69
X45.519Y16.12
X47.081Y20.628
X49.583Y7.478
X51.488Y2.912
X51.502Y7.484
X53.393Y3.801
X53.422Y7.484
X55.341Y7.478
X57.091Y20.378
X59.489Y18.914
X59.489Y17.644
X59.489Y16.12
X62.41Y7.484
X62.41Y2.023
X62.537Y19.378
X64.188Y7.484
X64.188Y4.69
X64.191Y20.818
X64.569Y16.12
X66.321Y20.448
X69.141Y7.484
X70.792Y2.912
X70.834Y7.484
X72.528Y7.484
X72.57Y3.801
X74.221Y7.484
X76.371Y20.438
X78.793Y18.914
X78.793Y17.648
X78.793Y16.12
X81.587Y7.484
X81.587Y2.023
X82.091Y19.378
X83.365Y7.484
X83.365Y4.69
X83.631Y20.898
X83.873Y16.12
X86.211Y20.548
X88.191Y7.484
X89.969Y7.484
X89.969Y2.912
X91.747Y7.484
X91.747Y3.801
X93.525Y7.484
X95.561Y20.608
X97.843Y18.914
X97.843Y17.644
X97.843Y16.12
X99.711Y19.368
X99.875Y7.484
X99.875Y2.023
X101.101Y20.838
X101.399Y7.484
X101.399Y4.69
X101.653Y16.12
X103.131Y20.438
X105.717Y7.473
X106.352Y50.791
X107.495Y7.484
X107.495Y2.785
X108.257Y49.013
X108.283Y52.542
X109.273Y7.484
X109.273Y3.801
X111.051Y7.484
X113.111Y20.398
X115.101Y17.628
X115.111Y18.918
X115.115Y10.024
X116.385Y7.738
X116.385Y1.134
X117.655Y40.504
X118.671Y10.024
X118.925Y7.738
X118.925Y4.69
X166.152Y38.927
X166.152Y35.625
X167.93Y52.313
X168.438Y38.927
X168.438Y35.625
X169.581Y29.656
X172.502Y47.69
X174.026Y29.656
X175.042Y13.654
X178.471Y37.403
X178.471Y34.482
X178.471Y33.085
X179.36Y41.848
X179.36Y40.197
X179.868Y38.419
X181.646Y36.006
X182.396Y38.722
X186.015Y33.618
X186.726Y47.182
X188.885Y31.688
X190.409Y30.037
X190.83Y35.403
X190.896Y39.972
X190.896Y37.472
X192.314Y47.182
X194.219Y39.816
X194.894Y29.18
X195.489Y38.292
X202.474Y2.986
X203.998Y2.986
X205.522Y2.986
X207.046Y2.986
X208.57Y2.986
X209.332Y4.002
X210.094Y2.986
X210.856Y4.002
X211.618Y2.986
X212.38Y4.002
X222.032Y32.196
X223.302Y36.006
X223.302Y33.593
X223.302Y30.926
X225.842Y36.006
X225.842Y33.593
X227.112Y34.736
X228.382Y36.006
X228.382Y33.593
X229.652Y34.736
X230.922Y36.006
X230.922Y33.593
X232.192Y34.736
X233.462Y36.006
X233.462Y33.593
X234.732Y34.736
X236.002Y36.006
X236.002Y33.593
X239.812Y29.656
T4
X130.6Y49.0
X130.6Y6.0
X131.303Y50.697
X131.303Y47.303
X131.303Y7.697
X131.303Y4.303
X133.0Y51.4
X133.0Y46.6
X133.0Y8.4
X133.0Y3.6
X134.697Y50.697
X134.697Y47.303
X134.697Y7.697
X134.697Y4.303
X135.4Y49.0
X135.4Y6.0
X171.272Y15.608
X172.522Y15.608
X173.772Y15.608
X175.022Y15.608
X176.272Y15.608
X243.6Y49.0
X243.6Y6.0
X244.303Y50.697
X244.303Y47.303
X244.303Y7.697
X244.303Y4.303
X246.0Y51.4
X246.0Y46.6
X246.0Y8.4
X246.0Y3.6
X247.697Y50.697
X247.697Y47.303
X247.697Y7.697
X247.697Y4.303
X248.4Y49.0
X248.4Y6.0
T6
X140.117Y42.356
X140.117Y39.816
X140.117Y37.276
X140.117Y34.736
X140.117Y32.196
X140.117Y29.656
X140.117Y27.116
X140.117Y24.576
X140.117Y22.036
X140.117Y19.496
X140.117Y16.956
X140.117Y14.416
X140.117Y11.876
X140.117Y9.336
X140.117Y6.796
X140.117Y4.256
X162.977Y42.356
X162.977Y39.816
X162.977Y37.276
X162.977Y34.736
X162.977Y32.196
X162.977Y29.656
X162.977Y27.116
X162.977Y24.576
X162.977Y22.036
X162.977Y19.496
X162.977Y16.956
X162.977Y14.416
X162.977Y11.876
X162.977Y9.336
X162.977Y6.796
X162.977Y4.256
X194.894Y18.004
X194.894Y8.733
X198.394Y18.004
X198.394Y8.733
T7
X3.0Y30.055
X3.0Y27.515
X3.0Y24.975
X61.0Y25.0
X61.0Y22.46
X122.0Y33.875
X122.0Y31.335
X122.0Y28.795
X122.0Y26.255
X122.0Y23.715
X122.0Y21.175
X130.0Y33.85
X130.0Y31.31
X130.0Y28.77
X130.0Y26.23
X130.0Y23.69
X130.0Y21.15
X191.0Y25.0
X191.0Y22.46
X228.93Y31.427
X228.93Y23.927
X234.899Y31.427
X234.899Y23.927
X249.0Y30.04
X249.0Y27.5
X249.0Y24.96
T8
X16.859Y33.244
X17.217Y30.305
X17.91Y36.015
X18.898Y27.867
X20.128Y37.979
X21.522Y26.49
X23.003Y38.687
X24.484Y26.49
X25.878Y37.979
X27.108Y27.867
X28.096Y36.015
X28.789Y30.305
X29.147Y33.244
X39.846Y33.244
X40.204Y30.305
X40.897Y36.015
X41.885Y27.867
X43.115Y37.979
X44.509Y26.49
X45.99Y38.687
X47.471Y26.49
X48.865Y37.979
X50.095Y27.867
X51.083Y36.015
X51.776Y30.305
X52.134Y33.244
X72.866Y33.244
X73.224Y30.305
X73.917Y36.015
X74.905Y27.867
X76.135Y37.979
X77.529Y26.49
X79.01Y38.687
X80.491Y26.49
X81.885Y37.979
X83.115Y27.867
X84.103Y36.015
X84.796Y30.305
X85.154Y33.244
X95.853Y33.244
X96.211Y30.305
X96.904Y36.015
X97.892Y27.867
X99.122Y37.979
X100.516Y26.49
X101.997Y38.687
X103.478Y26.49
X104.872Y37.979
X106.102Y27.867
X107.09Y36.015
X107.783Y30.305
X108.141Y33.244
T9
X133.0Y49.0
X133.0Y6.0
X246.0Y49.0
X246.0Y6.0
T5
G00X185.18Y52.102
M15
G01X185.18Y52.702
M16
G05
G00X185.18Y48.302
M15
G01X185.18Y48.902
M16
G05
G00X193.82Y52.102
M15
G01X193.82Y52.702
M16
G05
G00X193.82Y48.302
M15
G01X193.82Y48.902
M16
G05
M30
