%TF.GenerationSoftware,KiCad,Pcbnew,7.0.10*%
%TF.CreationDate,2024-03-25T13:31:30+02:00*%
%TF.ProjectId,Sulari_panel,53756c61-7269-45f7-9061-6e656c2e6b69,rev?*%
%TF.SameCoordinates,PX15bc0b2PY718c5c0*%
%TF.FileFunction,Soldermask,Bot*%
%TF.FilePolarity,Negative*%
%FSLAX46Y46*%
G04 Gerber Fmt 4.6, Leading zero omitted, Abs format (unit mm)*
G04 Created by KiCad (PCBNEW 7.0.10) date 2024-03-25 13:31:30*
%MOMM*%
%LPD*%
G01*
G04 APERTURE LIST*
G04 Aperture macros list*
%AMRoundRect*
0 Rectangle with rounded corners*
0 $1 Rounding radius*
0 $2 $3 $4 $5 $6 $7 $8 $9 X,Y pos of 4 corners*
0 Add a 4 corners polygon primitive as box body*
4,1,4,$2,$3,$4,$5,$6,$7,$8,$9,$2,$3,0*
0 Add four circle primitives for the rounded corners*
1,1,$1+$1,$2,$3*
1,1,$1+$1,$4,$5*
1,1,$1+$1,$6,$7*
1,1,$1+$1,$8,$9*
0 Add four rect primitives between the rounded corners*
20,1,$1+$1,$2,$3,$4,$5,0*
20,1,$1+$1,$4,$5,$6,$7,0*
20,1,$1+$1,$6,$7,$8,$9,0*
20,1,$1+$1,$8,$9,$2,$3,0*%
G04 Aperture macros list end*
%ADD10C,2.100000*%
%ADD11C,0.500000*%
%ADD12C,2.000000*%
%ADD13R,1.600000X1.600000*%
%ADD14C,1.600000*%
%ADD15RoundRect,0.200000X-0.200000X-0.450000X0.200000X-0.450000X0.200000X0.450000X-0.200000X0.450000X0*%
%ADD16O,0.800000X1.300000*%
%ADD17O,1.100000X1.700000*%
%ADD18C,0.800000*%
%ADD19C,6.400000*%
%ADD20R,2.000000X1.200000*%
%ADD21O,2.000000X1.200000*%
%ADD22R,1.700000X1.700000*%
%ADD23O,1.700000X1.700000*%
%ADD24RoundRect,0.250000X-0.350000X-0.450000X0.350000X-0.450000X0.350000X0.450000X-0.350000X0.450000X0*%
G04 APERTURE END LIST*
D10*
%TO.C,N3*%
X84102700Y36015360D03*
X73917300Y36015360D03*
X72865740Y33244220D03*
X73223880Y30305440D03*
X74905360Y27867040D03*
X77529180Y26490360D03*
X80490820Y26490360D03*
X83114640Y27867040D03*
X84796120Y30305440D03*
X85154260Y33244220D03*
X79010000Y38687440D03*
X76134720Y37978780D03*
X81885280Y37978780D03*
%TD*%
D11*
%TO.C,mouse-bite-3mm-slot*%
X125259678Y26052000D03*
X126759678Y26052000D03*
X125259678Y26802000D03*
X126759678Y26802000D03*
X125259678Y27552000D03*
X126759678Y27552000D03*
X125259678Y28326000D03*
X126759678Y28326000D03*
X125259678Y29088000D03*
X126759678Y29088000D03*
%TD*%
D12*
%TO.C,C14*%
X228930000Y23926905D03*
X228930000Y31426905D03*
%TD*%
D13*
%TO.C,C1*%
X198394000Y18004000D03*
D14*
X194894000Y18004000D03*
%TD*%
D13*
%TO.C,C2*%
X198394000Y8733000D03*
D14*
X194894000Y8733000D03*
%TD*%
D12*
%TO.C,C15*%
X234899000Y23926905D03*
X234899000Y31426905D03*
%TD*%
D10*
%TO.C,N2*%
X51082700Y36015360D03*
X40897300Y36015360D03*
X39845740Y33244220D03*
X40203880Y30305440D03*
X41885360Y27867040D03*
X44509180Y26490360D03*
X47470820Y26490360D03*
X50094640Y27867040D03*
X51776120Y30305440D03*
X52134260Y33244220D03*
X45990000Y38687440D03*
X43114720Y37978780D03*
X48865280Y37978780D03*
%TD*%
D11*
%TO.C,mouse-bite-3mm-slot*%
X125259678Y11052000D03*
X126759678Y11052000D03*
X125259678Y11802000D03*
X126759678Y11802000D03*
X125259678Y12552000D03*
X126759678Y12552000D03*
X125259678Y13326000D03*
X126759678Y13326000D03*
X125259678Y14088000D03*
X126759678Y14088000D03*
%TD*%
D10*
%TO.C,N4*%
X107089700Y36015360D03*
X96904300Y36015360D03*
X95852740Y33244220D03*
X96210880Y30305440D03*
X97892360Y27867040D03*
X100516180Y26490360D03*
X103477820Y26490360D03*
X106101640Y27867040D03*
X107783120Y30305440D03*
X108141260Y33244220D03*
X101997000Y38687440D03*
X99121720Y37978780D03*
X104872280Y37978780D03*
%TD*%
%TO.C,N1*%
X28095700Y36015360D03*
X17910300Y36015360D03*
X16858740Y33244220D03*
X17216880Y30305440D03*
X18898360Y27867040D03*
X21522180Y26490360D03*
X24483820Y26490360D03*
X27107640Y27867040D03*
X28789120Y30305440D03*
X29147260Y33244220D03*
X23003000Y38687440D03*
X20127720Y37978780D03*
X25878280Y37978780D03*
%TD*%
D15*
%TO.C,J4*%
X171272000Y15608000D03*
D16*
X172522000Y15608000D03*
X173772000Y15608000D03*
X175022000Y15608000D03*
X176272000Y15608000D03*
%TD*%
D11*
%TO.C,mouse-bite-3mm-slot*%
X125259678Y41052000D03*
X126759678Y41052000D03*
X125259678Y41802000D03*
X126759678Y41802000D03*
X125259678Y42552000D03*
X126759678Y42552000D03*
X125259678Y43326000D03*
X126759678Y43326000D03*
X125259678Y44088000D03*
X126759678Y44088000D03*
%TD*%
D17*
%TO.C,J1*%
X193820000Y48601600D03*
X193820000Y52401600D03*
X185180000Y48601600D03*
X185180000Y52401600D03*
%TD*%
D18*
%TO.C,H3*%
X248400000Y6000000D03*
X247697056Y4302944D03*
X247697056Y7697056D03*
X246000000Y3600000D03*
D19*
X246000000Y6000000D03*
D18*
X246000000Y8400000D03*
X244302944Y4302944D03*
X244302944Y7697056D03*
X243600000Y6000000D03*
%TD*%
D20*
%TO.C,U2*%
X162977000Y4256000D03*
D21*
X162977000Y6796000D03*
X162977000Y9336000D03*
X162977000Y11876000D03*
X162977000Y14416000D03*
X162977000Y16956000D03*
X162977000Y19496000D03*
X162977000Y22036000D03*
X162977000Y24576000D03*
X162977000Y27116000D03*
X162977000Y29656000D03*
X162977000Y32196000D03*
X162977000Y34736000D03*
X162977000Y37276000D03*
X162977000Y39816000D03*
X162977000Y42356000D03*
X140117000Y42356000D03*
X140117000Y39816000D03*
X140117000Y37276000D03*
X140117000Y34736000D03*
X140117000Y32196000D03*
X140117000Y29656000D03*
X140117000Y27116000D03*
X140117000Y24576000D03*
X140117000Y22036000D03*
X140117000Y19496000D03*
X140117000Y16956000D03*
X140117000Y14416000D03*
X140117000Y11876000D03*
X140117000Y9336000D03*
X140117000Y6796000D03*
X140117000Y4256000D03*
%TD*%
D22*
%TO.C,J2*%
X249000000Y30040000D03*
D23*
X249000000Y27500000D03*
X249000000Y24960000D03*
%TD*%
D24*
%TO.C,R5*%
X192481000Y35403000D03*
X194481000Y35403000D03*
%TD*%
D18*
%TO.C,H4*%
X135400000Y49000000D03*
X134697056Y47302944D03*
X134697056Y50697056D03*
X133000000Y46600000D03*
D19*
X133000000Y49000000D03*
D18*
X133000000Y51400000D03*
X131302944Y47302944D03*
X131302944Y50697056D03*
X130600000Y49000000D03*
%TD*%
D22*
%TO.C,J6*%
X3000000Y24975000D03*
D23*
X3000000Y27515000D03*
X3000000Y30055000D03*
%TD*%
D18*
%TO.C,H1*%
X248400000Y49000000D03*
X247697056Y47302944D03*
X247697056Y50697056D03*
X246000000Y46600000D03*
D19*
X246000000Y49000000D03*
D18*
X246000000Y51400000D03*
X244302944Y47302944D03*
X244302944Y50697056D03*
X243600000Y49000000D03*
%TD*%
D22*
%TO.C,J5*%
X191000000Y25000000D03*
D23*
X191000000Y22460000D03*
%TD*%
D22*
%TO.C,J3*%
X130000000Y21150000D03*
D23*
X130000000Y23690000D03*
X130000000Y26230000D03*
X130000000Y28770000D03*
X130000000Y31310000D03*
X130000000Y33850000D03*
%TD*%
D22*
%TO.C,J8*%
X61000000Y25000000D03*
D23*
X61000000Y22460000D03*
%TD*%
D22*
%TO.C,J7*%
X122000000Y21175000D03*
D23*
X122000000Y23715000D03*
X122000000Y26255000D03*
X122000000Y28795000D03*
X122000000Y31335000D03*
X122000000Y33875000D03*
%TD*%
D18*
%TO.C,H2*%
X135400000Y6000000D03*
X134697056Y4302944D03*
X134697056Y7697056D03*
X133000000Y3600000D03*
D19*
X133000000Y6000000D03*
D18*
X133000000Y8400000D03*
X131302944Y4302944D03*
X131302944Y7697056D03*
X130600000Y6000000D03*
%TD*%
M02*
